<?xml version="1.0" encoding="UTF-8"?>
<svg version="1.1" xmlns="http://www.w3.org/2000/svg" width="512" height="512">
<path d="M0 0 C7.61180724 5.32152896 12.53409213 12.03404552 15 21 C16.06288166 32.81528916 15.04328632 42.39976616 7.3125 51.8125 C-0.50822367 59.94950293 -7.93676809 61.7189942 -19 63 C-19 57.06 -19 51.12 -19 45 C-16.9271875 44.4121875 -16.9271875 44.4121875 -14.8125 43.8125 C-9.52740663 42.04249231 -6.55040327 39.53702353 -3.625 34.75 C-2.47910239 29.70805053 -3.24913282 24.9875896 -5.0625 20.1875 C-8.75214062 16.02177672 -13.11429373 14.26466053 -18.5625 13.5 C-23.69594609 14.24668307 -27.32048555 16.1525341 -30.875 20.0625 C-33.31795933 24.26981884 -33.13564479 28.25116488 -33.11352539 32.9597168 C-33.11367142 33.76970123 -33.11381744 34.57968567 -33.1139679 35.41421509 C-33.113271 38.09257685 -33.10548903 40.77086913 -33.09765625 43.44921875 C-33.09579128 45.30581118 -33.09436775 47.1624041 -33.09336853 49.01899719 C-33.0895496 53.90655881 -33.07972461 58.79409074 -33.06866455 63.68164062 C-33.05843704 68.66861571 -33.05386803 73.65559558 -33.04882812 78.64257812 C-33.03810181 88.42839847 -33.02103284 98.21419676 -33 108 C-32.6359758 107.52134995 -32.2719516 107.04269989 -31.89689636 106.54954529 C-30.21774247 104.34321846 -28.53661815 102.13840039 -26.85546875 99.93359375 C-26.28308472 99.1809021 -25.71070068 98.42821045 -25.12097168 97.65270996 C-11.40504317 79.67759912 3.98794571 62.66651003 22.2890625 49.26220703 C24.05638875 47.95840042 25.79439123 46.62140962 27.53125 45.27734375 C70.79413232 12.17203639 125.1354798 -4.48460856 179.25 -4.375 C180.26201477 -4.37445618 181.27402954 -4.37391235 182.31671143 -4.37335205 C198.85117395 -4.3326051 214.77064864 -3.40886907 231 0 C232.01529785 0.20898926 233.0305957 0.41797852 234.07666016 0.63330078 C271.10737024 8.50151628 306.22979285 24.57246014 336 48 C337.4540625 49.13695313 337.4540625 49.13695313 338.9375 50.296875 C354.32374823 62.62335796 368.87793448 76.43640774 381 92 C382.14662109 93.40378906 382.14662109 93.40378906 383.31640625 94.8359375 C418.70416076 139.02802901 436.48934184 195.10597869 436.375 251.3125 C436.37418427 252.82677582 436.37418427 252.82677582 436.37335205 254.37164307 C436.33258601 270.88123539 435.42529309 286.79782001 432 303 C431.78037598 304.04188477 431.56075195 305.08376953 431.33447266 306.15722656 C420.08325616 357.73923682 393.83939065 401.05864403 356.9375 438.1875 C355.97215332 439.15997681 355.97215332 439.15997681 354.98730469 440.15209961 C354.38176758 440.75546143 353.77623047 441.35882324 353.15234375 441.98046875 C352.3478479 442.78327271 352.3478479 442.78327271 351.52709961 443.60229492 C350 445 350 445 347 447 C346.52373491 449.2522311 346.52373491 449.2522311 346.55859375 451.875 C346.53216797 452.86113281 346.50574219 453.84726562 346.47851562 454.86328125 C346.46498047 455.89839844 346.45144531 456.93351562 346.4375 458 C346.18255941 472.71101639 344.28337629 485.6354648 333.875 496.875 C323.74494509 506.33430425 312.88705572 508.49396142 299.56640625 508.27734375 C287.59075941 507.78317315 278.95324651 501.45032442 271 493 C266.13104735 494.45492751 261.26495042 495.91550089 256.4140625 497.4296875 C235.66276836 503.76620857 213.91032475 508.04298623 192.1640625 508.23828125 C191.25499649 508.2480751 190.34593048 508.25786896 189.40931702 508.26795959 C168.94583706 508.44294489 149.11639862 508.20299395 129 504 C127.47487793 503.68651611 127.47487793 503.68651611 125.91894531 503.36669922 C88.77711319 495.47361646 53.91408619 479.36981568 24 456 C23.02804688 455.24074219 22.05609375 454.48148437 21.0546875 453.69921875 C5.67508356 441.36486402 -8.87765196 427.56395499 -21 412 C-22.14662109 410.59621094 -22.14662109 410.59621094 -23.31640625 409.1640625 C-48.9032721 377.21128299 -65.41301276 338.04488322 -73 298 C-73.16371094 297.19062988 -73.32742187 296.38125977 -73.49609375 295.54736328 C-79.36542827 265.51553079 -78.28637252 230.85309325 -72 201 C-71.78569336 199.96875 -71.57138672 198.9375 -71.35058594 197.875 C-68.06739019 182.58209404 -63.90230619 166.50955709 -56.72921848 152.52196312 C-53.1576704 145.50916156 -52.29351764 139.83845426 -52.40405273 132.03369141 C-52.3999942 130.89229202 -52.39593567 129.75089264 -52.39175415 128.5749054 C-52.38626581 126.1152711 -52.39216323 123.65558968 -52.40841484 121.19600296 C-52.433977 117.29304609 -52.42898857 113.39113805 -52.41651917 109.48812866 C-52.39595549 101.9027049 -52.4113857 94.31757687 -52.43199158 86.7321701 C-52.45893262 76.42625238 -52.46496899 66.12065739 -52.43699837 55.81473923 C-52.43365796 51.98762456 -52.45479007 48.16117341 -52.47740173 44.33413696 C-52.51221541 15.3289191 -52.51221541 15.3289191 -41.4453125 4.09765625 C-30.27017351 -5.48868502 -12.87868811 -7.83819618 0 0 Z " fill="#242424" transform="translate(76,4)"/>
<path d="M0 0 C0.78391113 0.2676416 1.56782227 0.5352832 2.37548828 0.81103516 C4.70447485 1.62720844 7.01035205 2.48612909 9.3125 3.375 C9.98829102 3.63031494 10.66408203 3.88562988 11.36035156 4.14868164 C35.37312533 14.20032964 52.96010652 54.60505197 62.25048828 77.01660156 C66.75757212 88.39325185 70.46811819 99.9589885 73.5 111.8125 C73.74339111 112.7597998 73.98678223 113.70709961 74.23754883 114.68310547 C76.54290697 124.24625961 78.25381312 133.68249777 75.0625 143.1875 C74.72351685 144.2535144 74.72351685 144.2535144 74.37768555 145.34106445 C64.54546996 174.97449593 43.89055599 199.69443367 16 214 C-12.7034089 227.66723855 -44.69065115 230.1347825 -74.82958984 219.79345703 C-91.52233923 213.69093335 -105.19355716 204.22748973 -118 192 C-118.59941406 191.46375 -119.19882812 190.9275 -119.81640625 190.375 C-140.03547685 171.6102013 -151.02906758 141.64118522 -152.24609375 114.58203125 C-153.08143299 81.6142258 -140.71285245 52.78115877 -118.50390625 28.54296875 C-106.30115798 16.14985 -91.83613998 7.80246563 -76 1 C-75.23558594 0.67128906 -74.47117187 0.34257813 -73.68359375 0.00390625 C-51.10603838 -8.52342875 -22.51341385 -7.84991264 0 0 Z " fill="#252525" transform="translate(416,88)"/>
<path d="M0 0 C0.79019531 0.4846875 1.58039063 0.969375 2.39453125 1.46875 C16.16828448 9.65429477 30.38611771 15.88111075 46.0703125 19.30859375 C49 20 49 20 50 21 C50.08651611 22.41570123 50.10704904 23.835595 50.09765625 25.25390625 C50.09443359 26.10791016 50.09121094 26.96191406 50.08789062 27.84179688 C50.07951172 28.73962891 50.07113281 29.63746094 50.0625 30.5625 C50.05798828 31.46419922 50.05347656 32.36589844 50.04882812 33.29492188 C50.03700244 35.52997589 50.01906638 37.76499602 50 40 C44.72 40 39.44 40 34 40 C34 84.22 34 128.44 34 174 C15.52560584 179.73343267 -1.0776674 184.76166596 -20 187 C-20.65417404 187.08441345 -21.30834808 187.1688269 -21.98234558 187.25579834 C-27.67450174 187.95315883 -33.28778083 188.17528992 -39.01953125 188.203125 C-39.95818527 188.20882507 -40.89683929 188.21452515 -41.86393738 188.22039795 C-43.84474583 188.22979379 -45.82556953 188.23636021 -47.80639648 188.24023438 C-50.76640917 188.24985027 -53.72569918 188.28088878 -56.68554688 188.3125 C-107.94408633 188.59566826 -161.11858961 168.37805772 -200 135 C-201.32 133.68 -202.64 132.36 -204 131 C-169.02 131 -134.04 131 -98 131 C-98 106.58 -98 82.16 -98 57 C-72.1875 57.375 -72.1875 57.375 -64.10620117 57.60302734 C-51.75593589 58.16616925 -51.75593589 58.16616925 -41.07470703 53.07128906 C-38.57794462 50.19004088 -36.68269192 47.06734104 -34.92080688 43.69561768 C-33.69358167 41.43574668 -32.14781063 39.56508596 -30.46875 37.625 C-29.97407227 37.02002686 -29.47939453 36.41505371 -28.96972656 35.79174805 C-28.4847168 35.20047119 -27.99970703 34.60919434 -27.5 34 C-22.90349094 28.37113094 -18.37941196 22.69212499 -13.90478516 16.96606445 C-2.87274329 2.87274329 -2.87274329 2.87274329 0 0 Z " fill="#84D2C0" transform="translate(305,307)"/>
<path d="M0 0 C43.56 0 87.12 0 132 0 C132 48.84 132 97.68 132 148 C114.38625 148.226875 96.7725 148.45375 78.625 148.6875 C73.07768066 148.78764404 67.53036133 148.88778809 61.81494141 148.9909668 C55.00463867 149.04064941 55.00463867 149.04064941 51.80941772 149.04988098 C49.59294296 149.06669722 47.37656462 149.10523239 45.16073608 149.16133118 C25.46229995 149.63481214 25.46229995 149.63481214 20.36331177 145.60826111 C17.75796106 143.03549209 15.86567377 140.14874239 14 137 C13.01065302 135.74948953 12.00548246 134.51112622 10.9765625 133.29296875 C10.20054688 132.26816406 9.42453125 131.24335938 8.625 130.1875 C7.43777344 128.63095703 7.43777344 128.63095703 6.2265625 127.04296875 C5.49179687 126.03878906 4.75703125 125.03460938 4 124 C2.95516449 122.77704727 2.95516449 122.77704727 1.88922119 121.52938843 C-1.11770005 116.94911845 -0.52434674 111.77690259 -0.45410156 106.48681641 C-0.4545837 105.31645529 -0.45506584 104.14609417 -0.45556259 102.94026756 C-0.45258243 99.16038742 -0.42214636 95.38130108 -0.390625 91.6015625 C-0.3847422 89.26457092 -0.38066251 86.92757408 -0.37841797 84.59057617 C-0.35746569 75.93530362 -0.30162068 67.28014397 -0.25 58.625 C-0.1675 39.27875 -0.085 19.9325 0 0 Z " fill="#F8D389" transform="translate(58,273)"/>
<path d="M0 0 C1.86804794 0.00424484 1.86804794 0.00424484 3.77383423 0.00857544 C7.69568076 0.01964252 11.61728668 0.04472101 15.5390625 0.0703125 C18.22134834 0.08150796 20.90364057 0.08962055 23.5859375 0.09765625 C30.11205928 0.1195375 36.63804369 0.15287765 43.1640625 0.1953125 C42.85662109 1.31679687 42.85662109 1.31679687 42.54296875 2.4609375 C42.13884766 3.93820313 42.13884766 3.93820313 41.7265625 5.4453125 C41.45972656 6.41984375 41.19289062 7.394375 40.91796875 8.3984375 C40.66917969 9.32140625 40.42039063 10.244375 40.1640625 11.1953125 C39.97247559 11.89624023 39.78088867 12.59716797 39.58349609 13.31933594 C36.45293795 27.32120368 40.07880281 42.36802883 46.9765625 54.6328125 C52.43923864 62.92437449 58.60570123 69.14350203 67.1640625 74.1953125 C67.03128906 74.86175781 66.89851562 75.52820313 66.76171875 76.21484375 C66.58511719 77.13652344 66.40851563 78.05820313 66.2265625 79.0078125 C66.05253906 79.90113281 65.87851563 80.79445313 65.69921875 81.71484375 C64.34686527 90.51007699 63.99912815 99.24456773 64.0390625 108.1328125 C64.04099609 109.17953125 64.04292969 110.22625 64.04492188 111.3046875 C64.08429963 118.33142891 64.38768723 125.20793509 65.1640625 132.1953125 C58.5640625 132.1953125 51.9640625 132.1953125 45.1640625 132.1953125 C45.2465625 129.8853125 45.3290625 127.5753125 45.4140625 125.1953125 C45.49344733 117.8769742 44.61578153 112.92043501 39.5859375 107.4921875 C33.67353404 102.00590321 27.78533386 99.83346075 19.76000977 99.76293945 C19.0567305 99.7527478 18.35345123 99.74255615 17.62886047 99.73205566 C15.32931347 99.70212231 13.03018431 99.69269041 10.73046875 99.68359375 C9.12620175 99.66673239 7.52194785 99.64858019 5.91770935 99.62919617 C1.71416313 99.58184798 -2.48932998 99.55194079 -6.6930542 99.52575684 C-10.99013757 99.49587433 -15.28703825 99.44937056 -19.58398438 99.40429688 C-28.00121199 99.31843666 -36.41845652 99.25101498 -44.8359375 99.1953125 C-44.8359375 98.5353125 -44.8359375 97.8753125 -44.8359375 97.1953125 C-43.79695313 96.72222656 -42.75796875 96.24914062 -41.6875 95.76171875 C-26.46361906 88.62775221 -14.6545845 78.96935203 -7.8984375 63.16796875 C-5.34873726 56.03443243 -4.07794091 48.64733293 -2.8359375 41.1953125 C-8.4459375 41.1953125 -14.0559375 41.1953125 -19.8359375 41.1953125 C-19.8359375 43.8353125 -19.8359375 46.4753125 -19.8359375 49.1953125 C-22.73155378 61.71459464 -30.23572997 71.28154296 -40.69921875 78.4765625 C-47.09250617 82.09075496 -53.3890685 82.59955486 -60.8359375 84.1953125 C-60.8359375 94.4253125 -60.8359375 104.6553125 -60.8359375 115.1953125 C-57.06615479 115.1638916 -57.06615479 115.1638916 -53.22021484 115.13183594 C-44.91024225 115.06551284 -36.60025786 115.02135587 -28.29009056 114.98806381 C-23.25233314 114.96720234 -18.21484725 114.93891087 -13.17724609 114.89355469 C-8.31430015 114.85004576 -3.45161513 114.82616455 1.41151047 114.81580353 C3.26545697 114.80842123 5.11938943 114.79400522 6.97322464 114.77239227 C9.57311953 114.74329096 12.17194071 114.73935927 14.77197266 114.74121094 C15.53586304 114.72682983 16.29975342 114.71244873 17.08679199 114.69763184 C22.24491584 114.73729798 25.24767819 115.84288491 29.1640625 119.1953125 C30.3515625 122.5703125 30.3515625 122.5703125 30.1640625 126.1953125 C28.5559378 129.01611896 27.73759437 130.38871234 25.1640625 132.1953125 C21.44210606 133.08385856 17.79468563 132.99473139 13.9831543 132.93994141 C12.85410675 132.94724274 11.7250592 132.95454407 10.5617981 132.96206665 C6.82834748 132.97828204 3.09663237 132.95105217 -0.63671875 132.921875 C-3.23357644 132.9208376 -5.83043573 132.92187376 -8.42729187 132.92489624 C-13.87227681 132.92471676 -19.31662732 132.90453531 -24.76147461 132.86767578 C-31.04127746 132.82540513 -37.32034858 132.8183075 -43.60026485 132.8307997 C-49.65572832 132.84222545 -55.71086903 132.83063588 -61.76631737 132.80845261 C-64.33586788 132.80076626 -66.90544034 132.79844485 -69.47500038 132.8016243 C-73.07270378 132.80236836 -76.6693079 132.77704836 -80.2668457 132.74462891 C-81.32426468 132.74958374 -82.38168365 132.75453857 -83.47114563 132.75964355 C-92.12075176 132.63562191 -98.49576335 130.21006179 -104.8359375 124.1953125 C-110.22812496 116.42869109 -111.81210209 109.48049713 -110.8359375 100.1953125 C-110.72765625 99.09316406 -110.619375 97.99101562 -110.5078125 96.85546875 C-106.85443421 66.78275304 -92.38276166 40.64831798 -68.73828125 21.71484375 C-47.96624197 6.76000506 -25.60855491 -0.22506211 0 0 Z " fill="#F7D289" transform="translate(184.8359375,90.8046875)"/>
<path d="M0 0 C0.99167175 0.00021149 1.98334351 0.00042297 3.00506592 0.00064087 C19.44484634 0.03555997 35.24301624 0.97776445 51.375 4.375 C52.24044434 4.55691895 53.10588867 4.73883789 53.99755859 4.92626953 C59.54455401 6.14693578 64.95753576 7.67531636 70.375 9.375 C71.23270996 9.63732422 72.09041992 9.89964844 72.97412109 10.16992188 C99.68050429 18.45794476 128.68843049 30.9647227 149.375 50.375 C149.375 50.705 149.375 51.035 149.375 51.375 C145.03745369 51.29979545 140.70892973 51.12719311 136.375 50.9375 C134.54388672 50.9075293 134.54388672 50.9075293 132.67578125 50.87695312 C123.68779781 50.41540803 123.68779781 50.41540803 119.8840332 47.40087891 C117.90993661 45.13690266 116.13996055 42.80324499 114.375 40.375 C102.33267148 29.95410452 87.02105371 24.65826474 71.21484375 25.02734375 C60.91434887 25.95994196 48.45430864 29.37044099 40.8659668 36.86547852 C35.90606021 41.72926006 31.87281614 42.32294114 25.0625 42.5625 C15.55572718 43.02573911 7.11152709 44.50461817 -1.3125 49.1875 C-2.16199219 49.64769531 -3.01148438 50.10789063 -3.88671875 50.58203125 C-6.53786318 52.14410143 -6.53786318 52.14410143 -7.91801453 53.84570312 C-10.60989477 56.7780285 -12.68084781 58.21663188 -16.65782166 58.88371277 C-20.45068233 59.01948681 -24.21662612 58.9698784 -28.0078125 58.85546875 C-29.427198 58.83659809 -30.84662878 58.8208977 -32.26608276 58.80818176 C-36.00369239 58.76838149 -39.73981493 58.6952899 -43.47668457 58.61212158 C-50.11145565 58.46729881 -56.746872 58.36515162 -63.3828125 58.29296875 C-64.45147238 58.28099048 -64.45147238 58.28099048 -65.54172134 58.26877022 C-81.1480041 58.12572925 -96.70507893 59.19990441 -111.5 64.5625 C-112.36310791 64.86438232 -113.22621582 65.16626465 -114.11547852 65.47729492 C-146.72914903 77.28480571 -169.94848342 101.12637584 -184.875 131.875 C-187.85242249 138.53990779 -189.88415948 145.2955819 -191.625 152.375 C-191.92535156 153.52355469 -192.22570312 154.67210937 -192.53515625 155.85546875 C-195.93302067 170.34775561 -197.05546554 186.61518665 -190.625 200.375 C-190.16287109 201.39013672 -190.16287109 201.39013672 -189.69140625 202.42578125 C-189.04798725 203.76495477 -188.34653102 205.07624417 -187.625 206.375 C-199.35010036 207.00126649 -199.35010036 207.00126649 -204.1875 204.625 C-205.3940625 203.51125 -205.3940625 203.51125 -206.625 202.375 C-207.73875 201.446875 -207.73875 201.446875 -208.875 200.5 C-212.25741153 196.392786 -212.87589547 191.70902014 -213.04248047 186.51928711 C-213.10035233 184.8197715 -213.10035233 184.8197715 -213.15939331 183.08592224 C-213.27660177 177.8712259 -213.37416836 172.65680937 -213.43505859 167.44116211 C-213.47032153 164.71359818 -213.53931448 161.99031753 -213.64013672 159.2644043 C-214.33834856 139.92537867 -212.07025165 127.09431461 -200.625 111.375 C-199.53862243 109.77525755 -198.45866576 108.17113395 -197.38549805 106.5625 C-191.42552672 97.63908132 -184.72988613 89.40287738 -177.625 81.375 C-176.85414063 80.49328125 -176.08328125 79.6115625 -175.2890625 78.703125 C-166.74797762 69.05319752 -157.75349302 60.34586289 -147.625 52.375 C-146.68527344 51.60671875 -145.74554688 50.8384375 -144.77734375 50.046875 C-130.39993843 38.54495075 -114.37429747 28.99454095 -97.625 21.375 C-96.55596436 20.88290039 -96.55596436 20.88290039 -95.46533203 20.38085938 C-76.33875967 11.66916998 -56.34831499 5.80138048 -35.625 2.375 C-34.65401367 2.19839844 -33.68302734 2.02179687 -32.68261719 1.83984375 C-21.80634311 0.0351879 -11.00094094 -0.02161712 0 0 Z " fill="#84D1BF" transform="translate(253.625,16.625)"/>
<path d="M0 0 C0.33 0 0.66 0 1 0 C1.03867187 1.77503906 1.03867187 1.77503906 1.078125 3.5859375 C1.44076951 16.28383868 1.44076951 16.28383868 6 28 C6.41121094 28.71414062 6.82242187 29.42828125 7.24609375 30.1640625 C11.48939406 36.58310603 17.74845294 40.58281765 25 43 C27.73523291 43.10575783 30.44563788 43.15484326 33.18132019 43.15821838 C34.02509525 43.16315636 34.86887031 43.16809434 35.73821431 43.17318195 C38.57571833 43.18858402 41.41319966 43.19692491 44.25073242 43.20532227 C46.28070781 43.21489866 48.31068119 43.2249086 50.34065247 43.23532104 C55.86094712 43.26240203 61.38125036 43.2833943 66.90157485 43.30332303 C72.66717204 43.32516289 78.43274269 43.35256135 84.19831848 43.37937927 C95.12048838 43.42933323 106.04267299 43.47426203 116.9648717 43.51740164 C129.39761222 43.56675092 141.83032612 43.62167761 154.2630409 43.67708123 C179.84200244 43.79094277 205.42098951 43.89777272 231 44 C231.34158646 44.89388931 231.68317291 45.78777863 232.03511047 46.70875549 C232.70862801 48.46662636 232.70862801 48.46662636 233.39575195 50.26000977 C233.84046341 51.42202408 234.28517487 52.58403839 234.74336243 53.78126526 C241.98888128 72.33984074 253.82672906 87.19014627 268 101 C266.70891619 103.76655418 265.2935196 106.04962067 263.34765625 108.3984375 C262.82429688 109.03523438 262.3009375 109.67203125 261.76171875 110.328125 C261.20097656 111.00359375 260.64023437 111.6790625 260.0625 112.375 C258.87535508 113.81953475 257.68917258 115.26486093 256.50390625 116.7109375 C255.91109863 117.4337793 255.31829102 118.15662109 254.70751953 118.90136719 C252.26500385 121.90334957 249.87881417 124.94746109 247.5 128 C243.34809616 133.31718784 239.12961235 138.57713178 234.875 143.8125 C234.30587891 144.51310547 233.73675781 145.21371094 233.15039062 145.93554688 C229.13539567 150.86460433 229.13539567 150.86460433 228 152 C226.55710213 152.09295815 225.10970215 152.11746513 223.66381836 152.11352539 C222.73001343 152.11340454 221.7962085 152.11328369 220.83410645 152.11315918 C219.84599976 152.10804321 218.85789307 152.10292725 217.83984375 152.09765625 C216.93657349 152.09664917 216.03330322 152.09564209 215.10266113 152.09460449 C211.71426126 152.08935512 208.32587941 152.07539398 204.9375 152.0625 C197.368125 152.041875 189.79875 152.02125 182 152 C182 121.97 182 91.94 182 61 C127.55 61 73.1 61 17 61 C17 95.32 17 129.64 17 165 C14.78738821 162.04985094 13.51947213 160.24929802 12.203125 157.0078125 C11.88770752 156.23228027 11.57229004 155.45674805 11.24731445 154.65771484 C0.85147591 128.25712021 -6.92661211 101.33723511 -7.2734375 72.76171875 C-7.2857843 71.81013382 -7.2981311 70.85854889 -7.31085205 69.87812805 C-7.34293871 66.81455263 -7.36188827 63.75121364 -7.375 60.6875 C-7.37989441 59.64408447 -7.38478882 58.60066895 -7.38983154 57.52563477 C-7.4281216 37.77403262 -5.77387757 18.99443837 0 0 Z " fill="#83D0BE" transform="translate(24,195)"/>
<path d="M0 0 C0.78391113 0.2676416 1.56782227 0.5352832 2.37548828 0.81103516 C4.70447485 1.62720844 7.01035205 2.48612909 9.3125 3.375 C9.98829102 3.63031494 10.66408203 3.88562988 11.36035156 4.14868164 C35.37312533 14.20032964 52.96010652 54.60505197 62.25048828 77.01660156 C66.75757212 88.39325185 70.46811819 99.9589885 73.5 111.8125 C73.74339111 112.7597998 73.98678223 113.70709961 74.23754883 114.68310547 C76.54290697 124.24625961 78.25381312 133.68249777 75.0625 143.1875 C74.72351685 144.2535144 74.72351685 144.2535144 74.37768555 145.34106445 C64.54546996 174.97449593 43.89055599 199.69443367 16 214 C-12.7034089 227.66723855 -44.69065115 230.1347825 -74.82958984 219.79345703 C-91.52233923 213.69093335 -105.19355716 204.22748973 -118 192 C-118.59941406 191.46375 -119.19882812 190.9275 -119.81640625 190.375 C-140.03547685 171.6102013 -151.02906758 141.64118522 -152.24609375 114.58203125 C-153.08143299 81.6142258 -140.71285245 52.78115877 -118.50390625 28.54296875 C-106.30115798 16.14985 -91.83613998 7.80246563 -76 1 C-75.23558594 0.67128906 -74.47117187 0.34257813 -73.68359375 0.00390625 C-51.10603838 -8.52342875 -22.51341385 -7.84991264 0 0 Z M-100 34 C-100.64839844 34.49886719 -101.29679687 34.99773437 -101.96484375 35.51171875 C-118.85426578 48.87772394 -131.33272928 72.29931299 -134.68652344 93.30126953 C-136.50096212 108.92183436 -136.3173635 125.10477679 -131 140 C-130.67854004 140.93924316 -130.67854004 140.93924316 -130.35058594 141.89746094 C-121.80572342 166.58676531 -104.31746847 187.15981844 -80.9921875 199.02099609 C-57.92344256 210.14420985 -30.5407533 213.4887735 -6 205 C-5.06220703 204.68651611 -5.06220703 204.68651611 -4.10546875 204.36669922 C21.87438357 195.53698872 41.9985072 176.66365545 54.05859375 152.2421875 C65.20100288 128.55309083 66.3975474 101.75563204 58 77 C48.2691994 50.58940394 28.69599837 30.4134563 3.3125 18.625 C-31.22133468 3.58887878 -71.29992227 9.90667632 -100 34 Z " fill="#F1F3F6" transform="translate(416,88)"/>
<path d="M0 0 C23.36601342 1.47984752 43.06187493 10.73239952 59 28 C65.56563317 35.77789577 70.27952068 44.56875456 74 54 C74.41378906 54.97195312 74.82757813 55.94390625 75.25390625 56.9453125 C82.1114995 76.01276689 79.59872441 98.91873405 71.16796875 117.0078125 C67.37948859 124.72431343 62.76899975 131.61328708 57 138 C56.33613281 138.75667969 55.67226563 139.51335937 54.98828125 140.29296875 C40.61457694 155.72942384 20.03651653 163.93303131 -0.8046875 165.23828125 C-22.94486638 165.84657269 -43.68360639 158.36344118 -60.0625 143.2109375 C-65.77671181 137.75725738 -71.36669631 132.10725196 -75 125 C-75 124.34 -75 123.68 -75 123 C-74.39923393 122.99761165 -73.79846786 122.99522329 -73.17949677 122.99276257 C-58.53909773 122.93354096 -43.89884596 122.85794521 -29.25862885 122.76428509 C-22.1786193 122.71938297 -15.09865943 122.67995558 -8.01855469 122.65356445 C-1.18441168 122.62807459 5.64950056 122.58713236 12.48350525 122.53681374 C15.08932233 122.52014354 17.69517773 122.50863023 20.30104065 122.50238609 C23.95418458 122.49274711 27.60676155 122.46468837 31.25976562 122.43237305 C32.33439056 122.43380814 33.4090155 122.43524323 34.51620483 122.4367218 C41.48635728 122.34966569 47.59919828 121.76879432 53.20703125 117.203125 C58.74980056 110.46009664 61.69946542 104.73795101 61.40625 95.84375 C60.41969394 88.93785761 57.37234606 83.69743606 51.875 79.4375 C49.51712018 77.81817787 47.74510213 76.91503404 45 76 C43.4921875 73.48046875 43.4921875 73.48046875 41.875 70.1875 C35.26239007 57.33337797 25.54619541 46.73510952 16 36 C15.51208984 35.44747559 15.02417969 34.89495117 14.52148438 34.32568359 C8.08547585 27.05513039 1.30557309 20.38707744 -6 14 C-4.69640402 10.69403361 -3.32723396 7.43082251 -1.875 4.1875 C-1.52179688 3.39730469 -1.16859375 2.60710937 -0.8046875 1.79296875 C-0.53914063 1.20128906 -0.27359375 0.60960938 0 0 Z " fill="#83D0BE" transform="translate(384,116)"/>
<path d="M0 0 C1.66926835 1.43080145 3.33795319 2.86221119 5.00390625 4.296875 C6.25135089 5.3612309 7.5078292 6.41519223 8.77734375 7.453125 C12.62209445 10.62657002 15.90742252 14.02151985 19.1328125 17.8203125 C21.1198986 20.13996532 23.18047293 22.37871617 25.25 24.625 C28.9561482 28.7323292 32.45089466 32.9703704 35.875 37.3125 C36.57157715 38.19252686 36.57157715 38.19252686 37.28222656 39.09033203 C44 47.69763282 44 47.69763282 44 51 C42.33333333 52 40.66666667 53 39 54 C34.92313203 57.59152654 33.5482306 59.9035388 31 65 C31 70.28 31 75.56 31 81 C-1.01 81 -33.02 81 -66 81 C-73.48213373 62.29466568 -70.79582457 41.63111834 -63.5 23.3125 C-61.68328469 19.22348442 -59.68311864 15.57749153 -57 12 C-56.3915625 12.144375 -55.783125 12.28875 -55.15625 12.4375 C-37.10712459 16.25966773 -20.73792727 14.04434266 -5 4 C-1.98044343 1.82484335 -1.98044343 1.82484335 0 0 Z " fill="#F7D289" transform="translate(367,142)"/>
<path d="M0 0 C16.5 0 33 0 50 0 C50.12032643 27.6305131 50.12032643 27.6305131 50.14648438 39.421875 C50.1644073 47.46295171 50.18514388 55.50392657 50.22631836 63.54492188 C50.25894993 70.02882511 50.27686119 76.51261826 50.28463173 82.99659729 C50.29016836 85.46848788 50.30098004 87.94037255 50.31719017 90.41221619 C50.33901437 93.87845817 50.34196476 97.34424708 50.34057617 100.81054688 C50.351362 101.82906738 50.36214783 102.84758789 50.3732605 103.89697266 C50.33434817 112.89270399 48.28110367 119.57713849 42.00390625 126.234375 C35.9941747 131.5294991 29.7241471 132.63188161 21.859375 132.3125 C14.8999982 131.55191237 10.62513053 129.16820989 5.640625 124.3046875 C0.47642002 117.05020908 -0.57703224 110.36080694 -0.45410156 101.60522461 C-0.45468567 100.5017569 -0.45526978 99.39828918 -0.45587158 98.26138306 C-0.45310162 94.64137487 -0.42205979 91.02220676 -0.390625 87.40234375 C-0.38315878 84.88172353 -0.37746765 82.36109748 -0.37347412 79.84046936 C-0.35980136 73.90137719 -0.32832835 67.96255118 -0.28807616 62.02359539 C-0.2309265 53.4026349 -0.21013658 44.78157157 -0.18484497 36.16046906 C-0.14613955 24.10673302 -0.06946308 12.05377473 0 0 Z " fill="#FC9388" transform="translate(355,363)"/>
<path d="M0 0 C0.33 0 0.66 0 1 0 C2.80463713 58.35736026 -25.67451635 114.75400786 -64 157 C-69.32167207 162.64517798 -69.32167207 162.64517798 -72 165 C-72.33 165 -72.66 165 -73 165 C-73 137.94 -73 110.88 -73 83 C-78.28 83 -83.56 83 -89 83 C-89 76.73 -89 70.46 -89 64 C-87.27136719 63.46632813 -85.54273438 62.93265625 -83.76171875 62.3828125 C-64.35228682 56.24720646 -46.71469694 49.18912065 -31 36 C-30.154375 35.29359375 -29.30875 34.5871875 -28.4375 33.859375 C-17.82475259 24.63955069 -9.41429969 14.68107092 -1.8984375 2.859375 C-1.27195312 1.91578125 -0.64546875 0.9721875 0 0 Z " fill="#84D1BF" transform="translate(494,264)"/>
<path d="M0 0 C1.40894325 1.06622733 2.81020699 2.14319117 4.1875 3.25 C2.69083605 7.10220892 0.56600552 8.64837055 -2.8125 10.9375 C-23.49377424 25.55190761 -36.79040707 44.37835216 -46.8125 67.25 C-54.84953172 63.46886482 -60.10012053 55.5790844 -63.46484375 47.54296875 C-65.10186621 42.97774368 -65.31114778 38.69160099 -65.25 33.875 C-65.24242676 33.03864014 -65.23485352 32.20228027 -65.22705078 31.34057617 C-64.92627438 20.06146095 -60.55619084 12.06828422 -52.70703125 4.1171875 C-37.61199489 -9.9645848 -17.36448451 -12.09137127 0 0 Z " fill="#F6D288" transform="translate(304.8125,81.75)"/>
<path d="M0 0 C33 0 66 0 100 0 C100 5.61 100 11.22 100 17 C67 17 34 17 0 17 C0 11.39 0 5.78 0 0 Z " fill="#2A2926" transform="translate(74,355)"/>
<path d="M0 0 C33 0 66 0 100 0 C100 5.61 100 11.22 100 17 C67 17 34 17 0 17 C0 11.39 0 5.78 0 0 Z " fill="#2A2926" transform="translate(74,322)"/>
<path d="M0 0 C33 0 66 0 100 0 C100 5.61 100 11.22 100 17 C67 17 34 17 0 17 C0 11.39 0 5.78 0 0 Z " fill="#2A2926" transform="translate(74,289)"/>
<path d="M0 0 C21.78 0 43.56 0 66 0 C66 5.61 66 11.22 66 17 C44.22 17 22.44 17 0 17 C0 11.39 0 5.78 0 0 Z " fill="#2A2926" transform="translate(74,388)"/>
<path d="M0 0 C8.00653751 4.44666878 8.00653751 4.44666878 9.46875 7.37109375 C8.38078125 7.60183594 7.2928125 7.83257812 6.171875 8.0703125 C-2.00124386 9.86532149 -9.52372433 11.86535855 -17.11328125 15.515625 C-19.9158459 16.50716241 -20.84638033 16.60253988 -23.53125 15.37109375 C-25.93359375 13.41015625 -25.93359375 13.41015625 -28.46875 10.99609375 C-31.02897319 8.56645381 -33.30439894 6.5051278 -36.34765625 4.70703125 C-37.06824219 4.26617187 -37.78882813 3.8253125 -38.53125 3.37109375 C-38.53125 2.71109375 -38.53125 2.05109375 -38.53125 1.37109375 C-26.03583898 -5.37016845 -12.87694832 -6.24390488 0 0 Z " fill="#F3CF87" transform="translate(346.53125,61.62890625)"/>
<path d="M0 0 C-5.01872226 7.75238382 -9.91478369 13.43656503 -18 18 C-18.75796875 18.433125 -19.5159375 18.86625 -20.296875 19.3125 C-27.89612856 22.98462252 -35.77251759 22.3674806 -44 22 C-40.58678924 17.55771258 -37.16717593 14.38989363 -32.375 11.4375 C-31.76108398 11.05255371 -31.14716797 10.66760742 -30.51464844 10.27099609 C-8.97020035 -2.9832557 -8.97020035 -2.9832557 0 0 Z " fill="#F1CD86" transform="translate(366,118)"/>
<path d="M0 0 C5.94 0 11.88 0 18 0 C18 5.61 18 11.22 18 17 C12.06 17 6.12 17 0 17 C0 11.39 0 5.78 0 0 Z " fill="#34312B" transform="translate(156,388)"/>
<path d="M0 0 C5.28 0 10.56 0 16 0 C16 5.61 16 11.22 16 17 C10.72 17 5.44 17 0 17 C0 11.39 0 5.78 0 0 Z " fill="#F5D088" transform="translate(372,330)"/>
<path d="M0 0 C1.9375 1.0625 1.9375 1.0625 3 3 C3.63852859 7.9485966 3.74271661 9.89717837 0.9375 14.0625 C-2 16 -2 16 -5.5625 16.125 C-9.64328346 14.78947087 -10.92555322 13.73400421 -13 10 C-13.625 7 -13.625 7 -13 4 C-8.82319948 -0.78803962 -6.3628125 -1.92084906 0 0 Z " fill="#2B2927" transform="translate(368,166)"/>
<path d="M0 0 C2.5 1.5625 2.5 1.5625 4 4 C4.5625 7.4375 4.5625 7.4375 4 11 C1.55401113 14.38121991 0.10703441 15.76936783 -4 16.625 C-8.10703441 15.76936783 -9.55401113 14.38121991 -12 11 C-12.62491523 7.04220351 -12.61006839 4.99136114 -10.5 1.5625 C-6.97873756 -0.63828902 -4.04560357 -0.80414661 0 0 Z " fill="#2A2626" transform="translate(384,463)"/>
<path d="M0 0 C2.5 1.5625 2.5 1.5625 4 4 C4.5625 7.4375 4.5625 7.4375 4 11 C1.55401113 14.38121991 0.10703441 15.76936783 -4 16.625 C-8.10703441 15.76936783 -9.55401113 14.38121991 -12 11 C-12.62491523 7.04220351 -12.61006839 4.99136114 -10.5 1.5625 C-6.97873756 -0.63828902 -4.04560357 -0.80414661 0 0 Z " fill="#F79186" transform="translate(425,207)"/>
<path d="M0 0 C0.99 0.33 1.98 0.66 3 1 C5.00841665 1.11706233 7.02035989 1.17675967 9.03198242 1.20532227 C10.27304245 1.22526749 11.51410248 1.24521271 12.79277039 1.26576233 C14.1470019 1.28274527 15.50123473 1.29962413 16.85546875 1.31640625 C18.24124259 1.33698228 19.62701025 1.35797892 21.01277161 1.37937927 C24.65740953 1.43453301 28.30210346 1.48397174 31.94683838 1.53222656 C35.6670835 1.58249056 39.38724743 1.63815104 43.10742188 1.69335938 C50.40487913 1.80085899 57.70240397 1.90232207 65 2 C65 2.33 65 2.66 65 3 C42.89 3 20.78 3 -2 3 C-2 2.34 -2 1.68 -2 1 C-1.34 0.67 -0.68 0.34 0 0 Z " fill="#E7C682" transform="translate(142,187)"/>
</svg>
