<?xml version="1.0" encoding="UTF-8"?>
<svg version="1.1" xmlns="http://www.w3.org/2000/svg" width="512" height="512">
<path d="M0 0 C2.96858157 2.20740681 3.82865791 3.48597373 5 7 C5.33 12.94 5.66 18.88 6 25 C65.73 25 125.46 25 187 25 C187.33 18.73 187.66 12.46 188 6 C193 0 193 0 195.0625 -0.76171875 C196.0215625 -0.72498047 196.0215625 -0.72498047 197 -0.6875 C197.639375 -0.69136719 198.27875 -0.69523438 198.9375 -0.69921875 C202.28018031 0.43400052 203.84028759 2.2522837 206 5 C211.13897096 33.73766657 195.94514258 68.0726881 180 91 C177.47910015 94.4777732 174.82003235 97.76140997 172 101 C171.19175781 101.95261719 170.38351562 102.90523438 169.55078125 103.88671875 C158.64009732 116.46957698 145.0296706 126.7728139 130 134 C131.08796875 134.54527344 132.1759375 135.09054688 133.296875 135.65234375 C146.75616167 142.51183179 157.96952454 150.60734115 169 161 C169.67546875 161.61101562 170.3509375 162.22203125 171.046875 162.8515625 C193.82254314 184.26069056 205.73194479 216.69634264 206.9765625 247.44677734 C207.75038967 283.02209968 194.93274475 316.15209772 170.42749023 341.97753906 C158.56693668 354.07655877 145.10939721 362.51002953 130 370 C131.02738281 370.54527344 132.05476562 371.09054687 133.11328125 371.65234375 C141.83919626 376.36651379 149.57395357 381.36037301 157 388 C157.92425781 388.79277344 158.84851563 389.58554687 159.80078125 390.40234375 C186.7147951 413.96606542 203.46772654 449.56301454 206.15771484 485.08251953 C206.29228884 487.24299088 206.3751432 489.3988179 206.4375 491.5625 C206.47746094 492.86316406 206.51742187 494.16382813 206.55859375 495.50390625 C205.85573689 499.90290547 204.50096521 501.32781421 201 504 C198.9375 504.69921875 198.9375 504.69921875 197 504.6875 C196.360625 504.71199219 195.72125 504.73648437 195.0625 504.76171875 C191.67478051 503.51057235 189.73365739 501.05733151 188 498 C187.27791801 494.70558935 187.21030043 491.48933015 187.1875 488.125 C187.16236328 487.24585938 187.13722656 486.36671875 187.11132812 485.4609375 C187.05281805 483.3077668 187.02345764 481.15383779 187 479 C186.33462377 479.00368717 185.66924753 479.00737434 184.98370838 479.01117325 C168.79230013 479.09951751 152.60096824 479.1657062 136.40937519 479.20724869 C128.57922522 479.22787241 120.74923615 479.25598921 112.91918945 479.30175781 C106.09436742 479.3416316 99.26966192 479.3674342 92.44472665 479.37635398 C88.83104444 479.38156789 85.2176956 479.39381796 81.60412025 479.42292023 C77.56967009 479.45514839 73.53579917 479.45595908 69.5012207 479.45410156 C68.30360107 479.46848267 67.10598145 479.48286377 65.87207031 479.49768066 C57.79628698 479.45733777 57.79628698 479.45733777 53.78117371 477.15130615 C51.44614517 474.33105272 51 472.65957904 51 469 C52.21349433 465.4943497 52.91950832 463.54693533 56.28538799 461.84315681 C59.12350299 460.96164005 61.34413535 460.75348356 64.30879211 460.75949097 C65.88413475 460.75536697 65.88413475 460.75536697 67.49130249 460.75115967 C68.63281769 460.75835022 69.77433289 460.76554077 70.95043945 460.77294922 C72.76569878 460.77251114 72.76569878 460.77251114 74.61763 460.77206421 C77.92724413 460.77321713 81.23660741 460.78323349 84.54617715 460.79721212 C88.00816878 460.8097319 91.47016391 460.81089097 94.93217468 460.81326294 C101.48399423 460.81947405 108.03574688 460.83587985 114.58753699 460.85596192 C122.04820289 460.87833243 129.50887202 460.88931724 136.96956313 460.89935279 C152.3130808 460.92024642 167.65653177 460.95541519 183 461 C182.6390625 460.08476562 182.278125 459.16953125 181.90625 458.2265625 C181.4421875 457.03804688 180.978125 455.84953125 180.5 454.625 C180.0359375 453.44164062 179.571875 452.25828125 179.09375 451.0390625 C178 448 178 448 178 446 C176.75020859 446.00666183 175.50041718 446.01332367 174.2127533 446.02018738 C162.42732905 446.08103607 150.64193672 446.12599079 138.85639095 446.15543652 C132.79750451 446.17108382 126.73874502 446.19230533 120.67993164 446.22631836 C114.83144955 446.25894469 108.98308948 446.27686006 103.13452339 446.28463173 C100.90462893 446.29016932 98.67474104 446.30098287 96.44489861 446.31719017 C93.31850697 446.33900756 90.19261778 446.34196507 87.06616211 446.34057617 C85.68727562 446.35675491 85.68727562 446.35675491 84.28053284 446.3732605 C78.75494169 446.34674652 74.89418755 445.62172515 70 443 C67.75639659 440.38246269 68.0004248 438.98810574 68.125 435.5 C69.12514876 431.49940497 69.6847385 430.38734579 73 428 C76.02823833 427.42380957 79.00896604 427.49476646 82.08300781 427.54589844 C83.45913742 427.54502228 83.45913742 427.54502228 84.86306763 427.54412842 C87.89347252 427.54691369 90.92289208 427.57802692 93.953125 427.609375 C96.05490583 427.6168358 98.15669362 427.62252949 100.25848389 427.62652588 C105.7890139 427.64179476 111.31912339 427.68108772 116.8494873 427.7253418 C122.49335033 427.76626725 128.13728134 427.78453109 133.78125 427.8046875 C144.85435138 427.84758048 155.92714071 427.91584726 167 428 C165.72954304 426.24972675 164.45861894 424.49979256 163.1875 422.75 C162.47980469 421.77546875 161.77210938 420.8009375 161.04296875 419.796875 C160.36878906 418.87390625 159.69460938 417.9509375 159 417 C158.55844574 416.2313562 158.11689148 415.4627124 157.66195679 414.67077637 C156.02771978 412.70125642 156.02771978 412.70125642 152.97744751 412.50793457 C151.11810074 412.51270813 151.11810074 412.51270813 149.22119141 412.51757812 C148.19382622 412.51170937 148.19382622 412.51170937 147.14570618 412.50572205 C145.65938868 412.49974672 144.17301272 412.50291781 142.68672562 412.5141449 C140.33235899 412.53139067 137.97922214 412.52390877 135.62484741 412.5098877 C129.77695257 412.48021718 123.92929137 412.49341917 118.08135986 412.50506592 C113.14153339 412.51327418 108.20224337 412.50530794 103.26249313 412.47593689 C100.94619016 412.46884832 98.63083401 412.48551462 96.31460571 412.50305176 C94.88893121 412.49734243 93.46326057 412.49052442 92.03759766 412.48242188 C90.79644196 412.48560425 89.55528625 412.48878662 88.27651978 412.49206543 C84.37309871 411.90585241 82.7303098 410.81011312 80 408 C78.85990229 404.08091414 78.59111368 401.96841496 80.1875 398.1875 C82.54184319 395.34605132 84.54802795 394.18153132 88.22735596 393.7215271 C89.43980988 393.7015416 89.43980988 393.7015416 90.67675781 393.68115234 C92.05773651 393.65134781 92.05773651 393.65134781 93.46661377 393.62094116 C94.94493683 393.60361435 94.94493683 393.60361435 96.453125 393.5859375 C97.97616241 393.55688828 97.97616241 393.55688828 99.52996826 393.5272522 C102.76989365 393.46751901 106.00985468 393.42109572 109.25 393.375 C111.44793208 393.33681449 113.64584928 393.29776242 115.84375 393.2578125 C121.22903456 393.16182265 126.61440883 393.07675677 132 393 C130.28506938 392.05248472 128.56862047 391.10771718 126.8515625 390.1640625 C125.41804443 389.37443115 125.41804443 389.37443115 123.95556641 388.56884766 C115.51517579 384.08859406 107.14313614 381.28796717 97.78662109 379.51904297 C93.38768063 378.61960853 90.64136971 377.72621799 88 374 C87.46875 371.78125 87.46875 371.78125 87.5 369.5 C87.48453125 368.37078125 87.48453125 368.37078125 87.46875 367.21875 C88.24874499 363.96112388 89.26755743 362.97481077 92 361 C95.1946979 359.95269602 98.45438721 359.33471106 101.75 358.6875 C113.79606834 356.08885849 124.02383795 351.49432239 135 346 C133.80840775 345.99413376 132.61681549 345.98826752 131.38911438 345.98222351 C120.16212016 345.92502255 108.93532013 345.85227454 97.70852375 345.76428509 C91.93663744 345.71954844 86.16482226 345.68029943 80.39282227 345.65356445 C74.82302041 345.62756457 69.25349178 345.58718533 63.68385887 345.53681374 C61.55842676 345.52012264 59.43294737 345.50862236 57.30745888 345.50238609 C54.33138986 345.49276956 51.3560234 345.46473904 48.38012695 345.43237305 C47.50043243 345.43380814 46.62073792 345.43524323 45.71438599 345.4367218 C40.98505763 345.36393187 37.8530187 345.0489038 34 342 C31.91393074 339.34500276 32.00120545 337.93249496 32.0625 334.5 C33 331 33 331 34.83683777 328.80644226 C39.64180322 326.06238678 44.1091301 326.50221566 49.5480957 326.59692383 C50.71615753 326.60104279 51.88421936 326.60516174 53.087677 326.60940552 C55.62277942 326.62016232 58.15785629 326.63970154 60.69283485 326.66697121 C64.70727822 326.70734804 68.72080699 326.719717 72.73539734 326.72160339 C84.14871537 326.73213664 95.5614883 326.78557619 106.97436523 326.88647461 C113.28228331 326.94192861 119.58949706 326.96491877 125.89765614 326.95314807 C129.23244263 326.94849359 132.5635908 326.96625908 135.89827919 327.01450539 C139.62125982 327.06737227 143.34048002 327.06478111 147.0637207 327.05004883 C148.15854263 327.07933975 149.25336456 327.10863068 150.38136292 327.1388092 C154.86140852 327.07302357 157.81893198 326.93053252 161.40929222 324.10178185 C164.86800545 320.31206363 167.35106573 316.41489044 170 312 C121.49 312 72.98 312 23 312 C23.99 313.65 24.98 315.3 26 317 C26.57645543 320.95283726 26.35948461 322.46077309 24.125 325.8125 C21.65678697 328.35330753 20.7363048 328.8995948 17.25 329.375 C13.03969466 328.88919554 10.85353804 326.95458926 8 324 C6.27248895 321.6543446 4.87476597 319.19033637 3.5 316.625 C2.92536011 315.57324585 2.92536011 315.57324585 2.33911133 314.50024414 C-3.85976853 302.90515156 -8.08311781 290.83147694 -11 278 C-11.226875 277.03707031 -11.45375 276.07414062 -11.6875 275.08203125 C-18.12931027 241.93354924 -9.52643449 206.78566068 9 179 C11.50285088 175.50592105 14.17880699 172.24048958 17 169 C17.77472656 168.06929687 18.54945313 167.13859375 19.34765625 166.1796875 C31.53050607 152.10417775 46.59060626 142.50217711 63 134 C62.36835938 133.68289062 61.73671875 133.36578125 61.0859375 133.0390625 C29.2997156 116.45892947 6.51976396 88.12909877 -5.83984375 54.6953125 C-10.07497946 41.20562098 -13.09655322 27.47531554 -13.375 13.3125 C-13.41238281 12.57966797 -13.44976562 11.84683594 -13.48828125 11.09179688 C-13.55321652 7.09106273 -13.1775476 5.23347051 -10.73046875 2.015625 C-6.64441267 -1.00069107 -4.97181425 -0.71025918 0 0 Z M10 43 C12.34627955 53.01941932 12.34627955 53.01941932 15 58 C68.79 58 122.58 58 178 58 C181.44599294 50.67564975 181.44599294 50.67564975 183 43 C125.91 43 68.82 43 10 43 Z M25 76 C26.98 78.97 28.96 81.94 31 85 C31.87799759 86.31965256 32.75599518 87.63930511 33.66059875 88.99894714 C36.27881239 91.92653476 38.28565306 92.53549843 42.16520691 92.93598938 C44.25284304 92.99871474 46.34185079 93.02301543 48.43041992 93.0168457 C50.14624268 93.05211113 50.14624268 93.05211113 51.89672852 93.08808899 C55.67518458 93.15453451 59.45146496 93.16825313 63.23046875 93.17578125 C65.86355986 93.19828186 68.49664219 93.22183133 71.12971497 93.24638367 C76.6501781 93.29110125 82.17005405 93.30156692 87.69067383 93.29711914 C94.04979439 93.29292029 100.40474497 93.36663997 106.76281089 93.47732478 C112.90236867 93.58035284 119.03994609 93.60502359 125.18032265 93.60085106 C127.78107016 93.60908713 130.38185167 93.6399168 132.98204613 93.69417763 C147.49459915 94.61203591 147.49459915 94.61203591 160.1065979 88.84481812 C163.16640897 85.37213034 167 80.79979728 167 76 C120.14 76 73.28 76 25 76 Z M59 110 C69.53630801 118.42904641 83.4568112 124.67155982 97 126 C110.34595058 123.78331863 122.4122803 117.76698877 134 111 C134 110.67 134 110.34 134 110 C109.25 110 84.5 110 59 110 Z M57 158 C57 158.33 57 158.66 57 159 C83.07 159 109.14 159 136 159 C110.98056054 138.98444843 83.02001612 142.06362157 57 158 Z M25.39459229 186.03422546 C24.93437683 187.01293106 24.47416138 187.99163666 24 189 C23.34 190.32 22.68 191.64 22 193 C71.17 193 120.34 193 171 193 C169.02 190.03 167.04 187.06 165 184 C163.70053436 182.01953926 163.70053436 182.01953926 162.37481689 179.99906921 C159.68835886 176.996882 157.57470609 176.45793564 153.60028076 176.07746887 C151.4017958 176.02077114 149.20211139 176.00262059 147.00292969 176.01489258 C145.79892014 175.99459488 144.59491058 175.97429718 143.35441589 175.9533844 C140.06234326 175.90681706 136.77216292 175.891908 133.47981548 175.89506364 C130.72410401 175.89435074 127.96867937 175.87351207 125.21305299 175.85333651 C118.70548527 175.8067749 112.19861299 175.79849867 105.69091797 175.81274414 C98.99711194 175.82661006 92.30644007 175.7704253 85.61329532 175.68037301 C79.85068091 175.60567084 74.08907213 175.57784043 68.32598233 175.58624572 C64.89080203 175.590618 61.45811278 175.57717513 58.02339935 175.51728249 C38.88711542 174.52476919 38.88711542 174.52476919 25.39459229 186.03422546 Z M13 210 C8.91859167 219.17065259 8.91859167 219.17065259 8 226 C66.41 226 124.82 226 185 226 C182.74117906 215.12080737 182.74117906 215.12080737 180 210 C124.89 210 69.78 210 13 210 Z M5 244 C5 249.28 5 254.56 5 260 C65.39 260 125.78 260 188 260 C188 254.72 188 249.44 188 244 C127.61 244 67.22 244 5 244 Z M8 278 C9.67005611 286.82672012 9.67005611 286.82672012 13 294 C68.11 294 123.22 294 180 294 C184.08140833 284.82934741 184.08140833 284.82934741 185 278 C126.59 278 68.18 278 8 278 Z " fill="#F19C1F" transform="translate(298,4)"/>
<path d="M0 0 C8.34978654 9.34380875 12.31948495 20.84040447 12.1940918 33.27294922 C11.94581696 36.50132912 11.273497 39.40869564 10.453125 42.5390625 C10.17694336 43.60431152 9.90076172 44.66956055 9.61621094 45.76708984 C9.40254883 46.57098145 9.18888672 47.37487305 8.96875 48.203125 C9.56075195 48.5340918 10.15275391 48.86505859 10.76269531 49.20605469 C34.50489161 62.49985478 57.96932821 75.76292724 78.96875 93.203125 C79.94908203 93.94755859 79.94908203 93.94755859 80.94921875 94.70703125 C86.59795679 99.1272591 90.63569455 105.06175654 91.96875 112.203125 C92.77112386 122.00134419 91.57865445 129.46456715 85.15625 137.078125 C82.06040834 140.34500764 79.27551618 142.66499422 74.96875 144.203125 C74.30875 144.203125 73.64875 144.203125 72.96875 144.203125 C73.12859375 145.15058594 73.2884375 146.09804688 73.453125 147.07421875 C76.05635934 165.45840735 74.19260867 184.38744158 63.96875 200.203125 C60.94111006 203.05627479 59.61091892 204.09991928 55.46875 204.765625 C51.96875 204.203125 51.96875 204.203125 49.03125 202.140625 C46.96875 199.203125 46.96875 199.203125 46.28125 196.078125 C47.12264336 191.33572609 49.10960996 188.03651836 51.5 183.8984375 C54.33614704 178.69380596 55.05638004 173.86770135 55.0078125 167.95703125 C55.00217285 167.06443604 54.9965332 166.17184082 54.99072266 165.25219727 C54.97984619 164.23790649 54.97984619 164.23790649 54.96875 163.203125 C54.5970166 163.615625 54.2252832 164.028125 53.84228516 164.453125 C35.39892411 184.8232347 35.39892411 184.8232347 27.15625 187.390625 C23.48372831 187.17459431 21.79296454 186.54318848 18.96875 184.203125 C16.98819064 181.68241308 16.96894634 180.25639732 16.95703125 177.0234375 C18.37879188 171.65478152 21.41208089 169.36776329 25.53125 165.828125 C26.99614464 164.51597895 28.4584102 163.20089156 29.91796875 161.8828125 C30.61970215 161.25342773 31.32143555 160.62404297 32.04443359 159.97558594 C36.54993297 155.82563346 40.57334761 151.29622858 43.96875 146.203125 C7.96728933 146.18025242 -28.03417007 146.16262361 -64.0356365 146.15205967 C-68.28279088 146.15080891 -72.52994525 146.1495146 -76.77709961 146.14819336 C-77.62265666 146.14793105 -78.46821371 146.14766874 -79.3393937 146.14739848 C-93.04317205 146.1430433 -106.74694621 146.13515658 -120.45072208 146.1259722 C-134.50470052 146.11663144 -148.55867678 146.11106849 -162.6126582 146.10903651 C-171.28961407 146.10766216 -179.96655813 146.10331632 -188.64351036 146.09520853 C-194.58794049 146.08993588 -200.53236448 146.0883219 -206.47679678 146.08962362 C-209.9100033 146.09026618 -213.34318912 146.08925867 -216.77639198 146.08391953 C-220.49318212 146.07897774 -224.20992082 146.08012856 -227.92671204 146.08287048 C-229.5653118 146.07850122 -229.5653118 146.07850122 -231.23701459 146.07404369 C-232.72467573 146.07703026 -232.72467573 146.07703026 -234.24239063 146.08007717 C-235.1009383 146.07969745 -235.95948597 146.07931773 -236.84405023 146.0789265 C-239.21106486 146.11754354 -239.21106486 146.11754354 -242.03125 147.203125 C-242.9797634 151.86805934 -242.9797634 151.86805934 -242.40625 156.515625 C-240.51179547 158.84063738 -238.89164201 159.29415246 -236.03125 160.203125 C-232.59831108 160.50239843 -232.59831108 160.50239843 -228.81347656 160.45849609 C-227.75141998 160.46392677 -227.75141998 160.46392677 -226.66790771 160.46946716 C-225.1363478 160.47633891 -223.60476352 160.47887078 -222.07318878 160.47751999 C-219.64219275 160.47655066 -217.21163399 160.48954598 -214.78070068 160.50650024 C-207.87108765 160.55264042 -200.96151969 160.5773584 -194.05175781 160.58398438 C-189.81827513 160.58902178 -185.58524875 160.61338515 -181.35192108 160.64931107 C-179.74613953 160.65905886 -178.14029479 160.66146863 -176.53449249 160.65613937 C-166.90122224 160.62567581 -158.5520946 160.74901987 -150.7265625 167.0625 C-144.82940125 174.16256479 -142.39516076 180.13231392 -142.6796875 189.45703125 C-143.56732698 196.39048187 -146.62527939 201.78005814 -152.03125 206.203125 C-158.03467036 210.42109699 -162.32422921 212.30768445 -169.73022461 212.38012695 C-170.87498764 212.39296219 -172.01975067 212.40579742 -173.19920349 212.41902161 C-174.43155228 212.42640854 -175.66390106 212.43379547 -176.93359375 212.44140625 C-178.2034462 212.449478 -179.47329865 212.45754974 -180.78163147 212.46586609 C-183.46733235 212.47969391 -186.15291101 212.49071499 -188.83862305 212.49829102 C-192.27305961 212.50936952 -195.7068508 212.54379925 -199.14105892 212.58346272 C-202.42600628 212.61593053 -205.71101039 212.62040636 -208.99609375 212.62890625 C-210.84158058 212.65516838 -210.84158058 212.65516838 -212.72434998 212.68196106 C-213.87226517 212.67903549 -215.02018036 212.67610992 -216.20288086 212.6730957 C-217.21007675 212.67896194 -218.21727264 212.68482819 -219.25498962 212.69087219 C-222.78691612 212.07036583 -224.46244111 210.65203724 -227.03125 208.203125 C-228.45787219 205.34988063 -228.34158868 203.36857951 -228.03125 200.203125 C-226.23131226 197.50321838 -224.947477 195.6612385 -222.03125 194.203125 C-220.26533037 194.10401762 -218.4957381 194.0675697 -216.72705078 194.0612793 C-215.06490036 194.05072762 -215.06490036 194.05072762 -213.36917114 194.03996277 C-212.16711029 194.03579849 -210.96504944 194.03163422 -209.7265625 194.02734375 C-207.19921039 194.00414897 -204.67186661 193.98003178 -202.14453125 193.95507812 C-198.14593644 193.91991646 -194.14765189 193.888913 -190.14892578 193.87719727 C-186.29942415 193.86176126 -182.45082659 193.82157895 -178.6015625 193.77734375 C-176.80454391 193.78020638 -176.80454391 193.78020638 -174.97122192 193.78312683 C-173.29961502 193.75839043 -173.29961502 193.75839043 -171.59423828 193.7331543 C-170.61431915 193.72728806 -169.63440002 193.72142181 -168.62478638 193.71537781 C-165.2940727 193.05752413 -164.1013896 191.84604877 -162.03125 189.203125 C-161.28125 186.203125 -161.28125 186.203125 -162.03125 183.203125 C-164.79120618 180.33815429 -166.46038346 179.28700359 -170.42597961 178.70433044 C-171.72311386 178.70449661 -173.02024811 178.70466278 -174.35668945 178.70483398 C-175.07608704 178.69931519 -175.79548462 178.69379639 -176.53668213 178.68811035 C-178.09278452 178.67881286 -179.648963 178.67866661 -181.2050724 178.68670464 C-183.67381685 178.69936898 -186.14144869 178.68801304 -188.6101532 178.67066956 C-192.96530736 178.64398114 -197.32018795 178.638373 -201.67541504 178.63977051 C-208.63485876 178.64199916 -215.59396234 178.62770459 -222.55327415 178.58418465 C-224.97509759 178.5743983 -227.39637976 178.58303806 -229.81819153 178.59288025 C-245.48496471 178.57074373 -245.48496471 178.57074373 -252.45703125 173.40625 C-259.01011653 166.62251783 -261.16027988 162.20668028 -261.46875 152.765625 C-261.28461024 145.28955068 -260.30740505 140.77645341 -255.265625 135.27734375 C-250.88726057 131.11445001 -246.78773342 128.9506289 -241.03125 127.203125 C-241.61132812 126.18605469 -241.61132812 126.18605469 -242.203125 125.1484375 C-252.67081694 106.44132468 -256.28884474 87.49070882 -251.00610352 66.42114258 C-247.41496814 53.71278679 -240.97839376 42.88230779 -232.03125 33.203125 C-231.44601563 32.54957031 -230.86078125 31.89601563 -230.2578125 31.22265625 C-214.8531535 14.84164562 -190.20408841 5.89395092 -167.97558594 4.99829102 C-163.38979666 4.87356121 -158.80589054 4.86839368 -154.21875 4.890625 C-153.39911774 4.89311249 -152.57948547 4.89559998 -151.73501587 4.89816284 C-129.39845057 5.00275385 -108.43025905 8.6735401 -86.7109375 13.58203125 C-85.54288574 13.8457251 -84.37483398 14.10941895 -83.17138672 14.38110352 C-80.3302877 15.12484325 -77.724146 16.04104409 -75.03125 17.203125 C-74.825 16.39875 -74.61875 15.594375 -74.40625 14.765625 C-70.07282766 3.53812167 -61.89627937 -4.83000443 -51.03125 -9.796875 C-33.03902152 -17.1531524 -14.13447528 -13.41750914 0 0 Z " fill="#A48F77" transform="translate(261.03125,287.796875)"/>
<path d="M0 0 C2.0078125 1.671875 2.0078125 1.671875 4.125 3.75 C12.07342767 10.99823992 20.59807995 13.80165607 31 16 C31 16.33 31 16.66 31 17 C30.01604248 17.02505615 29.03208496 17.0501123 28.01831055 17.07592773 C24.36729943 17.1701082 20.71647384 17.2703029 17.06567383 17.37231445 C15.48563985 17.41562305 13.90556031 17.45730106 12.32543945 17.49731445 C10.05405952 17.55511583 7.78290811 17.6187816 5.51171875 17.68359375 C4.80536789 17.70030624 4.09901703 17.71701874 3.3712616 17.73423767 C0.3335176 17.8259747 -2.09623058 18.03207686 -5 19 C-5.9485134 23.66493434 -5.9485134 23.66493434 -5.375 28.3125 C-3.48054547 30.63751238 -1.86039201 31.09102746 1 32 C4.43293892 32.29927343 4.43293892 32.29927343 8.21777344 32.25537109 C9.27983002 32.26080177 9.27983002 32.26080177 10.36334229 32.26634216 C11.8949022 32.27321391 13.42648648 32.27574578 14.95806122 32.27439499 C17.38905725 32.27342566 19.81961601 32.28642098 22.25054932 32.30337524 C29.16016235 32.34951542 36.06973031 32.3742334 42.97949219 32.38085938 C47.21297487 32.38589678 51.44600125 32.41026015 55.67932892 32.44618607 C57.28511047 32.45593386 58.89095521 32.45834363 60.49675751 32.45301437 C70.13002776 32.42255081 78.4791554 32.54589487 86.3046875 38.859375 C92.20184875 45.95943979 94.63608924 51.92918892 94.3515625 61.25390625 C93.46392302 68.18735687 90.40597061 73.57693314 85 78 C78.99657964 82.21797199 74.70702079 84.10455945 67.30102539 84.17700195 C66.15626236 84.18983719 65.01149933 84.20267242 63.83204651 84.21589661 C62.59969772 84.22328354 61.36734894 84.23067047 60.09765625 84.23828125 C58.8278038 84.246353 57.55795135 84.25442474 56.24961853 84.26274109 C53.56391765 84.27656891 50.87833899 84.28758999 48.19262695 84.29516602 C44.75819039 84.30624452 41.3243992 84.34067425 37.89019108 84.38033772 C34.60524372 84.41280553 31.32023961 84.41728136 28.03515625 84.42578125 C26.18966942 84.45204338 26.18966942 84.45204338 24.30690002 84.47883606 C23.15898483 84.47591049 22.01106964 84.47298492 20.82836914 84.4699707 C19.82117325 84.47583694 18.81397736 84.48170319 17.77626038 84.48774719 C14.24433388 83.86724083 12.56880889 82.44891224 10 80 C8.57337781 77.14675563 8.68966132 75.16545451 9 72 C10.79993774 69.30009338 12.083773 67.4581135 15 66 C16.76591963 65.90089262 18.5355119 65.8644447 20.30419922 65.8581543 C21.96634964 65.84760262 21.96634964 65.84760262 23.66207886 65.83683777 C24.86413971 65.83267349 26.06620056 65.82850922 27.3046875 65.82421875 C29.83203961 65.80102397 32.35938339 65.77690678 34.88671875 65.75195312 C38.88531356 65.71679146 42.88359811 65.685788 46.88232422 65.67407227 C50.73182585 65.65863626 54.58042341 65.61845395 58.4296875 65.57421875 C60.22670609 65.57708138 60.22670609 65.57708138 62.06002808 65.58000183 C63.73163498 65.55526543 63.73163498 65.55526543 65.43701172 65.5300293 C66.41693085 65.52416306 67.39684998 65.51829681 68.40646362 65.51225281 C71.7371773 64.85439913 72.9298604 63.64292377 75 61 C75.75 58 75.75 58 75 55 C72.24004382 52.13502929 70.57086654 51.08387859 66.60527039 50.50120544 C65.30813614 50.50137161 64.01100189 50.50153778 62.67456055 50.50170898 C61.95516296 50.49619019 61.23576538 50.49067139 60.49456787 50.48498535 C58.93846548 50.47568786 57.382287 50.47554161 55.8261776 50.48357964 C53.35743315 50.49624398 50.88980131 50.48488804 48.4210968 50.46754456 C44.06594264 50.44085614 39.71106205 50.435248 35.35583496 50.43664551 C28.39639124 50.43887416 21.43728766 50.42457959 14.47797585 50.38105965 C12.05615241 50.3712733 9.63487024 50.37991306 7.21305847 50.38975525 C-8.45371471 50.36761873 -8.45371471 50.36761873 -15.42578125 45.203125 C-21.97886653 38.41939283 -24.12902988 34.00355528 -24.4375 24.5625 C-24.25336024 17.08642568 -23.27615505 12.57332841 -18.234375 7.07421875 C-13.46371711 2.53833733 -6.86280616 -2.70272675 0 0 Z " fill="#CBB192" transform="translate(24,416)"/>
<path d="M0 0 C60.39 0 120.78 0 183 0 C183 9 183 9 181 18 C121.93 18 62.86 18 2 18 C0 11 0 11 0 0 Z " fill="#4482C2" transform="translate(303,264)"/>
<path d="M0 0 C1.95650561 0.00138269 1.95650561 0.00138269 3.95253658 0.00279331 C5.03800137 0.00151167 5.03800137 0.00151167 6.14539474 0.00020415 C8.58837104 -0.00145279 11.03127979 0.00407418 13.47424984 0.00952244 C15.21821752 0.00980429 16.96218531 0.00964662 18.70615292 0.00907993 C23.45595252 0.00879188 28.2057271 0.01468986 32.95552087 0.02165389 C37.91366179 0.02788614 42.87180323 0.02849112 47.82994747 0.0296793 C57.22577585 0.032793 66.62159266 0.0410069 76.01741594 0.05102879 C86.71130907 0.06218873 97.40520274 0.06770008 108.09910023 0.07272422 C130.10363248 0.08318948 152.1081543 0.10078967 174.11267757 0.12304783 C177.30483991 6.19594202 177.11267757 11.14935855 177.11267757 18.12304783 C116.72267757 18.12304783 56.33267757 18.12304783 -5.88732243 18.12304783 C-5.88732243 0.25089759 -5.88732243 0.25089759 0 0 Z " fill="#E57E24" transform="translate(308.8873224258423,229.87695217132568)"/>
<path d="M0 0 C59.73 0 119.46 0 181 0 C181 9.02392344 181 9.02392344 179.5625 12.9375 C179.29566406 13.68902344 179.02882813 14.44054688 178.75390625 15.21484375 C178 17 178 17 177 18 C174.77241743 18.09703132 172.54169074 18.12186673 170.31199646 18.12025452 C169.60468748 18.12110894 168.89737849 18.12196337 168.1686359 18.12284368 C165.78093718 18.12450055 163.39330757 18.11897377 161.00561523 18.11352539 C159.30105593 18.11324354 157.59649649 18.11340122 155.89193726 18.1139679 C151.249572 18.11425594 146.60723235 18.10835806 141.96487308 18.10139394 C137.11884105 18.09516159 132.27280849 18.0945567 127.42677307 18.09336853 C118.24344036 18.09025486 109.0601195 18.082041 99.87679201 18.07201904 C89.42473229 18.060859 78.97267202 18.05534773 68.52060783 18.05032361 C47.01373193 18.03985841 25.50686671 18.02225829 4 18 C0.43895433 10.95428498 0 8.3185547 0 0 Z " fill="#E57E25" transform="translate(304,29)"/>
<path d="M0 0 C8.38244765 9.38035809 12.35353043 20.92925139 12.18359375 33.41015625 C11.68195182 39.9315014 10.45802688 45.99048507 6.78125 51.453125 C2.75038938 53.96121605 0.67654177 53.87566668 -4.03125 53.203125 C-6.53125 51.703125 -6.53125 51.703125 -8.03125 49.203125 C-8.50587745 45.7225237 -8.63545518 42.41153535 -7.03125 39.203125 C-6.28851108 30.02499409 -5.75628316 21.60031512 -12.03125 14.203125 C-16.939118 8.93387005 -22.07247693 5.5857749 -29.3046875 4.88671875 C-36.45943029 4.65026137 -42.14134023 4.93392866 -48.03125 9.203125 C-48.85882813 9.79351562 -49.68640625 10.38390625 -50.5390625 10.9921875 C-55.37427488 15.28173328 -58.29909489 21.50931992 -59.55078125 27.82421875 C-59.87748077 35.38670752 -57.6182298 43.2076747 -52.65625 48.953125 C-51.79 49.695625 -50.92375 50.438125 -50.03125 51.203125 C-44.10100019 56.83137135 -44.10100019 56.83137135 -43.84375 61.890625 C-45.26935428 65.86731062 -46.28552508 67.24883374 -50.03125 69.203125 C-54.79522831 69.47278415 -57.46899972 68.15903481 -61.03125 65.203125 C-70.05205111 56.6193782 -76.36007848 46.93511204 -77.234375 34.2578125 C-77.44033824 20.28663908 -73.89904279 9.18798824 -64.21875 -1.109375 C-45.83665323 -18.44306321 -18.05369221 -17.13792522 0 0 Z " fill="#CBB191" transform="translate(261.03125,287.796875)"/>
<path d="M0 0 C53.79 0 107.58 0 163 0 C158.69829784 12.90510647 158.69829784 12.90510647 154 18 C149.33889085 19.70936013 144.79010211 19.52496351 139.89477539 19.36230469 C138.46519254 19.35891618 137.03558882 19.36082693 135.60601807 19.36761475 C131.739007 19.37104844 127.87649238 19.30068519 124.01052403 19.21672726 C119.96553782 19.14153592 115.92043989 19.13464938 111.87486267 19.12042236 C104.22071421 19.08317359 96.56863081 18.98477529 88.91539043 18.86422849 C80.19984616 18.72993953 71.48420143 18.66408213 62.76787961 18.60388327 C44.84408369 18.47856465 26.92220804 18.2675978 9 18 C7.68144905 15.75335738 6.37006028 13.50302694 5.0625 11.25 C4.68931641 10.61578125 4.31613281 9.9815625 3.93164062 9.328125 C2.10200459 6.16334916 0.89458638 3.57834553 0 0 Z " fill="#4482C2" transform="translate(313,62)"/>
<path d="M0 0 C55.11 0 110.22 0 167 0 C166.11279404 4.43602981 165.16047615 6.90684532 163 10.75 C162.46375 11.71421875 161.9275 12.6784375 161.375 13.671875 C160 16 160 16 159 17 C157.06277522 17.11415758 155.12136149 17.15747593 153.18084717 17.17408752 C151.91616104 17.18702347 150.65147491 17.19995941 149.34846497 17.21328735 C147.93380839 17.22250822 146.51915074 17.23156642 145.10449219 17.24047852 C143.62478864 17.25328397 142.14508792 17.2664193 140.66539001 17.27986145 C127.14833091 17.395842 113.63052786 17.45240033 100.11306381 17.49662876 C90.11625551 17.5298835 80.12035236 17.58945448 70.1239326 17.68413979 C63.10054985 17.74842269 56.07741408 17.78215823 49.05374837 17.79337829 C44.85625079 17.80094751 40.6598455 17.8221979 36.46266937 17.87640572 C32.51260033 17.9268182 28.56420273 17.93945754 24.61386299 17.92315483 C23.16458686 17.92375899 21.71524156 17.93805945 20.26625633 17.96710205 C9.31504583 18.1751124 9.31504583 18.1751124 6.06781769 15.27342033 C4.75418758 13.2146679 3.85422337 11.28190287 3 9 C2.401875 7.906875 1.80375 6.81375 1.1875 5.6875 C0 3 0 3 0 0 Z " fill="#FA7B75" transform="translate(311,298)"/>
<path d="M0 0 C1.47708759 -0.01739698 2.95413908 -0.03813253 4.43113708 -0.06195068 C8.43778886 -0.11547789 12.44293099 -0.11783099 16.44987059 -0.10769749 C19.79732211 -0.10341541 23.14446905 -0.12295998 26.49185526 -0.14211917 C34.39112393 -0.18648915 42.28963186 -0.18825761 50.18896484 -0.1640625 C58.3316865 -0.13990488 66.47164314 -0.18913289 74.61389291 -0.27434278 C81.61040249 -0.34486296 88.60603309 -0.36880433 95.60288489 -0.35579181 C99.77944154 -0.34854642 103.95402641 -0.35900719 108.13026047 -0.41464996 C112.0600357 -0.46505026 115.98551321 -0.45713885 119.91522408 -0.40500641 C121.35392919 -0.3955597 122.79293859 -0.40643031 124.23129463 -0.4394989 C128.63769397 -0.5334696 132.52356548 -0.42013508 136.68212891 1.09863281 C141.36244723 6.1231655 143.35111915 11.44358401 144.68212891 18.09863281 C89.57212891 18.09863281 34.46212891 18.09863281 -22.31787109 18.09863281 C-17.35649901 3.21451656 -15.98721768 -0.12378238 0 0 Z " fill="#955BA4" transform="translate(333.31787109375,195.9013671875)"/>
<path d="M0 0 C1.0473381 -0.00563965 2.09467621 -0.0112793 3.17375183 -0.01708984 C4.31212494 -0.01304138 5.45049805 -0.00899292 6.62336731 -0.00482178 C7.83032761 -0.00832642 9.0372879 -0.01183105 10.28082275 -0.01544189 C13.58229703 -0.02272691 16.88352005 -0.02103302 20.18498015 -0.01468372 C23.64070834 -0.00961401 27.09642593 -0.01431756 30.55215454 -0.01745605 C36.35162786 -0.0210914 42.15105018 -0.0163064 47.95051575 -0.0067749 C54.65970947 0.00412424 61.36878178 0.00057181 68.07797259 -0.01042771 C73.83857711 -0.01949454 79.59914503 -0.02078931 85.35975438 -0.01555037 C88.80043582 -0.01242931 92.24106011 -0.01202535 95.6817379 -0.01862335 C99.51258978 -0.02545709 103.34330475 -0.01599402 107.17414856 -0.00482178 C108.89081726 -0.01089447 108.89081726 -0.01089447 110.64216614 -0.01708984 C111.68104477 -0.0114502 112.7199234 -0.00581055 113.7902832 0 C115.14940464 0.00113108 115.14940464 0.00113108 116.53598309 0.002285 C118.70466614 0.25396729 118.70466614 0.25396729 120.70466614 2.25396729 C121.33747864 4.42584229 121.33747864 4.42584229 121.82966614 7.00396729 C121.99724426 7.84443604 122.16482239 8.68490479 122.33747864 9.55084229 C122.73555104 12.48133273 122.72861328 15.29980673 122.70466614 18.25396729 C105.84116416 18.34741612 88.977743 18.41794907 72.11404133 18.46121597 C64.28389136 18.4818397 56.45390229 18.5099565 48.62385559 18.5557251 C41.79903356 18.59559888 34.97432806 18.62140149 28.14939278 18.63032126 C24.53571058 18.63553517 20.92236173 18.64778524 17.30878639 18.67688751 C13.27433623 18.70911567 9.24046531 18.70992637 5.20588684 18.70806885 C4.00826721 18.72244995 2.81064758 18.73683105 1.57673645 18.75164795 C-6.49904689 18.71130505 -6.49904689 18.71130505 -10.51416016 16.40527344 C-12.84918869 13.58502001 -13.29533386 11.91354633 -13.29533386 8.25396729 C-12.08168615 4.74787388 -11.37626864 2.8005279 -8.00910473 1.09796524 C-5.17883808 0.21773644 -2.95677803 0.0024576 0 0 Z " fill="#4481C2" transform="translate(362.2953338623047,464.74603271484375)"/>
<path d="M0 0 C7.16474195 5.57257707 12.42193861 11.18520574 14.8125 20.1875 C15.34558616 25.51836164 15.11393527 30.84874651 14.8125 36.1875 C15.52269287 36.16131592 16.23288574 36.13513184 16.96459961 36.1081543 C20.22616879 36.00331909 23.48738226 35.9389013 26.75 35.875 C27.86697266 35.83310547 28.98394531 35.79121094 30.13476562 35.74804688 C38.54097148 35.62478872 44.54494988 37.05985135 50.68920898 43.00268555 C55.99387306 48.72886837 57.11594886 53.75958347 56.9375 61.5 C56.89625 64.036875 56.855 66.57375 56.8125 69.1875 C51.5325 69.1875 46.2525 69.1875 40.8125 69.1875 C40.71484375 66.48567708 40.6171875 63.78385417 40.51953125 61.08203125 C39.5480951 57.10504677 38.01002584 55.7221081 34.8125 53.1875 C31.88520398 52.73981364 29.53694164 52.57966961 26.625 52.65625 C25.84487549 52.65298706 25.06475098 52.64972412 24.26098633 52.6463623 C21.77745552 52.63654941 19.29585743 52.6581083 16.8125 52.6875 C13.54094876 52.72622034 10.27170581 52.7324342 7 52.71875 C6.25403564 52.73836792 5.50807129 52.75798584 4.73950195 52.77819824 C0.75390386 52.75836372 -0.99895807 52.3361343 -4.16796875 49.83789062 C-6.1875 47.1875 -6.1875 47.1875 -6.6875 44.25 C-6.1875 41.1875 -6.1875 41.1875 -4.6875 38.5625 C-2.43059547 33.48446481 -2.51853732 28.65946436 -3.1875 23.1875 C-5.48379459 18.24163474 -8.50073865 15.87989482 -13.1875 13.1875 C-19.08077133 11.22307622 -23.62933222 11.90722604 -29.1875 14.1875 C-33.0742211 14.59662854 -35.2598498 14.79779618 -38.5625 12.625 C-40.7574479 9.33257816 -41.25694397 7.14580645 -41.1875 3.1875 C-31.78483907 -10.75437655 -12.32282184 -7.00709477 0 0 Z " fill="#5F5346" transform="translate(102.1875,362.8125)"/>
<path d="M0 0 C5.52735374 4.33225023 6.40941111 12.63975287 7.56640625 19.22265625 C9.68863585 37.71090867 8.30658374 56.05634596 -2 72 C-5.02763994 74.85314979 -6.35783108 75.89679428 -10.5 76.5625 C-14 76 -14 76 -16.9375 73.9375 C-19 71 -19 71 -19.6875 67.875 C-18.84610664 63.13260109 -16.85914004 59.83339336 -14.46875 55.6953125 C-11.63260296 50.49068096 -10.91236996 45.66457635 -10.9609375 39.75390625 C-10.96657715 38.86131104 -10.9722168 37.96871582 -10.97802734 37.04907227 C-10.98527832 36.37287842 -10.9925293 35.69668457 -11 35 C-11.3717334 35.4125 -11.7434668 35.825 -12.12646484 36.25 C-30.56982589 56.6201097 -30.56982589 56.6201097 -38.8125 59.1875 C-42.48502169 58.97146931 -44.17578546 58.34006348 -47 56 C-48.98055936 53.47928808 -48.99980366 52.05327232 -49.01171875 48.8203125 C-47.589865 43.45130489 -44.55639514 41.16518464 -40.4375 37.625 C-38.96621111 36.30490755 -37.4974334 34.98201066 -36.03125 33.65625 C-35.32871094 33.02589844 -34.62617188 32.39554687 -33.90234375 31.74609375 C-30.28604472 28.42682133 -27.09837741 24.79824619 -24 21 C-23.40058594 20.27683594 -22.80117188 19.55367188 -22.18359375 18.80859375 C-18.4195714 14.13405195 -15.28018661 9.309099 -12.359375 4.06640625 C-9.33320383 -0.53372177 -5.08895465 -0.94774054 0 0 Z " fill="#CBB292" transform="translate(327,416)"/>
<path d="M0 0 C1.77136826 -0.00087616 1.77136826 -0.00087616 3.57852173 -0.00177002 C6.80774028 0.00053564 10.03626123 0.02056487 13.26534104 0.04852581 C16.6432276 0.07356841 20.02112856 0.07588369 23.39909363 0.08062744 C29.79164089 0.09304891 36.1839138 0.12585898 42.57634038 0.1660254 C49.85560187 0.21076917 57.13487661 0.23273665 64.41424143 0.25280714 C79.38463075 0.29459258 94.35476349 0.3649282 109.32495117 0.45410156 C108.37591357 1.57345568 107.4251358 2.69133457 106.47363281 3.80859375 C105.94435684 4.43127136 105.41508087 5.05394897 104.86976624 5.69549561 C102.96493881 7.86393695 100.92830401 9.79784111 98.76245117 11.70410156 C98.03928711 12.34863281 97.31612305 12.99316406 96.57104492 13.65722656 C90.78678818 18.28463196 86.90882762 18.89071914 79.65698242 18.84228516 C78.6889267 18.84754211 77.72087097 18.85279907 76.72348022 18.85821533 C73.52797241 18.8714041 70.33296394 18.86268102 67.13745117 18.85253906 C64.91454981 18.85456011 62.69164909 18.85747181 60.46875 18.86123657 C55.81170331 18.86565841 51.15482934 18.85923323 46.49780273 18.84521484 C40.52895866 18.82812322 34.56051929 18.83796512 28.59169006 18.85593224 C24.00204419 18.86677374 19.41249423 18.863322 14.82284546 18.85554886 C12.62201896 18.85354788 10.42118375 18.85600254 8.22036743 18.86298752 C5.144317 18.87060784 2.06892159 18.85898917 -1.00708008 18.84228516 C-2.37094345 18.8513942 -2.37094345 18.8513942 -3.76235962 18.86068726 C-8.55958164 18.81243644 -11.77720689 18.57190691 -15.67504883 15.45410156 C-17.76111809 12.79910432 -17.67384338 11.38659652 -17.61254883 7.95410156 C-16.67504883 4.45410156 -16.67504883 4.45410156 -14.84614563 2.26373291 C-10.01062034 -0.49572815 -5.47435223 -0.07070484 0 0 Z " fill="#4FB96E" transform="translate(347.675048828125,330.5458984375)"/>
<path d="M0 0 C1.19307266 -0.01467567 1.19307266 -0.01467567 2.4102478 -0.02964783 C5.05074386 -0.05963415 7.69118889 -0.08100195 10.33178711 -0.09985352 C11.23442228 -0.10642534 12.13705746 -0.11299717 13.06704521 -0.11976814 C17.84953112 -0.15238375 22.63199463 -0.17682328 27.41455078 -0.19628906 C31.36540398 -0.21406741 35.31553875 -0.2488281 39.26611328 -0.29882812 C44.04067767 -0.35918616 48.81457842 -0.38978707 53.58950615 -0.39946175 C55.40472568 -0.4079953 57.2199285 -0.42676143 59.03492928 -0.45620537 C77.070365 -0.73291186 77.070365 -0.73291186 84.29663086 6.20874023 C85.46378308 7.19538405 86.63162722 8.18121068 87.80053711 9.16577148 C88.82596994 10.11123346 89.84565454 11.06297274 90.85913086 12.02124023 C91.39086914 12.51043945 91.92260742 12.99963867 92.47045898 13.50366211 C93.77018095 14.71305591 95.03700483 15.95763959 96.29663086 17.20874023 C96.29663086 17.53874023 96.29663086 17.86874023 96.29663086 18.20874023 C55.04663086 18.20874023 13.79663086 18.20874023 -28.70336914 18.20874023 C-24.50785961 13.31397912 -20.99633204 9.55509906 -15.95336914 5.83374023 C-15.3771582 5.39674805 -14.80094727 4.95975586 -14.20727539 4.50952148 C-9.14938497 0.70136623 -6.22463483 0.04808784 0 0 Z " fill="#4FB96E" transform="translate(360.703369140625,162.791259765625)"/>
<path d="M0 0 C0.93692688 -0.00058411 1.87385376 -0.00116821 2.83917236 -0.00177002 C5.93450024 0.0010156 9.02886389 0.03213064 12.12402344 0.06347656 C14.27064488 0.07093724 16.41727313 0.07663099 18.56390381 0.08062744 C24.2127972 0.09589732 29.86127897 0.13519118 35.51000977 0.17944336 C41.27452018 0.22036664 47.03909712 0.23863219 52.80371094 0.25878906 C64.11378759 0.3016838 75.42355878 0.36995182 86.73339844 0.45410156 C88.07749606 2.69826456 89.4086974 4.94852952 90.73339844 7.20410156 C91.11496094 7.83832031 91.49652344 8.47253906 91.88964844 9.12597656 C93.91255496 12.59381632 94.73339844 14.34758411 94.73339844 18.45410156 C81.81594742 18.52365339 68.89854105 18.57693932 55.98094082 18.60953808 C49.98258786 18.6251849 43.98436314 18.64640553 37.98608398 18.68041992 C32.19595646 18.71304797 26.4059522 18.73096198 20.61573982 18.73873329 C18.40817386 18.74427057 16.20061453 18.75508353 13.99310112 18.77129173 C10.89784105 18.79311143 7.80308844 18.79606654 4.70776367 18.79467773 C3.79785675 18.80546356 2.88794983 18.81624939 1.95046997 18.82736206 C-3.55179757 18.80069896 -7.39140047 18.06061174 -12.26660156 15.45410156 C-14.51020497 12.83656426 -14.26617677 11.4422073 -14.14160156 7.95410156 C-12.11343601 -0.15856064 -7.30824057 -0.11898764 0 0 Z " fill="#E47D24" transform="translate(380.2666015625,431.5458984375)"/>
<path d="M0 0 C6.80065483 3.94840651 11.60044201 9.74295793 14.5625 17 C14.82067268 19.80381081 14.93966901 22.33647239 14.875 25.125 C14.87822266 25.82753906 14.88144531 26.53007812 14.88476562 27.25390625 C14.84599727 30.98271722 14.620347 33.83534287 12.5625 37 C12.04042969 36.7834375 11.51835937 36.566875 10.98046875 36.34375 C2.83988849 33.26430107 -5.52693898 32.45138933 -13.66015625 36.02734375 C-19.54040218 39.24532449 -22.48452547 43.20762688 -25.4375 49 C-32.30992929 44.68788751 -35.81213777 40.17950288 -38.75 32.625 C-40.42231606 23.80733351 -39.69846242 17.78099596 -35.3515625 9.77734375 C-27.40336979 -1.75564608 -12.88455679 -5.86919228 0 0 Z " fill="#FA7B76" transform="translate(240.4375,294)"/>
<path d="M0 0 C39.27 0 78.54 0 119 0 C112.18210198 7.95421436 112.18210198 7.95421436 108.4375 11.25 C107.71433594 11.89453125 106.99117188 12.5390625 106.24609375 13.203125 C101.30207513 17.1583399 97.67552029 18.45151315 91.35498047 18.4675293 C90.22459099 18.48746193 90.22459099 18.48746193 89.07136536 18.50779724 C86.5865313 18.54639992 84.10228357 18.56207773 81.6171875 18.57421875 C79.87948485 18.58895113 78.14178344 18.60383076 76.40408325 18.61885071 C72.7608876 18.64582368 69.11789561 18.65938465 65.47460938 18.66577148 C60.83057847 18.67661043 56.18873668 18.73822575 51.54534721 18.8124876 C47.95393831 18.86113263 44.36304565 18.87330753 40.7713356 18.87583351 C39.06100922 18.88301709 37.35068122 18.90331108 35.64068222 18.93753624 C24.41771955 19.14491326 17.48011701 18.15008917 9 10 C8.44821579 9.5130365 7.89643158 9.026073 7.32792664 8.52435303 C6.10788682 7.42151949 4.95442804 6.24602834 3.8125 5.0625 C3.07644531 4.31097656 2.34039062 3.55945313 1.58203125 2.78515625 C0 1 0 1 0 0 Z " fill="#FB7B75" transform="translate(335,96)"/>
<path d="M0 0 C1.4478463 -0.03850571 1.4478463 -0.03850571 2.92494202 -0.07778931 C4.48274635 -0.0999501 4.48274635 -0.0999501 6.07202148 -0.12255859 C7.15007553 -0.13870209 8.22812958 -0.15484558 9.33885193 -0.17147827 C11.62264605 -0.19913263 13.90652237 -0.22058922 16.19042969 -0.23632812 C18.51326919 -0.25931852 20.83600506 -0.30014611 23.15820312 -0.359375 C46.50937063 -0.95483892 46.50937063 -0.95483892 54.24609375 6.28271484 C54.86798584 6.96624023 55.48987793 7.64976562 56.13061523 8.35400391 C57.14146608 9.26282858 58.15512538 10.16855671 59.17358398 11.06884766 C59.8812793 11.80232422 60.58897461 12.53580078 61.31811523 13.29150391 C62.05416992 14.04302734 62.79022461 14.79455078 63.54858398 15.56884766 C65.13061523 17.35400391 65.13061523 17.35400391 65.13061523 18.35400391 C55.95978675 18.44674103 46.78912001 18.51778746 37.61792469 18.56125259 C33.35920953 18.58211523 29.1008155 18.61040822 24.84228516 18.65576172 C20.73146604 18.69926742 16.62095553 18.72315098 12.50992393 18.73351288 C10.94262522 18.74089584 9.37534314 18.75531326 7.80817604 18.77692413 C5.61035475 18.80602242 3.41380367 18.80995745 1.21582031 18.80810547 C-0.034384 18.81698792 -1.28458832 18.82587036 -2.57267761 18.83502197 C-6.49566859 18.26262368 -8.13054367 17.17914172 -10.86938477 14.35400391 C-12.00948247 10.43491804 -12.27827108 8.32241887 -10.68188477 4.54150391 C-7.61856698 0.84439623 -4.69805512 0.10931106 0 0 Z " fill="#955BA4" transform="translate(388.869384765625,397.64599609375)"/>
<path d="M0 0 C1.67642578 0.03383789 1.67642578 0.03383789 3.38671875 0.06835938 C6.1341989 0.12706622 8.87889761 0.20913154 11.625 0.3125 C12.30731162 1.8263789 12.9700597 3.34908006 13.625 4.875 C13.99625 5.72191406 14.3675 6.56882812 14.75 7.44140625 C15.78463889 10.83631512 15.76460511 13.78310819 15.625 17.3125 C11.56835053 17.4115914 7.5121723 17.48407106 3.45458984 17.53222656 C2.0752332 17.55230642 0.69596131 17.57957666 -0.68310547 17.61425781 C-2.66856979 17.66292817 -4.65466254 17.68336418 -6.640625 17.703125 C-7.83461914 17.72407227 -9.02861328 17.74501953 -10.25878906 17.76660156 C-13.98672735 17.22335766 -15.08994666 16.23644393 -17.375 13.3125 C-18.837958 10.386584 -18.82023109 8.55632653 -18.375 5.3125 C-13.14278814 -0.9081193 -7.71481871 -0.2953258 0 0 Z " fill="#615447" transform="translate(337.375,389.6875)"/>
<path d="M0 0 C3.38121991 2.44598887 4.76936783 3.89296559 5.625 8 C4.76936783 12.10703441 3.38121991 13.55401113 0 16 C-3.96476406 16.62601538 -5.99762021 16.65946039 -9.375 14.4375 C-11.5699479 11.14507816 -12.06944397 8.95830645 -12 5 C-8.67361119 0.11436644 -5.79807152 -1.03536991 0 0 Z " fill="#49515D" transform="translate(272,374)"/>
</svg>
