<?xml version="1.0" encoding="UTF-8"?>
<svg version="1.1" xmlns="http://www.w3.org/2000/svg" width="512" height="512">
<path d="M0 0 C0.76570312 0.66515625 1.53140625 1.3303125 2.3203125 2.015625 C3.12726563 2.70140625 3.93421875 3.3871875 4.765625 4.09375 C30.42405735 26.45439011 47.06086149 57.07864473 51.3203125 91.015625 C52.60855869 115.86900363 49.80429251 137.59984016 41.3203125 161.015625 C41.87678467 161.10013916 42.43325684 161.18465332 43.0065918 161.27172852 C80.87015165 167.18294985 115.25357936 183.19401812 138.78125 214.5 C139.63282713 215.66808509 140.48124642 216.83852071 141.3203125 218.015625 C142.02994141 216.20191406 142.02994141 216.20191406 142.75390625 214.3515625 C151.91149102 191.47167474 164.44656165 172.83372761 187.5703125 162.0546875 C192.3005722 160.26740188 195.66410724 159.87725132 200.48046875 161.94140625 C205.23459509 164.59025704 207.17397427 166.92265116 209.3203125 172.015625 C209.71903992 175.54647827 209.71903992 175.54647827 209.75268555 179.48974609 C209.7628772 180.21238647 209.77306885 180.93502686 209.78356934 181.67956543 C209.8135744 184.04947793 209.82294578 186.41898542 209.83203125 188.7890625 C209.84888726 190.4395989 209.86703875 192.09012253 209.88642883 193.7406311 C209.93383502 198.07078055 209.96370488 202.40087822 209.98986816 206.73120117 C210.01972118 211.15554017 210.06623518 215.57970098 210.11132812 220.00390625 C210.19725445 228.67439142 210.26464696 237.34489299 210.3203125 246.015625 C210.8615123 246.26698715 211.4027121 246.5183493 211.96031189 246.77732849 C214.4455896 247.93455848 216.92787008 249.09808651 219.41015625 250.26171875 C220.26138062 250.65693726 221.11260498 251.05215576 221.98962402 251.45935059 C228.93430076 254.72339884 235.14863795 258.4306889 241.3203125 263.015625 C242.13113281 263.60472656 242.94195312 264.19382812 243.77734375 264.80078125 C266.78824289 282.30988221 285.66256269 308.70220336 291.07421875 337.6015625 C292.7310723 353.85450689 292.7310723 353.85450689 288.3203125 361.015625 C286.671875 362.84375 286.671875 362.84375 284.9453125 364.265625 C284.09839844 364.98492187 284.09839844 364.98492187 283.234375 365.71875 C278.95809977 368.61614464 275.16059134 369.27226125 270.04882812 369.32202148 C268.18164124 369.34600258 268.18164124 369.34600258 266.2767334 369.37046814 C264.92668062 369.37684392 263.57662289 369.38223695 262.2265625 369.38671875 C260.83321031 369.39569233 259.43985908 369.40481431 258.04650879 369.41407776 C255.13140527 369.43053273 252.21641616 369.43826194 249.30126953 369.44116211 C245.57186794 369.44655451 241.84354509 369.48428247 238.11444855 369.52990627 C235.23875011 369.55968759 232.36331177 369.56688581 229.48747253 369.56788826 C228.11275775 369.57208551 226.73804184 369.58450026 225.36347961 369.60540581 C213.27879537 369.77463703 213.27879537 369.77463703 209.93945312 366.66821289 C208.3203125 364.015625 208.3203125 364.015625 208.3203125 361.015625 C203.7003125 361.015625 199.0803125 361.015625 194.3203125 361.015625 C193.9903125 362.665625 193.6603125 364.315625 193.3203125 366.015625 C191.0598756 368.45033781 189.69453216 368.96796227 186.38974071 369.38887918 C185.2382086 369.38806742 184.0866765 369.38725566 182.90024948 369.3864193 C181.93201601 369.39189718 181.93201601 369.39189718 180.94422227 369.39748573 C178.77222008 369.40611747 176.60086931 369.39331003 174.42889404 369.38070679 C172.85959236 369.38256468 171.29029178 369.38575225 169.72099519 369.3901583 C165.40140094 369.3985119 161.0820182 369.38823552 156.7624433 369.37506962 C152.10655167 369.36418064 147.4506821 369.3706293 142.79478455 369.37519836 C134.72392346 369.38095051 126.65312236 369.37630388 118.58226776 369.36518478 C106.90438956 369.34954785 95.22659239 369.3550856 83.548713 369.36680122 C64.59155678 369.38570675 45.63441157 369.39491303 26.67724609 369.39453125 C24.97465049 369.39450509 24.97465049 369.39450509 23.23765901 369.3944784 C10.57630439 369.39402626 -2.08504627 369.39070031 -14.74639893 369.38360596 C-15.88425844 369.38297357 -17.02211795 369.38234119 -18.19445805 369.38168965 C-19.33113508 369.38105708 -20.46781211 369.38042452 -21.6389339 369.37977278 C-23.9310015 369.37850303 -26.22306911 369.37723762 -28.51513672 369.37597656 C-29.64760791 369.37534837 -30.78007911 369.37472018 -31.94686761 369.37407295 C-50.82730657 369.36412052 -69.70767989 369.37344102 -88.58810496 369.39816058 C-100.23652888 369.41260267 -111.88472203 369.41050526 -123.5331327 369.38719858 C-131.51560863 369.37245811 -139.49794923 369.37559519 -147.48041973 369.3928275 C-152.08702948 369.40217187 -156.69326377 369.40329232 -161.29984474 369.38259697 C-165.5180652 369.36379417 -169.73561664 369.36800993 -173.95381364 369.39042456 C-175.47872733 369.39445646 -177.00369192 369.39004917 -178.52854887 369.3762906 C-190.04349031 369.2498345 -190.04349031 369.2498345 -199.6796875 375.015625 C-203.43888777 379.45533287 -204.39440153 383.72716956 -204.12109375 389.51953125 C-203.37687855 393.72796941 -201.77801573 397.05930348 -198.6796875 400.015625 C-191.6466083 404.45672125 -185.7159344 404.5793652 -177.52514648 404.51391602 C-176.22158707 404.51943481 -174.91802765 404.52495361 -173.57496643 404.53063965 C-170.75174909 404.54254247 -167.92890401 404.54213781 -165.10568047 404.53204536 C-160.62712803 404.51638897 -156.14895203 404.5302312 -151.67042542 404.54808044 C-142.95973088 404.57883821 -134.24915281 404.58040592 -125.538414 404.57843018 C-114.47693517 404.57703597 -103.41554757 404.58766414 -92.35413414 404.6270079 C-87.91749486 404.64180448 -83.4811944 404.64177402 -79.04455078 404.62953007 C-76.93876576 404.62592029 -74.8331183 404.62917728 -72.7273407 404.63531494 C-70.18085447 404.64260412 -67.63430454 404.63964665 -65.08786011 404.62333679 C-41.8162062 404.75968203 -19.88430242 413.2704554 -2.6796875 429.015625 C-2.00292969 429.62535156 -1.32617188 430.23507812 -0.62890625 430.86328125 C1.66979285 433.18311781 3.16575333 434.82551941 3.59375 438.12109375 C3.37182864 441.32727334 2.70998502 443.5537909 0.6328125 446.015625 C-2.39704764 447.32583479 -4.39099413 447.34247673 -7.6796875 447.015625 C-10.3203125 445.29296875 -10.3203125 445.29296875 -12.9296875 442.953125 C-34.99619637 423.95803561 -56.28864947 421.40748858 -84.43503141 421.50691485 C-88.17260919 421.51505549 -91.91006884 421.4980486 -95.64761353 421.48316956 C-104.31357764 421.45257377 -112.97942335 421.45084092 -121.64543152 421.45281982 C-132.69735494 421.45421975 -143.74918841 421.44372091 -154.80104601 421.4042421 C-159.23071757 421.38940386 -163.66005002 421.38950498 -168.08972621 421.40171993 C-170.18245564 421.40531275 -172.27504553 421.40209549 -174.36776733 421.39593506 C-176.90599838 421.38859374 -179.44429284 421.39172884 -181.98248291 421.40791321 C-192.95576222 421.3425781 -202.19142092 419.24403754 -210.6796875 412.015625 C-218.13383467 404.32989268 -220.77616166 397.18189716 -221.1171875 386.578125 C-220.83643574 375.758384 -217.63318845 369.04184666 -210.19140625 361.21875 C-204.1408757 355.91159723 -197.12875965 353.07740544 -189.1328125 352.69921875 C-188.28847656 352.65732422 -187.44414062 352.61542969 -186.57421875 352.57226562 C-185.70152344 352.53294922 -184.82882813 352.49363281 -183.9296875 352.453125 C-183.04152344 352.40994141 -182.15335938 352.36675781 -181.23828125 352.32226562 C-179.05222787 352.21648885 -176.86606661 352.11439954 -174.6796875 352.015625 C-175.51371094 351.39816406 -176.34773438 350.78070313 -177.20703125 350.14453125 C-201.55776646 331.91869395 -216.19298428 308.24429214 -220.6796875 278.015625 C-220.89148251 273.7046176 -220.86478586 269.39387021 -220.8671875 265.078125 C-220.87943359 263.92376953 -220.89167969 262.76941406 -220.90429688 261.58007812 C-220.92728071 248.22647244 -220.92728071 248.22647244 -217.3671875 243.140625 C-215.21417573 241.70528382 -213.20555774 241.46888067 -210.6796875 241.015625 C-210.12245731 238.91552627 -209.58437005 236.81034035 -209.0546875 234.703125 C-208.75304687 233.53136719 -208.45140625 232.35960937 -208.140625 231.15234375 C-207.29921639 227.86074082 -207.29921639 227.86074082 -209.6796875 225.015625 C-210.29864443 218.81960818 -209.28585804 215.20452957 -205.6796875 210.078125 C-205.27830566 209.47693848 -204.87692383 208.87575195 -204.46337891 208.25634766 C-201.38060836 203.74164289 -197.91460527 199.72203828 -194.015625 195.8828125 C-192.46956552 194.1306203 -192.46956552 194.1306203 -192.77734375 192.046875 C-193.84463164 189.64432218 -195.16471334 187.74631943 -196.7421875 185.640625 C-218.13987531 155.55285582 -225.27611188 119.52145485 -219.59716797 83.19262695 C-213.15151795 48.92183363 -192.99936735 15.87066995 -164.37109375 -4.390625 C-115.47047403 -37.49990898 -46.40008653 -38.89644218 0 0 Z " fill="#8D8290" transform="translate(220.6796875,46.984375)"/>
<path d="M0 0 C24.11938487 20.81915256 38.71634387 50.79452457 41.57373047 82.35839844 C43.78708443 114.14169288 34.56780955 144.56803149 13.74951172 168.87402344 C13.03150391 169.69386719 12.31349609 170.51371094 11.57373047 171.35839844 C10.605 172.52628906 10.605 172.52628906 9.61669922 173.71777344 C-8.24105636 194.81247453 -36.04477936 208.76103852 -63.36376953 212.08105469 C-100.0451939 215.05856657 -131.88377023 205.41937952 -160.17626953 181.92089844 C-179.77232199 165.13256073 -191.00597267 144.01790022 -197.42626953 119.35839844 C-197.6102832 118.66633301 -197.79429687 117.97426758 -197.98388672 117.26123047 C-199.54641575 111.24704773 -200.14063049 105.54945868 -200.42626953 99.35839844 C-200.46026855 98.64103516 -200.49426758 97.92367187 -200.52929688 97.18457031 C-201.95035711 62.5886065 -188.90000152 32.55953699 -166.22705078 6.86621094 C-122.5478264 -39.55686964 -47.51351188 -40.2026737 0 0 Z " fill="#FDF3F2" transform="translate(215.42626953125,62.6416015625)"/>
<path d="M0 0 C0.76570312 0.66515625 1.53140625 1.3303125 2.3203125 2.015625 C3.12726563 2.70140625 3.93421875 3.3871875 4.765625 4.09375 C30.42405735 26.45439011 47.06086149 57.07864473 51.3203125 91.015625 C52.60855869 115.86900363 49.80429251 137.59984016 41.3203125 161.015625 C41.87678467 161.10013916 42.43325684 161.18465332 43.0065918 161.27172852 C80.87015165 167.18294985 115.25357936 183.19401812 138.78125 214.5 C139.63282713 215.66808509 140.48124642 216.83852071 141.3203125 218.015625 C142.02994141 216.20191406 142.02994141 216.20191406 142.75390625 214.3515625 C151.91149102 191.47167474 164.44656165 172.83372761 187.5703125 162.0546875 C192.3005722 160.26740188 195.66410724 159.87725132 200.48046875 161.94140625 C205.23459509 164.59025704 207.17397427 166.92265116 209.3203125 172.015625 C209.71903992 175.54647827 209.71903992 175.54647827 209.75268555 179.48974609 C209.7628772 180.21238647 209.77306885 180.93502686 209.78356934 181.67956543 C209.8135744 184.04947793 209.82294578 186.41898542 209.83203125 188.7890625 C209.84888726 190.4395989 209.86703875 192.09012253 209.88642883 193.7406311 C209.93383502 198.07078055 209.96370488 202.40087822 209.98986816 206.73120117 C210.01972118 211.15554017 210.06623518 215.57970098 210.11132812 220.00390625 C210.19725445 228.67439142 210.26464696 237.34489299 210.3203125 246.015625 C210.8615123 246.26698715 211.4027121 246.5183493 211.96031189 246.77732849 C214.4455896 247.93455848 216.92787008 249.09808651 219.41015625 250.26171875 C220.26138062 250.65693726 221.11260498 251.05215576 221.98962402 251.45935059 C228.93430076 254.72339884 235.14863795 258.4306889 241.3203125 263.015625 C242.13113281 263.60472656 242.94195312 264.19382812 243.77734375 264.80078125 C266.78824289 282.30988221 285.66256269 308.70220336 291.07421875 337.6015625 C292.7310723 353.85450689 292.7310723 353.85450689 288.3203125 361.015625 C286.671875 362.84375 286.671875 362.84375 284.9453125 364.265625 C284.09839844 364.98492187 284.09839844 364.98492187 283.234375 365.71875 C278.95809977 368.61614464 275.16059134 369.27226125 270.04882812 369.32202148 C268.18164124 369.34600258 268.18164124 369.34600258 266.2767334 369.37046814 C264.92668062 369.37684392 263.57662289 369.38223695 262.2265625 369.38671875 C260.83321031 369.39569233 259.43985908 369.40481431 258.04650879 369.41407776 C255.13140527 369.43053273 252.21641616 369.43826194 249.30126953 369.44116211 C245.57186794 369.44655451 241.84354509 369.48428247 238.11444855 369.52990627 C235.23875011 369.55968759 232.36331177 369.56688581 229.48747253 369.56788826 C228.11275775 369.57208551 226.73804184 369.58450026 225.36347961 369.60540581 C213.28010427 369.77461871 213.28010427 369.77461871 209.94726562 366.70336914 C208.3203125 364.015625 208.3203125 364.015625 208.1953125 360.453125 C209.53951845 356.34582905 210.73651112 355.33592863 214.3203125 353.015625 C217.19268799 352.50337219 217.19268799 352.50337219 220.37988281 352.4855957 C221.57752258 352.46910477 222.77516235 352.45261383 224.00909424 352.43562317 C225.29257751 352.43753159 226.57606079 352.43944 227.8984375 352.44140625 C229.23412911 352.4289554 230.56980437 352.41461958 231.90545654 352.39848328 C235.41002815 352.36053794 238.91431732 352.34528173 242.41906738 352.33569336 C247.37217726 352.31826768 252.3251013 352.27152585 257.27801514 352.22563171 C259.91439857 352.20304801 262.55085044 352.18728765 265.18731689 352.17878723 C266.37234802 352.17175278 267.55737915 352.16471832 268.77832031 352.1574707 C269.82691223 352.15399124 270.87550415 352.15051178 271.95587158 352.14692688 C274.27657081 352.2816375 274.27657081 352.2816375 275.3203125 351.015625 C275.10972983 325.9036416 260.47622499 303.17153749 243.3203125 286.015625 C242.59328125 285.28859375 241.86625 284.5615625 241.1171875 283.8125 C231.43669883 274.70566992 220.06984569 268.4769562 207.89306641 263.37329102 C202.38644798 260.9510503 198.64468467 258.09271303 195.3203125 253.015625 C194.14303797 249.48380142 194.20036992 246.70226238 194.20678711 242.97387695 C194.20664108 242.26142822 194.20649506 241.54897949 194.2063446 240.81494141 C194.20704099 238.461232 194.21482058 236.10760183 194.22265625 233.75390625 C194.2245214 232.12151635 194.22594485 230.48912589 194.22694397 228.85673523 C194.23076149 224.56100925 194.24058526 220.26531711 194.25164795 215.96960449 C194.26187851 211.58586077 194.26644512 207.20211159 194.27148438 202.81835938 C194.2822082 194.2174324 194.29927545 185.61653291 194.3203125 177.015625 C192.3870876 178.12411732 190.45622222 179.23672539 188.52636719 180.35107422 C187.45086609 180.97021698 186.37536499 181.58935974 185.26727295 182.2272644 C168.00038319 192.70566267 159.72965236 213.01680495 154.96484375 231.76953125 C153.6934771 236.20005139 152.12376248 238.47999168 148.3203125 241.015625 C144.85730548 241.75423838 141.78164291 241.77658924 138.3203125 241.015625 C135.31823686 238.81927543 133.39956767 236.07247747 131.3203125 233.015625 C130.76988281 232.2215625 130.21945312 231.4275 129.65234375 230.609375 C128.49895651 228.94131839 127.34930758 227.27067163 126.203125 225.59765625 C122.91837413 221.09304977 119.14304094 217.06442878 115.3203125 213.015625 C114.74539063 212.38785156 114.17046875 211.76007813 113.578125 211.11328125 C92.54613718 188.92403094 60.99616065 178.83446731 31.3203125 177.015625 C31.02511719 177.79808594 30.72992188 178.58054688 30.42578125 179.38671875 C29.3203125 182.015625 29.3203125 182.015625 27.6328125 184.078125 C26.10394947 185.88813216 26.10394947 185.88813216 26.51342773 187.89355469 C27.52475261 190.5532932 28.88450559 191.9208214 30.91796875 193.90625 C31.99594727 194.96972656 31.99594727 194.96972656 33.09570312 196.0546875 C33.85044922 196.78429687 34.60519531 197.51390625 35.3828125 198.265625 C36.14142578 199.01070312 36.90003906 199.75578125 37.68164062 200.5234375 C39.55463457 202.36109194 41.43426861 204.19138224 43.3203125 206.015625 C44.3103125 205.685625 45.3003125 205.355625 46.3203125 205.015625 C51.72832654 204.32542612 56.72191221 204.01913535 61.3203125 207.265625 C64.54159832 210.14791259 67.41324732 213.27409456 70.30322266 216.4855957 C75.67242654 222.39603281 81.26708054 228.04310622 86.9607048 233.63948631 C88.64694258 235.29842518 90.32821772 236.96225462 92.00820923 238.6275177 C96.7749881 243.35216337 101.54487734 248.07355369 106.33056641 252.77905273 C109.28273473 255.68245114 112.2248298 258.59574002 115.16078568 261.51552773 C116.2693868 262.61431506 117.38161173 263.70946009 118.49769211 264.80064964 C127.83071365 273.9297382 134.36903718 281.61866918 134.6328125 295.140625 C134.64339405 304.867418 132.06767503 312.11828281 125.390625 319.2578125 C119.04122912 324.648809 111.59626405 327.17340993 103.3828125 327.453125 C102.15691406 327.51371094 100.93101562 327.57429688 99.66796875 327.63671875 C87.88263842 326.76120665 79.22444559 317.76079091 71.45703125 309.7734375 C70.37119605 308.67891727 69.28407665 307.58566973 68.195755 306.49362183 C65.35886727 303.63966578 62.54084156 300.76777589 59.72625732 297.8918457 C57.43682712 295.55874922 55.13435477 293.23877025 52.83105755 290.91937447 C33.73529842 271.68783234 33.73529842 271.68783234 27.7775116 264.68339539 C24.83180733 261.31202469 21.5594063 258.25273321 18.33203125 255.15429688 C15.21015953 252.09994656 13.41057427 250.17829709 13.22265625 245.67578125 C13.24005859 244.38994141 13.24005859 244.38994141 13.2578125 243.078125 C13.26683594 242.22347656 13.27585938 241.36882812 13.28515625 240.48828125 C13.30255859 239.26431641 13.30255859 239.26431641 13.3203125 238.015625 C13.3203125 232.68939142 11.4214003 231.57036785 7.828125 227.92773438 C7.08304688 227.19361328 6.33796875 226.45949219 5.5703125 225.703125 C4.84070313 224.94966797 4.11109375 224.19621094 3.359375 223.41992188 C2.65039062 222.71287109 1.94140625 222.00582031 1.2109375 221.27734375 C0.56157227 220.62725342 -0.08779297 219.97716309 -0.75683594 219.30737305 C-2.57970222 217.79022356 -2.57970222 217.79022356 -4.72851562 218.19799805 C-7.83312084 219.49896437 -10.59664326 221.34296512 -13.4296875 223.140625 C-44.05988094 241.97032321 -80.87924115 248.11628134 -116.0234375 240.05078125 C-136.32032424 235.0342899 -155.38136368 225.61591334 -171.29296875 212.03515625 C-174.29937162 209.4912769 -177.43840626 207.24850763 -180.6796875 205.015625 C-186.49290758 210.99891269 -190.84939683 217.22006496 -195.015625 224.390625 C-196.6796875 227.015625 -196.6796875 227.015625 -198.6796875 228.015625 C-200.7734375 228.21875 -200.7734375 228.21875 -203.1796875 228.265625 C-203.97375 228.29140625 -204.7678125 228.3171875 -205.5859375 228.34375 C-206.62234375 228.18132812 -206.62234375 228.18132812 -207.6796875 228.015625 C-210.16228988 224.29172143 -210.32718552 221.33127921 -209.6796875 217.015625 C-208.43770336 214.41953315 -207.30557949 212.38943558 -205.6796875 210.078125 C-205.27830566 209.47693848 -204.87692383 208.87575195 -204.46337891 208.25634766 C-201.38060836 203.74164289 -197.91460527 199.72203828 -194.015625 195.8828125 C-192.46956552 194.1306203 -192.46956552 194.1306203 -192.77734375 192.046875 C-193.84463164 189.64432218 -195.16471334 187.74631943 -196.7421875 185.640625 C-218.13987531 155.55285582 -225.27611188 119.52145485 -219.59716797 83.19262695 C-213.15151795 48.92183363 -192.99936735 15.87066995 -164.37109375 -4.390625 C-115.47047403 -37.49990898 -46.40008653 -38.89644218 0 0 Z M-114.6796875 -9.984375 C-115.83726563 -9.71753906 -116.99484375 -9.45070313 -118.1875 -9.17578125 C-147.51540629 -1.79459678 -173.24377654 19.44691251 -188.86132812 44.94482422 C-201.83455551 67.1708482 -206.08544924 89.62882127 -205.6796875 115.015625 C-205.67453125 116.07136719 -205.669375 117.12710938 -205.6640625 118.21484375 C-204.47564702 147.28857961 -188.53511513 176.50626459 -167.515625 196.0234375 C-140.67319976 219.94535437 -108.28229562 229.74088737 -72.6796875 228.015625 C-47.96277652 226.23150594 -25.5570636 215.69643208 -6.6796875 200.015625 C-5.85726562 199.34660156 -5.03484375 198.67757812 -4.1875 197.98828125 C1.77147188 192.94686732 6.56331008 187.18273885 11.3203125 181.015625 C12.0009375 180.16226563 12.6815625 179.30890625 13.3828125 178.4296875 C32.25121751 153.88602004 39.52708043 122.51107384 35.62890625 92.0625 C30.81793201 59.5657306 14.01003328 29.87976513 -12.29589844 9.78076172 C-41.36495551 -11.67025456 -79.60516032 -19.17056069 -114.6796875 -9.984375 Z " fill="#010101" transform="translate(220.6796875,46.984375)"/>
<path d="M0 0 C2.27145087 3.4071763 2.21078678 4.4433259 2.08984375 8.41796875 C2.05636841 10.0407373 2.05636841 10.0407373 2.0222168 11.69628906 C1.99426025 12.84838867 1.96630371 14.00048828 1.9375 15.1875 C1.6421437 41.64997508 9.22729189 65.77185563 28 85 C45.1281581 101.58776353 65.87034311 109.08473269 89.45410156 109.19287109 C90.45865891 109.20104858 91.46321625 109.20922607 92.49821472 109.21765137 C95.79567904 109.24229819 99.09310099 109.25896586 102.390625 109.2734375 C103.52456444 109.27876118 104.65850388 109.28408485 105.82680511 109.28956985 C111.82642437 109.31620854 117.82602346 109.33561483 123.82568359 109.35009766 C128.76825457 109.36343815 133.71041286 109.39130743 138.65283203 109.43212891 C144.64792482 109.48162516 150.64264347 109.50623854 156.63793182 109.51332474 C158.91033779 109.52000468 161.18273647 109.53514079 163.45502472 109.55921555 C185.07406424 109.8233646 185.07406424 109.8233646 203.28515625 99.0234375 C209.41837675 91.78651673 213.24175469 84.03415757 213.23828125 74.46484375 C213.25439453 73.24345703 213.27050781 72.02207031 213.28710938 70.76367188 C213.30406204 68.20903531 213.30923484 65.65429391 213.30273438 63.09960938 C213.47311089 52.69564965 213.47311089 52.69564965 216.31640625 49.62890625 C219 48 219 48 222.625 48 C227.06367361 49.31516255 227.06367361 49.31516255 229 52 C229.37231445 54.76806641 229.37231445 54.76806641 229.36328125 58.1015625 C229.36231445 59.92107422 229.36231445 59.92107422 229.36132812 61.77734375 C229.34521484 63.04707031 229.32910156 64.31679688 229.3125 65.625 C229.31572266 66.87152344 229.31894531 68.11804688 229.32226562 69.40234375 C229.26450558 79.34757283 228.20565564 87.32149613 223.6875 96.1875 C222.82705078 97.91033203 222.82705078 97.91033203 221.94921875 99.66796875 C219.89671387 103.17655925 217.62923128 105.91353458 215 109 C216.38459427 109.00219984 216.38459427 109.00219984 217.79716015 109.00444412 C240.24759661 109.04102387 262.69788371 109.10045339 285.14819622 109.18390274 C296.00496865 109.22372799 306.86166824 109.25610277 317.71850586 109.27099609 C327.18029584 109.28399454 336.64192575 109.31091293 346.1036256 109.35461307 C351.11449225 109.37726855 356.12516119 109.39290823 361.1360836 109.39188385 C365.85163998 109.39113965 370.56675861 109.40899361 375.28220177 109.44116783 C377.01358037 109.44969294 378.74500792 109.45139911 380.47639847 109.44580269 C382.83985641 109.43918028 385.20191438 109.45703922 387.56523132 109.48101807 C388.25103781 109.47325765 388.9368443 109.46549723 389.6434328 109.45750165 C394.32796897 109.54169234 396.75416546 110.63582803 400 114 C401.125 117.4375 401.125 117.4375 401 121 C398.49616137 124.20199013 396.97668731 125.8012424 392.94522971 126.62165117 C391.21850113 126.61929437 391.21850113 126.61929437 389.45688915 126.61688995 C388.81024633 126.62284957 388.16360351 126.62880918 387.49736544 126.63494939 C385.32704757 126.64886473 383.15856157 126.62710768 380.98832703 126.60559082 C379.41815915 126.60832131 377.84799383 126.61326061 376.277839 126.62022066 C371.96035953 126.63304328 367.64348083 126.61477141 363.32606518 126.59157586 C358.67086936 126.57205109 354.0157243 126.58142215 349.36050415 126.58750916 C341.29234081 126.59430849 333.22435802 126.5833846 325.1562252 126.5610199 C313.48232394 126.52912329 301.80859167 126.52946036 290.13465843 126.53866035 C271.18358281 126.55318265 252.23256427 126.54907944 233.28149414 126.52978516 C232.1469959 126.52863671 231.01249767 126.52748827 229.8436207 126.52630502 C220.63980823 126.51684887 211.43599681 126.50649394 202.23218536 126.49609661 C194.19133037 126.48705019 186.1504751 126.47836108 178.10961914 126.47021484 C176.41130643 126.46848439 176.41130643 126.46848439 174.67868438 126.46671897 C155.80274471 126.44809294 136.92685448 126.44900736 118.0509122 126.46387625 C106.40623897 126.47209788 94.76183398 126.46258936 83.11720131 126.43028057 C75.13801971 126.40925417 67.15895669 126.40581404 59.17975458 126.41622889 C54.57515101 126.42160014 49.9709327 126.41867996 45.36638451 126.39388847 C41.15007355 126.3713149 36.93441103 126.37175503 32.71808658 126.39037412 C31.19386769 126.39301889 29.66960541 126.38720654 28.14545985 126.37202317 C16.63341131 126.23560465 16.63341131 126.23560465 7 132 C3.24082223 136.4397393 2.28528477 140.71151908 2.55859375 146.50390625 C3.30280895 150.71234441 4.90167177 154.04367848 8 157 C15.0330792 161.44109625 20.9637531 161.5637402 29.15454102 161.49829102 C30.45810043 161.50380981 31.76165985 161.50932861 33.10472107 161.51501465 C35.92793841 161.52691747 38.75078349 161.52651281 41.57400703 161.51642036 C46.05255947 161.50076397 50.53073547 161.5146062 55.00926208 161.53245544 C63.71995662 161.56321321 72.43053469 161.56478092 81.1412735 161.56280518 C92.20275233 161.56141097 103.26413993 161.57203914 114.32555336 161.6113829 C118.76219264 161.62617948 123.1984931 161.62614902 127.63513672 161.61390507 C129.74092174 161.61029529 131.8465692 161.61355228 133.9523468 161.61968994 C136.49883303 161.62697912 139.04538296 161.62402165 141.59182739 161.60771179 C164.8634813 161.74405703 186.79538508 170.2548304 204 186 C204.67675781 186.60972656 205.35351562 187.21945312 206.05078125 187.84765625 C208.34948035 190.16749281 209.84544083 191.80989441 210.2734375 195.10546875 C210.05151614 198.31164834 209.38967252 200.5381659 207.3125 203 C204.28263986 204.31020979 202.28869337 204.32685173 199 204 C196.359375 202.27734375 196.359375 202.27734375 193.75 199.9375 C171.68349113 180.94241061 150.39103803 178.39186358 122.24465609 178.49128985 C118.50707831 178.49943049 114.76961866 178.4824236 111.03207397 178.46754456 C102.36610986 178.43694877 93.70026415 178.43521592 85.03425598 178.43719482 C73.98233256 178.43859475 62.93049909 178.42809591 51.87864149 178.3886171 C47.44896993 178.37377886 43.01963748 178.37387998 38.58996129 178.38609493 C36.49723186 178.38968775 34.40464197 178.38647049 32.31192017 178.38031006 C29.77368912 178.37296874 27.23539466 178.37610384 24.69720459 178.39228821 C13.72392528 178.3269531 4.48826658 176.22841254 -4 169 C-11.45414717 161.31426768 -14.09647416 154.16627216 -14.4375 143.5625 C-14.15674824 132.742759 -10.95350095 126.02622166 -3.51171875 118.203125 C2.5388118 112.89597223 9.55092785 110.06178044 17.546875 109.68359375 C18.39121094 109.64169922 19.23554687 109.59980469 20.10546875 109.55664062 C20.97816406 109.51732422 21.85085937 109.47800781 22.75 109.4375 C24.08224609 109.37272461 24.08224609 109.37272461 25.44140625 109.30664062 C27.62745963 109.20086385 29.81362089 109.09877454 32 109 C31.16597656 108.38253906 30.33195312 107.76507813 29.47265625 107.12890625 C5.12192104 88.90306895 -9.51329678 65.22866714 -14 35 C-14.21179501 30.6889926 -14.18509836 26.37824521 -14.1875 22.0625 C-14.19974609 20.90814453 -14.21199219 19.75378906 -14.22460938 18.56445312 C-14.24807269 4.93226872 -14.24807269 4.93226872 -10.5625 0.125 C-6.65181636 -2.69069222 -4.17378307 -1.7760779 0 0 Z " fill="#010101" transform="translate(14,290)"/>
<path d="M0 0 C24.11938487 20.81915256 38.71634387 50.79452457 41.57373047 82.35839844 C43.78708443 114.14169288 34.56780955 144.56803149 13.74951172 168.87402344 C13.03150391 169.69386719 12.31349609 170.51371094 11.57373047 171.35839844 C10.605 172.52628906 10.605 172.52628906 9.61669922 173.71777344 C-8.24105636 194.81247453 -36.04477936 208.76103852 -63.36376953 212.08105469 C-100.0451939 215.05856657 -131.88377023 205.41937952 -160.17626953 181.92089844 C-179.77232199 165.13256073 -191.00597267 144.01790022 -197.42626953 119.35839844 C-197.6102832 118.66633301 -197.79429687 117.97426758 -197.98388672 117.26123047 C-199.54641575 111.24704773 -200.14063049 105.54945868 -200.42626953 99.35839844 C-200.46026855 98.64103516 -200.49426758 97.92367187 -200.52929688 97.18457031 C-201.95035711 62.5886065 -188.90000152 32.55953699 -166.22705078 6.86621094 C-122.5478264 -39.55686964 -47.51351188 -40.2026737 0 0 Z M-155.42626953 21.35839844 C-156.51875 22.43347656 -156.51875 22.43347656 -157.63330078 23.53027344 C-176.44341962 43.26791293 -182.96817082 70.16441198 -182.63330078 96.68261719 C-181.87017082 124.6749734 -168.77837833 149.2093963 -148.75439453 168.40136719 C-126.83599993 188.48013548 -98.70218298 195.35159085 -69.70214844 194.52880859 C-42.00705134 193.08811864 -19.24861951 178.10701351 -0.67626953 158.48339844 C18.01831819 137.02174177 25.07299822 109.3039772 23.57373047 81.35839844 C22.87979692 74.69195821 21.56844534 67.41437741 18.57373047 61.35839844 C15.82714723 59.18007495 15.82714723 59.18007495 13.09326172 59.14355469 C10.57373047 58.35839844 10.57373047 58.35839844 8.77294922 55.41699219 C8.02464844 53.62455078 8.02464844 53.62455078 7.26123047 51.79589844 C6.74947266 50.59835938 6.23771484 49.40082031 5.71044922 48.16699219 C5.14777344 46.77673828 5.14777344 46.77673828 4.57373047 45.35839844 C5.23373047 45.35839844 5.89373047 45.35839844 6.57373047 45.35839844 C8.19529608 42.11526721 8.12869332 38.86464576 7.57373047 35.35839844 C6.28501077 32.72369831 4.55016836 30.63011161 2.63623047 28.42089844 C2.13478516 27.81681152 1.63333984 27.21272461 1.11669922 26.59033203 C-15.68803674 6.61338227 -38.1774529 -7.52918445 -64.42626953 -10.64160156 C-100.02182847 -12.88974213 -129.90274805 -4.12786243 -155.42626953 21.35839844 Z " fill="#8DD5F5" transform="translate(215.42626953125,62.6416015625)"/>
<path d="M0 0 C1.26271729 -0.00153076 2.52543457 -0.00306152 3.82641602 -0.00463867 C29.62357178 0.29806148 51.89612501 10.00085161 70.6875 27.375 C71.36296875 27.98085937 72.0384375 28.58671875 72.734375 29.2109375 C87.10385332 42.72352033 87.10385332 42.72352033 87.5 50.875 C86.59721815 54.76390641 86.06143454 56.24409397 82.6875 58.375 C79.875 59.125 79.875 59.125 76.6875 58.375 C73.97300897 56.01179605 71.86644273 53.22793773 69.6875 50.375 C56.22608211 32.8861907 38.89972457 20.57730911 16.77441406 16.77416992 C1.63304121 14.81623378 -14.96822462 14.80339967 -29.3125 20.375 C-31.08560547 21.02855469 -31.08560547 21.02855469 -32.89453125 21.6953125 C-55.82911324 30.78963212 -71.46563069 47.05310355 -81.45507812 69.29052734 C-90.26527418 90.70893678 -89.48351466 115.31477436 -80.9453125 136.54296875 C-77.03477519 145.89455473 -71.98903006 153.75379838 -65.3125 161.375 C-64.44044922 162.39013672 -64.44044922 162.39013672 -63.55078125 163.42578125 C-49.28429756 178.86824407 -27.36609698 188.67728336 -6.5234375 189.7578125 C17.39610505 190.45374338 40.33325895 184.09457784 58.375 167.6875 C73.89288222 153.04431617 85.75576051 132.1122669 86.78076172 110.39941406 C87.70662759 96.51504404 87.70662759 96.51504404 84.6875 83.375 C84.27424528 80.31691505 84.20504107 77.42695927 84.6875 74.375 C87.10771897 71.53988635 88.61058351 70.58513005 92.25 69.875 C95.70902096 70.58454276 96.61856822 71.47849551 98.6875 74.375 C106.92634356 95.10026868 103.70257059 121.45533776 95.34765625 141.62890625 C83.77276607 168.24091041 64.79845408 186.40489516 38.6875 198.375 C37.00720703 199.14650391 37.00720703 199.14650391 35.29296875 199.93359375 C11.23641869 209.55100109 -16.59211435 207.44949487 -40.19921875 197.77734375 C-65.50447219 186.37886698 -86.07314999 167.4459604 -96.3125 141.375 C-96.66828125 140.54226562 -97.0240625 139.70953125 -97.390625 138.8515625 C-107.36753394 114.05819924 -105.44588057 84.72238747 -95.3125 60.375 C-90.6807583 50.37525707 -84.7450119 41.52217651 -77.3125 33.375 C-76.61640625 32.59769531 -75.9203125 31.82039063 -75.203125 31.01953125 C-55.85728283 10.50870223 -27.69738997 0.01864916 0 0 Z " fill="#030304" transform="translate(136.3125,51.625)"/>
<path d="M0 0 C16.25229543 13.00664472 16.25229543 13.00664472 17.078125 19.61328125 C16.02422957 28.04444473 8.90555466 33.06960702 2.640625 38.11328125 C-19.29070321 54.99042355 -44.64424925 64.33880984 -72.47314453 60.84814453 C-87.26001184 58.38921311 -101.3190892 49.98114732 -112.359375 40.11328125 C-113.56013672 39.09041016 -113.56013672 39.09041016 -114.78515625 38.046875 C-126.72292016 27.75030941 -126.72292016 27.75030941 -127.796875 19.92578125 C-126.75767481 10.86989384 -118.57918213 5.21825937 -111.86328125 -0.20703125 C-77.4159642 -27.10254692 -34.63114582 -26.07462003 0 0 Z " fill="#020202" transform="translate(191.359375,133.88671875)"/>
<path d="M0 0 C-3.23393334 2.64236017 -6.59722729 4.30328548 -10.375 6.0625 C-21.15718457 11.30830848 -30.41081633 18.31519851 -39.25 26.375 C-39.79922119 26.87475342 -40.34844238 27.37450684 -40.91430664 27.8894043 C-43.5968185 30.41104205 -45.54165443 32.61928981 -47 36 C-49.72927264 38.97009082 -52.6806606 41.58284146 -55.75 44.1875 C-74.21673462 60.36754703 -85.82132238 83.48250734 -88 108 C-89.53326387 137.48196535 -83.06514333 164.45293128 -63 187 C-56.41258659 194.17261782 -56.41258659 194.17261782 -48.7265625 200.0703125 C-45.66306956 202.23845794 -45.69182067 202.57322474 -45 206 C-33.27325279 220.25425972 -15.91837122 231.1215713 1 238 C-11.2537762 242.08459207 -29.22804918 232.86882872 -40.1796875 227.57568359 C-67.11232674 214.04845545 -89.91146872 190.60536676 -99.74609375 161.81591797 C-101.31426481 156.91750257 -102.70426638 151.97673958 -104 147 C-104.18401367 146.30793457 -104.36802734 145.61586914 -104.55761719 144.90283203 C-106.12014622 138.8886493 -106.71436095 133.19106024 -107 127 C-107.03399902 126.28263672 -107.06799805 125.56527344 -107.10302734 124.82617188 C-108.52408758 90.23020806 -95.47373199 60.20113856 -72.80078125 34.5078125 C-55.5270234 16.14894592 -25.93300054 -1.52547062 0 0 Z " fill="#73CAF5" transform="translate(122,35)"/>
<path d="M0 0 C-2.82317095 2.21125213 -5.77035619 4.12466963 -8.8215332 6.00561523 C-15.87241434 10.3819913 -22.10567531 15.11568265 -28 21 C-29.15435547 22.13695312 -29.15435547 22.13695312 -30.33203125 23.296875 C-39.37937179 32.72953669 -51.28269699 50.20822795 -51.1875 63.75 C-51.32088692 67.15454239 -52.00316874 68.00344361 -54.38671875 70.59375 C-56.33036864 72.32143879 -58.31258795 74.00699713 -60.3359375 75.640625 C-64.10110535 78.97517248 -65.83747678 81.48311659 -66.375 86.5 C-65.57636588 93.95391845 -59.6124873 99.67778907 -54.1875 104.5 C-51.39551014 107.69084555 -51.54608098 109.83504901 -51 114 C-44.4839813 137.29546601 -29.44508012 156.85870875 -8.45776367 168.89355469 C-5.32721905 170.63970829 -2.17331348 172.33280231 1 174 C1 174.33 1 174.66 1 175 C-20.69603371 175.78894668 -40.75250103 164.52551978 -56.64453125 150.69921875 C-66.32375229 141.61472711 -73.14808624 130.31197089 -78 118 C-78.29519531 117.25492187 -78.59039062 116.50984375 -78.89453125 115.7421875 C-85.10877814 98.66066157 -84.11420346 80.39885108 -80 63 C-79.80664062 62.11183594 -79.61328125 61.22367188 -79.4140625 60.30859375 C-74.32273648 40.2408347 -59.12275379 22.8856897 -41.8125 12.25 C-29.03697213 4.70455648 -14.93268935 -0.47405363 0 0 Z " fill="#E8DDD7" transform="translate(131,67)"/>
<path d="M0 0 C5.19210472 3.80304814 10.15609762 7.76158542 15 12 C13.87691265 16.91570864 11.74566654 21.41837458 9.703125 26.00976562 C5.08019846 36.84598446 3.47687192 47.58668084 3.625 59.3125 C3.63587646 60.49239502 3.64675293 61.67229004 3.65795898 62.88793945 C3.93865115 78.32177187 7.05616836 91.26312967 14 105 C14.53625 106.06089844 15.0725 107.12179687 15.625 108.21484375 C24.3319372 124.1426784 36.67210549 135.06427471 52.1171875 144.23828125 C54.53424216 145.71537021 56.77463429 147.25303417 59 149 C34.63729648 148.61987271 15.64846031 138.10508621 -1.52734375 121.56640625 C-18.94399617 103.4352245 -25.33782111 79.17618176 -24.875 54.6875 C-24.84535156 53.50865234 -24.81570312 52.32980469 -24.78515625 51.11523438 C-24.76388672 49.42430664 -24.76388672 49.42430664 -24.7421875 47.69921875 C-24.7201123 46.67658936 -24.69803711 45.65395996 -24.67529297 44.6003418 C-24.77921322 41.96972052 -24.77921322 41.96972052 -26.39111328 40.20629883 C-27.99840938 38.92631944 -27.99840938 38.92631944 -30 38 C-29.54282518 35.7676251 -29.06217994 33.54614295 -28.5390625 31.328125 C-28.13549512 29.58518184 -27.80020225 27.82618821 -27.5 26.0625 C-27.005 25.381875 -26.51 24.70125 -26 24 C-24.44419153 23.76330929 -22.87933244 23.58446462 -21.3125 23.4375 C-17.66985889 22.88953823 -16.4019887 22.5153065 -14.1015625 19.56640625 C-12.97095609 17.48301181 -11.87293335 15.3816718 -10.8046875 13.265625 C-7.9807325 8.15561119 -4.0558666 4.15703334 0 0 Z " fill="#756C77" transform="translate(40,251)"/>
<path d="M0 0 C7.11455354 5.81835365 13.51860652 12.35455324 20.01171875 18.84375 C21.2700139 20.09882683 22.52838204 21.35383047 23.78681946 22.60876465 C26.41344746 25.22943009 29.03802604 27.85212855 31.66137695 30.47607422 C35.01526944 33.83006859 38.37600651 37.17711317 41.73852825 40.52245331 C44.33538224 43.10817021 46.92765971 45.69843824 49.51868629 48.28999329 C50.75578165 49.52591266 51.99448949 50.7602203 53.234869 51.99284363 C54.96957538 53.71770814 56.69777885 55.44884744 58.42456055 57.18164062 C58.93217422 57.6836348 59.4397879 58.18562897 59.96278381 58.70283508 C64.77729469 63.55986147 68.63036657 68.22973901 69.3125 75.1875 C68.86243125 80.67833869 67.33285814 84.72752172 63.33984375 88.6171875 C58.75083503 91.95293511 54.48946347 92.60195812 48.90625 92.76171875 C41.70562285 90.8744576 36.0060956 84.29841146 30.90234375 79.1328125 C30.2643837 78.49439423 29.62642365 77.85597595 28.96913147 77.19821167 C27.63157804 75.85766005 26.29643233 74.51470206 24.96362305 73.16943359 C22.94435423 71.13191617 20.91720615 69.10250753 18.88867188 67.07421875 C13.35997432 61.52997332 7.8845619 56.00578749 2.81420898 50.03466797 C-1.69870462 44.97335429 -6.62498531 40.27490029 -11.4375 35.5 C-12.5620833 34.38044368 -13.68643405 33.26065371 -14.81054688 32.140625 C-17.53769344 29.42438466 -20.26795907 26.71131708 -23 24 C-18.32533663 18.37696243 -13.32234333 13.20258446 -8.125 8.0625 C-7.34125 7.28326172 -6.5575 6.50402344 -5.75 5.70117188 C-3.83561419 3.79845915 -1.91891966 1.89813829 0 0 Z " fill="#534E55" transform="translate(272,267)"/>
<path d="M0 0 C1.12894876 0.93274109 2.25300876 1.87140122 3.375 2.8125 C4.00148438 3.33457031 4.62796875 3.85664063 5.2734375 4.39453125 C7 6 7 6 9 9 C8.36191406 9.60328125 7.72382813 10.2065625 7.06640625 10.828125 C6.24011719 11.62734375 5.41382813 12.4265625 4.5625 13.25 C3.73878906 14.03890625 2.91507812 14.8278125 2.06640625 15.640625 C-0.41632902 18.45942717 -0.41632902 18.45942717 -1 22 C0.32552254 26.37549812 2.48005342 28.84094843 5.70581055 32.03051758 C6.18253708 32.5060759 6.65926361 32.98163422 7.1504364 33.47160339 C8.72233262 35.03633511 10.30447701 36.5902677 11.88671875 38.14453125 C12.98883237 39.2384983 14.09020542 40.33321189 15.19087219 41.42863464 C18.08998289 44.31064462 20.99753337 47.18397955 23.90740967 50.05511475 C28.54841535 54.63692433 33.17696272 59.23130609 37.804636 63.82657433 C39.41195429 65.42008687 41.02311856 67.00962455 42.63493347 68.59858704 C47.46430107 73.37312135 52.19289945 78.17556659 56.5818634 83.36283875 C57.99050508 85.0441682 57.99050508 85.0441682 59.68534851 86.59162903 C61 88 61 88 61 90 C57.85803061 91.8205804 55.37241402 92.37580295 51.75 92.5 C50.85796875 92.5515625 49.9659375 92.603125 49.046875 92.65625 C41.75934862 91.08662893 35.99486719 84.28704698 30.90234375 79.1328125 C30.2643837 78.49439423 29.62642365 77.85597595 28.96913147 77.19821167 C27.63157804 75.85766005 26.29643233 74.51470206 24.96362305 73.16943359 C22.94435423 71.13191617 20.91720615 69.10250753 18.88867188 67.07421875 C13.35997432 61.52997332 7.8845619 56.00578749 2.81420898 50.03466797 C-1.69870462 44.97335429 -6.62498531 40.27490029 -11.4375 35.5 C-12.5620833 34.38044368 -13.68643405 33.26065371 -14.81054688 32.140625 C-17.53769344 29.42438466 -20.26795907 26.71131708 -23 24 C-18.32533663 18.37696243 -13.32234333 13.20258446 -8.125 8.0625 C-7.34125 7.28326172 -6.5575 6.50402344 -5.75 5.70117188 C-3.83561419 3.79845915 -1.91891966 1.89813829 0 0 Z " fill="#434044" transform="translate(272,267)"/>
<path d="M0 0 C0 23.43 0 46.86 0 71 C-0.33 71 -0.66 71 -1 71 C-1.33 56.15 -1.66 41.3 -2 26 C-7.71914485 39.4977417 -7.71914485 39.4977417 -11.4375 53.125 C-12.94830986 59.65164592 -14.42677978 64.02041689 -20.1328125 68.0390625 C-24.44426064 70.25792493 -28.57812399 70.25216386 -33.3125 70.3125 C-34.43301758 70.35600586 -34.43301758 70.35600586 -35.57617188 70.40039062 C-40.93649552 70.46157079 -43.63018253 69.32054944 -48 66 C-51.23038842 65.20929452 -51.23038842 65.20929452 -54 65 C-54 64.67 -54 64.34 -54 64 C-53.31292969 63.91363281 -52.62585938 63.82726562 -51.91796875 63.73828125 C-51.01691406 63.59777344 -50.11585938 63.45726562 -49.1875 63.3125 C-48.29417969 63.18488281 -47.40085937 63.05726563 -46.48046875 62.92578125 C-43.85700958 62.18685148 -43.85700958 62.18685148 -42.3125 59.90625 C-40.73780966 56.41943567 -39.76611113 52.87737747 -38.8125 49.1875 C-35.32832085 36.63681552 -29.83662377 24.70148482 -21 15 C-20.31164062 14.23171875 -19.62328125 13.4634375 -18.9140625 12.671875 C-6.95550497 0 -6.95550497 0 0 0 Z " fill="#736B75" transform="translate(415,224)"/>
<path d="M0 0 C6.14574529 2.73144235 10.12247738 8.34713286 13.1484375 14.234375 C14.2849577 17.92545895 14.38336821 21.48488237 14.375 25.3125 C14.37258301 26.45090332 14.37258301 26.45090332 14.37011719 27.61230469 C14.24253049 33.41875033 13.3612608 37.14484551 10 42 C9.13375 43.36125 9.13375 43.36125 8.25 44.75 C4.10039214 48.89960786 -0.55004505 51.1824116 -6.4375 51.625 C-11.9956104 51.32741551 -16.03587949 48.78742522 -20 45 C-22.01710699 42.13282649 -23.56894573 39.19431757 -25 36 C-25.33 35.34 -25.66 34.68 -26 34 C-26.74617789 24.27836809 -27.27131497 15.08094814 -21 7 C-14.47818857 0.1982825 -9.38119128 -0.84947795 0 0 Z " fill="#534E55" transform="translate(142,129)"/>
<path d="M0 0 C1.09570312 0.00902344 2.19140625 0.01804688 3.3203125 0.02734375 C4.16335937 0.03894531 5.00640625 0.05054688 5.875 0.0625 C5.47667969 0.5471875 5.07835937 1.031875 4.66796875 1.53125 C-1.85679856 9.78643006 -4.33544257 17.44830287 -4.125 28.0625 C-3.12499339 35.19647574 -0.90542841 41.21260646 2.88671875 47.3203125 C3.875 49.0625 3.875 49.0625 3.875 51.0625 C-2.80953271 51.69912216 -6.65617187 50.98284787 -12.109375 46.98828125 C-15.4030472 43.84142002 -17.27956468 40.18177527 -19.125 36.0625 C-19.455 35.4025 -19.785 34.7425 -20.125 34.0625 C-20.87117789 24.34086809 -21.39631497 15.14344814 -15.125 7.0625 C-10.27617398 2.00556986 -7.07573232 -0.07527375 0 0 Z " fill="#434044" transform="translate(136.125,128.9375)"/>
<path d="M0 0 C3.8026029 2.0050088 5.61790841 3.42686262 8 7 C8.77669034 11.27179687 8.94859196 15.33323116 6.76171875 19.17578125 C3.37332474 23.23680931 1.11942361 24.80005438 -4.3125 25.3125 C-8.75886282 24.93568959 -10.63948122 23.90226622 -14 21 C-16.64201025 16.94891762 -17.70236884 13.8162435 -17 9 C-12.78298671 1.3190115 -8.69521092 -1.38641145 0 0 Z " fill="#030203" transform="translate(431,329)"/>
<path d="M0 0 C1 3 1 3 0.078125 5.078125 C-1.480147 9.30126795 -1.28962314 13.28579261 -1.25 17.75 C-1.25773437 18.6059375 -1.26546875 19.461875 -1.2734375 20.34375 C-1.25576403 26.17599563 -0.44145783 31.34857009 1 37 C-4.8717655 34.19860741 -9.65457426 30.80927976 -14.4375 26.4375 C-14.95731445 25.96658936 -15.47712891 25.49567871 -16.01269531 25.01049805 C-18.63798924 22.55155339 -20.6750005 20.37200472 -22 17 C-15.6488441 9.87431289 -7.97927434 5.10386017 0 0 Z " fill="#CFC7C4" transform="translate(103,136)"/>
<path d="M0 0 C5.51292114 2.37812284 10.21187355 5.41822249 15 9 C15.5880542 9.42716309 16.1761084 9.85432617 16.78198242 10.29443359 C18.4375 11.5625 18.4375 11.5625 21 14 C21 18 21 18 19.71826172 19.41625977 C18.83291748 20.04745728 18.83291748 20.04745728 17.9296875 20.69140625 C17.28 21.16126953 16.6303125 21.63113281 15.9609375 22.11523438 C15.27257812 22.59283203 14.58421875 23.07042969 13.875 23.5625 C12.87726563 24.28469727 12.87726563 24.28469727 11.859375 25.02148438 C8.05328469 27.73425659 4.25647694 30.03088217 0 32 C0.16242188 31.21625 0.32484375 30.4325 0.4921875 29.625 C1.13189556 25.05846862 1.14531343 20.60437678 1.125 16 C1.12886719 15.1234375 1.13273438 14.246875 1.13671875 13.34375 C1.12984855 8.78193451 0.93012655 4.48822972 0 0 Z " fill="#CFC7C4" transform="translate(169,138)"/>
<path d="M0 0 C4.64080887 2.09691569 7.73327953 5.32828506 11.3125 8.875 C11.97056641 9.50019531 12.62863281 10.12539063 13.30664062 10.76953125 C13.92345703 11.37925781 14.54027344 11.98898437 15.17578125 12.6171875 C15.74208252 13.17003418 16.30838379 13.72288086 16.8918457 14.29248047 C18 16 18 16 18.05151367 17.89892578 C17 20 17 20 11 25 C5.39 19.39 -0.22 13.78 -6 8 C-4.21844267 4.43688534 -2.83236991 2.64354525 0 0 Z " fill="#EAE3E4" transform="translate(235,247)"/>
</svg>
