<?xml version="1.0" encoding="UTF-8"?>
<svg version="1.1" xmlns="http://www.w3.org/2000/svg" width="512" height="512">
<path d="M0 0 C4.13818399 3.52873314 8.08305391 7.22874862 12 11 C13.15048828 12.03833984 13.15048828 12.03833984 14.32421875 13.09765625 C27.57856213 25.44775358 40.87766292 44.92979709 44 63 C49.20701632 60.33619762 54.41326943 57.6709108 59.61889648 55.00439453 C61.38041909 54.10231869 63.14213016 53.20061076 64.90405273 52.29931641 C75.05566009 47.10601056 85.1829597 41.87146159 95.26704407 36.54812622 C102.32350595 32.82376016 109.40761016 29.15546143 116.5 25.5 C124.51578511 21.36309018 132.52540728 17.21595852 140.5 13 C148.47461266 8.78403094 156.48497792 4.63841446 164.5 0.5 C172.63901218 -3.70274055 180.77277957 -7.91409155 188.875 -12.1875 C189.60033936 -12.56825684 190.32567871 -12.94901367 191.07299805 -13.34130859 C195.41749959 -15.62455728 199.74243517 -17.94091359 204.05859375 -20.27734375 C206.14315473 -21.39336821 208.22778919 -22.50925544 210.3125 -23.625 C211.28622559 -24.15891357 212.25995117 -24.69282715 213.26318359 -25.24291992 C221.93541175 -29.85853829 221.93541175 -29.85853829 227 -29 C229.875 -27.5625 229.875 -27.5625 232 -25 C232.68425337 -17.35406676 230.8574084 -11.09698518 228.5390625 -3.85546875 C227.98008774 -2.0558519 227.98008774 -2.0558519 227.40982056 -0.21987915 C226.59445027 2.40497862 225.77112216 5.02715573 224.94152832 7.64755249 C223.59119282 11.91319045 222.25884087 16.18432429 220.92871094 20.45629883 C219.24038783 25.87423499 217.5475074 31.29071084 215.84920502 36.70552731 C211.08910453 51.88322251 206.39363316 67.08084248 201.69611645 82.27799797 C199.79077351 88.44132394 197.88167224 94.60347737 195.97094727 100.76513672 C190.60435968 118.07533616 185.25918439 135.39168374 179.96592331 152.72446251 C179.1219777 155.48715676 178.27717663 158.2495878 177.43203735 161.01191711 C177.02095325 162.3556038 177.02095325 162.3556038 176.60156441 163.72643566 C176.05533757 165.51179623 175.50907706 167.29714649 174.96278191 169.08248615 C173.37934199 174.25945082 171.8020094 179.43822759 170.22913074 184.61841011 C169.26079229 187.80278257 168.28700672 190.9854701 167.31175804 194.16773224 C166.86232201 195.63849785 166.4152374 197.1099844 165.9706974 198.58223724 C165.36364423 200.59183705 164.74838477 202.59874703 164.13110352 204.60522461 C163.78982925 205.72642197 163.44855499 206.84761932 163.09693909 208.00279236 C161.46452534 212.46309742 160.35991219 215.3595316 155.97314453 217.42553711 C150.99814989 218.5306849 146.31716679 217.26849597 141.4296875 216.19140625 C139.9308049 215.88395729 139.9308049 215.88395729 138.40164185 215.57029724 C135.22264589 214.91648487 132.04876439 214.24121657 128.875 213.5625 C125.69370795 212.88972865 122.51163918 212.22185057 119.32693481 211.56541443 C117.34930163 211.15708938 115.37364158 210.73905792 113.40036011 210.31019592 C112.50237701 210.12347824 111.60439392 209.93676056 110.67919922 209.74438477 C109.89423065 209.57624771 109.10926208 209.40811066 108.30050659 209.23487854 C104.82096002 208.87962165 102.02255588 209.30771062 99.11328125 211.27734375 C98.51902344 211.82519531 97.92476563 212.37304688 97.3125 212.9375 C96.62800781 213.56527344 95.94351562 214.19304687 95.23828125 214.83984375 C91.91954155 218.04274612 88.67502497 221.31675555 85.43359375 224.59765625 C83.36757635 226.63714373 81.26994451 228.555078 79.0625 230.4375 C75.19540184 233.74211116 71.64222155 237.32845304 68.07324219 240.94628906 C65.40411833 243.63767107 62.688205 246.21857449 59.8125 248.6875 C59.18730469 249.23148437 58.56210937 249.77546875 57.91796875 250.3359375 C56.55485591 251.51859752 55.18130535 252.689274 53.80078125 253.8515625 C48.31408127 258.7964878 46.46684209 262.65501776 46 270 C45.93167969 271.03640625 45.86335938 272.0728125 45.79296875 273.140625 C45.42487897 284.64683877 47.8168791 294.83758849 55 304 C57.29113438 306.39911231 59.67345217 308.69888691 62.0625 311 C68.98640416 317.70368392 74.04361272 323.47285396 74.5625 333.5 C74.03462871 343.12349962 70.0249798 349.60056942 63.609375 356.578125 C61.51078003 359.73620481 61.33753838 361.27128743 62 365 C65.43265614 370.18921065 69.84434451 373.25765306 75 376.625 C89.422372 386.20443528 89.422372 386.20443528 92 393 C92.8083868 397.22157551 92.2876431 400.39019662 90.4375 404.3125 C85.63541501 409.60710653 79.30314894 410.76896946 72.43261719 411.24951172 C71.05418964 411.31298889 69.67559177 411.37283747 68.296875 411.4296875 C66.75648587 411.50109999 65.21612214 411.57306219 63.67578125 411.64550781 C62.87221191 411.68244751 62.06864258 411.71938721 61.24072266 411.75744629 C37.58217219 412.8740501 14.90049718 415.59905311 -8.28515625 420.5703125 C-32.43701748 425.74788679 -57.33062783 428.4331483 -79.3359375 414.5234375 C-83.23246978 411.69881373 -86.80238383 408.59731819 -90 405 C-90 404.34 -90 403.68 -90 403 C-91.19496094 403.03480469 -92.38992187 403.06960938 -93.62109375 403.10546875 C-106.80125222 403.38398135 -114.89996141 402.89124415 -124.828125 393.41015625 C-131.23425646 386.30119382 -132.17089062 379.01743079 -132.0625 369.6875 C-132.05798828 368.94693359 -132.05347656 368.20636719 -132.04882812 367.44335938 C-132.03712175 365.62887101 -132.01918898 363.81442466 -132 362 C-132.83402344 362.04640625 -133.66804688 362.0928125 -134.52734375 362.140625 C-143.8953454 362.44108783 -149.54855654 360.99616387 -157.25 355.8125 C-163.40324769 349.51940577 -166.8907919 341.55946345 -167.375 332.75 C-167.24054641 326.73061632 -165.44913122 319.72385477 -161.36328125 315.1796875 C-160.91339844 314.79039062 -160.46351563 314.40109375 -160 314 C-160.99281767 312.00100837 -161.9947869 310.00989505 -163.03515625 308.03515625 C-167.21719561 300.00500462 -168.1867429 292.68170668 -165.75 283.875 C-163.28623124 276.4152557 -159.18104319 271.67384301 -153 267 C-152.34 266.67 -151.68 266.34 -151 266 C-152.98993622 243.39788857 -160.92526178 222.70958852 -178.02734375 207.15625 C-178.65769531 206.6303125 -179.28804687 206.104375 -179.9375 205.5625 C-204.66545639 184.92263318 -217.65443119 151.67484266 -220.7890625 120.44726562 C-223.63694898 87.40650864 -214.05418566 52.51432848 -194 26 C-193.32710937 25.10667969 -192.65421875 24.21335938 -191.9609375 23.29296875 C-168.75174934 -6.20379947 -136.9943789 -24.01509736 -99.65625 -28.5546875 C-64.45301101 -32.2708322 -27.48502643 -22.69437933 0 0 Z M-1 217 C-10.14160835 227.64950251 -15.1421074 240.42860049 -18 254 C-18.24621094 255.12535156 -18.49242187 256.25070312 -18.74609375 257.41015625 C-19.23670664 260.47933921 -19.52046767 262.93449319 -19 266 C-17.25461999 268.01907714 -15.49212703 269.15478118 -13.20703125 270.5234375 C-8.14843101 273.90777536 -5.12606128 279.58671686 -3.5625 285.375 C-2.10691694 294.09333603 -3.52063348 301.20686833 -7.94140625 308.80859375 C-9.28998232 311.19467931 -9.28998232 311.19467931 -9 315 C-8.01759409 316.70283691 -7.03299728 318.40453838 -6.02734375 320.09375 C-2.4167801 326.7931989 -2.45704783 333.71158119 -4 341 C-6.73774675 349.09523393 -11.43627282 354.79197859 -18.8359375 359.05859375 C-24.86429689 361.71666783 -31.5081203 361.71301142 -38 362 C-38.00616333 362.83023682 -38.00616333 362.83023682 -38.01245117 363.67724609 C-38.2947472 385.38016469 -38.2947472 385.38016469 -45.53515625 393.78125 C-49.95147787 398.04096447 -55.26715531 400.03906721 -61 402 C-61 402.66 -61 403.32 -61 404 C-43.1599052 410.53588727 -25.69421674 406.95248397 -7.7694397 403.02841187 C17.34047496 397.57290422 42.39151736 395.42198433 68 394 C67.21971436 393.37963867 66.43942871 392.75927734 65.63549805 392.12011719 C62.57169143 389.65544867 59.67659754 387.03644441 56.76953125 384.390625 C55.11300946 382.79403393 55.11300946 382.79403393 53 383 C52.773125 382.484375 52.54625 381.96875 52.3125 381.4375 C51.16536061 379.30709827 49.94754528 377.55079033 48.5 375.625 C44.58135587 370.18051213 43.06794965 364.71554225 44 358 C45.84542376 350.87526269 49.3974485 345.83510333 54.29296875 340.421875 C56.35104964 337.5019433 56.90546655 335.56391088 57 332 C55.91470824 329.8550154 55.91470824 329.8550154 54.0625 328.125 C53.4128125 327.44050781 52.763125 326.75601563 52.09375 326.05078125 C50.75553212 324.74002679 49.40256639 323.44405484 48.03125 322.16796875 C36.64092458 311.43303904 29.55893363 297.07556607 28.83203125 281.37109375 C28.82558594 280.07300781 28.81914062 278.77492188 28.8125 277.4375 C28.8017041 276.73351074 28.7909082 276.02952148 28.77978516 275.30419922 C28.77459044 270.70895542 29.53171581 267.04828309 30.875 262.625 C31.65346989 258.09875366 31.06813811 255.65776152 28.578125 251.9296875 C25.6212537 247.97954054 22.39656218 244.26930517 19.15527344 240.55175781 C14.55180068 235.10142962 10.40525683 229.28085129 6.15673828 223.55273438 C5.5120459 222.69744141 4.86735352 221.84214844 4.203125 220.9609375 C3.63239258 220.19571777 3.06166016 219.43049805 2.47363281 218.64208984 C1.98733398 218.1002002 1.50103516 217.55831055 1 217 C0.34 217 -0.32 217 -1 217 Z " fill="#241F20" transform="translate(279,87)"/>
<path d="M0 0 C1.80404297 0.57621094 1.80404297 0.57621094 3.64453125 1.1640625 C33.12536312 11.6445517 57.78491259 33.67228489 71.44921875 61.7734375 C74.12705228 67.44765725 76.41605252 72.91764167 78 79 C65.76070823 85.39575351 53.51295053 91.77471437 41.25 98.125 C33.69510541 102.03778177 26.14760443 105.96297959 18.625 109.9375 C10.06161616 114.46105272 1.45974543 118.90947602 -7.1449585 123.35372925 C-16.18944106 128.02523 -25.22235631 132.71817435 -34.24365234 137.43432617 C-42.1084753 141.54257998 -49.99097943 145.61627152 -57.875 149.6875 C-68.28348161 155.06250085 -78.66658858 160.48186857 -89 166 C-79.60327034 168.5208162 -70.12050027 170.41674973 -60.57165527 172.2454834 C-56.02957491 173.11542261 -51.48953476 173.99590746 -46.94921875 174.875 C-46.02988556 175.05270935 -45.11055237 175.2304187 -44.1633606 175.41351318 C-33.73424507 177.43237815 -23.31992433 179.52408832 -12.9074707 181.62695312 C-6.7253996 182.87294711 -0.54259474 184.09954772 5.6640625 185.21875 C6.64536133 185.39696289 7.62666016 185.57517578 8.63769531 185.75878906 C10.38282663 186.0719539 12.1294718 186.37687372 13.87792969 186.67089844 C23.08736989 188.3226561 26.48656661 192.44969308 31.8125 199.6875 C32.40998047 200.48478516 33.00746094 201.28207031 33.62304688 202.10351562 C35.08995919 204.06331047 36.54852741 206.02875835 38 208 C36.33754733 211.48360655 34.30864716 214.18147938 31.875 217.1875 C19.80671301 232.87088108 14.76756128 251.55682596 13 271 C-19.67 271 -52.34 271 -86 271 C-86.66 266.05 -87.32 261.1 -88 256 C-93.22565412 233.17320856 -105.67356042 214.89536774 -122.375 198.8125 C-137.6080883 183.66463178 -147.1634103 165.52037012 -153 145 C-153.34160156 143.83597656 -153.68320313 142.67195312 -154.03515625 141.47265625 C-158.35529329 123.93089051 -157.6560738 103.4379531 -153 86 C-152.81195801 85.29149902 -152.62391602 84.58299805 -152.43017578 83.85302734 C-147.50313451 66.06158715 -138.94558662 50.04031034 -127 36 C-126.25621094 35.0821875 -125.51242188 34.164375 -124.74609375 33.21875 C-94.94702882 -1.87456505 -43.15600401 -14.04526364 0 0 Z " fill="#FEE086" transform="translate(231,80)"/>
<path d="M0 0 C1.07448561 3.25069609 0.91717685 5.14189533 -0.12963867 8.37963867 C-0.54469666 9.69022247 -0.54469666 9.69022247 -0.96813965 11.02728271 C-1.28158325 11.98120911 -1.59502686 12.9351355 -1.91796875 13.91796875 C-2.40372375 15.43961639 -2.40372375 15.43961639 -2.89929199 16.99200439 C-3.60974938 19.21440626 -4.32479983 21.43534364 -5.04379272 23.65499878 C-6.8214936 29.14567864 -8.57038809 34.64550373 -10.3214817 40.14471626 C-10.94488518 42.10130381 -11.56950356 44.0575006 -12.19425964 46.01365662 C-16.58947398 59.78820991 -20.83682077 73.60741187 -25.07271576 87.43162537 C-26.94442715 93.5385132 -28.82009085 99.64418936 -30.6953125 105.75 C-31.0115325 106.77987659 -31.0115325 106.77987659 -31.33414078 107.83055878 C-37.59096418 128.20552257 -43.91116367 148.56090631 -50.22842026 168.91719627 C-51.13779341 171.84772012 -52.0468553 174.77834047 -52.95589066 177.70896912 C-53.57570973 179.70661134 -54.1960805 181.7040816 -54.8164978 183.70153809 C-56.91245567 190.45754128 -58.98496506 197.21939055 -61 204 C-70.79825793 202.64162005 -80.43458026 200.74567005 -90.11099243 198.71487427 C-104.11063199 195.77810918 -118.11936216 192.96324567 -132.20361328 190.4597168 C-133.21536621 190.27836182 -134.22711914 190.09700684 -135.26953125 189.91015625 C-136.57821167 189.68017944 -136.57821167 189.68017944 -137.91333008 189.44555664 C-140 189 -140 189 -142 188 C-140.65535812 185.18158981 -139.14944264 182.62424088 -137.3828125 180.05078125 C-136.86468994 179.29418213 -136.34656738 178.53758301 -135.81274414 177.75805664 C-135.25578857 176.95102295 -134.69883301 176.14398926 -134.125 175.3125 C-133.54419678 174.46743896 -132.96339355 173.62237793 -132.36499023 172.75170898 C-127.66155595 165.92352523 -122.89228035 159.14322646 -118.09765625 152.37890625 C-114.7117621 147.59990875 -111.35539957 142.80043571 -108 138 C-103.68105115 131.82308379 -99.35099215 125.65438782 -95 119.5 C-88.3011922 110.02248579 -81.64277465 100.51685752 -75 91 C-74.51241211 90.30165039 -74.02482422 89.60330078 -73.52246094 88.88378906 C-72.24238453 87.04873994 -70.9643795 85.21227456 -69.6875 83.375 C-68.99011719 82.37210937 -68.29273438 81.36921875 -67.57421875 80.3359375 C-65.08442232 76.64140086 -64.63363213 74.48800642 -65 70 C-65.87129307 67.96117905 -65.87129307 67.96117905 -68 67 C-74.83837937 66.31932904 -78.27854068 67.77000137 -83.80078125 71.66796875 C-84.53780777 72.16595474 -85.27483429 72.66394073 -86.03419495 73.17701721 C-88.47234218 74.83022082 -90.89190832 76.50872065 -93.3125 78.1875 C-95.03733147 79.36347848 -96.76343267 80.53759654 -98.49072266 81.70996094 C-102.13663472 84.18807503 -105.7755899 86.67595243 -109.40966797 89.17138672 C-114.91177069 92.94585199 -120.4380364 96.68358081 -125.97265625 100.41015625 C-126.87357498 101.01677094 -127.77449371 101.62338562 -128.70271301 102.24838257 C-130.51859126 103.47080979 -132.33455483 104.69311028 -134.15060425 105.9152832 C-136.88767581 107.75853639 -139.62298127 109.6043797 -142.35766602 111.45117188 C-154.42982066 119.60370589 -166.5089579 127.74607349 -178.6640625 135.7746582 C-185.37975002 140.21609544 -192.04937543 144.7106019 -198.65405273 149.31608582 C-202.18486665 151.77362816 -205.7306872 154.20901762 -209.2779541 156.64273071 C-210.99054574 157.8262704 -212.69609475 159.02007538 -214.3939209 160.22470093 C-216.76340704 161.90458559 -219.15530409 163.54681049 -221.5546875 165.18359375 C-222.24611847 165.68755676 -222.93754944 166.19151978 -223.64993286 166.71075439 C-229.58115482 170.6704494 -234.14908041 170.25854948 -241 169 C-242.40054123 168.76108788 -242.40054123 168.76108788 -243.82937622 168.51734924 C-246.79462442 167.98241628 -249.74391807 167.3917216 -252.6953125 166.78515625 C-253.76820526 166.5693541 -254.84109802 166.35355194 -255.94650269 166.13121033 C-259.34046136 165.44707968 -262.73270548 164.75482966 -266.125 164.0625 C-268.40744825 163.60169895 -270.68999958 163.14140815 -272.97265625 162.68164062 C-281.99862459 160.85844383 -291.01678226 159.02478692 -300 157 C-296.25745339 153.89773114 -292.05894333 151.86349658 -287.74609375 149.68359375 C-286.93116959 149.26763443 -286.11624542 148.85167511 -285.27662659 148.42311096 C-282.6653869 147.09100059 -280.05159611 145.76399494 -277.4375 144.4375 C-274.03944405 142.70883499 -270.6425009 140.97799579 -267.24609375 139.24609375 C-266.39862579 138.81421753 -265.55115784 138.38234131 -264.67800903 137.93737793 C-257.19770206 134.11768451 -249.76465959 130.21129541 -242.33813477 126.28833008 C-236.49248723 123.20084187 -230.62236928 120.16133357 -224.75 117.125 C-216.24370236 112.72033952 -207.74159694 108.3079411 -199.25 103.875 C-198.31414062 103.38644531 -197.37828125 102.89789063 -196.4140625 102.39453125 C-193.60923283 100.92995952 -190.80457998 99.46504982 -188 98 C-175.75978418 91.60598516 -163.51268421 85.22583918 -151.25 78.875 C-143.69512432 74.9621815 -136.1476047 71.03702055 -128.625 67.0625 C-120.69023529 62.87101132 -112.72292273 58.74329628 -104.75 54.625 C-92.14939506 48.11623463 -79.56922652 41.56916596 -67 35 C-63.25034753 33.04100058 -59.50032951 31.08270296 -55.75 29.125 C-54.81542969 28.63708984 -53.88085938 28.14917969 -52.91796875 27.64648438 C-45.32808951 23.68677126 -37.72708449 19.74871745 -30.125 15.8125 C-20.05356826 10.59700096 -10.00819258 5.33582059 0 0 Z " fill="#EDE8E4" transform="translate(488,83)"/>
<path d="M0 0 C0.99 0.495 0.99 0.495 2 1 C0.94425781 2.49273437 0.94425781 2.49273437 -0.1328125 4.015625 C-5.77417438 11.99722217 -11.39915824 19.98990973 -17 28 C-21.31906329 34.17683922 -25.64929122 40.34540979 -30 46.5 C-31.47219077 48.58471534 -32.94399992 50.66969919 -34.41552734 52.75488281 C-35.53267443 54.33782343 -36.65022529 55.92047911 -37.76806641 57.50292969 C-40.81901306 61.82544051 -43.85512973 66.15659673 -46.859375 70.51171875 C-48.59920556 73.02932564 -50.35211189 75.44013987 -52.265625 77.83203125 C-58.78017995 86.37176306 -59.58217151 97.32643033 -61.38525391 107.63427734 C-62.3908942 113.14013801 -63.60094716 118.59890399 -64.8125 124.0625 C-65.03180176 125.0618457 -65.25110352 126.06119141 -65.47705078 127.09082031 C-65.9825569 129.39436153 -66.49017175 131.69741233 -67 134 C-71.32905979 129.89750783 -74.93447404 125.41336833 -78.5625 120.6875 C-79.17601318 119.89351807 -79.78952637 119.09953613 -80.42163086 118.28149414 C-84.83237659 112.55862985 -89.19701018 106.80143696 -93.50097656 100.99780273 C-96.16907215 97.4061011 -98.88591199 93.86461797 -101.671875 90.36328125 C-102.27894287 89.59314697 -102.88601074 88.8230127 -103.51147461 88.02954102 C-104.68938176 86.53867494 -105.87734744 85.05568719 -107.07641602 83.58178711 C-107.60420654 82.91026611 -108.13199707 82.23874512 -108.67578125 81.546875 C-109.14927002 80.95745117 -109.62275879 80.36802734 -110.1105957 79.76074219 C-111 78 -111 78 -111.00805664 76.03979492 C-109.4573414 72.90193446 -107.11323047 71.70992157 -104.1953125 69.81640625 C-103.58182953 69.4130455 -102.96834656 69.00968475 -102.33627319 68.59410095 C-100.98815652 67.70951875 -99.63654508 66.83024592 -98.28198242 65.95556641 C-95.31170208 64.03723934 -92.35837446 62.09346879 -89.40362549 60.15133667 C-87.80483097 59.10081877 -86.20515622 58.05163947 -84.60467529 57.00369263 C-75.75719738 51.20544291 -66.99669626 45.27992103 -58.23620605 39.35140991 C-42.41373763 28.64539059 -26.55246629 17.99946799 -10.63476562 7.43554688 C-9.98432281 7.00332825 -9.33388 6.57110962 -8.66372681 6.12579346 C-7.4588249 5.32524189 -6.25327751 4.52566065 -5.04696655 3.72723389 C-2.39350893 2.02870715 -2.39350893 2.02870715 0 0 Z " fill="#E3CDBB" transform="translate(382,188)"/>
<path d="M0 0 C0.96590057 -0.00708481 1.93180115 -0.01416962 2.92697144 -0.02146912 C3.98007004 -0.0189917 5.03316864 -0.01651428 6.11817932 -0.01396179 C7.23239258 -0.01907272 8.34660583 -0.02418365 9.49458313 -0.02944946 C13.18240206 -0.04336403 16.87003451 -0.0423873 20.55787659 -0.04008484 C23.11851064 -0.04397065 25.67914405 -0.04830508 28.23977661 -0.05307007 C33.6089361 -0.06053624 38.97802697 -0.06037612 44.34718323 -0.05497742 C50.54908621 -0.04893717 56.75076236 -0.06125077 62.95262665 -0.08254749 C68.92416961 -0.10229761 74.89564235 -0.10533606 80.86721992 -0.10181236 C83.40577286 -0.10232629 85.94432937 -0.10757737 88.48286247 -0.11762428 C92.03075071 -0.12994257 95.57811219 -0.12322424 99.12599182 -0.11161804 C100.70260338 -0.12308365 100.70260338 -0.12308365 102.31106567 -0.13478088 C111.21883682 -0.07028148 111.21883682 -0.07028148 115.18678284 3.26069641 C118.05263464 6.71948307 118.7343999 9.76644449 118.53053284 14.26850891 C117.93227458 17.73568747 116.52507691 19.6825773 114.18678284 22.26069641 C108.22517665 25.55609553 103.01960905 25.69490737 96.29786682 25.66474915 C94.68682068 25.67504402 94.68682068 25.67504402 93.04322815 25.68554688 C89.50630843 25.70379266 85.9698331 25.69998112 82.43287659 25.69429016 C79.96860612 25.69885227 77.50433693 25.70415793 75.04006958 25.71017456 C69.88132042 25.71910076 64.72272612 25.7166871 59.5639801 25.70674133 C52.95401714 25.6952392 46.3445874 25.7154854 39.73469448 25.74465847 C34.64832162 25.76300277 29.56207704 25.76273171 24.4756794 25.75702095 C22.0384299 25.75686759 19.60117179 25.76292391 17.16395378 25.77531242 C13.75772964 25.79019039 10.35249742 25.77956848 6.94630432 25.7624054 C5.94094131 25.77207336 4.93557831 25.78174133 3.89974976 25.79170227 C-2.0004508 25.7294523 -5.28808534 25.1319233 -9.81321716 21.26069641 C-12.59471298 18.33806761 -13.24453318 16.33660383 -13.25071716 12.32319641 C-13.14145409 8.7903569 -12.88816889 7.38918509 -11.06321716 4.26069641 C-7.47207954 1.06857408 -4.79700478 0.01175319 0 0 Z " fill="#F1634C" transform="translate(141.81321716308594,407.7393035888672)"/>
<path d="M0 0 C0.95748642 -0.00708481 1.91497284 -0.01416962 2.901474 -0.02146912 C3.94522186 -0.0189917 4.98896973 -0.01651428 6.06434631 -0.01396179 C7.168806 -0.01907272 8.27326569 -0.02418365 9.41119385 -0.02944946 C13.06654765 -0.04336345 16.7217133 -0.04238734 20.37709045 -0.04008484 C22.91530426 -0.04397068 25.45351742 -0.04830511 27.99172974 -0.05307007 C33.31381098 -0.06053611 38.63582301 -0.06037623 43.957901 -0.05497742 C50.1052732 -0.0489372 56.25241654 -0.06125073 62.3997497 -0.08254749 C68.31896703 -0.10229818 74.23811354 -0.10533599 80.1573658 -0.10181236 C82.67359009 -0.10232627 85.18981798 -0.10757702 87.70602226 -0.11762428 C91.22277904 -0.12994327 94.73900446 -0.12322384 98.25575256 -0.11161804 C99.2974762 -0.11926178 100.33919983 -0.12690552 101.41249084 -0.13478088 C108.08255548 -0.08606109 111.59732703 0.77529942 116.5372467 5.44819641 C118.72609886 9.09628333 119.01252213 12.16104878 118.2247467 16.26069641 C115.77058603 21.26340855 113.37500995 23.28285042 108.2247467 25.26069641 C104.59518914 25.69074649 100.99324478 25.67066577 97.34169006 25.64888 C96.25644547 25.65413696 95.17120087 25.65939392 94.05307007 25.66481018 C90.47342956 25.67799119 86.89423532 25.66927908 83.31459045 25.65913391 C80.82407547 25.66115503 78.33356106 25.66406679 75.8430481 25.66783142 C69.95946738 25.67281788 64.07604817 25.66233302 58.19249111 25.64637911 C53.50290103 25.63511016 48.81349972 25.63910486 44.12391663 25.65180969 C37.65251757 25.66919042 31.18130098 25.67193074 24.70988655 25.66214371 C22.24390686 25.66014195 19.7779194 25.66260009 17.31194878 25.66958237 C13.86722554 25.67719623 10.42308837 25.66559312 6.97840881 25.64888 C5.95852875 25.6549527 4.93864868 25.66102539 3.88786316 25.6672821 C-2.69991796 25.60803281 -6.15405833 24.66936205 -11.0877533 20.13569641 C-13.44292427 16.1231829 -13.57575694 12.8075571 -12.7752533 8.26069641 C-9.71850784 2.25637498 -6.674223 0.01649779 0 0 Z " fill="#F2634C" transform="translate(141.77525329589844,366.7393035888672)"/>
<path d="M0 0 C20.13 0 40.26 0 61 0 C61 16 61 16 58 22 C52.98410286 26.21443262 47.00293052 26.59397522 40.71484375 26.53125 C39.85492325 26.5350769 38.99500275 26.53890381 38.10902405 26.54284668 C36.30305806 26.54555205 34.49705195 26.53828786 32.69116211 26.52148438 C29.94100007 26.50002731 27.19344201 26.52134536 24.44335938 26.546875 C22.67968179 26.54423199 20.91600581 26.53910757 19.15234375 26.53125 C17.93175514 26.54339539 17.93175514 26.54339539 16.68650818 26.55578613 C11.00497905 26.46329002 7.61812927 25.37864234 3 22 C0 17 0 17 0 0 Z " fill="#68CDD9" transform="translate(164,448)"/>
<path d="M0 0 C2.4375 1 2.4375 1 4 3 C5.04908519 6.25768558 5.49099012 7.746451 5 11 C3.23717855 14.18852964 0.59738786 16.47772686 -2 19 C-3.20276004 20.26487119 -4.40164063 21.53343714 -5.59765625 22.8046875 C-6.9178493 24.18365402 -8.23948173 25.56124384 -9.5625 26.9375 C-10.19929688 27.61304932 -10.83609375 28.28859863 -11.4921875 28.98461914 C-14.40421518 31.94450235 -16.2579768 33.77730502 -20.29296875 34.98828125 C-23.40637098 35.00175918 -25.28163536 34.51020258 -28 33 C-30.03834286 29.94248571 -30.72965506 27.97475463 -30.62890625 24.30078125 C-29.22176703 19.15292409 -24.70432343 15.62805794 -21 12 C-20.1028125 11.07960938 -19.205625 10.15921875 -18.28125 9.2109375 C-8.26068695 -1.01593126 -8.26068695 -1.01593126 0 0 Z " fill="#221D1E" transform="translate(85,299)"/>
<path d="M0 0 C4.4615022 0.79669682 5.7015659 2.10612737 8.5 5.625 C9.13110352 9.05078125 9.13110352 9.05078125 9.12890625 12.9375 C9.13131821 13.62884033 9.13373016 14.32018066 9.13621521 15.0324707 C9.13523956 16.48817708 9.12191289 17.94392186 9.09692383 19.39941406 C9.06259081 21.6191291 9.07627843 23.8348626 9.09570312 26.0546875 C9.08880414 27.47397516 9.07913126 28.89325262 9.06640625 30.3125 C9.05009155 32.23642578 9.05009155 32.23642578 9.03344727 34.19921875 C8.41748868 38.15488503 7.31774542 39.8324393 4.5 42.625 C2.28125 43.2890625 2.28125 43.2890625 0 43.25 C-1.12921875 43.26933594 -1.12921875 43.26933594 -2.28125 43.2890625 C-5.6239679 42.28860116 -6.6182131 40.51756007 -8.5 37.625 C-9.03344727 34.19921875 -9.03344727 34.19921875 -9.06640625 30.3125 C-9.07260483 29.62115967 -9.07880341 28.92981934 -9.08518982 28.2175293 C-9.09226547 26.76189577 -9.08915328 25.30618093 -9.07641602 23.85058594 C-9.06253527 21.63064013 -9.09665789 19.41490355 -9.13476562 17.1953125 C-9.13571685 15.77604064 -9.13385779 14.35676354 -9.12890625 12.9375 C-9.12963135 11.65488281 -9.13035645 10.37226563 -9.13110352 9.05078125 C-8.12297827 3.57843561 -5.43883108 0.97121984 0 0 Z " fill="#231E1F" transform="translate(194.5,-0.625)"/>
<path d="M0 0 C1.27552734 -0.020625 2.55105469 -0.04125 3.86523438 -0.0625 C5.09435547 -0.06765625 6.32347656 -0.0728125 7.58984375 -0.078125 C8.71124756 -0.0874707 9.83265137 -0.09681641 10.98803711 -0.10644531 C14.45815365 0.29587107 16.28426875 1.16426465 19.0625 3.25 C21.40418764 6.76253146 21.55873677 8.11469356 21.0625 12.25 C19.51953125 14.90600586 19.51953125 14.90600586 17.0625 17.25 C14.2913644 17.74801067 12.14052893 17.93051101 9.375 17.87890625 C8.63548096 17.88131821 7.89596191 17.88373016 7.1340332 17.88621521 C5.57400132 17.88523782 4.01393429 17.87186956 2.45410156 17.84692383 C0.06976203 17.81260453 -2.31087127 17.82626742 -4.6953125 17.84570312 C-6.2135574 17.83880438 -7.73179276 17.82913172 -9.25 17.81640625 C-9.96051514 17.82136612 -10.67103027 17.82632599 -11.40307617 17.83143616 C-14.81521788 17.75048273 -16.63413837 17.48548996 -19.36328125 15.36694336 C-21.22337891 12.86556202 -21.78567956 11.36231897 -21.9375 8.25 C-21.0013375 5.15346249 -20.23326678 3.54576678 -17.9375 1.25 C-12.33774751 -0.733361 -5.84994443 0.0235766 0 0 Z " fill="#221E1F" transform="translate(21.9375,184.75)"/>
<path d="M0 0 C2.70654297 1.93017578 2.70654297 1.93017578 5.2421875 4.4453125 C6.16257812 5.35796875 7.08296875 6.270625 8.03125 7.2109375 C8.49789062 7.69014648 8.96453125 8.16935547 9.4453125 8.66308594 C10.87176669 10.1216938 12.32745044 11.54547208 13.7890625 12.96875 C14.70171875 13.88914062 15.614375 14.80953125 16.5546875 15.7578125 C17.38468262 16.5945752 18.21467773 17.43133789 19.06982422 18.29345703 C21.42069923 21.58991547 21.78816698 23.99169432 22 28 C20.89791992 31.39808026 20.07902124 31.94731917 17 34 C13.58886514 34.76827362 12.25804624 34.98165888 9 34 C5.3061655 31.35470354 2.14414218 28.29512924 -1.00292969 25.04003906 C-2.49711141 23.5029715 -4.02926427 22.01334692 -5.5703125 20.5234375 C-13.64340939 12.49606002 -13.64340939 12.49606002 -13.7734375 7.43359375 C-12.91914668 3.64106024 -12.10159175 2.28058217 -9 0 C-5.79530379 -1.6023481 -3.4249487 -0.77730934 0 0 Z " fill="#221E1F" transform="translate(68,55)"/>
<path d="M0 0 C3.25474071 2.16982714 3.87641512 3.41578058 4.6875 7.25 C3.68211851 12.73389906 0.88663765 15.14396579 -3 19 C-4.17150017 20.19440373 -5.34198918 21.38979969 -6.51171875 22.5859375 C-8.99430732 25.10732654 -11.48090851 27.62433097 -13.98828125 30.12109375 C-14.51977783 30.6514624 -15.05127441 31.18183105 -15.59887695 31.72827148 C-17.9263331 33.8407857 -19.15459278 34.01431415 -22.375 34.3125 C-26 34 -26 34 -28.375 32.4375 C-30.65353057 29.01970414 -31.2069511 27.139022 -31 23 C-29.1920343 19.85946995 -26.57550893 17.52095957 -24 15 C-22.75212235 13.73222218 -21.50620043 12.4625178 -20.26171875 11.19140625 C-17.59476666 8.48326571 -14.92356172 5.77982389 -12.23046875 3.09765625 C-11.65707764 2.52539307 -11.08368652 1.95312988 -10.49291992 1.36352539 C-7.05557518 -1.7758974 -4.3722137 -0.97997893 0 0 Z " fill="#221E1F" transform="translate(330,55)"/>
<path d="M0 0 C5.62103776 0.54074786 11.05083232 1.33173926 16.5625 2.5625 C17.78066406 2.83191406 18.99882812 3.10132813 20.25390625 3.37890625 C21.16011719 3.58386719 22.06632812 3.78882813 23 4 C21.90422771 7.28731688 21.22195399 7.88003756 18.625 10 C15.06819627 13.00862251 11.77145071 16.18298591 8.5 19.5 C4.16600959 23.88234735 -0.28024622 28.03757061 -5 32 C-6.3690722 28.21372317 -5.64698489 25.35380972 -4.78515625 21.484375 C-4.51123047 20.23398437 -4.23730469 18.98359375 -3.95507812 17.6953125 C-3.65774465 16.38016478 -3.36021613 15.06506115 -3.0625 13.75 C-2.76806349 12.4194513 -2.47443453 11.08872363 -2.18164062 9.7578125 C-1.46235913 6.50335853 -0.7348552 3.25096649 0 0 Z " fill="#E0CAB9" transform="translate(338,286)"/>
</svg>
