<?xml version="1.0" encoding="UTF-8"?>
<svg version="1.1" xmlns="http://www.w3.org/2000/svg" width="512" height="512">
<path d="M0 0 C0.79196777 0.00757324 1.58393555 0.01514648 2.39990234 0.02294922 C12.65798299 0.31253443 20.61467615 4.80176524 27.73291016 12.16552734 C29.30991089 14.01281365 30.82088216 15.8956548 32.3125 17.8125 C32.86405762 18.50585449 33.41561523 19.19920898 33.98388672 19.91357422 C38.30792336 25.38246279 42.50724004 30.94626212 46.65844727 36.54711914 C50.54947281 41.79425574 54.56525668 46.93203645 58.67431641 52.01025391 C60.65608467 54.48987199 62.04898079 56.39694238 63.0625 59.4375 C63.76612671 59.22452271 64.46975342 59.01154541 65.19470215 58.79211426 C71.89385937 56.76868322 78.59903711 54.76688785 85.31143951 52.78792572 C88.76049989 51.77027786 92.20686572 50.74501614 95.64794922 49.70068359 C132.32203464 38.58582265 132.32203464 38.58582265 147.51171875 45.96484375 C155.98430326 50.85636651 160.41114047 57.50350485 164.375 66.375 C165.9813798 73.53069185 166.13008248 80.92081283 166.30859375 88.23046875 C166.33364738 89.2531208 166.33364738 89.2531208 166.35920715 90.2964325 C166.42532098 93.11964333 166.48747841 95.94284562 166.53930664 98.76635742 C166.2446404 111.25705886 166.2446404 111.25705886 170.578125 122.58203125 C171.15046875 123.13246094 171.7228125 123.68289062 172.3125 124.25 C175.31647016 127.26697778 176.57707213 129.74701451 178.02734375 133.70703125 C182.79699799 142.65851449 193.33922269 144.41072555 202.375 147.3125 C205.1700827 148.24717759 207.96096644 149.19312201 210.74980164 150.14627075 C212.47733868 150.73271901 214.2090954 151.30694595 215.94563293 151.86618042 C226.84046091 155.46369667 236.81001634 160.95065757 242.4375 171.375 C246.30484397 180.24410885 247.53008799 190.04942953 244.40649414 199.40161133 C241.74483036 205.90831121 237.86207213 211.60902435 233.92175293 217.40130615 C232.72816029 219.15712706 231.54526728 220.91977717 230.36425781 222.68408203 C226.47334161 228.48207945 222.52106805 234.22875998 218.47265625 239.91796875 C217.76987549 240.91546143 217.06709473 241.9129541 216.34301758 242.94067383 C215.0139006 244.82048662 213.6691857 246.68939074 212.30737305 248.5456543 C211.71609619 249.38394775 211.12481934 250.22224121 210.515625 251.0859375 C209.99129883 251.80958496 209.46697266 252.53323242 208.92675781 253.27880859 C207.79605127 255.47265045 207.79605127 255.47265045 208.76318359 257.98510742 C209.88653213 260.10536973 211.02037153 262.06666969 212.3984375 264.02734375 C212.87619629 264.7143335 213.35395508 265.40132324 213.84619141 266.10913086 C214.63388916 267.23073608 214.63388916 267.23073608 215.4375 268.375 C216.6000099 270.06177575 217.761387 271.74933256 218.921875 273.4375 C221.13698142 276.65105737 223.35654831 279.86138961 225.58398438 283.06640625 C227.8517317 286.33329462 230.0989896 289.61365047 232.33673096 292.90115356 C233.22765863 294.20304482 234.12496096 295.50059962 235.0289917 296.79342651 C241.73530501 306.39295503 247.39121644 316.25759931 246.0625 328.4375 C244.17289206 338.72011655 239.81346122 347.12270453 231.56298828 353.72509766 C220.97093775 360.97882177 206.94074842 364.48549863 194.94506836 368.72607422 C191.84041218 369.82473983 188.73945979 370.93343876 185.63867188 372.04296875 C183.66167007 372.74538791 181.68446403 373.44723254 179.70703125 374.1484375 C178.7821138 374.47959564 177.85719635 374.81075378 176.9042511 375.15194702 C176.04873154 375.4529129 175.19321198 375.75387878 174.31176758 376.06396484 C173.56123611 376.3301059 172.81070465 376.59624695 172.03742981 376.87045288 C170.0625 377.4375 170.0625 377.4375 167.0625 377.4375 C167.07410156 378.7265625 167.08570313 380.015625 167.09765625 381.34375 C167.16932575 393.30042834 166.99015019 405.23738255 166.625 417.1875 C166.60535187 417.86514404 166.58570374 418.54278809 166.56546021 419.2409668 C165.61924831 451.36060389 165.61924831 451.36060389 155.0625 461.4375 C152.18230256 463.67642507 149.2220512 465.61592201 146.0625 467.4375 C145.17304687 467.95376953 145.17304687 467.95376953 144.265625 468.48046875 C128.52300236 475.89900552 109.02188655 467.23316534 93.6137085 462.5569458 C90.16515606 461.51551518 86.70922612 460.49917215 83.25390625 459.48046875 C76.51616599 457.49014212 69.78679269 455.47284296 63.0625 453.4375 C62.76041626 454.05830948 62.45833252 454.67911896 62.14709473 455.31874084 C61.00827861 457.54342164 59.7018127 459.34674977 58.15625 461.30859375 C57.58237549 462.04110352 57.00850098 462.77361328 56.41723633 463.52832031 C55.49914185 464.68992676 55.49914185 464.68992676 54.5625 465.875 C53.28485747 467.50367191 52.00751526 469.13257946 50.73046875 470.76171875 C50.10317871 471.56013184 49.47588867 472.35854492 48.82958984 473.18115234 C46.49063411 476.16769958 44.18125694 479.17562499 41.875 482.1875 C40.69550781 483.71503906 40.69550781 483.71503906 39.4921875 485.2734375 C37.75232573 487.53917389 36.03087565 489.81402844 34.3203125 492.1015625 C27.36050762 501.31896012 20.61335701 509.2703919 9.0625 512.4375 C6.0688985 512.84977641 3.14390178 512.91554377 0.125 512.875 C-0.66696777 512.86742676 -1.45893555 512.85985352 -2.27490234 512.85205078 C-12.55310898 512.56189741 -20.55216997 508.05384845 -27.65625 500.64501953 C-29.27856155 498.73521604 -30.83693842 496.79072501 -32.375 494.8125 C-32.93646729 494.10593262 -33.49793457 493.39936523 -34.07641602 492.67138672 C-37.96195596 487.75812341 -41.74551505 482.77068054 -45.46484375 477.73046875 C-47.45554005 475.05261989 -49.50485486 472.42442958 -51.56640625 469.80078125 C-52.20457275 468.98786621 -52.84273926 468.17495117 -53.50024414 467.33740234 C-54.77337105 465.71915936 -56.04980724 464.10351341 -57.32983398 462.49072266 C-58.20297241 461.37963135 -58.20297241 461.37963135 -59.09375 460.24609375 C-59.61775391 459.58407959 -60.14175781 458.92206543 -60.68164062 458.23999023 C-61.9375 456.4375 -61.9375 456.4375 -62.9375 453.4375 C-63.64112671 453.65047729 -64.34475342 453.86345459 -65.06970215 454.08288574 C-71.76885937 456.10631678 -78.47403711 458.10811215 -85.18643951 460.08707428 C-88.63549989 461.10472214 -92.08186572 462.12998386 -95.52294922 463.17431641 C-132.16812991 474.28066675 -132.16812991 474.28066675 -145.69921875 467.75390625 C-154.90220719 462.34132841 -159.90592164 456.22246108 -164.25 446.5 C-166.39008533 436.96689262 -166.21804156 426.91195914 -166.5 417.1875 C-166.52117889 416.49438721 -166.54235779 415.80127441 -166.56417847 415.0871582 C-166.94518919 402.53562261 -167.05051542 389.99476895 -166.9375 377.4375 C-168.19884766 377.18460205 -169.46019531 376.9317041 -170.75976562 376.67114258 C-176.26514102 375.44400444 -181.48488106 373.6205148 -186.78125 371.69921875 C-187.79038452 371.33657425 -188.79951904 370.97392975 -189.8392334 370.60029602 C-191.96137837 369.83569484 -194.08249981 369.06824746 -196.20263672 368.2980957 C-199.42461709 367.12967188 -202.65145828 365.97548729 -205.87890625 364.82226562 C-207.95083132 364.07377558 -210.02245622 363.32445399 -212.09375 362.57421875 C-213.04713257 362.23444504 -214.00051514 361.89467133 -214.98278809 361.54460144 C-227.15435786 357.08975902 -236.87297279 351.62340483 -242.93359375 339.7421875 C-246.52062543 331.50736769 -247.19430728 322.00275755 -244.24194336 313.4140625 C-241.54528525 306.90793163 -237.70500565 301.23532086 -233.75 295.4375 C-233.06180176 294.41164795 -232.37360352 293.3857959 -231.66455078 292.32885742 C-228.25100497 287.25465732 -224.79607951 282.21565204 -221.26280212 277.22439575 C-219.65785338 274.95470639 -218.06541506 272.67636356 -216.47323608 270.39770508 C-215.32772719 268.77161553 -214.16165013 267.16007865 -212.99536133 265.54882812 C-212.30337646 264.55947266 -211.6113916 263.57011719 -210.8984375 262.55078125 C-210.27759277 261.68235596 -209.65674805 260.81393066 -209.01708984 259.91918945 C-207.6534574 257.47372829 -207.6534574 257.47372829 -208.57470703 254.88989258 C-209.8857261 252.5306689 -211.2400313 250.30156272 -212.78125 248.0859375 C-213.3597168 247.24788574 -213.93818359 246.40983398 -214.53417969 245.54638672 C-215.16227539 244.6442041 -215.79037109 243.74202148 -216.4375 242.8125 C-217.78710205 240.84419122 -219.13602902 238.87541944 -220.484375 236.90625 C-222.76638061 233.5847324 -225.05379218 230.26748609 -227.35742188 226.9609375 C-229.4171082 224.0032471 -231.45838772 221.03349877 -233.48999023 218.05645752 C-234.2779012 216.90900696 -235.07218685 215.76590331 -235.87329102 214.62762451 C-242.27686475 205.52062666 -247.18755 195.89629169 -245.9375 184.4375 C-243.86378714 173.79565572 -239.50918181 165.25810544 -230.9375 158.4375 C-224.58433952 154.86426157 -217.64234021 152.59348456 -210.76171875 150.2734375 C-209.09297594 149.70218214 -207.42435801 149.1305619 -205.75585938 148.55859375 C-203.18342896 147.67677218 -200.60977574 146.80759798 -198.02124023 145.97412109 C-186.12443452 142.52899891 -186.12443452 142.52899891 -178.0390625 133.80859375 C-177.31859886 132.02616089 -176.61521534 130.23662109 -175.9375 128.4375 C-173.92141161 125.76421472 -171.79941762 123.32067996 -169.57421875 120.82421875 C-166.42742301 116.23545455 -166.78857096 110.65112333 -166.65625 105.23828125 C-166.63784058 104.56258591 -166.61943115 103.88689056 -166.60046387 103.1907196 C-166.54219875 101.0438944 -166.48925804 98.89699125 -166.4375 96.75 C-165.69704624 66.41561619 -165.69704624 66.41561619 -157.8125 54.125 C-148.96510571 45.85460968 -139.37033381 41.42923967 -127.203125 41.8359375 C-115.7510241 42.78123335 -104.45016179 46.99136873 -93.4887085 50.3180542 C-90.04015606 51.35948482 -86.58422612 52.37582785 -83.12890625 53.39453125 C-76.39116599 55.38485788 -69.66179269 57.40215704 -62.9375 59.4375 C-62.63541626 58.81669052 -62.33333252 58.19588104 -62.02209473 57.55625916 C-60.88327861 55.33157836 -59.5768127 53.52825023 -58.03125 51.56640625 C-57.45737549 50.83389648 -56.88350098 50.10138672 -56.29223633 49.34667969 C-55.68017334 48.57227539 -55.06811035 47.79787109 -54.4375 47 C-53.15985747 45.37132809 -51.88251526 43.74242054 -50.60546875 42.11328125 C-49.97817871 41.31486816 -49.35088867 40.51645508 -48.70458984 39.69384766 C-46.36563411 36.70730042 -44.05625694 33.69937501 -41.75 30.6875 C-40.96367187 29.66914063 -40.17734375 28.65078125 -39.3671875 27.6015625 C-37.62732573 25.33582611 -35.90587565 23.06097156 -34.1953125 20.7734375 C-25.00077126 8.59640898 -16.06336694 -0.21573057 0 0 Z " fill="#D3D3FE" transform="translate(255.9375,-0.4375)"/>
<path d="M0 0 C-0.45519602 2.48811029 -0.95578625 4.86690058 -1.75390625 7.26953125 C-7.65408572 25.82516813 -4.86724261 46.24537964 3.81225586 63.27124023 C6.67929936 68.65549712 9.89887618 73.46519412 14 78 C14.52980469 78.60972656 15.05960937 79.21945313 15.60546875 79.84765625 C27.12725134 92.2999391 43.6940967 98.2726781 60 101 C58.55656418 105.77217556 56.53639578 110.08859473 54.25 114.5 C42.25478809 137.61592788 42.25478809 137.61592788 39 163 C39.91569072 165.84039911 39.91569072 165.84039911 42 168 C44.31 168.66 46.62 169.32 49 170 C49.33 177.26 49.66 184.52 50 192 C39.6875 192.3125 39.6875 192.3125 36.44799805 192.38793945 C35.18016479 192.43760864 35.18016479 192.43760864 33.88671875 192.48828125 C32.59060669 192.52755737 32.59060669 192.52755737 31.26831055 192.56762695 C28.53596974 193.08845093 27.62305803 193.76468751 26 196 C25.51169842 199.83665529 25.27313163 202.03615617 27.64746094 205.18457031 C30.62451947 207.48193512 32.34508614 207.53617816 36.078125 207.609375 C37.81835938 207.65771484 37.81835938 207.65771484 39.59375 207.70703125 C40.8003125 207.72121094 42.006875 207.73539063 43.25 207.75 C44.47203125 207.77964844 45.6940625 207.80929687 46.953125 207.83984375 C49.96881644 207.91052402 52.9837355 207.96323175 56 208 C57.31746333 210.58090767 58.62909617 213.16450458 59.9375 215.75 C60.31068359 216.47960937 60.68386719 217.20921875 61.06835938 217.9609375 C61.42607422 218.66992188 61.78378906 219.37890625 62.15234375 220.109375 C62.48226318 220.75874023 62.81218262 221.40810547 63.15209961 222.07714844 C64.01452116 224.03293079 64.54374179 225.91540694 65 228 C64.39937744 228.29656494 63.79875488 228.59312988 63.17993164 228.89868164 C60.46002163 230.2603496 57.76187087 231.66058641 55.0625 233.0625 C53.64420898 233.76149414 53.64420898 233.76149414 52.19726562 234.47460938 C46.55648648 237.28851887 46.55648648 237.28851887 43.8125 242.71875 C43.82819467 245.92329719 43.82819467 245.92329719 44.9375 248.4375 C47.51112273 250.38721419 49.50593007 250.43387864 52.67993164 250.37182617 C57.16775699 249.65258404 60.8759826 247.209 64.75 244.9375 C66.4051436 243.97731269 68.06640718 243.02757686 69.734375 242.08984375 C70.45850586 241.66566162 71.18263672 241.24147949 71.92871094 240.80444336 C74.4536854 239.82379851 75.50880613 240.01203553 78 241 C79.95938272 242.44375569 81.8701386 243.95412413 83.75 245.5 C103.31952028 260.98207414 125.67324638 267.84905738 150 272 C150.77102051 272.13277344 151.54204102 272.26554687 152.33642578 272.40234375 C174.48631093 276.00707934 198.01011226 275.18111299 220 271 C220.76054687 270.85546387 221.52109375 270.71092773 222.3046875 270.56201172 C242.79131631 266.50512009 262.9063875 259.17771998 279.3515625 246.078125 C282.15132374 243.8812622 285.01903896 241.94068431 288 240 C288.56920166 240.30292969 289.13840332 240.60585938 289.72485352 240.91796875 C292.32981654 242.29359663 294.94579639 243.64684789 297.5625 245 C298.45775391 245.47695313 299.35300781 245.95390625 300.27539062 246.4453125 C305.45381891 249.10091675 309.15950982 250.74543098 315 250 C317.08333333 249.08333333 317.08333333 249.08333333 318 247 C318.91720924 243.58643656 318.91720924 243.58643656 318 240 C315.66186744 237.74630001 312.88237486 236.45239417 310 235 C307.9986258 233.89832613 305.99864239 232.79412218 304 231.6875 C302.33465617 230.78920992 300.66845395 229.89250018 299 229 C299 224.86428201 300.9760497 222.02055181 302.9375 218.5 C305.79442538 213.40111219 305.79442538 213.40111219 308 208 C308.70084717 207.99589111 309.40169434 207.99178223 310.1237793 207.98754883 C313.31253205 207.95456628 316.49938605 207.88391668 319.6875 207.8125 C321.34168945 207.80379883 321.34168945 207.80379883 323.02929688 207.79492188 C329.69855744 207.81362336 329.69855744 207.81362336 335.24609375 204.61328125 C337.20859796 201.68919368 337.5431143 200.43972388 337 197 C336.67 196.01 336.34 195.02 336 194 C333.27692669 192.98533985 330.55802839 192.82790142 327.671875 192.68359375 C326.9509668 192.64548584 326.23005859 192.60737793 325.48730469 192.56811523 C324.58399414 192.52501221 323.68068359 192.48190918 322.75 192.4375 C319.8625 192.293125 316.975 192.14875 314 192 C314.33 185.07 314.66 178.14 315 171 C317.64 169.68 320.28 168.36 323 167 C327.17735496 158.64529008 324.53584007 150.54859074 321.82421875 142.09375 C317.40974114 129.26102631 311.78867453 116.44048614 304.90039062 104.7421875 C304 103 304 103 304 101 C305.21623047 100.74476563 305.21623047 100.74476563 306.45703125 100.484375 C327.49803157 95.8793598 344.79224694 87.10210206 357.18359375 69.01953125 C364.97773602 56.06281732 368.39082626 44.27570778 368.3125 29.125 C368.31048584 28.07014404 368.30847168 27.01528809 368.30639648 25.9284668 C368.21004973 18.46361277 367.35732094 12.09639103 365 5 C364.65531628 3.33564366 364.32056222 1.66917008 364 0 C372.23393011 2.0525843 380.19484084 4.72333359 388.15283203 7.65136719 C390.12612691 8.37541349 392.1038094 9.08641788 394.08203125 9.796875 C406.22282259 14.2083972 417.9317048 19.00194948 424.375 30.9375 C428.24234397 39.80660885 429.46758799 49.61192953 426.34399414 58.96411133 C423.68233036 65.47081121 419.79957213 71.17152435 415.85925293 76.96380615 C414.66566029 78.71962706 413.48276728 80.48227717 412.30175781 82.24658203 C408.41084161 88.04457945 404.45856805 93.79125998 400.41015625 99.48046875 C399.70737549 100.47796143 399.00459473 101.4754541 398.28051758 102.50317383 C396.9514006 104.38298662 395.6066857 106.25189074 394.24487305 108.1081543 C393.65359619 108.94644775 393.06231934 109.78474121 392.453125 110.6484375 C391.92879883 111.37208496 391.40447266 112.09573242 390.86425781 112.84130859 C389.73355127 115.03515045 389.73355127 115.03515045 390.70068359 117.54760742 C391.82403213 119.66786973 392.95787153 121.62916969 394.3359375 123.58984375 C394.81369629 124.2768335 395.29145508 124.96382324 395.78369141 125.67163086 C396.57138916 126.79323608 396.57138916 126.79323608 397.375 127.9375 C398.5375099 129.62427575 399.698887 131.31183256 400.859375 133 C403.07448142 136.21355737 405.29404831 139.42388961 407.52148438 142.62890625 C409.7892317 145.89579462 412.0364896 149.17615047 414.27423096 152.46365356 C415.16515863 153.76554482 416.06246096 155.06309962 416.9664917 156.35592651 C423.67280501 165.95545503 429.32871644 175.82009931 428 188 C426.11039206 198.28261655 421.75096122 206.68520453 413.50048828 213.28759766 C402.90843775 220.54132177 388.87824842 224.04799863 376.88256836 228.28857422 C373.77791218 229.38723983 370.67695979 230.49593876 367.57617188 231.60546875 C365.59917007 232.30788791 363.62196403 233.00973254 361.64453125 233.7109375 C360.7196138 234.04209564 359.79469635 234.37325378 358.8417511 234.71444702 C357.98623154 235.0154129 357.13071198 235.31637878 356.24926758 235.62646484 C355.49873611 235.8926059 354.74820465 236.15874695 353.97492981 236.43295288 C352 237 352 237 349 237 C349.01160156 238.2890625 349.02320313 239.578125 349.03515625 240.90625 C349.10682575 252.86292834 348.92765019 264.79988255 348.5625 276.75 C348.54285187 277.42764404 348.52320374 278.10528809 348.50296021 278.8034668 C347.55674831 310.92310389 347.55674831 310.92310389 337 321 C334.11980256 323.23892507 331.1595512 325.17842201 328 327 C327.11054687 327.51626953 327.11054687 327.51626953 326.203125 328.04296875 C310.46050236 335.46150552 290.95938655 326.79566534 275.5512085 322.1194458 C272.10265606 321.07801518 268.64672612 320.06167215 265.19140625 319.04296875 C258.45366599 317.05264212 251.72429269 315.03534296 245 313 C244.69791626 313.62080948 244.39583252 314.24161896 244.08459473 314.88124084 C242.94577861 317.10592164 241.6393127 318.90924977 240.09375 320.87109375 C239.51987549 321.60360352 238.94600098 322.33611328 238.35473633 323.09082031 C237.43664185 324.25242676 237.43664185 324.25242676 236.5 325.4375 C235.22235747 327.06617191 233.94501526 328.69507946 232.66796875 330.32421875 C232.04067871 331.12263184 231.41338867 331.92104492 230.76708984 332.74365234 C228.42813411 335.73019958 226.11875694 338.73812499 223.8125 341.75 C222.63300781 343.27753906 222.63300781 343.27753906 221.4296875 344.8359375 C219.68982573 347.10167389 217.96837565 349.37652844 216.2578125 351.6640625 C209.29800762 360.88146012 202.55085701 368.8328919 191 372 C188.0063985 372.41227641 185.08140178 372.47804377 182.0625 372.4375 C181.27053223 372.42992676 180.47856445 372.42235352 179.66259766 372.41455078 C169.38439102 372.12439741 161.38533003 367.61634845 154.28125 360.20751953 C152.65893845 358.29771604 151.10056158 356.35322501 149.5625 354.375 C149.00103271 353.66843262 148.43956543 352.96186523 147.86108398 352.23388672 C143.97554404 347.32062341 140.19198495 342.33318054 136.47265625 337.29296875 C134.48195995 334.61511989 132.43264514 331.98692958 130.37109375 329.36328125 C129.73292725 328.55036621 129.09476074 327.73745117 128.43725586 326.89990234 C127.16412895 325.28165936 125.88769276 323.66601341 124.60766602 322.05322266 C123.73452759 320.94213135 123.73452759 320.94213135 122.84375 319.80859375 C122.31974609 319.14657959 121.79574219 318.48456543 121.25585938 317.80249023 C120 316 120 316 119 313 C118.29637329 313.21297729 117.59274658 313.42595459 116.86779785 313.64538574 C110.16864063 315.66881678 103.46346289 317.67061215 96.75106049 319.64957428 C93.30200011 320.66722214 89.85563428 321.69248386 86.41455078 322.73681641 C49.76937009 333.84316675 49.76937009 333.84316675 36.23828125 327.31640625 C27.03529281 321.90382841 22.03157836 315.78496108 17.6875 306.0625 C15.54741467 296.52939262 15.71945844 286.47445914 15.4375 276.75 C15.41632111 276.05688721 15.39514221 275.36377441 15.37332153 274.6496582 C14.99231081 262.09812261 14.88698458 249.55726895 15 237 C13.10797852 236.62065308 13.10797852 236.62065308 11.17773438 236.23364258 C5.67235898 235.00650444 0.45261894 233.1830148 -4.84375 231.26171875 C-5.85288452 230.89907425 -6.86201904 230.53642975 -7.9017334 230.16279602 C-10.02387837 229.39819484 -12.14499981 228.63074746 -14.26513672 227.8605957 C-17.48711709 226.69217188 -20.71395828 225.53798729 -23.94140625 224.38476562 C-26.01333132 223.63627558 -28.08495622 222.88695399 -30.15625 222.13671875 C-31.10963257 221.79694504 -32.06301514 221.45717133 -33.04528809 221.10710144 C-45.21685786 216.65225902 -54.93547279 211.18590483 -60.99609375 199.3046875 C-64.58312543 191.06986769 -65.25680728 181.56525755 -62.30444336 172.9765625 C-59.60778525 166.47043163 -55.76750565 160.79782086 -51.8125 155 C-51.12430176 153.97414795 -50.43610352 152.9482959 -49.72705078 151.89135742 C-46.31350497 146.81715732 -42.85857951 141.77815204 -39.32530212 136.78689575 C-37.72035338 134.51720639 -36.12791506 132.23886356 -34.53573608 129.96020508 C-33.39022719 128.33411553 -32.22415013 126.72257865 -31.05786133 125.11132812 C-30.36587646 124.12197266 -29.6738916 123.13261719 -28.9609375 122.11328125 C-28.34009277 121.24485596 -27.71924805 120.37643066 -27.07958984 119.48168945 C-25.7159574 117.03622829 -25.7159574 117.03622829 -26.63720703 114.45239258 C-27.9482261 112.0931689 -29.3025313 109.86406272 -30.84375 107.6484375 C-31.4222168 106.81038574 -32.00068359 105.97233398 -32.59667969 105.10888672 C-33.22477539 104.2067041 -33.85287109 103.30452148 -34.5 102.375 C-35.84960205 100.40669122 -37.19852902 98.43791944 -38.546875 96.46875 C-40.82888061 93.1472324 -43.11629218 89.82998609 -45.41992188 86.5234375 C-47.4796082 83.5657471 -49.52088772 80.59599877 -51.55249023 77.61895752 C-52.3404012 76.47150696 -53.13468685 75.32840331 -53.93579102 74.19012451 C-60.33936475 65.08312666 -65.25005 55.45879169 -64 44 C-61.92764192 33.36510816 -57.57471307 24.81063678 -49 18 C-40.50826154 13.30926986 -31.00999827 10.32723429 -21.89916992 7.06860352 C-19.40911077 6.17733866 -16.92221505 5.27763033 -14.43554688 4.37695312 C-12.85174042 3.80679719 -11.26776236 3.23711767 -9.68359375 2.66796875 C-8.94096786 2.39929489 -8.19834198 2.13062103 -7.43321228 1.85380554 C-2.23098649 0 -2.23098649 0 0 0 Z " fill="#2ECFFB" transform="translate(74,140)"/>
<path d="M0 0 C9.16793483 8.04084239 16.14230183 17.54981667 21.0625 28.6875 C21.0625 29.6775 21.0625 30.6675 21.0625 31.6875 C21.73732422 31.0378125 21.73732422 31.0378125 22.42578125 30.375 C27.29631775 26.15842331 30.8637238 24.87005084 37.3046875 25.2109375 C40.96294227 25.84310051 44.00455113 27.10397509 47.28515625 28.8125 C49.03138119 29.83472801 49.03138119 29.83472801 51.0625 29.6875 C51.48208984 28.49253906 51.48208984 28.49253906 51.91015625 27.2734375 C56.08236754 16.24592084 56.08236754 16.24592084 60.96875 12.61328125 C65.23044735 10.72891134 69.53583049 10.98569077 74.0625 11.6875 C79.11526268 13.73010619 81.99402763 17.29353441 84.19921875 22.234375 C85.19405723 24.70576321 86.14898005 27.18503845 87.0625 29.6875 C90.07807628 29.16722469 92.07129609 28.682386 94.75 27.125 C99.26902533 25.16391354 103.20456306 24.96868332 108.0625 25.6875 C113.19558791 28.30070839 116.2422908 31.22687241 118.0625 36.6875 C119.05855632 44.51365683 116.31800002 50.17722012 112.0625 56.6875 C109.28118495 60.10776581 106.19966434 63.24440872 103.14453125 66.41796875 C73.11538807 97.78711708 55.61722121 142.0595062 51.0625 184.6875 C52.18398438 183.75164062 52.18398438 183.75164062 53.328125 182.796875 C58.53777401 178.77800291 64.0427118 177.07730914 70.62890625 177.33984375 C76.57589714 178.18941388 82.89832479 179.97315248 87.25 184.3125 C89.72508851 188.92128549 90.19010184 192.56992242 89.0625 197.6875 C86.63814929 202.31013656 83.40571974 205.80084786 79.0625 208.6875 C78.4025 208.6875 77.7425 208.6875 77.0625 208.6875 C77.06851372 211.44178447 77.1158849 214.1847946 77.1875 216.9375 C77.18492187 217.71480469 77.18234375 218.49210938 77.1796875 219.29296875 C77.25744742 221.56744654 77.40873877 223.50561011 78.0625 225.6875 C80.77420825 228.24036676 80.77420825 228.24036676 84.0625 229.6875 C85.02736328 230.18830078 85.02736328 230.18830078 86.01171875 230.69921875 C89.98477718 232.24380102 93.48425972 232.87272504 97.75 233.125 C101.30490465 233.38138702 102.98719951 233.64683773 106.1875 235.375 C108.55005967 238.28882359 109.13915188 239.93155781 109.0625 243.6875 C107.29210551 246.43466387 105.99958156 248.21895922 103.0625 249.6875 C91.80992874 251.07980598 81.30567942 247.18513992 72.28125 240.6640625 C70.06142577 239.40833346 70.06142577 239.40833346 67.59375 240.3671875 C66.7584375 240.80289062 65.923125 241.23859375 65.0625 241.6875 C64.2375 242.0896875 63.4125 242.491875 62.5625 242.90625 C61.7375 243.3290625 60.9125 243.751875 60.0625 244.1875 C56.78146428 245.86903081 53.50309911 247.36041177 50.0625 248.6875 C49.5015194 256.72533302 49.5015194 256.72533302 53.0625 263.6875 C53.71210693 264.27176758 54.36171387 264.85603516 55.03100586 265.45800781 C57.39274139 268.04992812 58.21706852 270.16559975 59.31640625 273.484375 C59.69603516 274.6084375 60.07566406 275.7325 60.46679688 276.890625 C60.84900391 278.06109375 61.23121094 279.2315625 61.625 280.4375 C62.39633286 282.74506009 63.16845025 285.0523581 63.94140625 287.359375 C64.30250488 288.44669922 64.66360352 289.53402344 65.03564453 290.65429688 C66.29290502 294.36808771 67.65240041 298.02935026 69.0625 301.6875 C34.44952647 303.33283501 -4.87209477 294.40600206 -31.33447266 271.05395508 C-34.42847371 268.39910728 -34.42847371 268.39910728 -38.3125 267.59765625 C-42.90457573 269.50418769 -47.15635894 272.01701568 -51.43554688 274.53710938 C-56.56159021 277.40125735 -60.05496277 278.34817373 -65.9375 277.6875 C-68.5 275.625 -68.5 275.625 -69.9375 272.6875 C-70.1875 269.1875 -70.1875 269.1875 -68.9375 265.6875 C-66.56047612 263.4650793 -63.83641239 262.13027668 -60.9375 260.6875 C-59.88175781 260.14609375 -58.82601562 259.6046875 -57.73828125 259.046875 C-54.81685887 257.56714864 -51.88397386 256.11653982 -48.9375 254.6875 C-50.82023265 249.73390245 -53.24885681 245.12360489 -55.6953125 240.4296875 C-56.9375 237.6875 -56.9375 237.6875 -56.9375 234.6875 C-57.69893311 234.71368408 -58.46036621 234.73986816 -59.24487305 234.7668457 C-62.70470435 234.87097015 -66.16420585 234.93587729 -69.625 235 C-71.42227539 235.0628418 -71.42227539 235.0628418 -73.25585938 235.12695312 C-83.17663936 235.26512555 -83.17663936 235.26512555 -86.234375 232.390625 C-88.46963585 228.84291741 -88.61154377 226.80665636 -87.9375 222.6875 C-86.57421875 220.48828125 -86.57421875 220.48828125 -83.9375 218.6875 C-80.34298757 218.19190283 -76.80711096 218.31218724 -73.1875 218.4375 C-72.20394531 218.45554687 -71.22039062 218.47359375 -70.20703125 218.4921875 C-67.78286217 218.53925874 -65.36067941 218.60499258 -62.9375 218.6875 C-63.18306641 216.93953125 -63.18306641 216.93953125 -63.43359375 215.15625 C-63.93444584 211.14943325 -64.038857 207.22862753 -64 203.1875 C-63.99097656 201.9603125 -63.98195312 200.733125 -63.97265625 199.46875 C-63.96105469 198.5509375 -63.94945312 197.633125 -63.9375 196.6875 C-65.01 196.64625 -66.0825 196.605 -67.1875 196.5625 C-70.9375 195.6875 -70.9375 195.6875 -73.4375 193.4375 C-76.99800659 186.79847679 -74.56677771 178.65779906 -72.61328125 171.83984375 C-67.82042408 156.28822591 -60.93577444 141.82263229 -52.9375 127.6875 C-53.64817627 127.66236328 -54.35885254 127.63722656 -55.09106445 127.61132812 C-63.08097418 127.26029249 -69.68621866 124.94480753 -76.9375 121.6875 C-77.87722656 121.26597656 -78.81695312 120.84445313 -79.78515625 120.41015625 C-94.23587476 113.236778 -105.38272338 100.55372629 -112.3125 86.1875 C-112.64668945 85.49962402 -112.98087891 84.81174805 -113.32519531 84.10302734 C-117.52614188 74.92454316 -118.30485263 65.81316839 -118.25 55.8125 C-118.24508545 54.75256836 -118.2401709 53.69263672 -118.23510742 52.60058594 C-118.12479334 45.25310235 -117.54285573 38.61418874 -114.9375 31.6875 C-114.58558594 30.68976563 -114.23367187 29.69203125 -113.87109375 28.6640625 C-111.16533443 21.5737229 -107.53930987 15.69418932 -102.9375 9.6875 C-102.256875 8.73875 -101.57625 7.79 -100.875 6.8125 C-98.49203891 4.19892977 -95.91699316 2.59887297 -92.9375 0.6875 C-91.6230371 -0.41432919 -90.31074518 -1.51875078 -89 -2.625 C-62.52231971 -23.3176409 -25.69998874 -19.97297175 0 0 Z " fill="#9DA2E2" transform="translate(186.9375,113.3125)"/>
<path d="M0 0 C8.23393011 2.0525843 16.19484084 4.72333359 24.15283203 7.65136719 C26.12612691 8.37541349 28.1038094 9.08641788 30.08203125 9.796875 C42.22282259 14.2083972 53.9317048 19.00194948 60.375 30.9375 C64.24234397 39.80660885 65.46758799 49.61192953 62.34399414 58.96411133 C59.68233036 65.47081121 55.79957213 71.17152435 51.85925293 76.96380615 C50.66566029 78.71962706 49.48276728 80.48227717 48.30175781 82.24658203 C44.41084161 88.04457945 40.45856805 93.79125998 36.41015625 99.48046875 C35.70737549 100.47796143 35.00459473 101.4754541 34.28051758 102.50317383 C32.9514006 104.38298662 31.6066857 106.25189074 30.24487305 108.1081543 C29.65359619 108.94644775 29.06231934 109.78474121 28.453125 110.6484375 C27.66663574 111.73390869 27.66663574 111.73390869 26.86425781 112.84130859 C25.73355127 115.03515045 25.73355127 115.03515045 26.70068359 117.54760742 C27.82403213 119.66786973 28.95787153 121.62916969 30.3359375 123.58984375 C30.81369629 124.2768335 31.29145508 124.96382324 31.78369141 125.67163086 C32.30882324 126.41936768 32.83395508 127.16710449 33.375 127.9375 C34.5375099 129.62427575 35.698887 131.31183256 36.859375 133 C39.07448142 136.21355737 41.29404831 139.42388961 43.52148438 142.62890625 C45.7892317 145.89579462 48.0364896 149.17615047 50.27423096 152.46365356 C51.16515863 153.76554482 52.06246096 155.06309962 52.9664917 156.35592651 C59.67280501 165.95545503 65.32871644 175.82009931 64 188 C62.11039206 198.28261655 57.75096122 206.68520453 49.50048828 213.28759766 C38.90843775 220.54132177 24.87824842 224.04799863 12.88256836 228.28857422 C9.77791218 229.38723983 6.67695979 230.49593876 3.57617188 231.60546875 C1.59917007 232.30788791 -0.37803597 233.00973254 -2.35546875 233.7109375 C-3.2803862 234.04209564 -4.20530365 234.37325378 -5.1582489 234.71444702 C-6.44152824 235.16589584 -6.44152824 235.16589584 -7.75073242 235.62646484 C-8.50126389 235.8926059 -9.25179535 236.15874695 -10.02507019 236.43295288 C-12 237 -12 237 -15 237 C-14.98839844 238.2890625 -14.97679687 239.578125 -14.96484375 240.90625 C-14.89317425 252.86292834 -15.07234981 264.79988255 -15.4375 276.75 C-15.45714813 277.42764404 -15.47679626 278.10528809 -15.49703979 278.8034668 C-16.44325169 310.92310389 -16.44325169 310.92310389 -27 321 C-29.88019744 323.23892507 -32.8404488 325.17842201 -36 327 C-36.59296875 327.34417969 -37.1859375 327.68835938 -37.796875 328.04296875 C-52.6691058 335.051343 -71.09565373 327.48666125 -85.6027832 323.12133789 C-88.91584174 322.1248292 -92.23913821 321.16917781 -95.56729221 320.22449398 C-98.78191465 319.30580698 -101.98595208 318.35252995 -105.19140625 317.40234375 C-106.37376358 317.0666185 -107.55612091 316.73089325 -108.77430725 316.38499451 C-115.85996522 314.21384212 -120.34284056 311.80043283 -125 306 C-125.61488281 305.33613281 -126.22976563 304.67226563 -126.86328125 303.98828125 C-128.58368476 301.99891978 -130.2968154 300.00414895 -132 298 C-132.78632813 297.07960938 -133.57265625 296.15921875 -134.3828125 295.2109375 C-146.95343006 280.3337846 -146.95343006 280.3337846 -150 275 C-149.67 274.01 -149.34 273.02 -149 272 C-146.39434689 271.27140506 -143.9037789 270.72947127 -141.25 270.25 C-120.81508609 266.10115572 -101.08119632 259.16782973 -84.6484375 246.078125 C-81.84867626 243.8812622 -78.98096104 241.94068431 -76 240 C-75.43079834 240.30292969 -74.86159668 240.60585938 -74.27514648 240.91796875 C-71.67018346 242.29359663 -69.05420361 243.64684789 -66.4375 245 C-65.54224609 245.47695313 -64.64699219 245.95390625 -63.72460938 246.4453125 C-58.54618109 249.10091675 -54.84049018 250.74543098 -49 250 C-46.91666667 249.08333333 -46.91666667 249.08333333 -46 247 C-45.08279076 243.58643656 -45.08279076 243.58643656 -46 240 C-48.33813256 237.74630001 -51.11762514 236.45239417 -54 235 C-56.0013742 233.89832613 -58.00135761 232.79412218 -60 231.6875 C-61.66534383 230.78920992 -63.33154605 229.89250018 -65 229 C-65 224.86428201 -63.0239503 222.02055181 -61.0625 218.5 C-58.20557462 213.40111219 -58.20557462 213.40111219 -56 208 C-55.29915283 207.99589111 -54.59830566 207.99178223 -53.8762207 207.98754883 C-50.68746795 207.95456628 -47.50061395 207.88391668 -44.3125 207.8125 C-42.65831055 207.80379883 -42.65831055 207.80379883 -40.97070312 207.79492188 C-34.30144256 207.81362336 -34.30144256 207.81362336 -28.75390625 204.61328125 C-26.79140204 201.68919368 -26.4568857 200.43972388 -27 197 C-27.33 196.01 -27.66 195.02 -28 194 C-30.72307331 192.98533985 -33.44197161 192.82790142 -36.328125 192.68359375 C-37.0490332 192.64548584 -37.76994141 192.60737793 -38.51269531 192.56811523 C-39.41600586 192.52501221 -40.31931641 192.48190918 -41.25 192.4375 C-44.1375 192.293125 -47.025 192.14875 -50 192 C-49.67 185.07 -49.34 178.14 -49 171 C-45.04 169.02 -45.04 169.02 -41 167 C-36.82264504 158.64529008 -39.46415993 150.54859074 -42.17578125 142.09375 C-46.59025886 129.26102631 -52.21132547 116.44048614 -59.09960938 104.7421875 C-60 103 -60 103 -60 101 C-59.18917969 100.82984375 -58.37835938 100.6596875 -57.54296875 100.484375 C-36.50196843 95.8793598 -19.20775306 87.10210206 -6.81640625 69.01953125 C0.97773602 56.06281732 4.39082626 44.27570778 4.3125 29.125 C4.31048584 28.07014404 4.30847168 27.01528809 4.30639648 25.9284668 C4.21004973 18.46361277 3.35732094 12.09639103 1 5 C0.65531628 3.33564366 0.32056222 1.66917008 0 0 Z " fill="#55DAFE" transform="translate(438,140)"/>
<path d="M0 0 C0.79196777 0.00757324 1.58393555 0.01514648 2.39990234 0.02294922 C12.65798299 0.31253443 20.61467615 4.80176524 27.73291016 12.16552734 C29.30991089 14.01281365 30.82088216 15.8956548 32.3125 17.8125 C32.86405762 18.50585449 33.41561523 19.19920898 33.98388672 19.91357422 C38.30792336 25.38246279 42.50724004 30.94626212 46.65844727 36.54711914 C50.54947281 41.79425574 54.56525668 46.93203645 58.67431641 52.01025391 C60.65608467 54.48987199 62.04898079 56.39694238 63.0625 59.4375 C63.76612671 59.22452271 64.46975342 59.01154541 65.19470215 58.79211426 C71.89385937 56.76868322 78.59903711 54.76688785 85.31143951 52.78792572 C88.76049989 51.77027786 92.20686572 50.74501614 95.64794922 49.70068359 C132.32203464 38.58582265 132.32203464 38.58582265 147.51171875 45.96484375 C155.98430326 50.85636651 160.41114047 57.50350485 164.375 66.375 C166.83200349 77.31983372 166.37031232 88.95928433 166.625 100.125 C166.66828709 101.90560708 166.71190426 103.68620616 166.75585938 105.46679688 C166.86187789 109.79028186 166.96343163 114.1138504 167.0625 118.4375 C163.4363016 116.03235257 159.88041209 113.57698376 156.375 111 C140.25531457 99.7737905 121.10495472 95.8694541 101.82421875 99.0625 C84.59426356 102.52218867 68.66219962 112.52024232 57.98828125 126.46484375 C54.09506695 132.47445041 51.08532007 138.95773145 48.0625 145.4375 C45.82034561 144.3586391 43.92310897 143.33090686 41.9375 141.8125 C37.65376297 139.7637562 33.72896901 139.75564151 29.0625 140.4375 C26.83829557 141.34999412 24.88198643 142.37710113 22.8515625 143.66015625 C21.0625 144.4375 21.0625 144.4375 18.9921875 144.421875 C16.01045646 142.90083002 15.66671923 140.710099 14.5625 137.625 C12.99834891 133.28659444 11.6559288 130.40207876 8.0625 127.4375 C3.40312999 125.88437666 -1.07589961 125.86554701 -5.9375 126.4375 C-12.08799318 129.62664461 -13.50581384 134.53377955 -15.76171875 140.890625 C-16.34373047 142.15132813 -16.34373047 142.15132813 -16.9375 143.4375 C-19.9375 144.4375 -19.9375 144.4375 -21.8125 143.66015625 C-22.51375 143.27730469 -23.215 142.89445313 -23.9375 142.5 C-29.2361808 140.02785855 -34.16342637 139.35597847 -39.9375 140.4375 C-42.40903415 141.86035532 -43.91966464 143.36792527 -45.9375 145.4375 C-46.5975 145.4375 -47.2575 145.4375 -47.9375 145.4375 C-48.38738281 144.43332031 -48.83726562 143.42914063 -49.30078125 142.39453125 C-58.54745074 122.44712836 -71.90911577 109.21102592 -92.9375 101.4375 C-112.73840608 95.24385165 -131.96313376 97.92926007 -150.27612305 107.21484375 C-155.37287495 109.93884974 -159.84458808 113.17487195 -164.21484375 116.96875 C-165.9375 118.4375 -165.9375 118.4375 -166.9375 118.4375 C-166.81811133 113.22700979 -166.69380469 108.01666703 -166.56518555 102.80639648 C-166.52220805 101.03852422 -166.48051177 99.27062028 -166.44018555 97.50268555 C-165.72942375 66.46608702 -165.72942375 66.46608702 -157.8125 54.125 C-148.96510571 45.85460968 -139.37033381 41.42923967 -127.203125 41.8359375 C-115.7510241 42.78123335 -104.45016179 46.99136873 -93.4887085 50.3180542 C-90.04015606 51.35948482 -86.58422612 52.37582785 -83.12890625 53.39453125 C-76.39116599 55.38485788 -69.66179269 57.40215704 -62.9375 59.4375 C-62.63541626 58.81669052 -62.33333252 58.19588104 -62.02209473 57.55625916 C-60.88327861 55.33157836 -59.5768127 53.52825023 -58.03125 51.56640625 C-57.45737549 50.83389648 -56.88350098 50.10138672 -56.29223633 49.34667969 C-55.68017334 48.57227539 -55.06811035 47.79787109 -54.4375 47 C-53.15985747 45.37132809 -51.88251526 43.74242054 -50.60546875 42.11328125 C-49.97817871 41.31486816 -49.35088867 40.51645508 -48.70458984 39.69384766 C-46.36563411 36.70730042 -44.05625694 33.69937501 -41.75 30.6875 C-40.96367187 29.66914063 -40.17734375 28.65078125 -39.3671875 27.6015625 C-37.62732573 25.33582611 -35.90587565 23.06097156 -34.1953125 20.7734375 C-25.00077126 8.59640898 -16.06336694 -0.21573057 0 0 Z " fill="#2ECFFB" transform="translate(255.9375,-0.4375)"/>
<path d="M0 0 C6.36805545 4.86968946 11.17198982 12.90605124 12.91796875 20.68359375 C14.26104548 30.84415402 14.24711448 41.14065198 14.48046875 51.37109375 C14.52375584 53.15170083 14.56737301 54.93229991 14.61132812 56.71289062 C14.71734664 61.03637561 14.81890038 65.35994415 14.91796875 69.68359375 C11.29177035 67.27844632 7.73588084 64.82307751 4.23046875 62.24609375 C-11.88921668 51.01988425 -31.03957653 47.11554785 -50.3203125 50.30859375 C-67.55026769 53.76828242 -83.48233163 63.76633607 -94.15625 77.7109375 C-98.0494643 83.72054416 -101.05921118 90.2038252 -104.08203125 96.68359375 C-106.32418564 95.60473285 -108.22142228 94.57700061 -110.20703125 93.05859375 C-114.49076828 91.00984995 -118.41556224 91.00173526 -123.08203125 91.68359375 C-125.30623568 92.59608787 -127.26254482 93.62319488 -129.29296875 94.90625 C-131.08203125 95.68359375 -131.08203125 95.68359375 -133.08984375 95.6328125 C-137.21146147 93.66898288 -138.3858219 89.97855325 -139.86328125 85.875 C-141.25694165 76.92290953 -132.80630371 67.63740297 -128.08203125 60.68359375 C-127.12050789 59.21347265 -126.16073402 57.74220507 -125.203125 56.26953125 C-117.41927214 44.48412023 -108.72082894 33.31752267 -99.14453125 22.9375 C-96.60086257 20.15777116 -94.18571434 17.27870537 -91.78515625 14.375 C-88.33384348 10.9474348 -84.31606148 9.26458324 -79.71948242 7.87426758 C-78.67036179 7.55416214 -77.62124115 7.2340567 -76.54032898 6.9042511 C-75.41327042 6.56975449 -74.28621185 6.23525787 -73.125 5.890625 C-71.94923904 5.53973312 -70.77347809 5.18884125 -69.56208801 4.82731628 C-67.07098464 4.08796558 -64.5786541 3.35273889 -62.08520508 2.62133789 C-58.31530644 1.50959288 -54.55542936 0.36765154 -50.79492188 -0.77539062 C-32.8189434 -6.12931158 -16.95090613 -10.71755228 0 0 Z " fill="#55D9FD" transform="translate(408.08203125,48.31640625)"/>
<path d="M0 0 C2.203125 1.640625 2.203125 1.640625 4 4 C4.390625 7.015625 4.390625 7.015625 4.25 10.25 C4.21390625 11.32765625 4.1778125 12.4053125 4.140625 13.515625 C4.07101562 14.74539063 4.07101562 14.74539063 4 16 C4.57105469 15.94199219 5.14210938 15.88398438 5.73046875 15.82421875 C14.88102127 15.31504651 23.80387468 18.12709604 31.0625 23.8125 C35.79409933 28.438168 38.1848916 33.37255877 38.5 40 C38.1848916 46.62744123 35.79409933 51.561832 31.0625 56.1875 C23.59890581 62.00846556 14.31422123 64.90140638 4.90625 64.40625 C-5.11574009 63.00532665 -12.39035893 58.67326147 -19 51 C-21.85345158 46.31342195 -22.67804692 41.42437533 -22 36 C-20.78389656 32.47536123 -19.40819119 29.21157935 -16.53466797 26.73925781 C-13.18265618 23.86667424 -13.18265618 23.86667424 -11.48486328 19.8972168 C-11.33095507 17.54090736 -11.31339044 15.23541626 -11.375 12.875 C-11.5069254 4.70881777 -11.5069254 4.70881777 -9.1953125 1.4765625 C-5.97323813 -0.69059784 -3.79115368 -0.54159338 0 0 Z " fill="#FE8E9F" transform="translate(324,291)"/>
<path d="M0 0 C6.70876416 3.95616491 11.22149907 9.42771908 13.4375 16.9375 C14.45670972 25.82098227 13.33058945 33.68283782 7.9296875 40.97265625 C2.26460874 47.17789369 -4.13128854 50.09229354 -12.5 50.5 C-21.23583875 50.14479436 -27.1757813 46.77948651 -33.0625 40.4375 C-38.29387106 34.34852712 -39.03221209 29.16657447 -38.86328125 21.2890625 C-38.0664003 12.4095319 -34.59235874 7.22892794 -27.87890625 1.53125 C-20.02456876 -3.87274612 -8.56155945 -3.95549251 0 0 Z " fill="#FEB4C0" transform="translate(153.5625,146.0625)"/>
<path d="M0 0 C0.144375 1.093125 0.28875 2.18625 0.4375 3.3125 C0.88288104 6.93122987 0.88288104 6.93122987 2 10 C8.36077959 10.52801764 8.36077959 10.52801764 14.0625 8 C15.0215625 7.01 15.0215625 7.01 16 6 C21.83800775 11.26220425 25.39730876 15.3506676 26.4375 23.375 C25.44291553 31.61584273 21.94153107 37.02932558 15.55078125 42.26953125 C7.1787625 47.94917031 -1.74320575 49.32040918 -11.59765625 47.52734375 C-19.70774576 45.43401307 -27.39705435 41.18059521 -32 34 C-34.67358598 29.32122454 -34.63174225 24.23786298 -34 19 C-32.16573514 12.77228637 -28.35551346 8.53191396 -23 5 C-15.2529702 0.84078846 -8.693346 -0.17045776 0 0 Z " fill="#FD8E9E" transform="translate(184,307)"/>
<path d="M0 0 C6.43121755 3.31404578 10.49346302 8.16154338 14.109375 14.30859375 C16.45752936 22.26622797 16.21123539 29.82188953 12.35546875 37.2265625 C8.28684158 44.10211713 2.7610574 47.61219962 -4.765625 50.12109375 C-13.80300031 51.22287253 -20.49405363 49.67756105 -27.765625 44.12109375 C-33.01247986 38.72703254 -36.03901753 33.04399323 -36.140625 25.43359375 C-35.98507908 18.39946146 -34.68900414 12.41767023 -29.9296875 7.05078125 C-21.35701064 -0.7992945 -11.41085602 -3.62633136 0 0 Z " fill="#FEB5C0" transform="translate(381.765625,144.87890625)"/>
<path d="M0 0 C5.28 0 10.56 0 16 0 C16.125 7.75 16.125 7.75 16.11767578 10.17089844 C16.15632192 12.45436924 16.15632192 12.45436924 17 16 C19.72113123 18.51738595 19.72113123 18.51738595 23 20 C23.64324219 20.33386719 24.28648437 20.66773438 24.94921875 21.01171875 C28.92227718 22.55630102 32.42175972 23.18522504 36.6875 23.4375 C40.24240465 23.69388702 41.92469951 23.95933773 45.125 25.6875 C47.48755967 28.60132359 48.07665188 30.24405781 48 34 C46.22960551 36.74716387 44.93708156 38.53145922 42 40 C30.74742874 41.39230598 20.24317942 37.49763992 11.21875 30.9765625 C8.99542212 29.71961671 8.99542212 29.71961671 6.5078125 30.68359375 C5.68023437 31.11800781 4.85265625 31.55242187 4 32 C3.24460938 32.39058594 2.48921875 32.78117187 1.7109375 33.18359375 C0.94007813 33.59738281 0.16921875 34.01117188 -0.625 34.4375 C-8.46372429 38.3684923 -18.12878511 41.95899359 -27 40 C-29.75194137 38.2321966 -30.37892034 37.01856212 -32 34 C-32.125 30.875 -32.125 30.875 -31 28 C-27.39140676 24.50075807 -24.89717451 23.53062394 -19.9375 23.125 C-9.5404474 21.66211411 -9.5404474 21.66211411 -1 16 C0.73685547 10.73933198 0.18038289 5.5016781 0 0 Z " fill="#344044" transform="translate(248,323)"/>
<path d="M0 0 C3.14892207 2.17636082 4.67908626 4.50574542 5.5 8.328125 C5.93441664 14.228951 4.54041127 17.84698449 0.71875 22.30859375 C-4.18528331 27.13460835 -8.14382882 28.81271009 -14.8125 29.25 C-21.92431096 29.13124991 -27.022864 25.75090255 -32 21 C-35.32225216 17.12403915 -35.58955111 13.380496 -35.3984375 8.43359375 C-34.91352212 5.47180664 -33.88666739 3.38236418 -31.7421875 1.25 C-21.60909494 -6.02038031 -10.79404753 -5.47400191 0 0 Z " fill="#FE8E9F" transform="translate(271,295)"/>
<path d="M0 0 C0.85207031 0.44601562 1.70414062 0.89203125 2.58203125 1.3515625 C4.05349609 2.063125 4.05349609 2.063125 5.5546875 2.7890625 C7.08416016 3.5625 7.08416016 3.5625 8.64453125 4.3515625 C10.17787109 5.125 10.17787109 5.125 11.7421875 5.9140625 C12.67933594 6.3884375 13.61648438 6.8628125 14.58203125 7.3515625 C15.91492512 8.01910737 17.24805874 8.68617573 18.58203125 9.3515625 C19.49135138 18.66367416 19.49135138 18.66367416 17.38671875 22.5703125 C14.27862888 26.25628843 11.23176966 28.9542165 6.32714844 29.68969727 C-12.56368138 30.48654818 -12.56368138 30.48654818 -17.66796875 26.0390625 C-20.96494653 22.29463773 -21.54408323 19.06237727 -21.48046875 14.1640625 C-21.47144531 13.26300781 -21.46242187 12.36195313 -21.453125 11.43359375 C-21.44152344 10.74652344 -21.42992187 10.05945313 -21.41796875 9.3515625 C-20.88429687 9.13242187 -20.350625 8.91328125 -19.80078125 8.6875 C-14.38861593 6.38405248 -9.62257251 3.66911607 -4.77734375 0.328125 C-2.41796875 -0.6484375 -2.41796875 -0.6484375 0 0 Z " fill="#EDEBFD" transform="translate(257.41796875,352.6484375)"/>
<path d="M0 0 C2.42728211 1.07879205 4.59469922 2.17409477 6.875 3.5 C8.18883589 4.23534354 9.50398951 4.96833664 10.8203125 5.69921875 C11.4999707 6.07868652 12.17962891 6.4581543 12.87988281 6.84912109 C17.11279789 9.14690572 21.46383715 11.21904702 25.80810547 13.296875 C32.09698085 16.37037354 32.09698085 16.37037354 34 19 C34.49573337 22.89504791 34.58016848 25.09493717 32.4375 28.4375 C29.07666673 30.5918803 26.95924376 30.30463565 23 30 C20.4802856 29.06183663 18.26383404 28.1129294 15.89453125 26.89453125 C15.24804123 26.57344894 14.60155121 26.25236664 13.93547058 25.92155457 C12.57831251 25.24316524 11.22459927 24.55784427 9.87426758 23.8659668 C7.81675884 22.81467607 5.74679911 21.79188414 3.67382812 20.77148438 C2.35072738 20.105824 1.0284324 19.43855914 -0.29296875 18.76953125 C-1.21338203 18.31608086 -1.21338203 18.31608086 -2.15238953 17.85346985 C-6.06877663 15.82023096 -8.62927243 13.73568083 -11 10 C-11 6.1862249 -10.84985071 3.97575452 -8.3125 1.0625 C-5.2697142 -0.33553672 -3.34459945 -0.290316 0 0 Z " fill="#EDECFF" transform="translate(359,361)"/>
<path d="M0 0 C0.80610718 0.00091644 1.61221436 0.00183289 2.44274902 0.0027771 C4.14402163 0.00880867 5.84528383 0.0245415 7.54638672 0.04931641 C10.14720894 0.08581064 12.74660475 0.09033572 15.34765625 0.08984375 C17.00261645 0.09967611 18.65756702 0.11133363 20.3125 0.125 C21.47670471 0.12833847 21.47670471 0.12833847 22.66442871 0.13174438 C29.62220078 0.25376832 29.62220078 0.25376832 32.65625 2.4609375 C34.65625 5.4609375 34.65625 5.4609375 34.59375 8.8984375 C33.44732906 13.25483707 32.44947108 14.12735041 28.65625 16.4609375 C25.86132823 16.83980058 23.47365158 17.00025729 20.6875 16.95703125 C19.92957153 16.95848648 19.17164307 16.95994171 18.39074707 16.96144104 C16.79382469 16.95978657 15.19688562 16.94827587 13.60009766 16.92749023 C11.16369504 16.89852601 8.72946974 16.90689114 6.29296875 16.91992188 C4.73696865 16.91368386 3.18097539 16.90529241 1.625 16.89453125 C0.90090942 16.89746689 0.17681885 16.90040253 -0.56921387 16.90342712 C-4.98289591 16.82160445 -7.83269637 16.17851627 -11.34375 13.4609375 C-12.88961876 10.36919998 -12.63734521 7.86664198 -12.34375 4.4609375 C-9.11348188 -0.27812274 -5.29600226 -0.09806139 0 0 Z " fill="#EBECFE" transform="translate(377.34375,331.5390625)"/>
<path d="M0 0 C2.9375 2.0625 2.9375 2.0625 5 5 C5.125 8.5625 5.125 8.5625 4 12 C-0.16324771 15.9833038 -5.23344966 18.39130488 -10.3125 21 C-11.12912109 21.42539062 -11.94574219 21.85078125 -12.78710938 22.2890625 C-14.40736113 23.13081879 -16.03021622 23.9675849 -17.65576172 24.79907227 C-19.18839191 25.58422202 -20.7163243 26.37862856 -22.23876953 27.18334961 C-22.93212402 27.54436768 -23.62547852 27.90538574 -24.33984375 28.27734375 C-24.94562256 28.59695068 -25.55140137 28.91655762 -26.17553711 29.24584961 C-29.68855105 30.69797059 -32.23519932 30.5647201 -36 30 C-38.5625 27.9375 -38.5625 27.9375 -40 25 C-40.25 21.5 -40.25 21.5 -39 18 C-33.73421759 13.63350215 -26.92217599 10.85466301 -20.8125 7.875 C-14.34158476 4.73950927 -14.34158476 4.73950927 -8.07421875 1.2265625 C-5.1429484 -0.50680641 -3.34352965 -0.55725494 0 0 Z " fill="#ECECFE" transform="translate(157,361)"/>
<path d="M0 0 C0.80610718 0.00091644 1.61221436 0.00183289 2.44274902 0.0027771 C4.14402163 0.00880867 5.84528383 0.0245415 7.54638672 0.04931641 C10.14720894 0.08581064 12.74660475 0.09033572 15.34765625 0.08984375 C17.00261645 0.09967611 18.65756702 0.11133363 20.3125 0.125 C21.47670471 0.12833847 21.47670471 0.12833847 22.66442871 0.13174438 C29.62220078 0.25376832 29.62220078 0.25376832 32.65625 2.4609375 C34.65625 5.4609375 34.65625 5.4609375 34.46875 8.9609375 C33.65240021 12.47752122 33.39099654 13.3555102 30.65625 15.4609375 C27.6080344 15.7715777 24.76847083 15.90506335 21.71875 15.89453125 C20.84226807 15.8997731 19.96578613 15.90501495 19.06274414 15.91041565 C17.21013447 15.91683744 15.35748404 15.9154968 13.50488281 15.90698242 C10.66658159 15.89846849 7.83028999 15.92723661 4.9921875 15.95898438 C3.19270894 15.96059634 1.3932268 15.96001894 -0.40625 15.95703125 C-1.68133423 15.97388222 -1.68133423 15.97388222 -2.98217773 15.99107361 C-8.8272568 15.92174628 -8.8272568 15.92174628 -11.375 13.64868164 C-12.81756571 10.39091165 -12.78313303 7.97600175 -12.34375 4.4609375 C-9.09287753 -0.26674182 -5.30481349 -0.09822454 0 0 Z " fill="#EDECFE" transform="translate(111.34375,331.5390625)"/>
<path d="M0 0 C2.1875 1.4375 2.1875 1.4375 4 4 C4.59172757 7.17712187 4.55833755 10.27685041 4.5 13.5 C4.51546875 14.35464844 4.5309375 15.20929688 4.546875 16.08984375 C4.52228066 20.03108606 4.50435832 22.28694168 2.1875 25.5625 C-1.03593141 27.68075492 -3.23264777 27.53819318 -7 27 C-9.1875 25.5625 -9.1875 25.5625 -11 23 C-11.59172757 19.82287813 -11.55833755 16.72314959 -11.5 13.5 C-11.51546875 12.64535156 -11.5309375 11.79070312 -11.546875 10.91015625 C-11.52228066 6.96891394 -11.50435832 4.71305832 -9.1875 1.4375 C-5.96406859 -0.68075492 -3.76735223 -0.53819318 0 0 Z " fill="#333E41" transform="translate(324,291)"/>
<path d="M0 0 C2.1875 1.4375 2.1875 1.4375 4 4 C4.59172757 7.17712187 4.55833755 10.27685041 4.5 13.5 C4.51546875 14.35464844 4.5309375 15.20929688 4.546875 16.08984375 C4.52228066 20.03108606 4.50435832 22.28694168 2.1875 25.5625 C-1.03593141 27.68075492 -3.23264777 27.53819318 -7 27 C-9.1875 25.5625 -9.1875 25.5625 -11 23 C-11.59172757 19.82287813 -11.55833755 16.72314959 -11.5 13.5 C-11.51546875 12.64535156 -11.5309375 11.79070312 -11.546875 10.91015625 C-11.52228066 6.96891394 -11.50435832 4.71305832 -9.1875 1.4375 C-5.96406859 -0.68075492 -3.76735223 -0.53819318 0 0 Z " fill="#323E41" transform="translate(195,291)"/>
</svg>
