<?xml version="1.0" encoding="UTF-8"?>
<svg version="1.1" xmlns="http://www.w3.org/2000/svg" width="512" height="512">
<path d="M0 0 C7.04477973 5.03376992 12.56901383 11.13241563 15.375 19.375 C15.94605469 19.1584375 16.51710938 18.941875 17.10546875 18.71875 C26.7726218 15.39902813 36.65366771 14.66568498 46.09765625 19.05859375 C54.71026102 24.0370634 60.32309324 31.33171297 63.515625 40.734375 C66.17302643 51.9920938 64.47715799 62.17068403 59.375 72.375 C59.87 72.21 60.365 72.045 60.875 71.875 C69.11109561 70.22778088 77.50505598 71.65743187 84.83203125 75.74609375 C94.81174164 82.8355984 100.43831247 94.09885141 103.01904297 105.8671875 C103.87793322 111.91829908 103.54618069 118.12833104 103.19116211 124.21362305 C102.79251034 129.42536747 102.79251034 129.42536747 104.48828125 134.18994141 C105.97074445 135.7544396 105.97074445 135.7544396 108.375 137.375 C108.48569824 136.66891602 108.59639648 135.96283203 108.71044922 135.23535156 C109.21679516 132.03077717 109.73328217 128.82791763 110.25 125.625 C110.51103516 123.95824219 110.51103516 123.95824219 110.77734375 122.2578125 C111.03837891 120.65292969 111.03837891 120.65292969 111.3046875 119.015625 C111.46179199 118.03110352 111.61889648 117.04658203 111.78076172 116.03222656 C112.34237839 113.5208725 113.11257994 111.60388816 114.375 109.375 C116.685 109.705 118.995 110.035 121.375 110.375 C123.17598121 114.20208507 123.65643104 117.15353434 123.375 121.375 C123.045 122.035 122.715 122.695 122.375 123.375 C123.035 123.375 123.695 123.375 124.375 123.375 C124.4575 122.385 124.54 121.395 124.625 120.375 C125.27425865 115.95643421 126.72194126 111.99440463 129.375 108.375 C132 107.25 132 107.25 134.375 107.375 C136.375 109.375 136.375 109.375 136.60546875 112.640625 C136.59128906 113.95546875 136.57710938 115.2703125 136.5625 116.625 C136.55605469 117.92953125 136.54960937 119.2340625 136.54296875 120.578125 C136.39434003 123.93782529 136.01484932 127.0784963 135.375 130.375 C136.035 130.375 136.695 130.375 137.375 130.375 C139.07785795 128.65336601 139.07785795 128.65336601 140.8125 126.5 C142.95900884 123.91306278 144.54276562 122.26315626 147.375 120.375 C150.5 120.1875 150.5 120.1875 153.375 120.375 C154.375 121.375 154.375 121.375 154.69921875 124.1015625 C154.2885761 128.24756898 152.9486504 129.67805127 150.1875 132.75 C143.22596935 139.9111267 143.22596935 139.9111267 140.5625 148.9375 C140.830625 149.741875 141.09875 150.54625 141.375 151.375 C141.78236102 156.8743737 141.09448709 160.55010355 138.375 165.375 C135.08147065 169.1738857 132.74020037 171.24329499 127.609375 171.73828125 C124.47465319 172.46929476 123.49279077 173.22512155 121.47143555 175.79711914 C119.45038486 179.21869209 117.60816007 182.70755165 115.8125 186.25 C115.12275143 187.55990285 114.43032355 188.86839805 113.73535156 190.17553711 C112.30052609 192.88400994 110.88088769 195.59960295 109.47412109 198.32275391 C106.25080335 204.55938734 102.93662839 210.7474442 99.625 216.9375 C99.00874756 218.09121094 98.39249512 219.24492187 97.75756836 220.43359375 C93.90985215 227.60603562 89.99241025 234.72846232 85.875 241.75 C85.19099121 242.94411499 85.19099121 242.94411499 84.49316406 244.16235352 C80.88984574 250.18916004 76.7367891 254.79701736 70.3125 257.8125 C58.7188387 259.46873733 46.74025588 256.51763021 35.375 254.375 C39.335 261.305 39.335 261.305 43.375 268.375 C39.19912255 269.76695915 37.24025224 268.19823219 33.375 266.375 C33.79386475 266.94009277 34.21272949 267.50518555 34.64428711 268.08740234 C36.53528764 270.64042376 38.42392064 273.1951871 40.3125 275.75 C40.97185547 276.63945312 41.63121094 277.52890625 42.31054688 278.4453125 C43.25317383 279.72148438 43.25317383 279.72148438 44.21484375 281.0234375 C45.08677368 282.20172119 45.08677368 282.20172119 45.97631836 283.40380859 C47.375 285.375 47.375 285.375 48.375 287.375 C45.405 287.375 42.435 287.375 39.375 287.375 C46.87544304 294.26167615 46.87544304 294.26167615 54.5625 300.9375 C55.490625 301.741875 56.41875 302.54625 57.375 303.375 C57.375 303.705 57.375 304.035 57.375 304.375 C55.395 305.035 53.415 305.695 51.375 306.375 C52.13296875 306.98988281 52.13296875 306.98988281 52.90625 307.6171875 C53.5559375 308.15601563 54.205625 308.69484375 54.875 309.25 C55.5246875 309.78367187 56.174375 310.31734375 56.84375 310.8671875 C57.3490625 311.36476563 57.854375 311.86234375 58.375 312.375 C58.375 313.035 58.375 313.695 58.375 314.375 C73.03864226 312.87103669 85.22334331 310.26827479 95.625 299.0625 C100.73784202 292.67843223 103.0936148 286.41260079 102.76171875 278.1953125 C101.81397394 271.28347659 98.78189108 265.20772952 95.75 259 C92.4558243 251.87111821 90.36167942 243.71237143 92 235.875 C94.0421286 230.67685448 96.13966592 227.7759026 101.125 225.25 C105.44579945 223.45145827 109.84472649 222.69220097 114.4375 221.9375 C120.51890982 220.93448237 125.74897354 219.6612618 130.375 215.375 C132.58414 212.06129 132.59981553 211.0303979 132.5 207.1875 C132.48195313 206.28644531 132.46390625 205.38539063 132.4453125 204.45703125 C132.42210937 203.76996094 132.39890625 203.08289063 132.375 202.375 C135.33982674 202.51289892 137.58734484 202.66444336 139.8515625 204.70703125 C142.91075046 208.3834238 144.6403276 210.74068626 144.375 215.5 C143.60706476 221.35316495 140.70944922 224.55493568 136.375 228.375 C134.49793759 229.77551624 132.60116662 231.14992997 130.6875 232.5 C124.97850339 236.50961739 124.97850339 236.50961739 121.375 242.375 C120.43120524 249.97067418 122.28817888 255.84164177 125.25 262.75 C128.28056783 270.24736129 130.79552505 277.23659631 131.375 285.375 C131.44332031 286.0865625 131.51164062 286.798125 131.58203125 287.53125 C132.40312212 303.83142436 126.21468411 319.71137068 116.375 332.375 C115.90320313 333.01179688 115.43140625 333.64859375 114.9453125 334.3046875 C106.69203809 344.79613802 94.0440112 350.22818109 81.375 353.375 C78.73533278 353.65066968 76.08778937 353.85927667 73.4375 354 C72.75365234 354.03867187 72.06980469 354.07734375 71.36523438 354.1171875 C69.70220487 354.21022412 68.03864153 354.29363787 66.375 354.375 C66.705 355.035 67.035 355.695 67.375 356.375 C67.44694869 359.25870333 67.46791708 362.11739664 67.4375 365 C67.43298828 365.80179687 67.42847656 366.60359375 67.42382812 367.4296875 C67.41203168 369.41149006 67.39409605 371.39325433 67.375 373.375 C66.715 373.375 66.055 373.375 65.375 373.375 C64.715 377.335 64.055 381.295 63.375 385.375 C63.045 385.375 62.715 385.375 62.375 385.375 C62.20484375 386.05046875 62.0346875 386.7259375 61.859375 387.421875 C59.38516401 396.52907715 59.38516401 396.52907715 55.375 399.375 C54.715 399.375 54.055 399.375 53.375 399.375 C53.53097656 400.09945313 53.68695313 400.82390625 53.84765625 401.5703125 C56.03971527 412.45802288 56.03971527 412.45802288 54.375 416.375 C48.54609691 419.40994566 42.9018006 420.23948014 36.42773438 420.92773438 C32.14349185 421.53540125 30.82986738 421.79365358 28.04296875 425.35546875 C27.21732422 426.85013672 27.21732422 426.85013672 26.375 428.375 C22.64426281 430.86215813 19.68666344 430.67417665 15.375 430.375 C13.3125 429.9375 13.3125 429.9375 11.375 429.375 C9.04405466 429.0253582 6.71095238 428.68945513 4.375 428.375 C4.045 427.385 3.715 426.395 3.375 425.375 C1.37928677 424.69560826 -0.62094773 424.02938441 -2.625 423.375 C-4.98120437 419.84069344 -5.11491613 418.53928713 -4.625 414.375 C-1.82450096 409.18889068 1.47382679 405.51658591 7.015625 403.3359375 C10.92342956 402.21812364 14.71977022 401.69456422 18.75 401.25 C19.48605469 401.16363281 20.22210938 401.07726562 20.98046875 400.98828125 C22.77799182 400.77818115 24.57641342 400.57579233 26.375 400.375 C23.00570281 398.12880187 20.02468153 397.51442417 16.125 396.8125 C15.4227832 396.68319092 14.72056641 396.55388184 13.99707031 396.4206543 C5.51353464 394.93878502 -3.01423844 394.375 -11.625 394.375 C-12.04652344 395.44621094 -12.46804688 396.51742188 -12.90234375 397.62109375 C-13.45559319 399.01828302 -14.00898602 400.41541551 -14.5625 401.8125 C-14.84029297 402.51955078 -15.11808594 403.22660156 -15.40429688 403.95507812 C-17.51171875 409.26171875 -17.51171875 409.26171875 -18.625 410.375 C-18.7075 411.48875 -18.79 412.6025 -18.875 413.75 C-19.625 417.375 -19.625 417.375 -21.53515625 419.015625 C-26.64152202 421.26216771 -32.06957305 421.487112 -37.58398438 422.015625 C-40.03018796 422.31169687 -42.28173699 422.61043346 -44.625 423.375 C-46.22323658 425.73581594 -46.22323658 425.73581594 -46.625 428.375 C-49.29900613 431.12328408 -50.79468265 432.27121033 -54.625 432.75 C-57.6348954 432.37376307 -59.82695789 431.49421684 -62.625 430.375 C-64.11 430.436875 -64.11 430.436875 -65.625 430.5 C-69.50836922 430.33819295 -70.77914856 428.92128813 -73.625 426.375 C-74.3675 426.00375 -75.11 425.6325 -75.875 425.25 C-77.625 424.375 -77.625 424.375 -78.625 422.375 C-79.02067146 418.26001683 -78.89288111 415.90045911 -77 412.1875 C-69.56131871 403.37853532 -59.36836254 402.89361065 -48.625 401.375 C-48.93953125 400.83875 -49.2540625 400.3025 -49.578125 399.75 C-55.0291408 389.76741685 -57.62384546 379.12267372 -58.0625 367.8125 C-58.28458369 362.26040776 -59.27066578 357.83019386 -61.1875 352.6875 C-63.62909173 346.03626736 -64.21432944 340.40766461 -63.625 333.375 C-64.285 333.375 -64.945 333.375 -65.625 333.375 C-64.965 325.455 -64.305 317.535 -63.625 309.375 C-64.945 309.705 -66.265 310.035 -67.625 310.375 C-65.98868504 305.0526703 -63.78619959 300.06518424 -61.5 295 C-60.94119141 293.75283203 -60.94119141 293.75283203 -60.37109375 292.48046875 C-59.45826454 290.44415745 -58.54284402 288.40905461 -57.625 286.375 C-58.50800781 286.96667969 -59.39101563 287.55835938 -60.30078125 288.16796875 C-75.74399409 298.39276896 -90.60340397 305.17025138 -109.625 303.375 C-116.7168888 301.9068546 -122.27438637 299.61783073 -127.41796875 294.44921875 C-131.10315981 292.65554169 -134.68780558 293.70990934 -138.625 294.375 C-139.37418701 294.49319092 -140.12337402 294.61138184 -140.89526367 294.7331543 C-143.14182198 295.09647047 -145.38346416 295.48195292 -147.625 295.875 C-149.12455912 296.13794353 -150.62456312 296.39836241 -152.125 296.65625 C-152.7746875 296.77033203 -153.424375 296.88441406 -154.09375 297.00195312 C-161.10946451 298.03590488 -168.01129587 298.54021286 -175.1015625 298.578125 C-175.98154907 298.58509399 -176.86153564 298.59206299 -177.76818848 298.59924316 C-180.5955081 298.61655354 -183.42262958 298.62296364 -186.25 298.625 C-187.21419861 298.62600708 -188.17839722 298.62701416 -189.17181396 298.62805176 C-203.51649497 298.61790299 -217.51371404 298.18287321 -231.625 295.375 C-232.7689624 295.1581958 -232.7689624 295.1581958 -233.93603516 294.93701172 C-249.6850298 291.87931613 -271.11453918 286.87250595 -280.6640625 272.82421875 C-282.7100041 267.60956272 -282.49335319 261.8409131 -281.625 256.375 C-280.90679077 255.42717651 -280.90679077 255.42717651 -280.17407227 254.46020508 C-278.49248078 252.19661598 -277.96053942 250.5704318 -277.3359375 247.83984375 C-277.01399414 246.51581543 -277.01399414 246.51581543 -276.68554688 245.16503906 C-276.34620117 243.75303223 -276.34620117 243.75303223 -276 242.3125 C-273.16937164 231.26427225 -268.96637918 221.42296377 -263.625 211.375 C-263.0990625 210.36824219 -262.573125 209.36148438 -262.03125 208.32421875 C-258.43150532 201.89467478 -253.76759873 196.62114099 -248.625 191.375 C-247.95984375 190.67375 -247.2946875 189.9725 -246.609375 189.25 C-233.36876831 176.31261331 -214.28885681 171.56028565 -196.625 168.375 C-196.398125 167.1375 -196.17125 165.9 -195.9375 164.625 C-195.16068696 161.6241606 -194.59129199 160.33414181 -192.5625 157.875 C-188.4977406 155.79937818 -185.10348706 155.70038217 -180.625 156.375 C-177.69461838 157.6219709 -176.20740759 158.59845655 -174.3125 161.125 C-173.36540662 164.22457835 -173.58377276 167.15177905 -173.625 170.375 C-172.75359375 170.53355469 -171.8821875 170.69210938 -170.984375 170.85546875 C-162.13989164 172.58799201 -153.62742784 174.8170577 -145.79296875 179.4609375 C-142.50494847 180.84723794 -139.08005461 181.07339669 -135.5625 181.4375 C-127.97015915 182.25994695 -127.97015915 182.25994695 -124.625 183.375 C-124.4084375 181.76625 -124.4084375 181.76625 -124.1875 180.125 C-123.78610027 177.44900181 -123.30982607 174.97618809 -122.625 172.375 C-129.09186129 167.15555358 -134.0208296 163.9652776 -142.625 164.375 C-142.955 163.385 -143.285 162.395 -143.625 161.375 C-133.76728945 160.54584678 -128.32337787 162.82724528 -120.5625 168.6875 C-119.923125 169.244375 -119.28375 169.80125 -118.625 170.375 C-118.026875 169.900625 -117.42875 169.42625 -116.8125 168.9375 C-111.96268955 165.47334968 -106.35288906 165.77575074 -100.625 166.375 C-97.6610795 167.43552781 -95.33905596 168.73632471 -92.625 170.375 C-92.0165625 169.87871094 -91.408125 169.38242188 -90.78125 168.87109375 C-83.87839703 163.5213827 -72.75123818 155.375 -63.625 155.375 C-63.625 153.395 -63.625 151.415 -63.625 149.375 C-64.285 149.313125 -64.945 149.25125 -65.625 149.1875 C-73.80006411 146.97342014 -79.8367768 141.18043475 -84.625 134.375 C-90.63359449 123.13702356 -90.87701271 109.49760183 -87.625 97.375 C-85.02290486 89.61762615 -81.40853569 82.982171 -76.625 76.375 C-75.635 74.89 -75.635 74.89 -74.625 73.375 C-75.03492188 72.78332031 -75.44484375 72.19164063 -75.8671875 71.58203125 C-76.40601563 70.79183594 -76.94484375 70.00164062 -77.5 69.1875 C-78.03367188 68.41019531 -78.56734375 67.63289063 -79.1171875 66.83203125 C-84.36264325 58.28438445 -84.54954844 48.94759682 -82.5 39.375 C-80.95442458 33.64048186 -78.70033873 29.66179499 -74.625 25.375 C-73.83609375 24.54355469 -73.83609375 24.54355469 -73.03125 23.6953125 C-69.76630147 20.59977167 -66.89842386 19.02357508 -62.625 17.625 C-57.21932958 15.67928429 -55.43811444 12.63599932 -52.4453125 7.91015625 C-40.97055346 -8.07078499 -15.82876361 -9.72415512 0 0 Z M29.375 88.375 C28.715 91.675 28.055 94.975 27.375 98.375 C28.035 98.375 28.695 98.375 29.375 98.375 C31.355 94.745 33.335 91.115 35.375 87.375 C33.01119656 87.29415479 33.01119656 87.29415479 29.375 88.375 Z M95.375 148.375 C94.38269913 149.74055166 93.40673673 151.11798245 92.4375 152.5 C86.1812663 160.62033598 78.07851108 163.92887283 68.375 166.375 C66.99874752 166.76645643 65.62357743 167.16175809 64.25 167.5625 C63.30125 167.830625 62.3525 168.09875 61.375 168.375 C61.22804688 169.19742188 61.08109375 170.01984375 60.9296875 170.8671875 C59.34113005 178.77345619 57.03949789 184.80393356 52.375 191.375 C51.653125 192.426875 50.93125 193.47875 50.1875 194.5625 C44.04984317 200.70015683 36.16942828 204.69838289 28.375 208.375 C28.87042019 213.72282343 30.17841516 217.45921978 32.8125 222.125 C33.73869141 223.78789062 33.73869141 223.78789062 34.68359375 225.484375 C35.85386584 227.48437811 37.08963274 229.44694911 38.375 231.375 C35.735 230.715 33.095 230.055 30.375 229.375 C30.81923602 231.89628325 30.81923602 231.89628325 32.375 234.375 C34.99206941 235.25250615 37.11907125 235.75280027 39.8125 236.125 C40.52664063 236.24077393 41.24078125 236.35654785 41.9765625 236.47583008 C47.7508008 237.37967461 53.54433868 237.98371287 59.375 238.375 C60.01824219 237.30765625 60.66148437 236.2403125 61.32421875 235.140625 C66.28240786 226.95025174 71.32535284 218.8277463 76.5625 210.8125 C81.69574795 202.95599801 86.80308983 195.08378622 91.875 187.1875 C92.5455542 186.14843506 93.2161084 185.10937012 93.90698242 184.03881836 C97.61466449 178.25879767 101.13830324 172.4323828 104.375 166.375 C103.2303125 165.5396875 103.2303125 165.5396875 102.0625 164.6875 C97.75957285 160.5068151 97.3936891 154.03162322 96.375 148.375 C96.045 148.375 95.715 148.375 95.375 148.375 Z M-137.625 184.375 C-134.16720936 187.91496848 -130.56798687 191.14616725 -126.8125 194.375 C-112.97753462 206.82307063 -107.33199132 224.36535095 -103.53637695 242.08056641 C-102.34806553 247.16136291 -101.14644304 249.39658911 -96.625 252.375 C-93.35021771 257.23071167 -92.86464087 261.68711871 -93.625 267.375 C-94.41441624 269.90113196 -95.41308843 271.99965333 -96.625 274.375 C-96.955 275.035 -97.285 275.695 -97.625 276.375 C-73.12175461 271.39128907 -50.9939377 254.45653768 -36.625 234.375 C-35.0403982 231.13711397 -34.37817573 228.65631589 -34.5 225.0625 C-34.54125 223.845625 -34.5825 222.62875 -34.625 221.375 C-35.42164063 221.04628906 -35.42164063 221.04628906 -36.234375 220.7109375 C-42.81213202 217.75814877 -45.6138331 213.89919496 -48.625 207.375 C-49.285 207.375 -49.945 207.375 -50.625 207.375 C-51.285 212.325 -51.945 217.275 -52.625 222.375 C-57.26055663 223.92018554 -60.29916813 224.68661121 -65 225 C-66.05960937 225.07476562 -67.11921875 225.14953125 -68.2109375 225.2265625 C-69.00757813 225.27554688 -69.80421875 225.32453125 -70.625 225.375 C-70.625 223.725 -70.625 222.075 -70.625 220.375 C-72.22756108 219.86987756 -73.83211792 219.37108373 -75.4375 218.875 C-76.33082031 218.5965625 -77.22414062 218.318125 -78.14453125 218.03125 C-80.68073395 217.24711649 -80.68073395 217.24711649 -83.625 217.375 C-83.61339844 216.61574219 -83.60179687 215.85648438 -83.58984375 215.07421875 C-83.58082031 214.08035156 -83.57179687 213.08648437 -83.5625 212.0625 C-83.55089844 211.07636719 -83.53929687 210.09023437 -83.52734375 209.07421875 C-83.50170138 206.27536151 -83.50170138 206.27536151 -84.625 203.375 C-90.12196002 200.69355609 -95.0397463 201.64887267 -100.78515625 202.8125 C-107.19554414 203.89785668 -112.00371463 202.63770409 -117.625 199.375 C-121.01260126 196.62059524 -122.4932773 193.90189081 -123.5625 189.625 C-124.28033485 186.16096502 -124.28033485 186.16096502 -127.3125 184.9375 C-130.81833645 184.34216928 -134.07546173 184.23301847 -137.625 184.375 Z " fill="#85646F" transform="translate(319.625,42.625)"/>
<path d="M0 0 C4.70588235 0.70588235 4.70588235 0.70588235 6 2 C6.1009312 4.40750601 6.13869071 6.78021762 6.125 9.1875 C6.12757813 10.50105469 6.13015625 11.81460938 6.1328125 13.16796875 C6.01552441 16.55207509 5.64999244 19.68297509 5 23 C5.66 23 6.32 23 7 23 C8.70285795 21.27836601 8.70285795 21.27836601 10.4375 19.125 C12.58400884 16.53806278 14.16776562 14.88815626 17 13 C20.125 12.8125 20.125 12.8125 23 13 C24 14 24 14 24.32421875 16.7265625 C23.9135761 20.87256898 22.5736504 22.30305127 19.8125 25.375 C12.85096935 32.5361267 12.85096935 32.5361267 10.1875 41.5625 C10.5896875 42.7690625 10.5896875 42.7690625 11 44 C11.40736102 49.4993737 10.71948709 53.17510355 8 58 C4.70647065 61.7988857 2.36520037 63.86829499 -2.765625 64.36328125 C-5.90034681 65.09429476 -6.88220923 65.85012155 -8.90356445 68.42211914 C-10.92461514 71.84369209 -12.76683993 75.33255165 -14.5625 78.875 C-15.25224857 80.18490285 -15.94467645 81.49339805 -16.63964844 82.80053711 C-18.07447391 85.50900994 -19.49411231 88.22460295 -20.90087891 90.94775391 C-24.12419665 97.18438734 -27.43837161 103.3724442 -30.75 109.5625 C-31.36625244 110.71621094 -31.98250488 111.86992187 -32.61743164 113.05859375 C-36.46514785 120.23103562 -40.38258975 127.35346232 -44.5 134.375 C-44.95600586 135.17107666 -45.41201172 135.96715332 -45.88183594 136.78735352 C-49.48515426 142.81416004 -53.6382109 147.42201736 -60.0625 150.4375 C-71.6561613 152.09373733 -83.63474412 149.14263021 -95 147 C-92.36 151.62 -89.72 156.24 -87 161 C-91.17587745 162.39195915 -93.13474776 160.82323219 -97 159 C-96.58113525 159.56509277 -96.16227051 160.13018555 -95.73071289 160.71240234 C-93.83971236 163.26542376 -91.95107936 165.8201871 -90.0625 168.375 C-89.40314453 169.26445312 -88.74378906 170.15390625 -88.06445312 171.0703125 C-87.43603516 171.92109375 -86.80761719 172.771875 -86.16015625 173.6484375 C-85.57886963 174.43395996 -84.99758301 175.21948242 -84.39868164 176.02880859 C-83 178 -83 178 -82 180 C-84.97 180 -87.94 180 -91 180 C-83.49955696 186.88667615 -83.49955696 186.88667615 -75.8125 193.5625 C-74.884375 194.366875 -73.95625 195.17125 -73 196 C-73 196.33 -73 196.66 -73 197 C-75.97 197.99 -75.97 197.99 -79 199 C-78.4946875 199.40992188 -77.989375 199.81984375 -77.46875 200.2421875 C-76.8190625 200.78101563 -76.169375 201.31984375 -75.5 201.875 C-74.8503125 202.40867187 -74.200625 202.94234375 -73.53125 203.4921875 C-73.0259375 203.98976563 -72.520625 204.48734375 -72 205 C-72 205.66 -72 206.32 -72 207 C-57.33635774 205.49603669 -45.15165669 202.89327479 -34.75 191.6875 C-29.63715798 185.30343223 -27.2813852 179.03760079 -27.61328125 170.8203125 C-28.56102606 163.90847659 -31.59310892 157.83272952 -34.625 151.625 C-37.9191757 144.49611821 -40.01332058 136.33737143 -38.375 128.5 C-36.3328714 123.30185448 -34.23533408 120.4009026 -29.25 117.875 C-24.92920055 116.07645827 -20.53027351 115.31720097 -15.9375 114.5625 C-9.85609018 113.55948237 -4.62602646 112.2862618 0 108 C2.20914 104.68629 2.22481553 103.6553979 2.125 99.8125 C2.10695313 98.91144531 2.08890625 98.01039063 2.0703125 97.08203125 C2.04710937 96.39496094 2.02390625 95.70789063 2 95 C4.96482674 95.13789892 7.21234484 95.28944336 9.4765625 97.33203125 C12.53575046 101.0084238 14.2653276 103.36568626 14 108.125 C13.23206476 113.97816495 10.33444922 117.17993568 6 121 C4.12293759 122.40051624 2.22616662 123.77492997 0.3125 125.125 C-5.39649661 129.13461739 -5.39649661 129.13461739 -9 135 C-9.94379476 142.59567418 -8.08682112 148.46664177 -5.125 155.375 C-2.09443217 162.87236129 0.42052505 169.86159631 1 178 C1.06832031 178.7115625 1.13664062 179.423125 1.20703125 180.15625 C2.02812212 196.45642436 -4.16031589 212.33637068 -14 225 C-14.47179687 225.63679687 -14.94359375 226.27359375 -15.4296875 226.9296875 C-23.68296191 237.42113802 -36.3309888 242.85318109 -49 246 C-51.63966722 246.27566968 -54.28721063 246.48427667 -56.9375 246.625 C-57.96327148 246.68300781 -57.96327148 246.68300781 -59.00976562 246.7421875 C-60.67279513 246.83522412 -62.33635847 246.91863787 -64 247 C-63.67 247.66 -63.34 248.32 -63 249 C-62.92805131 251.88370333 -62.90708292 254.74239664 -62.9375 257.625 C-62.94201172 258.42679687 -62.94652344 259.22859375 -62.95117188 260.0546875 C-62.96296832 262.03649006 -62.98090395 264.01825433 -63 266 C-63.66 266 -64.32 266 -65 266 C-65.99 271.94 -65.99 271.94 -67 278 C-67.33 278 -67.66 278 -68 278 C-68.17015625 278.67546875 -68.3403125 279.3509375 -68.515625 280.046875 C-70.98983599 289.15407715 -70.98983599 289.15407715 -75 292 C-75.66 292 -76.32 292 -77 292 C-76.84402344 292.72445313 -76.68804687 293.44890625 -76.52734375 294.1953125 C-74.33528473 305.08302288 -74.33528473 305.08302288 -76 309 C-81.82890309 312.03494566 -87.4731994 312.86448014 -93.94726562 313.55273438 C-98.23150815 314.16040125 -99.54513262 314.41865358 -102.33203125 317.98046875 C-102.88246094 318.97691406 -103.43289063 319.97335937 -104 321 C-107.73073719 323.48715813 -110.68833656 323.29917665 -115 323 C-117.0625 322.5625 -117.0625 322.5625 -119 322 C-121.33094534 321.6503582 -123.66404762 321.31445513 -126 321 C-126.33 320.01 -126.66 319.02 -127 318 C-128.99571323 317.32060826 -130.99594773 316.65438441 -133 316 C-135.35620437 312.46569344 -135.48991613 311.16428713 -135 307 C-132.19950096 301.81389068 -128.90117321 298.14158591 -123.359375 295.9609375 C-119.45157044 294.84312364 -115.65522978 294.31956422 -111.625 293.875 C-110.88894531 293.78863281 -110.15289062 293.70226562 -109.39453125 293.61328125 C-107.59700818 293.40318115 -105.79858658 293.20079233 -104 293 C-107.36929719 290.75380187 -110.35031847 290.13942417 -114.25 289.4375 C-114.9522168 289.30819092 -115.65443359 289.17888184 -116.37792969 289.0456543 C-124.86146536 287.56378502 -133.38923844 287 -142 287 C-142.42152344 288.07121094 -142.84304688 289.14242188 -143.27734375 290.24609375 C-143.83059319 291.64328302 -144.38398602 293.04041551 -144.9375 294.4375 C-145.21529297 295.14455078 -145.49308594 295.85160156 -145.77929688 296.58007812 C-147.88671875 301.88671875 -147.88671875 301.88671875 -149 303 C-149.0825 304.11375 -149.165 305.2275 -149.25 306.375 C-150 310 -150 310 -151.91015625 311.640625 C-157.01652202 313.88716771 -162.44457305 314.112112 -167.95898438 314.640625 C-170.40518796 314.93669687 -172.65673699 315.23543346 -175 316 C-176.59823658 318.36081594 -176.59823658 318.36081594 -177 321 C-179.67400613 323.74828408 -181.16968265 324.89621033 -185 325.375 C-188.0098954 324.99876307 -190.20195789 324.11921684 -193 323 C-194.485 323.061875 -194.485 323.061875 -196 323.125 C-199.88336922 322.96319295 -201.15414856 321.54628813 -204 319 C-204.7425 318.62875 -205.485 318.2575 -206.25 317.875 C-208 317 -208 317 -209 315 C-209.39567146 310.88501683 -209.26788111 308.52545911 -207.375 304.8125 C-199.93631871 296.00353532 -189.74336254 295.51861065 -179 294 C-179.31453125 293.46375 -179.6290625 292.9275 -179.953125 292.375 C-185.4041408 282.39241685 -187.99884546 271.74767372 -188.4375 260.4375 C-188.65958369 254.88540776 -189.64566578 250.45519386 -191.5625 245.3125 C-194.00409173 238.66126736 -194.58932944 233.03266461 -194 226 C-194.66 226 -195.32 226 -196 226 C-195.34 218.08 -194.68 210.16 -194 202 C-195.32 202.33 -196.64 202.66 -198 203 C-196.36368504 197.6776703 -194.16119959 192.69018424 -191.875 187.625 C-191.50246094 186.79355469 -191.12992187 185.96210938 -190.74609375 185.10546875 C-189.83326454 183.06915745 -188.91784402 181.03405461 -188 179 C-188.88300781 179.59167969 -189.76601563 180.18335938 -190.67578125 180.79296875 C-206.77181692 191.44999657 -223.45153501 199.28622 -243.3046875 195.34375 C-250.33513605 193.26860488 -255.57335285 189.87850097 -261 185 C-260 183 -260 183 -256.421875 181.7734375 C-254.86509796 181.30557586 -253.30776748 180.83955328 -251.75 180.375 C-245.83883367 178.52330235 -240.75873764 176.5244177 -235.5625 173.0625 C-230.41496223 169.63730757 -225.39998943 167.51276866 -219.5625 165.5 C-199.14950611 158.38036079 -177.67436362 144.3823971 -167 125 C-165.88107513 121.00978444 -165.28828672 117.12970729 -165 113 C-164.23816406 112.86464844 -163.47632813 112.72929687 -162.69140625 112.58984375 C-161.14259766 112.26693359 -161.14259766 112.26693359 -159.5625 111.9375 C-158.55316406 111.74027344 -157.54382813 111.54304688 -156.50390625 111.33984375 C-153.02065875 110.00789961 -151.69502641 108.86959902 -149.03125 106.3984375 C-142.93657886 101.43571645 -136.41683599 102.29327572 -128.9375 102.6875 C-117.32103956 103.18618126 -117.32103956 103.18618126 -106 101 C-104.68 101 -103.36 101 -102 101 C-101.76925781 101.68964844 -101.53851563 102.37929687 -101.30078125 103.08984375 C-99.34774652 108.7173628 -97.16487722 113.88786844 -94.1484375 119.02734375 C-93.01067167 120.98166941 -91.99100967 122.96797558 -91 125 C-94.34373475 124.44271087 -97.03312999 123.64826111 -100 122 C-99.54085179 124.03753949 -99.54085179 124.03753949 -98 126 C-95.41975478 126.78070504 -93.14074361 127.29187389 -90.5 127.6875 C-89.8296875 127.80416016 -89.159375 127.92082031 -88.46875 128.04101562 C-83.00713152 128.95645736 -77.51271058 129.49618842 -72 130 C-67.66429232 123.33487544 -63.33109517 116.66812277 -59 110 C-58.525625 109.26974609 -58.05125 108.53949219 -57.5625 107.78710938 C-54.36596946 102.86388154 -51.18089703 97.93334016 -48 93 C-47.35530762 92.00145996 -46.71061523 91.00291992 -46.04638672 89.97412109 C-43.90276708 86.65143635 -41.76347196 83.32599968 -39.625 80 C-38.94655029 78.94917236 -38.26810059 77.89834473 -37.5690918 76.81567383 C-33.82705817 70.98508488 -30.26287271 65.11282126 -27 59 C-27.79535156 58.32582031 -28.59070313 57.65164062 -29.41015625 56.95703125 C-32.50763301 53.42039489 -32.82992009 51.29851342 -33.4375 46.6875 C-34.34098774 40.84136124 -35.85155342 37.10466288 -39.7578125 32.64453125 C-41 31 -41 31 -41.5625 27.625 C-41 25 -41 25 -38 23 C-32.28601692 22.35313399 -29.46403012 23.44906695 -25 27 C-23.98943131 27.98931841 -22.9868534 28.98702401 -22 30 C-21.88930176 29.29391602 -21.77860352 28.58783203 -21.66455078 27.86035156 C-21.15820484 24.65577717 -20.64171783 21.45291763 -20.125 18.25 C-19.95097656 17.13882813 -19.77695312 16.02765625 -19.59765625 14.8828125 C-19.42363281 13.81289062 -19.24960937 12.74296875 -19.0703125 11.640625 C-18.91320801 10.65610352 -18.75610352 9.67158203 -18.59423828 8.65722656 C-18.03262161 6.1458725 -17.26242006 4.22888816 -16 2 C-13.69 2.33 -11.38 2.66 -9 3 C-7.19901879 6.82708507 -6.71856896 9.77853434 -7 14 C-7.33 14.66 -7.66 15.32 -8 16 C-7.34 16 -6.68 16 -6 16 C-5.9175 15.01 -5.835 14.02 -5.75 13 C-5.12516328 8.49750009 -3.27840168 3.27840168 0 0 Z " fill="#A78F98" transform="translate(450,150)"/>
<path d="M0 0 C2.93038162 1.2469709 4.41759241 2.22345655 6.3125 4.75 C7.25959338 7.84957835 7.04122724 10.77677905 7 14 C7.87140625 14.15855469 8.7428125 14.31710938 9.640625 14.48046875 C18.48510836 16.21299201 26.99757216 18.4420577 34.83203125 23.0859375 C38.12005153 24.47223794 41.54494539 24.69839669 45.0625 25.0625 C52.65484085 25.88494695 52.65484085 25.88494695 56 27 C56.144375 25.9275 56.28875 24.855 56.4375 23.75 C56.83889973 21.07400181 57.31517393 18.60118809 58 16 C51.53313871 10.78055358 46.6041704 7.5902776 38 8 C37.67 7.01 37.34 6.02 37 5 C46.85771055 4.17084678 52.30162213 6.45224528 60.0625 12.3125 C60.701875 12.869375 61.34125 13.42625 62 14 C62.598125 13.525625 63.19625 13.05125 63.8125 12.5625 C68.68397605 9.08287425 74.25125479 9.44444899 80 10 C85.1833135 11.51260264 88.50096349 14.95514227 91.1171875 19.58984375 C93.06792607 24.91553268 93.07350452 30.80803709 91.265625 36.18359375 C89.25814009 40.00933344 86.61945827 42.70473378 83 45 C80.1875 45.75 80.1875 45.75 78 46 C78 46.66 78 47.32 78 48 C70.58731551 47.47052254 64.27579827 45.79029756 59.0625 40.1875 C56.77951773 36.65925468 56.24956343 34.15939046 56 30 C52.04 29.67 48.08 29.34 44 29 C44.70125 29.54527344 45.4025 30.09054688 46.125 30.65234375 C64.68116583 45.40147013 73.20199473 62.88544797 78.08813477 85.70483398 C79.27718989 90.78583025 80.47810066 93.02128853 85 96 C88.3046868 100.90005285 88.6917164 105.27579616 88 111 C86.18088948 118.03389401 81.87973302 121.23071768 76 125 C68.96201216 129.10303893 61.8212164 131.90081442 54 134.1328125 C51.54096479 134.84362737 49.20233015 135.65697842 46.8125 136.5625 C33.93594707 140.93431667 19.04145532 142.13084323 5.5234375 142.203125 C4.64345093 142.21009399 3.76346436 142.21706299 2.85681152 142.22424316 C0.0294919 142.24155354 -2.79762958 142.24796364 -5.625 142.25 C-6.58919861 142.25100708 -7.55339722 142.25201416 -8.54681396 142.25305176 C-22.89149497 142.24290299 -36.88871404 141.80787321 -51 139 C-52.1439624 138.7831958 -52.1439624 138.7831958 -53.31103516 138.56201172 C-69.0600298 135.50431613 -90.48953918 130.49750595 -100.0390625 116.44921875 C-102.0850041 111.23456272 -101.86835319 105.4659131 -101 100 C-100.52119385 99.36811768 -100.0423877 98.73623535 -99.54907227 98.08520508 C-97.86748078 95.82161598 -97.33553942 94.1954318 -96.7109375 91.46484375 C-96.49630859 90.5821582 -96.28167969 89.69947266 -96.06054688 88.79003906 C-95.83431641 87.84870117 -95.60808594 86.90736328 -95.375 85.9375 C-92.54437164 74.88927225 -88.34137918 65.04796377 -83 55 C-82.4740625 53.99324219 -81.948125 52.98648438 -81.40625 51.94921875 C-77.80650532 45.51967478 -73.14259873 40.24614099 -68 35 C-67.33484375 34.29875 -66.6696875 33.5975 -65.984375 32.875 C-52.74376831 19.93761331 -33.66385681 15.18528565 -16 12 C-15.773125 10.7625 -15.54625 9.525 -15.3125 8.25 C-14.53568696 5.2491606 -13.96629199 3.95914181 -11.9375 1.5 C-7.8727406 -0.57562182 -4.47848706 -0.67461783 0 0 Z " fill="#7CFCFE" transform="translate(139,199)"/>
<path d="M0 0 C7.04477973 5.03376992 12.56901383 11.13241563 15.375 19.375 C15.94605469 19.1584375 16.51710938 18.941875 17.10546875 18.71875 C26.7726218 15.39902813 36.65366771 14.66568498 46.09765625 19.05859375 C54.71026102 24.0370634 60.32309324 31.33171297 63.515625 40.734375 C66.16723931 51.96757743 64.80052576 62.65386996 59.08984375 72.6171875 C53.99665723 80.13637651 46.11216003 85.08384649 37.375 87.375 C34.69924796 87.84314187 32.08512326 88.13302471 29.375 88.375 C29.36082031 89.25542969 29.34664063 90.13585937 29.33203125 91.04296875 C28.94472203 100.47447163 28.94472203 100.47447163 26.4375 104.4375 C18.91870453 109.19428897 11.11244931 111.11255485 2.375 112.375 C3.550625 113.24125 3.550625 113.24125 4.75 114.125 C7.85637839 116.78761005 9.23006827 118.62422476 9.5703125 122.734375 C9.54710937 123.52328125 9.52390625 124.3121875 9.5 125.125 C9.48195313 125.92421875 9.46390625 126.7234375 9.4453125 127.546875 C9.42210937 128.15015625 9.39890625 128.7534375 9.375 129.375 C8.87871094 129.08625 8.38242187 128.7975 7.87109375 128.5 C2.2741088 125.44130614 -1.96653705 124.3540336 -8.3125 126.125 C-11.60299576 127.90364636 -13.94484933 130.01469865 -15.625 133.375 C-15.74740135 135.14270327 -15.80051153 136.91560462 -15.8125 138.6875 C-15.82667969 139.63238281 -15.84085937 140.57726562 -15.85546875 141.55078125 C-15.61324335 144.51906882 -14.86526607 146.68367165 -13.625 149.375 C-15.8125 149.6875 -15.8125 149.6875 -18.625 149.375 C-25.36322464 143.57699275 -25.36322464 143.57699275 -25.890625 139.140625 C-25.82775663 129.01881747 -23.65805433 123.87156164 -16.71875 116.4140625 C-14.625 114.375 -14.625 114.375 -12.625 113.375 C-13.31013672 113.27477539 -13.99527344 113.17455078 -14.70117188 113.07128906 C-17.84472578 112.60325825 -20.98468996 112.11430412 -24.125 111.625 C-25.20265625 111.46773438 -26.2803125 111.31046875 -27.390625 111.1484375 C-32.39358744 110.35528492 -36.69360233 109.57252469 -41.15625 107.109375 C-42.3009375 106.53703125 -43.445625 105.9646875 -44.625 105.375 C-48.35720988 106.71261988 -49.79125748 108.68495508 -51.875 112 C-52.39578125 112.81726563 -52.9165625 113.63453125 -53.453125 114.4765625 C-53.83984375 115.10304688 -54.2265625 115.72953125 -54.625 116.375 C-54.05652344 115.88 -53.48804688 115.385 -52.90234375 114.875 C-49.64262428 112.72794635 -47.55074613 113.16871934 -43.8125 113.734375 C-40.36733174 114.74331713 -38.7442073 116.54939027 -36.625 119.375 C-35.3125 122.1875 -35.3125 122.1875 -34.625 124.375 C-35.6975 124.6225 -36.77 124.87 -37.875 125.125 C-41.78742637 126.42914212 -43.35953774 126.97680661 -45.625 130.375 C-46.92070693 135.06635267 -47.02123136 138.39303532 -45.1875 142.9375 C-44.671875 143.741875 -44.15625 144.54625 -43.625 145.375 C-48.39560708 144.95406408 -51.41628523 142.77790212 -54.625 139.375 C-58.00952134 134.35657181 -58.28752049 129.26343556 -58.625 123.375 C-60.73793829 129.74039272 -62.08548934 135.68506781 -62.625 142.375 C-69.02967866 140.57368413 -74.56075476 135.55364578 -78 129.9375 C-82.48099202 120.11378672 -83.52172821 108.97007662 -80 98.625 C-77.75221727 93.21278555 -74.82259491 88.273989 -71.625 83.375 C-71.20476562 82.72917969 -70.78453125 82.08335938 -70.3515625 81.41796875 C-69.4557799 80.06158871 -68.54288381 78.71652249 -67.625 77.375 C-68.4603125 77.00375 -68.4603125 77.00375 -69.3125 76.625 C-74.48919511 73.82678643 -77.3176537 70.78966893 -79.875 65.5 C-80.37515625 64.49195312 -80.8753125 63.48390625 -81.390625 62.4453125 C-85.23834772 52.87471105 -84.0344264 42.88550521 -80.625 33.375 C-78.95189209 30.34312567 -77.00655791 27.88012932 -74.625 25.375 C-74.0990625 24.82070312 -73.573125 24.26640625 -73.03125 23.6953125 C-69.76630147 20.59977167 -66.89842386 19.02357508 -62.625 17.625 C-57.21932958 15.67928429 -55.43811444 12.63599932 -52.4453125 7.91015625 C-40.97055346 -8.07078499 -15.82876361 -9.72415512 0 0 Z " fill="#E7E7E7" transform="translate(319.625,42.625)"/>
<path d="M0 0 C19.01049154 2.22358244 41.39154273 9.46132502 58 19 C59.52314132 22.04628265 58.99542001 25.11584726 58.8125 28.4375 C58.75074585 29.58774658 58.75074585 29.58774658 58.68774414 30.76123047 C57.91284817 42.59077156 55.87369188 54.30472519 54 66 C47.93110129 66.76539239 42.05014656 67.13214453 35.9375 67.0625 C35.16728516 67.05798828 34.39707031 67.05347656 33.60351562 67.04882812 C31.7356422 67.03722643 29.86780974 67.01929999 28 67 C27.505 68.485 27.505 68.485 27 70 C13.9316665 72.75315501 1.18626901 74.38888491 -12.1875 74.375 C-13.36658936 74.37628906 -14.54567871 74.37757813 -15.76049805 74.37890625 C-23.65209383 74.28118439 -31.23601251 73.39701939 -39 72 C-39.33 71.01 -39.66 70.02 -40 69 C-37.525 68.01 -37.525 68.01 -35 67 C-35.3259949 63.95738092 -35.97895261 63.0198781 -38.25 60.875 C-40.81173221 58.92395534 -40.81173221 58.92395534 -43.390625 58.2890625 C-46.97023044 56.52069454 -48.50712714 53.81708443 -50.5 50.5 C-50.88800781 49.87432129 -51.27601562 49.24864258 -51.67578125 48.60400391 C-56.63055135 40.50693186 -61.09212908 33.10709391 -61.25 23.4375 C-61.27578125 22.48746094 -61.3015625 21.53742188 -61.328125 20.55859375 C-61 18 -61 18 -59.86352539 16.42675781 C-57.29179385 14.45778112 -55.03902569 14.16894236 -51.85546875 13.61328125 C-50.61990234 13.39736328 -49.38433594 13.18144531 -48.11132812 12.95898438 C-46.81646484 12.74564453 -45.52160156 12.53230469 -44.1875 12.3125 C-42.30901367 11.97508789 -42.30901367 11.97508789 -40.39257812 11.63085938 C-31.8035562 10.1735163 -23.69862085 9.72032048 -15 10 C-14.72744385 9.36989014 -14.4548877 8.73978027 -14.17407227 8.09057617 C-12.43945389 5.00188057 -10.19392041 4.54287577 -6.9375 3.3125 C-3.19453783 2.11295137 -3.19453783 2.11295137 0 0 Z " fill="#BCE180" transform="translate(136,246)"/>
<path d="M0 0 C2.96482674 0.13789892 5.21234484 0.28944336 7.4765625 2.33203125 C10.53575046 6.0084238 12.2653276 8.36568626 12 13.125 C11.23206476 18.97816495 8.33444922 22.17993568 4 26 C2.12293759 27.40051624 0.22616662 28.77492997 -1.6875 30.125 C-7.39649661 34.13461739 -7.39649661 34.13461739 -11 40 C-11.94379476 47.59567418 -10.08682112 53.46664177 -7.125 60.375 C-4.09443217 67.87236129 -1.57947495 74.86159631 -1 83 C-0.93167969 83.7115625 -0.86335938 84.423125 -0.79296875 85.15625 C0.02812212 101.45642436 -6.16031589 117.33637068 -16 130 C-16.47179687 130.63679687 -16.94359375 131.27359375 -17.4296875 131.9296875 C-25.68296191 142.42113802 -38.3309888 147.85318109 -51 151 C-53.63966722 151.27566968 -56.28721063 151.48427667 -58.9375 151.625 C-59.62134766 151.66367187 -60.30519531 151.70234375 -61.00976562 151.7421875 C-62.67279513 151.83522412 -64.33635847 151.91863787 -66 152 C-66 149.36 -66 146.72 -66 144 C-65.67 144 -65.34 144 -65 144 C-65.3672284 136.41061308 -67.09685862 128.90314138 -72.6640625 123.3359375 C-73.32535156 122.67464844 -73.32535156 122.67464844 -74 122 C-74 121.34 -74 120.68 -74 120 C-74.99 119.67 -75.98 119.34 -77 119 C-77 118.67 -77 118.34 -77 118 C-75.02 118 -73.04 118 -71 118 C-71.99 115.03 -71.99 115.03 -73 112 C-72.11699219 111.90203125 -71.23398437 111.8040625 -70.32421875 111.703125 C-56.14235066 109.93610384 -44.50234447 106.36733996 -35.3203125 94.90234375 C-30.50544638 87.96494789 -28.84724093 81.40699038 -30 73 C-31.52982604 67.22429312 -34.01181442 61.97543932 -36.625 56.625 C-39.9191757 49.49611821 -42.01332058 41.33737143 -40.375 33.5 C-38.3328714 28.30185448 -36.23533408 25.4009026 -31.25 22.875 C-26.92920055 21.07645827 -22.53027351 20.31720097 -17.9375 19.5625 C-11.85609018 18.55948237 -6.62602646 17.2862618 -2 13 C0.20914 9.68629 0.22481553 8.6553979 0.125 4.8125 C0.10695313 3.91144531 0.08890625 3.01039063 0.0703125 2.08203125 C0.04710937 1.39496094 0.02390625 0.70789063 0 0 Z " fill="#FCD6BD" transform="translate(452,245)"/>
<path d="M0 0 C0.59167969 1.14597656 1.18335938 2.29195313 1.79296875 3.47265625 C2.59086951 5.00274829 3.38906221 6.53268812 4.1875 8.0625 C4.57486328 8.81466797 4.96222656 9.56683594 5.36132812 10.34179688 C9.4433179 18.13468645 12.44040882 23.73179246 21 27 C23.5 28.9375 23.5 28.9375 25 31 C24.75 33.25 24.75 33.25 24 35 C21.525 35.495 21.525 35.495 19 36 C19.33 36.66 19.66 37.32 20 38 C27.70115589 39.93477315 35.79548847 40.29363507 43.70532227 40.65844727 C46.69972193 40.804379 49.13629916 41.04543305 52 42 C78.92645075 43.5174501 109.1182477 42.10972402 134.41796875 31.953125 C137 31 137 31 140 31 C141.25433458 27.23699626 141.10695422 23.72789091 141.0625 19.8125 C141.05573242 18.68811523 141.05573242 18.68811523 141.04882812 17.54101562 C141.03706354 15.69397617 141.01912865 13.84697787 141 12 C145.54882786 14.51958293 148.22215213 17.04878925 150 22 C150.93447303 27.87679705 150.12541686 32.8856815 147 38 C138.54288061 46.43857308 127.28925381 50.91111507 116 54.1328125 C113.54096479 54.84362737 111.20233015 55.65697842 108.8125 56.5625 C95.93594707 60.93431667 81.04145532 62.13084323 67.5234375 62.203125 C66.20345764 62.21357849 66.20345764 62.21357849 64.85681152 62.22424316 C62.0294919 62.24155354 59.20237042 62.24796364 56.375 62.25 C55.41080139 62.25100708 54.44660278 62.25201416 53.45318604 62.25305176 C39.10850503 62.24290299 25.11128596 61.80787321 11 59 C10.2373584 58.85546387 9.4747168 58.71092773 8.68896484 58.56201172 C-7.11821649 55.49301908 -25.44048677 50.67612924 -36.6875 38.4375 C-40.4208529 32.8917345 -39.97991884 26.37724959 -39 20 C-37.35083103 16.70166207 -36.8261276 16.0037708 -34 14 C-33.1440625 13.36835938 -32.288125 12.73671875 -31.40625 12.0859375 C-22.77165194 6.26412517 -10.646367 0 0 0 Z " fill="#5AEDFB" transform="translate(77,279)"/>
<path d="M0 0 C2.0625 0.75 2.0625 0.75 4 2 C4.495 3.485 4.495 3.485 5 5 C6.83498237 6.08981006 6.83498237 6.08981006 9 7 C9.66257812 7.4021875 10.32515625 7.804375 11.0078125 8.21875 C16.5417341 11.56769149 21.60984154 13.10617825 28 14 C27.81108279 26.69180196 27.81108279 26.69180196 25.0625 31.125 C17.48140972 35.76648385 9.74290096 37.73676716 1 39 C2.175625 39.86625 2.175625 39.86625 3.375 40.75 C6.48137839 43.41261005 7.85506827 45.24922476 8.1953125 49.359375 C8.17210937 50.14828125 8.14890625 50.9371875 8.125 51.75 C8.10695313 52.54921875 8.08890625 53.3484375 8.0703125 54.171875 C8.04710937 54.77515625 8.02390625 55.3784375 8 56 C7.25556641 55.566875 7.25556641 55.566875 6.49609375 55.125 C0.8991088 52.06630614 -3.34153705 50.9790336 -9.6875 52.75 C-12.97799576 54.52864636 -15.31984933 56.63969865 -17 60 C-17.12240135 61.76770327 -17.17551153 63.54060462 -17.1875 65.3125 C-17.20167969 66.25738281 -17.21585937 67.20226562 -17.23046875 68.17578125 C-16.98824335 71.14406882 -16.24026607 73.30867165 -15 76 C-17.1875 76.3125 -17.1875 76.3125 -20 76 C-26.73822464 70.20199275 -26.73822464 70.20199275 -27.265625 65.765625 C-27.20275663 55.64381747 -25.03305433 50.49656164 -18.09375 43.0390625 C-16 41 -16 41 -14 40 C-14.68513672 39.89977539 -15.37027344 39.79955078 -16.07617188 39.69628906 C-19.21972578 39.22825825 -22.35968996 38.73930412 -25.5 38.25 C-26.57765625 38.09273437 -27.6553125 37.93546875 -28.765625 37.7734375 C-33.76858744 36.98028492 -38.06860233 36.19752469 -42.53125 33.734375 C-43.6759375 33.16203125 -44.820625 32.5896875 -46 32 C-49.73220988 33.33761988 -51.16625748 35.30995508 -53.25 38.625 C-53.77078125 39.44226563 -54.2915625 40.25953125 -54.828125 41.1015625 C-55.21484375 41.72804687 -55.6015625 42.35453125 -56 43 C-55.43152344 42.505 -54.86304688 42.01 -54.27734375 41.5 C-51.01762428 39.35294635 -48.92574613 39.79371934 -45.1875 40.359375 C-41.74233174 41.36831713 -40.1192073 43.17439027 -38 46 C-36.6875 48.8125 -36.6875 48.8125 -36 51 C-37.0725 51.2475 -38.145 51.495 -39.25 51.75 C-43.16242637 53.05414212 -44.73453774 53.60180661 -47 57 C-48.29570693 61.69135267 -48.39623136 65.01803532 -46.5625 69.5625 C-46.046875 70.366875 -45.53125 71.17125 -45 72 C-49.77060708 71.57906408 -52.79128523 69.40290212 -56 66 C-59.38452134 60.98157181 -59.66252049 55.88843556 -60 50 C-62.11293829 56.36539272 -63.46048934 62.31006781 -64 69 C-70.40467866 67.19868413 -75.93575476 62.17864578 -79.375 56.5625 C-83.85599202 46.73878672 -84.89672821 35.59507662 -81.375 25.25 C-78.31556275 17.89433173 -74.22307446 11.02662438 -69 5 C-67.824375 5.495 -66.64875 5.99 -65.4375 6.5 C-58.71985972 8.72501873 -49.45135413 9.99709402 -42.83203125 7.02734375 C-42.28933594 6.64707031 -41.74664062 6.26679687 -41.1875 5.875 C-37.02362207 3.42566004 -35.29777729 4.2700329 -30.79296875 5.39453125 C-19.49557451 7.84361672 -10.12504947 5.06252474 0 0 Z " fill="#CECDCD" transform="translate(321,116)"/>
<path d="M0 0 C6.62888001 3.63560667 9.85100476 10.5437038 12.32885742 17.41210938 C13.34569636 21.00469558 13.46921111 24.47079515 13.4375 28.1875 C13.43250488 28.96657715 13.42750977 29.7456543 13.42236328 30.54833984 C13.06334124 42.66347675 8.53848127 52.90763317 0.0234375 61.4921875 C-7.76371179 68.73814495 -13.79656437 70.21968191 -24.3984375 69.96875 C-32.63887394 69.0550982 -37.45745584 64.70162478 -42.75 58.625 C-44.32437262 56.15098588 -44.76193923 54.48418149 -45.0625 51.5625 C-44.21728516 48.87792969 -44.21728516 48.87792969 -42.8515625 45.984375 C-42.35269531 44.91340576 -41.85382813 43.84243652 -41.33984375 42.73901367 C-40.79457031 41.60826416 -40.24929688 40.47751465 -39.6875 39.3125 C-39.13964844 38.15403564 -38.59179688 36.99557129 -38.02734375 35.80200195 C-34.81594505 29.06246258 -31.52517133 22.36422576 -28.0625 15.75 C-27.53970459 14.74888184 -27.53970459 14.74888184 -27.00634766 13.72753906 C-21.39112176 3.28174766 -12.48040996 -5.25994289 0 0 Z " fill="#FDD7BD" transform="translate(395.0625,129.4375)"/>
<path d="M0 0 C9.85771055 -0.82915322 15.30162213 1.45224528 23.0625 7.3125 C23.701875 7.869375 24.34125 8.42625 25 9 C25.598125 8.525625 26.19625 8.05125 26.8125 7.5625 C31.68397605 4.08287425 37.25125479 4.44444899 43 5 C48.1833135 6.51260264 51.50096349 9.95514227 54.1171875 14.58984375 C56.06792607 19.91553268 56.07350452 25.80803709 54.265625 31.18359375 C52.25814009 35.00933344 49.61945827 37.70473378 46 40 C43.1875 40.75 43.1875 40.75 41 41 C41 41.66 41 42.32 41 43 C33.58731551 42.47052254 27.27579827 40.79029756 22.0625 35.1875 C19.77951773 31.65925468 19.24956343 29.15939046 19 25 C15.04 24.67 11.08 24.34 7 24 C7.70125 24.54527344 8.4025 25.09054688 9.125 25.65234375 C28.31808576 40.90771762 39.05441609 61.81339465 42.75 86.0625 C43.75362319 101.86956522 43.75362319 101.86956522 41 106 C39.13085938 106.93554688 39.13085938 106.93554688 36.84375 107.71875 C35.99554688 108.00983643 35.14734375 108.30092285 34.2734375 108.60083008 C33.35820312 108.89755615 32.44296875 109.19428223 31.5 109.5 C30.55382812 109.80897217 29.60765625 110.11794434 28.6328125 110.4362793 C19.83188002 113.21237772 11.14662298 114.90085168 2 116 C0.82679199 116.15227051 0.82679199 116.15227051 -0.37011719 116.30761719 C-11.61388181 117.73732974 -22.79337308 118.1956812 -34.125 118.25 C-35.35331543 118.25926514 -36.58163086 118.26853027 -37.84716797 118.27807617 C-38.99330566 118.27396729 -40.13944336 118.2698584 -41.3203125 118.265625 C-42.85582764 118.26224121 -42.85582764 118.26224121 -44.42236328 118.25878906 C-47 118 -47 118 -50 116 C-48.75347656 115.87882812 -47.50695312 115.75765625 -46.22265625 115.6328125 C-35.13220313 114.54478344 -24.06196886 113.34692367 -13 112 C-12.505 110.02 -12.505 110.02 -12 108 C-3.42 108 5.16 108 14 108 C14.103125 106.22625 14.20625 104.4525 14.3125 102.625 C14.96141213 93.98874294 16.47976961 85.51902692 18 77 C22.875 77.875 22.875 77.875 24 79 C25.24775601 85.29113344 25.11408427 91.54501814 25.0625 97.9375 C25.05798828 99.00291016 25.05347656 100.06832031 25.04882812 101.16601562 C25.03711787 103.77740291 25.02071724 106.38867124 25 109 C25.67546875 108.59007812 26.3509375 108.18015625 27.046875 107.7578125 C27.93890625 107.21898437 28.8309375 106.68015625 29.75 106.125 C30.63171875 105.59132813 31.5134375 105.05765625 32.421875 104.5078125 C34.58274093 103.24403334 36.74570395 102.08501165 39 101 C35.82788408 73.77661708 24.38310253 50.43886813 4 32 C3.32710937 31.38640625 2.65421875 30.7728125 1.9609375 30.140625 C0.06025957 28.48531335 0.06025957 28.48531335 -3 27 C-6.38800816 27.51525421 -6.38800816 27.51525421 -9 29 C-6.91916025 24.15505968 -3.83161853 21.96235639 1 20 C7.29765637 19.1067794 13.04701599 19.88338346 19 22 C19.144375 20.9275 19.28875 19.855 19.4375 18.75 C19.83889973 16.07400181 20.31517393 13.60118809 21 11 C14.53313871 5.78055358 9.6041704 2.5902776 1 3 C0.505 1.515 0.505 1.515 0 0 Z " fill="#40D4F3" transform="translate(176,204)"/>
<path d="M0 0 C4.70588235 0.70588235 4.70588235 0.70588235 6 2 C6.1009312 4.40750601 6.13869071 6.78021762 6.125 9.1875 C6.12886719 11.15783203 6.12886719 11.15783203 6.1328125 13.16796875 C6.01552441 16.55207509 5.64999244 19.68297509 5 23 C5.66 23 6.32 23 7 23 C8.70285795 21.27836601 8.70285795 21.27836601 10.4375 19.125 C12.58400884 16.53806278 14.16776562 14.88815626 17 13 C20.125 12.8125 20.125 12.8125 23 13 C24 14 24 14 24.32421875 16.7265625 C23.9135761 20.87256898 22.5736504 22.30305127 19.8125 25.375 C12.85096935 32.5361267 12.85096935 32.5361267 10.1875 41.5625 C10.455625 42.366875 10.72375 43.17125 11 44 C11.40736102 49.4993737 10.71948709 53.17510355 8 58 C4.73604061 61.76477855 1.67226079 64.0834868 -3.25 65.0625 C-7.14315928 65.62095327 -7.14315928 65.62095327 -9 68.625 C-9.33 69.40875 -9.66 70.1925 -10 71 C-11.485 70.505 -11.485 70.505 -13 70 C-14.60725635 66.78548731 -14.05748185 63.56387464 -14 60 C-14.99 60.495 -14.99 60.495 -16 61 C-20.68631367 61.65608391 -24.1099539 61.44502305 -28.375 59.3125 C-32.01936867 55.81914108 -32.48802982 50.93747738 -33.359375 46.15625 C-34.28967689 41.57281142 -35.66534337 38.17120414 -38.625 34.5625 C-40.52535596 31.98746145 -41.00226968 30.98496335 -41.5 27.6875 C-41.335 26.800625 -41.17 25.91375 -41 25 C-37.24543433 22.49695622 -35.45254066 22.54719926 -31 23 C-27.4909271 24.95698296 -24.78330919 27.14301498 -22 30 C-21.83395264 28.94087402 -21.83395264 28.94087402 -21.66455078 27.86035156 C-21.15820484 24.65577717 -20.64171783 21.45291763 -20.125 18.25 C-19.86396484 16.58324219 -19.86396484 16.58324219 -19.59765625 14.8828125 C-19.42363281 13.81289062 -19.24960937 12.74296875 -19.0703125 11.640625 C-18.91320801 10.65610352 -18.75610352 9.67158203 -18.59423828 8.65722656 C-18.03262161 6.1458725 -17.26242006 4.22888816 -16 2 C-13.69 2.33 -11.38 2.66 -9 3 C-7.19901879 6.82708507 -6.71856896 9.77853434 -7 14 C-7.33 14.66 -7.66 15.32 -8 16 C-7.34 16 -6.68 16 -6 16 C-5.9175 15.01 -5.835 14.02 -5.75 13 C-5.12516328 8.49750009 -3.27840168 3.27840168 0 0 Z " fill="#FAD5BC" transform="translate(450,150)"/>
<path d="M0 0 C4.54882786 2.51958293 7.22215213 5.04878925 9 10 C9.93447303 15.87679705 9.12541686 20.8856815 6 26 C-2.45711939 34.43857308 -13.71074619 38.91111507 -25 42.1328125 C-27.45903521 42.84362737 -29.79766985 43.65697842 -32.1875 44.5625 C-45.06405293 48.93431667 -59.95854468 50.13084323 -73.4765625 50.203125 C-74.79654236 50.21357849 -74.79654236 50.21357849 -76.14318848 50.22424316 C-78.9705081 50.24155354 -81.79762958 50.24796364 -84.625 50.25 C-85.58919861 50.25100708 -86.55339722 50.25201416 -87.54681396 50.25305176 C-101.89149497 50.24290299 -115.88871404 49.80787321 -130 47 C-130.7626416 46.85546387 -131.5252832 46.71092773 -132.31103516 46.56201172 C-148.04510218 43.50721436 -169.51054482 38.50147156 -179.03515625 24.44921875 C-181.08603626 19.24313872 -181.03237071 13.44340918 -180 8 C-177.9609375 5.578125 -177.9609375 5.578125 -176 4 C-175.91363281 4.65226562 -175.82726562 5.30453125 -175.73828125 5.9765625 C-174.81532775 11.71750262 -173.73152731 16.25554868 -169 20 C-156.60798773 28.12899287 -142.41254268 32.23121985 -128 35 C-127.23155762 35.15243164 -126.46311523 35.30486328 -125.67138672 35.46191406 C-89.18138802 42.35355975 -40.7550817 42.28368159 -7.55859375 23.90625 C-3.9907308 21.24805592 -0.51297314 18.59718652 0.39135742 14.01855469 C0.49055753 11.86463808 0.43898093 9.77712162 0.3125 7.625 C0.28994141 6.88894531 0.26738281 6.15289062 0.24414062 5.39453125 C0.18572927 3.59546158 0.09606337 1.79745247 0 0 Z " fill="#0082CF" transform="translate(218,291)"/>
<path d="M0 0 C1.29812595 2.5962519 0.80641977 3.39953581 -0.0625 6.125 C-1.58345594 10.50393825 -3.78767111 13.79078905 -6.6953125 17.37109375 C-8.07742482 18.97976573 -8.07742482 18.97976573 -9 21 C-8.34 21 -7.68 21 -7 21 C-9.2847989 30.23940609 -13.12271081 38.4784692 -19 46 C-18.01 45.67 -17.02 45.34 -16 45 C-18.11907018 53.28363798 -23.82986764 56.80941068 -30.84741211 61.0378418 C-45.22431072 69.55087494 -60.45643277 74.68950271 -77.3046875 71.34375 C-84.33513605 69.26860488 -89.57335285 65.87850097 -95 61 C-94 59 -94 59 -90.421875 57.7734375 C-88.86509796 57.30557586 -87.30776748 56.83955328 -85.75 56.375 C-79.83883367 54.52330235 -74.75873764 52.5244177 -69.5625 49.0625 C-64.41496223 45.63730757 -59.39998943 43.51276866 -53.5625 41.5 C-30.98186425 33.62433117 -13.85399823 19.2416642 0 0 Z " fill="#724C59" transform="translate(284,274)"/>
<path d="M0 0 C16.60084669 1.94173576 33.83363066 8.32642982 49.125 14.8125 C50.45688354 15.37142944 50.45688354 15.37142944 51.81567383 15.94165039 C56.38313475 17.95757961 56.38313475 17.95757961 58 19 C58.495 20.485 58.495 20.485 59 22 C57.06403108 22.22211116 55.12610672 22.42722992 53.1875 22.625 C51.56908203 22.79902344 51.56908203 22.79902344 49.91796875 22.9765625 C47 23 47 23 44 21 C41.81813053 20.6842006 41.81813053 20.6842006 39.5 20.75 C38.7265625 20.74484375 37.953125 20.7396875 37.15625 20.734375 C34.70486156 20.87261938 34.70486156 20.87261938 32 23 C31.505 24.485 31.505 24.485 31 26 C21.43670713 27.79260959 12.21661737 28.27907526 2.5 28.1875 C1.15625064 28.18603799 -0.18749985 28.1853838 -1.53125 28.18554688 C-12.148678 28.13738314 -12.148678 28.13738314 -17 27 C-17 26.01 -17 25.02 -17 24 C-24.92943383 22.02937147 -32.1808213 20.77564778 -40.35546875 21.02734375 C-43.90348743 20.99065818 -46.68172434 20.20664569 -50 19 C-50.33 20.32 -50.66 21.64 -51 23 C-54.3 22.34 -57.6 21.68 -61 21 C-60.67 19.35 -60.34 17.7 -60 16 C-45.25051581 11.84894756 -30.33936095 9.32436746 -15 10 C-14.79503906 9.39542969 -14.59007812 8.79085937 -14.37890625 8.16796875 C-12.43588542 5.11307764 -10.28597061 4.57765517 -6.9375 3.3125 C-3.19453783 2.11295137 -3.19453783 2.11295137 0 0 Z " fill="#B9F1B1" transform="translate(136,246)"/>
<path d="M0 0 C0.98162109 -0.020625 1.96324219 -0.04125 2.97460938 -0.0625 C9.94302986 -0.09939435 17.64699743 0.24036372 23.44726562 4.56079102 C25.85770324 7.09611964 26.66514005 8.96491067 26.9375 12.4375 C25.444276 15.79725401 24.06928093 16.28122267 20.74658203 17.6003418 C16.53267787 18.92986503 12.12107506 19.33700974 7.74023438 19.80273438 C3.45599185 20.41040125 2.14236738 20.66865358 -0.64453125 24.23046875 C-1.19496094 25.22691406 -1.74539063 26.22335937 -2.3125 27.25 C-6.04323719 29.73715813 -9.00083656 29.54917665 -13.3125 29.25 C-15.375 28.8125 -15.375 28.8125 -17.3125 28.25 C-19.64344534 27.9003582 -21.97654762 27.56445513 -24.3125 27.25 C-24.6425 26.26 -24.9725 25.27 -25.3125 24.25 C-27.30821323 23.57060826 -29.30844773 22.90438441 -31.3125 22.25 C-33.66870437 18.71569344 -33.80241613 17.41428713 -33.3125 13.25 C-30.43246993 7.91661097 -27.06552021 4.38711704 -21.4375 2.0625 C-14.3040017 0.20779044 -7.33709734 0.03809006 0 0 Z " fill="#E3BFAD" transform="translate(348.3125,443.75)"/>
<path d="M0 0 C0.89396484 0.02707031 1.78792969 0.05414063 2.70898438 0.08203125 C9.51343681 0.39064577 15.23972129 1.5115549 20.9375 5.5 C23.11764067 8.77021101 23.06462112 10.91759317 22.4375 14.75 C17.48901838 18.99591941 10.69562969 18.79476347 4.47851562 19.390625 C2.03231204 19.68669687 -0.21923699 19.98543346 -2.5625 20.75 C-4.16073658 23.11081594 -4.16073658 23.11081594 -4.5625 25.75 C-7.23650613 28.49828408 -8.73218265 29.64621033 -12.5625 30.125 C-15.5723954 29.74876307 -17.76445789 28.86921684 -20.5625 27.75 C-21.5525 27.79125 -22.5425 27.8325 -23.5625 27.875 C-27.44586922 27.71319295 -28.71664856 26.29628813 -31.5625 23.75 C-32.305 23.37875 -33.0475 23.0075 -33.8125 22.625 C-35.5625 21.75 -35.5625 21.75 -36.5625 19.75 C-36.95817146 15.63501683 -36.83038111 13.27545911 -34.9375 9.5625 C-29.03400537 2.57151952 -21.83465035 0.85411409 -13.09741211 -0.06958008 C-8.71693342 -0.38135642 -4.38205246 -0.20942466 0 0 Z " fill="#E4BFAD" transform="translate(277.5625,445.25)"/>
<path d="M0 0 C9.85771055 -0.82915322 15.30162213 1.45224528 23.0625 7.3125 C23.701875 7.869375 24.34125 8.42625 25 9 C25.598125 8.525625 26.19625 8.05125 26.8125 7.5625 C31.68397605 4.08287425 37.25125479 4.44444899 43 5 C48.1833135 6.51260264 51.50096349 9.95514227 54.1171875 14.58984375 C56.06792607 19.91553268 56.07350452 25.80803709 54.265625 31.18359375 C52.25814009 35.00933344 49.61945827 37.70473378 46 40 C43.1875 40.75 43.1875 40.75 41 41 C41 41.66 41 42.32 41 43 C34.30498146 42.52178439 28.4423655 41.25490995 23.421875 36.5078125 C18.40807708 30.71601146 18.56243475 25.31649795 19 18 C19.4857858 15.53727723 20.15649446 13.37235932 21 11 C14.53313871 5.78055358 9.6041704 2.5902776 1 3 C0.67 2.01 0.34 1.02 0 0 Z " fill="#FDD7BD" transform="translate(176,204)"/>
<path d="M0 0 C1.41791408 0.45445964 2.83428046 0.91374944 4.25 1.375 C5.43335938 1.75785156 5.43335938 1.75785156 6.640625 2.1484375 C8.90275371 2.96490117 10.95006514 3.73919935 13 5 C16.03526341 14.10579024 12.41240232 21.96595639 8.46875 30.1953125 C7.44953039 32.22875555 6.41691219 34.25557295 5.3671875 36.2734375 C2.77585601 41.44129287 1.54492058 46.07424581 0.875 51.8125 C0.78863281 52.50537109 0.70226562 53.19824219 0.61328125 53.91210938 C0.40283919 55.60733706 0.20058328 57.30357755 0 59 C-4 59 -4 59 -5.59765625 57.75 C-13.47996735 48.33326568 -14.9090369 38.02233303 -14 26 C-11.81450016 16.37131214 -6.4276681 7.41654012 0 0 Z " fill="#FCD6BC" transform="translate(252,121)"/>
<path d="M0 0 C2.90253983 1.33033075 5.08957074 2.86009057 7.5 4.9375 C11.85383742 8.32839039 16.19669152 9.27523611 21.55859375 10.26171875 C22.36425781 10.50535156 23.16992188 10.74898437 24 11 C26.0105807 17.0317421 23.29619689 24.23605075 20.671875 29.83203125 C19.22078837 32.31797177 17.67934336 34.66298276 16 37 C15.33871094 37.95326172 15.33871094 37.95326172 14.6640625 38.92578125 C6.94963894 48.9812871 -6.49837164 54.76322822 -18.73535156 56.74951172 C-29.9645983 57.99155647 -41.8334872 57.65429819 -53 56 C-51.22548093 51.86305128 -51.22548093 51.86305128 -49 50 C-45.17425647 49.33098738 -41.42315594 49.68564151 -37.5625 49.9375 C-24.29208704 50.37444298 -14.04344131 48.35396021 -4 39 C1.77858107 33.40999733 6.20554387 26.14317537 7 18 C7.09796875 17.236875 7.1959375 16.47375 7.296875 15.6875 C7.76209468 10.51546758 7.76209468 10.51546758 5.4375 6.08984375 C3.53790122 4.48348015 3.53790122 4.48348015 1.53125 3.15625 C1.0259375 2.7746875 0.520625 2.393125 0 2 C0 1.34 0 0.68 0 0 Z " fill="#7C5763" transform="translate(357,197)"/>
<path d="M0 0 C5.03585677 2.75594152 6.60590352 4.85712608 9 10 C9.51920609 14.99539193 7.93330274 17.23757679 4.88671875 21.015625 C-7.26354557 33.79478499 -28.08667017 37.95172918 -44.8125 40.1875 C-45.97458984 40.35185547 -47.13667969 40.51621094 -48.33398438 40.68554688 C-51.5543827 41.13775744 -54.77564023 41.57699924 -58 42 C-59.27020996 42.17869629 -60.54041992 42.35739258 -61.84912109 42.54150391 C-66.12080829 43.06968627 -70.34408575 43.16160642 -74.64453125 43.16796875 C-75.85842781 43.17296135 -75.85842781 43.17296135 -77.09684753 43.17805481 C-78.80536335 43.18309069 -80.51388888 43.18546417 -82.22241211 43.18530273 C-84.76759273 43.1874619 -87.31231925 43.20557734 -89.85742188 43.22460938 C-105.48429966 43.27972863 -120.88663831 42.04507684 -136.1875 38.75 C-137.19578857 38.53456543 -138.20407715 38.31913086 -139.24291992 38.09716797 C-153.49184144 34.91811666 -170.1113948 30.4479803 -179 18 C-180.19754817 14.40735548 -180.33094958 11.77282526 -180 8 C-178 5.5625 -178 5.5625 -176 4 C-175.91363281 4.65226562 -175.82726562 5.30453125 -175.73828125 5.9765625 C-174.81532775 11.71750262 -173.73152731 16.25554868 -169 20 C-156.60798773 28.12899287 -142.41254268 32.23121985 -128 35 C-127.23155762 35.15243164 -126.46311523 35.30486328 -125.67138672 35.46191406 C-89.18138802 42.35355975 -40.7550817 42.28368159 -7.55859375 23.90625 C-3.9907308 21.24805592 -0.51297314 18.59718652 0.39135742 14.01855469 C0.49055753 11.86463808 0.43898093 9.77712162 0.3125 7.625 C0.28994141 6.88894531 0.26738281 6.15289062 0.24414062 5.39453125 C0.18572927 3.59546158 0.09606337 1.79745247 0 0 Z " fill="#01C5EF" transform="translate(218,291)"/>
<path d="M0 0 C0.59167969 1.14597656 1.18335937 2.29195313 1.79296875 3.47265625 C2.59086951 5.00274829 3.38906221 6.53268812 4.1875 8.0625 C4.57486328 8.81466797 4.96222656 9.56683594 5.36132812 10.34179688 C9.4433179 18.13468645 12.44040882 23.73179246 21 27 C23.5 28.9375 23.5 28.9375 25 31 C24.75 33.25 24.75 33.25 24 35 C21.525 35.495 21.525 35.495 19 36 C19 36.66 19 37.32 19 38 C4.92730186 35.82359173 -13.85422206 31.05165923 -23.00390625 19.09765625 C-24.74208878 15.43724834 -24.5747683 11.94126834 -24 8 C-16.8360495 4.06685071 -8.29215473 0 0 0 Z " fill="#3FDAF6" transform="translate(77,279)"/>
<path d="M0 0 C6.62888001 3.63560667 9.85100476 10.5437038 12.32885742 17.41210938 C13.34572765 21.0048061 13.46880863 24.47071788 13.4375 28.1875 C13.43322998 28.96585205 13.42895996 29.7442041 13.42456055 30.54614258 C13.12125977 41.02663137 9.6831301 50.46774388 2.9375 58.5625 C2.6075 57.9025 2.2775 57.2425 1.9375 56.5625 C2.69645747 54.78862294 3.52140324 53.04282622 4.375 51.3125 C7.51389863 44.00598806 9.02979451 35.86416151 6.015625 28.2265625 C3.39505543 24.19360803 0.39417805 22.41587813 -4.0625 20.5625 C-12.00266436 19.54004264 -19.49897382 19.67506741 -26.0625 24.5625 C-28.82877007 26.79753135 -31.48028397 29.11763588 -34.0625 31.5625 C-34.3925 30.9025 -34.7225 30.2425 -35.0625 29.5625 C-34.22973633 27.48706055 -34.22973633 27.48706055 -32.89453125 24.94921875 C-32.41306641 24.03076172 -31.93160156 23.11230469 -31.43554688 22.16601562 C-30.92056641 21.20373047 -30.40558594 20.24144531 -29.875 19.25 C-29.37935547 18.29931641 -28.88371094 17.34863281 -28.37304688 16.36914062 C-22.49492859 5.2574005 -14.03698845 -5.91597214 0 0 Z " fill="#E4BFAD" transform="translate(395.0625,129.4375)"/>
<path d="M0 0 C4.46911711 1.42979067 7.46484591 3.88822393 10.8125 7.0625 C11.60406494 7.80657104 11.60406494 7.80657104 12.41162109 8.56567383 C30.40476015 25.66107769 41.86936886 46.76168751 44.3671875 71.66015625 C44 75 44 75 41.953125 77.1796875 C41.06109375 77.73914063 40.1690625 78.29859375 39.25 78.875 C38.36828125 79.44992187 37.4865625 80.02484375 36.578125 80.6171875 C34.2963253 81.84106188 32.49254228 82.43940964 30 83 C29.97494385 82.33991943 29.9498877 81.67983887 29.92407227 80.99975586 C29.80728248 77.97884631 29.68493554 74.95818578 29.5625 71.9375 C29.52318359 70.89916016 29.48386719 69.86082031 29.44335938 68.79101562 C29.22333656 63.45969359 28.8883816 58.26310107 28 53 C26.35 52.34 24.7 51.68 23 51 C23.13921875 49.74509766 23.13921875 49.74509766 23.28125 48.46484375 C24.18452344 33.89955949 17.27203729 23.99497759 7.95263672 13.37988281 C6.64064667 11.91492739 5.32055798 10.45723673 4 9 C2.76580359 7.56681607 1.53550735 6.1302439 0.3125 4.6875 C-0.450625 3.800625 -1.21375 2.91375 -2 2 C-1.34 1.34 -0.68 0.68 0 0 Z " fill="#D3FEFE" transform="translate(171,230)"/>
<path d="M0 0 C2.64 0 5.28 0 8 0 C10.99691511 5.99383022 10.69917004 15.44980734 10 22 C8.22393653 25.64235477 6.09827398 27.50538034 3 30 C2.67 30.99 2.34 31.98 2 33 C2.99 32.34 3.98 31.68 5 31 C9.73400129 30.65425833 13.16238301 31.35842103 16.9375 34.25 C18.86119557 36.81492743 20.04310208 38.95532481 21 42 C19.9275 42.2475 18.855 42.495 17.75 42.75 C13.83757363 44.05414212 12.26546226 44.60180661 10 48 C8.70429307 52.69135267 8.60376864 56.01803532 10.4375 60.5625 C10.953125 61.366875 11.46875 62.17125 12 63 C7.22939292 62.57906408 4.20871477 60.40290212 1 57 C-2.38452134 51.98157181 -2.66252049 46.88843556 -3 41 C-5.11293829 47.36539272 -6.46048934 53.31006781 -7 60 C-9.91517292 58.92598892 -11.77810176 58.22189824 -14 56 C-13.505 55.505 -13.505 55.505 -13 55 C-12.72438083 52.73213358 -12.48028543 50.46041721 -12.25 48.1875 C-10.94813703 37.27856261 -6.27467047 28.25864647 -1.234375 18.59375 C1.51760456 12.81110941 2.04667071 6.14001214 0 0 Z " fill="#E4BFAD" transform="translate(264,125)"/>
<path d="M0 0 C2.18226237 3.27339356 2.210226 3.66601383 1.6875 7.3125 C1.58824219 8.05113281 1.48898437 8.78976562 1.38671875 9.55078125 C1.11264357 11.28659072 0.80298377 13.01695143 0.46875 14.7421875 C-0.11323605 18.78699058 -0.19175665 22.73122522 -0.1875 26.8125 C-0.18669434 27.61204102 -0.18588867 28.41158203 -0.18505859 29.23535156 C-0.11447584 36.01960011 0.79947466 41.77753726 3.1875 48.1875 C4.17210298 51.59574109 4.0516334 53.61974978 3 57 C0.88584778 59.2651631 -0.47156104 59.89431221 -3.5 60.5 C-6 60 -6 60 -8.0625 58.1875 C-16.18911606 44.81790584 -17.27504002 26.70253218 -14.24609375 11.55078125 C-11.94819737 2.92691131 -11.94819737 2.92691131 -9.0859375 0.12890625 C-5.83669016 -1.62958154 -3.47695497 -0.90143277 0 0 Z " fill="#DAD0D3" transform="translate(277,346)"/>
<path d="M0 0 C2.19384269 2.19384269 3.07003179 4.0738899 4.375 6.875 C6.20882542 10.59595973 7.76123533 13.33278204 11 16 C11.78890625 16.70382812 11.78890625 16.70382812 12.59375 17.421875 C18.62721455 22.7673129 24.31567158 26.43795412 32.0625 28.6875 C32.75666016 28.89955078 33.45082031 29.11160156 34.16601562 29.33007812 C37.75013714 30.40905867 41.31401045 31.34615 45 32 C44.57664615 38.49142565 42.08900201 43.33492989 39 49 C38.01 48.67 37.02 48.34 36 48 C36 47.34 36 46.68 36 46 C29.96366584 43.74170087 24.64676583 42.87031966 18.1875 42.75 C11.64289631 42.36850551 11.64289631 42.36850551 9.10546875 40.9140625 C7.57792798 39.0034242 6.84469986 37.30668039 6 35 C5.55398438 33.81535156 5.10796875 32.63070312 4.6484375 31.41015625 C1.67636331 23.11422836 -0.14630383 15.50820629 -0.0625 6.625 C-0.05347656 5.37976563 -0.04445313 4.13453125 -0.03515625 2.8515625 C-0.02355469 1.91054688 -0.01195312 0.96953125 0 0 Z " fill="#734D59" transform="translate(262,404)"/>
<path d="M0 0 C6.71084705 3.4287353 10.43645324 8.36419565 13.32421875 15.1875 C13.32421875 16.1775 13.32421875 17.1675 13.32421875 18.1875 C13.98421875 18.5175 14.64421875 18.8475 15.32421875 19.1875 C15.23667324 20.93841019 15.12848502 22.68829551 15.01171875 24.4375 C14.92470703 25.89929688 14.92470703 25.89929688 14.8359375 27.390625 C14.26710787 30.49964801 13.54659076 31.95993553 11.32421875 34.1875 C7.88671875 34.75 7.88671875 34.75 4.32421875 34.1875 C1.7066418 32.05210828 0.51308263 30.4404506 0.00390625 27.0625 C-0.11667462 25.51067661 -0.23381852 23.95858262 -0.34765625 22.40625 C-0.8649995 18.90802423 -2.37590996 16.80679786 -4.67578125 14.1875 C-7.79143655 12.28348843 -10.13515169 12.15277235 -13.67578125 12.3125 C-16.85286417 12.38470643 -17.7215088 12.16273091 -20.67578125 10.5625 C-22.67578125 8.1875 -22.67578125 8.1875 -23.23828125 5.1875 C-22.55933488 1.56645268 -21.56142928 0.41357134 -18.67578125 -1.8125 C-11.85181907 -4.08715406 -6.40121037 -2.82319845 0 0 Z " fill="#FEFEFE" transform="translate(368.67578125,68.8125)"/>
<path d="M0 0 C3.01305957 0.38878188 4.39685311 1.26456874 7 3 C5.73300987 6.45103978 4.25953291 9.26386587 2.125 12.25 C-5.29958104 23.12365291 -7.65659367 33.72350366 -5.5390625 46.859375 C-3.44059818 54.8088516 0.56328078 60.49322286 7.375 65.0625 C9.4296875 66.48046875 9.4296875 66.48046875 11 68 C11.5 71.875 11.5 71.875 11 75 C2.88076808 74.23882201 -3.21817985 68.49054976 -8.23828125 62.50390625 C-15.08647836 52.77065936 -15.94102478 40.3943169 -14.375 28.875 C-12.27489126 18.36045558 -7.66902242 7.66902242 0 0 Z " fill="#744D5A" transform="translate(245,117)"/>
<path d="M0 0 C0 0.99 0 1.98 0 3 C-3.96 2.67 -7.92 2.34 -12 2 C-11.29875 2.54527344 -10.5975 3.09054688 -9.875 3.65234375 C8.79642595 18.49308313 17.88919095 37.00135927 23 60 C23.1015625 62.89453125 23.1015625 62.89453125 23 65 C22.38125 64.649375 21.7625 64.29875 21.125 63.9375 C20.073125 63.4734375 20.073125 63.4734375 19 63 C18.01 63.495 18.01 63.495 17 64 C16.84144531 63.27296875 16.68289062 62.5459375 16.51953125 61.796875 C11.40729121 39.76622733 -1.1653835 21.092639 -18.6875 6.8125 C-21.89544733 4.59612641 -21.89544733 4.59612641 -25.4375 5.6875 C-26.283125 6.120625 -27.12875 6.55375 -28 7 C-23.08999668 -4.43224654 -10.04472179 -3.57145663 0 0 Z " fill="#7CFCFE" transform="translate(195,226)"/>
<path d="M0 0 C1.11246094 -0.02835938 2.22492188 -0.05671875 3.37109375 -0.0859375 C7.25518498 0.47504508 8.81702462 1.6149983 11.5625 4.375 C13.54272069 7.33940223 13.79124316 9.59773243 13.6875 13.125 C13.66945313 13.92421875 13.65140625 14.7234375 13.6328125 15.546875 C13.60960937 16.15015625 13.58640625 16.7534375 13.5625 17.375 C13.06621094 17.08625 12.56992187 16.7975 12.05859375 16.5 C6.4616088 13.44130614 2.22096295 12.3540336 -4.125 14.125 C-7.41549576 15.90364636 -9.75734933 18.01469865 -11.4375 21.375 C-11.55990135 23.14270327 -11.61301153 24.91560462 -11.625 26.6875 C-11.64626953 28.10482422 -11.64626953 28.10482422 -11.66796875 29.55078125 C-11.42574335 32.51906882 -10.67776607 34.68367165 -9.4375 37.375 C-11.625 37.6875 -11.625 37.6875 -14.4375 37.375 C-21.17572464 31.57699275 -21.17572464 31.57699275 -21.703125 27.140625 C-21.64094429 17.12953002 -19.53066669 11.94161848 -12.7265625 4.51171875 C-8.58359585 0.64447854 -5.65476637 0.06537302 0 0 Z " fill="#F9F8F9" transform="translate(315.4375,154.625)"/>
<path d="M0 0 C0.94617188 0.20496094 1.89234375 0.40992188 2.8671875 0.62109375 C13.24778902 2.76912466 23.41453321 3.64470077 34 4 C33.88630789 6.45933991 33.75957349 8.9167909 33.625 11.375 C33.57859375 12.42300781 33.57859375 12.42300781 33.53125 13.4921875 C33.2265625 18.7734375 33.2265625 18.7734375 31 21 C27.21124838 22.0550114 23.60340427 22.10553192 19.6875 22.0625 C18.08455078 22.04896484 18.08455078 22.04896484 16.44921875 22.03515625 C15.64097656 22.02355469 14.83273438 22.01195312 14 22 C14 20.35 14 18.7 14 17 C12.453125 16.814375 12.453125 16.814375 10.875 16.625 C7 16 7 16 1 14 C0.67 9.38 0.34 4.76 0 0 Z " fill="#E9E9E9" transform="translate(235,246)"/>
<path d="M0 0 C1.33923669 2.60407134 1.28198124 4.07626835 0.43359375 6.85546875 C-2.41454041 13.45854211 -7.39689873 18.07275978 -13.6875 21.4375 C-16.37078963 22.09019207 -18.26303662 22.50417746 -21 22 C-24.11294847 18.88705153 -24.24432676 15.7099509 -24.375 11.5 C-24.24790284 7.20180518 -23.92103653 4.33832746 -21 1 C-14.97411746 -4.44273262 -6.67045303 -4.605789 0 0 Z " fill="#471528" transform="translate(327,170)"/>
<path d="M0 0 C3.7336914 2.85984873 5.59445995 5.52782712 7 10 C5.9275 10.2475 4.855 10.495 3.75 10.75 C-0.16242637 12.05414212 -1.73453774 12.60180661 -4 16 C-5.29570693 20.69135267 -5.39623136 24.01803532 -3.5625 28.5625 C-3.046875 29.366875 -2.53125 30.17125 -2 31 C-6.77410619 30.57875534 -9.78548754 28.39925456 -13 25 C-16.53488774 19.93332757 -16.69951473 14.9742339 -16 9 C-15.10376639 5.51897669 -13.65664477 2.80817817 -11.375 0 C-7.50858086 -1.62796595 -3.97744353 -1.16482275 0 0 Z " fill="#FBFAFB" transform="translate(278,157)"/>
<path d="M0 0 C0.66 0.33 1.32 0.66 2 1 C1.3709375 1.52207031 0.741875 2.04414063 0.09375 2.58203125 C-11.52266291 12.57144657 -20.13414658 25.40243975 -25 40 C-28.96 40.66 -32.92 41.32 -37 42 C-37.495 44.475 -37.495 44.475 -38 47 C-38.99 46.67 -39.98 46.34 -41 46 C-38.88397263 31.45231184 -25.1002189 17.69644736 -14 9 C-11.5389246 7.22981214 -9.0361936 5.53549085 -6.5 3.875 C-5.58214722 3.27051025 -5.58214722 3.27051025 -4.64575195 2.65380859 C-3.13806993 1.70116516 -1.57256327 0.8412368 0 0 Z " fill="#D1FEFE" transform="translate(113,220)"/>
<path d="M0 0 C3 0 3 0 4.6484375 1.46875 C12.46976438 10.67031103 17.37698415 18.03311867 17.125 30.3125 C17.11597656 31.14845703 17.10695313 31.98441406 17.09765625 32.84570312 C17.07420989 34.89725969 17.03834266 36.94866777 17 39 C12.05 39.495 12.05 39.495 7 40 C7 37.36 7 34.72 7 32 C7.33 32 7.66 32 8 32 C7.6327716 24.41061308 5.90314138 16.90314138 0.3359375 11.3359375 C-0.10492188 10.89507812 -0.54578125 10.45421875 -1 10 C-1 9.34 -1 8.68 -1 8 C-1.99 7.67 -2.98 7.34 -4 7 C-4 6.67 -4 6.34 -4 6 C-2.02 6 -0.04 6 2 6 C1.34 4.02 0.68 2.04 0 0 Z " fill="#FBD5BC" transform="translate(379,357)"/>
<path d="M0 0 C1.41791408 0.45445964 2.83428046 0.91374944 4.25 1.375 C5.43335938 1.75785156 5.43335938 1.75785156 6.640625 2.1484375 C12.63855422 4.31325301 12.63855422 4.31325301 14.171875 7.2265625 C15.75249984 12.52016455 16.86112676 17.48065211 16 23 C12.22774808 27.40459473 7.57658466 29.70425761 2 31 C1.96241577 30.01773437 1.96241577 30.01773437 1.92407227 29.015625 C1.80707345 26.01026764 1.68482365 23.00514515 1.5625 20 C1.52318359 18.97003906 1.48386719 17.94007813 1.44335938 16.87890625 C1.20814561 11.19758925 0.80518623 5.62953732 0 0 Z " fill="#9FF0FB" transform="translate(199,282)"/>
<path d="M0 0 C5 1 5 1 6 2 C7.24775601 8.29113344 7.11408427 14.54501814 7.0625 20.9375 C7.05798828 22.00291016 7.05347656 23.06832031 7.04882812 24.16601562 C7.03711787 26.77740291 7.02071724 29.38867124 7 32 C7.67546875 31.59007812 8.3509375 31.18015625 9.046875 30.7578125 C10.38492188 29.94957031 10.38492188 29.94957031 11.75 29.125 C12.63171875 28.59132813 13.5134375 28.05765625 14.421875 27.5078125 C16.56693907 26.25327503 18.77735939 25.11132031 21 24 C20.34 18.39 19.68 12.78 19 7 C24 10 24 10 25 13 C25.1199261 15.16424777 25.17529542 17.33246644 25.1875 19.5 C25.20167969 20.6446875 25.21585938 21.789375 25.23046875 22.96875 C25 26 25 26 23 29 C19.82256437 30.55208975 16.42215925 31.53212669 13.0625 32.625 C12.16208984 32.93695313 11.26167969 33.24890625 10.33398438 33.5703125 C3.89359281 35.7033187 -2.2303909 36.66410024 -9 37 C-7.27849257 35.85232838 -5.55130501 34.7128672 -3.80859375 33.59765625 C-3.02613281 33.09105469 -2.24367187 32.58445312 -1.4375 32.0625 C-0.25994141 31.30646484 -0.25994141 31.30646484 0.94140625 30.53515625 C3.2443159 28.99687704 3.2443159 28.99687704 5 26 C5.58369443 22.58461856 5.58369443 22.58461856 5 19 C2.8272578 16.36983839 1.05326212 14.52663106 -2 13 C-1.34 8.71 -0.68 4.42 0 0 Z " fill="#40E2F7" transform="translate(194,281)"/>
<path d="M0 0 C0.14695313 0.99580078 0.14695313 0.99580078 0.296875 2.01171875 C1.20654349 7.383468 2.02187393 11.02187393 6 15 C6.66 15.66 7.32 16.32 8 17 C3.375 20 3.375 20 0 20 C0 20.66 0 21.32 0 22 C-2.1875 22.3125 -2.1875 22.3125 -5 22 C-8.76789852 18.87540123 -11.70572963 15.32381723 -14 11 C-14.125 7.9375 -14.125 7.9375 -13 5 C-8.87970805 0.55725042 -5.92116844 -1.402382 0 0 Z " fill="#E1BCAB" transform="translate(217,225)"/>
<path d="M0 0 C0.77601563 -0.00257813 1.55203125 -0.00515625 2.3515625 -0.0078125 C4.375 0.125 4.375 0.125 6.375 1.125 C5.87321009 5.4738459 3.27802462 8.01943878 0.375 11.125 C-4.23809262 14.04268251 -9.34964879 13.79612456 -14.625 13.125 C-17.8125 11.125 -17.8125 11.125 -19.625 9.125 C-18.625 6.125 -18.625 6.125 -16.48046875 4.7734375 C-15.60003906 4.35320312 -14.71960938 3.93296875 -13.8125 3.5 C-12.93980469 3.07460937 -12.06710937 2.64921875 -11.16796875 2.2109375 C-7.33440962 0.57387231 -4.16270421 -0.01392209 0 0 Z " fill="#F95051" transform="translate(295.625,245.875)"/>
<path d="M0 0 C8.00816327 2.00816327 8.00816327 2.00816327 10 4 C10.375 6.875 10.375 6.875 10 10 C7.68703672 12.39006206 5.96276774 12.97597086 2.65234375 13.05859375 C-2.34752874 12.70415332 -6.94075751 12.12249423 -11 9 C-11.875 5.3125 -11.875 5.3125 -12 2 C-7.91600027 -0.72266648 -4.79449832 -0.51101236 0 0 Z " fill="#B3C08B" transform="translate(124,297)"/>
<path d="M0 0 C1.78072742 1.78072742 1.25615294 4.27643877 1.3125 6.6875 C1.23067332 13.5609414 1.23067332 13.5609414 -0.5625 16.6875 C-3.65294735 19.61946287 -5.8110875 19.83888798 -10 20 C-12.51503448 16.88135724 -13.29088825 14.49073386 -13.125 10.5625 C-12.43252154 5.96136537 -10.52482428 3.75948846 -6.8515625 1.0234375 C-4.42365895 -0.31856826 -2.7143614 -0.55883911 0 0 Z " fill="#4A192B" transform="translate(285,167)"/>
<path d="M0 0 C6.19945739 0.07805072 12.02115204 1.25064006 17.5 4.1875 C17.75 6.5 17.75 6.5 17.5 9.1875 C15.12605771 12.05601361 13.46249559 12.19187551 9.75 12.625 C4.23511898 12.42877764 -0.6234695 10.0640305 -4.5 6.1875 C-4.6875 3.625 -4.6875 3.625 -4.5 1.1875 C-3.5 0.1875 -3.5 0.1875 0 0 Z " fill="#BCCE81" transform="translate(100.5,265.8125)"/>
<path d="M0 0 C8.79118466 0.19083614 16.28853909 3.2706056 22.5625 9.375 C19.82825695 10.74212153 18.42653967 9.72558376 15.640625 8.859375 C11.48840578 7.8915645 6.43766921 7.4374154 2.5625 9.375 C2.5625 11.355 2.5625 13.335 2.5625 15.375 C-1.4087702 13.27905184 -3.99629544 11.17242931 -6.4375 7.375 C-6.8125 4.6875 -6.8125 4.6875 -6.4375 2.375 C-4.01874153 -0.04375847 -3.32616956 0.05321871 0 0 Z " fill="#BCCE80" transform="translate(110.4375,289.625)"/>
<path d="M0 0 C5.28 0.99 10.56 1.98 16 3 C15.01 3.33 14.02 3.66 13 4 C13.33 8.29 13.66 12.58 14 17 C9.29284832 16.4351418 5.57427092 15.52475697 1 14 C0.67 9.38 0.34 4.76 0 0 Z " fill="#D1D1D1" transform="translate(235,246)"/>
<path d="M0 0 C0.66 0 1.32 0 2 0 C2.06469482 0.83023682 2.12938965 1.66047363 2.19604492 2.51586914 C4.24036329 33.50256694 4.24036329 33.50256694 20.9375 58.875 C28.44088283 64.97239522 35.45953152 66.79154066 45 68 C40.45127694 70.61092624 36.98822466 70.32707072 32 69 C19.53583181 63.2591621 10.71933253 54.06218322 5.5234375 41.40234375 C0.8021175 28.19104867 -0.45774212 13.9611348 0 0 Z " fill="#7D5965" transform="translate(301,370)"/>
<path d="M0 0 C0.66 0 1.32 0 2 0 C0.73623168 3.79130495 -0.57801115 4.1583109 -3.9375 6.1875 C-7.57331479 8.61483427 -9.60504436 10.11227458 -10.625 14.4375 C-10.810625 16.2009375 -10.810625 16.2009375 -11 18 C-12.12535156 17.93039063 -12.12535156 17.93039063 -13.2734375 17.859375 C-20.88247799 17.59104612 -26.1540095 18.81977037 -33 22 C-34.99302124 22.6872487 -36.98967123 23.36515933 -39 24 C-39 23.01 -39 22.02 -39 21 C-40.32 21.33 -41.64 21.66 -43 22 C-42.505 20.515 -42.505 20.515 -42 19 C-39.5817094 18.25474063 -37.28217114 17.69103898 -34.8125 17.1875 C-22.01555127 14.25609092 -9.48929972 9.48929972 0 0 Z " fill="#4D1A2C" transform="translate(314,229)"/>
<path d="M0 0 C0.99 0.66 1.98 1.32 3 2 C2.63870968 7.41935484 2.63870968 7.41935484 -0.0625 9.875 C-4.01791901 11.38984132 -6.77166015 11.34658523 -11 11 C-13 9 -13 9 -13.375 6.0625 C-13 3 -13 3 -11.5625 1.125 C-7.7905183 -0.53099197 -4.06173896 -0.57597403 0 0 Z " fill="#BCCE81" transform="translate(180,266)"/>
<path d="M0 0 C0.70125 0.721875 1.4025 1.44375 2.125 2.1875 C6.81048321 6.8336094 11.18159077 10.33071762 17.16796875 13.10546875 C19 14 19 14 22 16 C13.25446944 15.45340434 7.98637346 11.1574127 2 5 C-1.94720392 3.68426536 -3.2527555 4.71261947 -7 6.375 C-16.24496854 10.43100335 -24.55926429 11.23415291 -34.5 8.8125 C-38.20834916 7.89893713 -38.20834916 7.89893713 -41.75 9.375 C-42.4925 9.91125 -43.235 10.4475 -44 11 C-47.3125 11.1875 -47.3125 11.1875 -50 11 C-49.484375 10.7525 -48.96875 10.505 -48.4375 10.25 C-45.79436826 8.966558 -45.79436826 8.966558 -42.8125 6.75 C-39.8131101 5.02883111 -38.26485919 4.85940572 -34.9375 5.75 C-34.18210937 5.96527344 -33.42671875 6.18054688 -32.6484375 6.40234375 C-23.20795068 8.53271909 -12.56468609 7.67780606 -4.0546875 2.91015625 C-2.66203711 2.00007541 -1.32251847 1.00929041 0 0 Z " fill="#F9F9F9" transform="translate(322,113)"/>
<path d="M0 0 C0.99 0 1.98 0 3 0 C3.433125 0.94875 3.86625 1.8975 4.3125 2.875 C5.79302201 6.20041937 5.79302201 6.20041937 9 8 C15.53060737 8.71741729 21.79776122 8.10433101 28 6 C29.96730878 4.54365697 29.96730878 4.54365697 31 3 C32.485 3.495 32.485 3.495 34 4 C27.64161451 9.86063309 21.67113907 13.03250889 13 14 C8.21578819 13.46842091 6.59654994 12.57061299 3.125 9.25 C0.97884724 5.96764871 0.27641911 3.86986755 0 0 Z " fill="#815B66" transform="translate(272,250)"/>
<path d="M0 0 C2.32758311 0.93103324 3.74357132 1.65382128 5.25 3.6875 C6.27095909 6.83545718 6.12632947 9.71543368 6 13 C3.09330538 13.85305168 0.68951127 14.07289715 -2.328125 13.87890625 C-3.12734375 13.83056641 -3.9265625 13.78222656 -4.75 13.73242188 C-5.575 13.67634766 -6.4 13.62027344 -7.25 13.5625 C-8.09046875 13.51029297 -8.9309375 13.45808594 -9.796875 13.40429688 C-11.8649352 13.27504311 -13.9325222 13.13825726 -16 13 C-16 12.01 -16 11.02 -16 10 C-14.92878906 9.93941406 -13.85757813 9.87882813 -12.75390625 9.81640625 C-11.35675609 9.73201463 -9.95962143 9.64736594 -8.5625 9.5625 C-7.50192383 9.50352539 -7.50192383 9.50352539 -6.41992188 9.44335938 C-2.91309581 9.52375562 -2.91309581 9.52375562 0 8 C0.07148199 6.64756083 0.08399454 5.29165633 0.0625 3.9375 C0.041875 2.638125 0.02125 1.33875 0 0 Z " fill="#14FCFF" transform="translate(140,200)"/>
<path d="M0 0 C6.81598387 -0.33278764 11.92122066 -0.24201565 18 3 C17 6 17 6 15 7 C8.50367688 7.56002785 4.56877942 6.31757072 -1 3 C-0.67 2.01 -0.34 1.02 0 0 Z " fill="#B3C18B" transform="translate(99,271)"/>
<path d="M0 0 C0 0.66 0 1.32 0 2 C-1.56254605 3.06386114 -3.17859568 4.04936476 -4.8125 5 C-13.93844216 10.66113786 -21.45563937 17.61457104 -27.66015625 26.3828125 C-28.32337891 27.18332031 -28.32337891 27.18332031 -29 28 C-29.66 28 -30.32 28 -31 28 C-29.56621543 23.50088289 -27.0679768 20.49284571 -23.875 17.125 C-23.38290039 16.5990625 -22.89080078 16.073125 -22.38378906 15.53125 C-7.68457031 0 -7.68457031 0 0 0 Z " fill="#06E0F4" transform="translate(90,222)"/>
<path d="M0 0 C0 0.99 0 1.98 0 3 C-0.8559375 2.84144531 -1.711875 2.68289062 -2.59375 2.51953125 C-12.99452916 0.82658267 -12.99452916 0.82658267 -22.625 3.9375 C-23.40875 4.618125 -24.1925 5.29875 -25 6 C-25.99 6.33 -26.98 6.66 -28 7 C-23.08999668 -4.43224654 -10.04472179 -3.57145663 0 0 Z " fill="#441325" transform="translate(195,226)"/>
<path d="M0 0 C-0.33 2.64 -0.66 5.28 -1 8 C-5.25061356 9.41687119 -7.71851625 8.19320039 -12 7 C-11.67 5.35 -11.34 3.7 -11 2 C-7.17679443 0.57741188 -4.08718695 -0.24042276 0 0 Z " fill="#DDF0C0" transform="translate(87,260)"/>
<path d="M0 0 C9.50557116 -0.79953402 15.25551036 1.06554517 22.5625 7.125 C24 9 24 9 24 12 C20.99582238 10.60568438 18.51799427 8.92218389 15.875 6.9375 C11.03975923 3.63087112 6.77425211 3.02410961 1 3 C0.67 2.01 0.34 1.02 0 0 Z " fill="#451325" transform="translate(176,204)"/>
<path d="M0 0 C9.23860936 4.23770995 14.34726891 13.3592137 19 22 C19 22.66 19 23.32 19 24 C18.01 24 17.02 24 16 24 C14.4921875 21.7265625 14.4921875 21.7265625 12.875 18.625 C9.76280055 13.00038258 6.18507648 8.56490361 1.72265625 3.9609375 C0 2 0 2 0 0 Z " fill="#05E0F3" transform="translate(189,234)"/>
<path d="M0 0 C0.68964844 -0.01224609 1.37929688 -0.02449219 2.08984375 -0.03710938 C3.89477494 -0.04238695 5.69917842 0.06565542 7.5 0.1875 C8.16 0.8475 8.82 1.5075 9.5 2.1875 C6.76295759 3.55602121 5.13244481 2.86045369 2.125 2.375 C-5.292749 1.67874919 -10.43942684 4.04273112 -16.5 8.1875 C-18.55435631 10.09576875 -19.8923487 11.85381263 -21.5 14.1875 C-22.48290968 15.20430311 -23.47334787 16.21488219 -24.5 17.1875 C-24.07970188 12.4241213 -21.99683281 9.30762482 -18.5 6.1875 C-15.59478798 4.31592127 -12.59778896 2.71509338 -9.5 1.1875 C-6.46576019 -0.3296199 -3.32495206 0.00310743 0 0 Z " fill="#FAFAFA" transform="translate(299.5,49.8125)"/>
<path d="M0 0 C-0.1875 2.8125 -0.1875 2.8125 -1 6 C-4.29325975 8.6702106 -5.68141026 9 -10 9 C-11 6 -11 6 -10.375 3.9375 C-7.69525617 0.16149734 -4.41573685 0 0 0 Z " fill="#B3C18B" transform="translate(183,268)"/>
<path d="M0 0 C1.44826172 -0.02126953 1.44826172 -0.02126953 2.92578125 -0.04296875 C5.70269158 0.18876776 7.32223141 0.76609156 9.6875 2.1875 C9.3575 3.1775 9.0275 4.1675 8.6875 5.1875 C-1.46567287 5.81769694 -1.46567287 5.81769694 -5 3.1875 C-5.433125 2.5275 -5.86625 1.8675 -6.3125 1.1875 C-4.59154777 -0.53345223 -2.34086086 0.01550239 0 0 Z " fill="#BCCF82" transform="translate(147.3125,260.8125)"/>
<path d="M0 0 C6.69746529 2.92279735 11.5933092 9.49574685 14.35546875 16.1484375 C15.81820363 22.61993122 15.27234563 29.4107489 15 36 C14.34 36 13.68 36 13 36 C13.03480469 35.24976563 13.06960938 34.49953125 13.10546875 33.7265625 C13.47890188 19.60723358 8.95116487 10.67254273 0 0 Z " fill="#C6A299" transform="translate(381,359)"/>
<path d="M0 0 C-0.375 2.4375 -0.375 2.4375 -1 5 C-3.95664519 6.4783226 -6.74229737 6.06032783 -10 6 C-10.6875 4.1875 -10.6875 4.1875 -11 2 C-9.56348181 -0.04136796 -8.35645947 -0.850517 -6.0625 -1.8125 C-3.47720456 -2.04752686 -2.1871289 -1.32789969 0 0 Z " fill="#B3C08B" transform="translate(181,293)"/>
<path d="M0 0 C0.825 0.13277344 1.65 0.26554687 2.5 0.40234375 C11.66664289 1.80393982 20.7448436 2.54325202 30 3 C30 3.33 30 3.66 30 4 C20.43 4.33 10.86 4.66 1 5 C0.67 3.35 0.34 1.7 0 0 Z " fill="#94EDC2" transform="translate(96,317)"/>
<path d="M0 0 C2.5625 0.1875 2.5625 0.1875 4.5625 2.1875 C4.00694444 6.74305556 4.00694444 6.74305556 2.5625 8.1875 C0.125 8.375 0.125 8.375 -2.4375 8.1875 C-3.0975 7.5275 -3.7575 6.8675 -4.4375 6.1875 C-3.71780303 0.28598485 -3.71780303 0.28598485 0 0 Z " fill="#BCCE80" transform="translate(148.4375,282.8125)"/>
<path d="M0 0 C4.90161095 0.62594246 8.84709213 2.71819643 13.1875 4.9375 C13.91130859 5.29779297 14.63511719 5.65808594 15.38085938 6.02929688 C20.7324953 8.7324953 20.7324953 8.7324953 23 11 C21.02 11.99 21.02 11.99 19 13 C18.29875 12.46890625 17.5975 11.9378125 16.875 11.390625 C11.42378216 7.3318378 6.19348384 3.80459645 0 1 C0 0.67 0 0.34 0 0 Z " fill="#CDFCFD" transform="translate(147,218)"/>
<path d="M0 0 C2.90253983 1.33033075 5.08957074 2.86009057 7.5 4.9375 C12.46477679 8.78332141 17.9271202 9.84615284 24 11 C24 11.99 24 12.98 24 14 C15.43456846 12.45469019 8.47863789 10.00112873 2 4 C0.7265625 1.77734375 0.7265625 1.77734375 0 0 Z " fill="#4F2032" transform="translate(357,197)"/>
<path d="M0 0 C6.60012431 1.48502797 11.59226718 5.50945996 15.3984375 11.02734375 C17.60090822 15.09644746 18.47032298 18.29677015 18 23 C15.74777168 20.74777168 15.23656306 19.16505344 14.1875 16.1875 C11.29494172 8.79658821 6.80343844 5.60182035 0 2 C0 1.34 0 0.68 0 0 Z " fill="#C9A49B" transform="translate(413,347)"/>
<path d="M0 0 C0.66 1.65 1.32 3.3 2 5 C1.443125 4.79375 0.88625 4.5875 0.3125 4.375 C-2.76727053 3.87557775 -4.27080903 4.53043563 -7 6 C-8.80348078 8.01317219 -8.80348078 8.01317219 -10 10 C-11 9 -11 9 -11.3125 6.6875 C-11 4 -11 4 -9.4375 1.6875 C-6.185351 -0.56398777 -3.86806995 -0.29754384 0 0 Z " fill="#BCCE80" transform="translate(179,288)"/>
<path d="M0 0 C0 0.66 0 1.32 0 2 C-1.19496094 2.06058594 -2.38992188 2.12117187 -3.62109375 2.18359375 C-15.33528961 2.79215577 -15.33528961 2.79215577 -27 4 C-27 3.34 -27 2.68 -27 2 C-18.04395567 -0.46456257 -9.19822505 -0.1920743 0 0 Z " fill="#512233" transform="translate(283,195)"/>
<path d="M0 0 C0.66 0 1.32 0 2 0 C2.39302684 4.26937656 2.76133259 8.54053041 3.125 12.8125 C3.23714844 14.02744141 3.34929687 15.24238281 3.46484375 16.49414062 C3.56152344 17.65751953 3.65820312 18.82089844 3.7578125 20.01953125 C3.8520752 21.09307861 3.94633789 22.16662598 4.04345703 23.27270508 C4 26 4 26 2 29 C-0.29612756 9.03189066 -0.29612756 9.03189066 0 0 Z " fill="#7D5865" transform="translate(301,370)"/>
<path d="M0 0 C2.4138176 0.22117559 4.83114597 0.40572242 7.25 0.5625 C8.51328125 0.64628906 9.7765625 0.73007812 11.078125 0.81640625 C12.04234375 0.87699219 13.0065625 0.93757813 14 1 C14 1.33 14 1.66 14 2 C10.06734104 2.04947698 6.13480286 2.08575578 2.2019043 2.10986328 C0.20680382 2.12485495 -1.78820946 2.15026731 -3.78320312 2.17578125 C-5.03681641 2.18222656 -6.29042969 2.18867188 -7.58203125 2.1953125 C-8.73936768 2.20578613 -9.8967041 2.21625977 -11.08911133 2.22705078 C-14 2 -14 2 -17 0 C-14.9174133 -0.19561869 -12.83388144 -0.38119313 -10.75 -0.5625 C-9.58984375 -0.66691406 -8.4296875 -0.77132813 -7.234375 -0.87890625 C-4.36602303 -0.98629624 -2.69508969 -0.74633253 0 0 Z " fill="#4BD9F2" transform="translate(143,320)"/>
<path d="M0 0 C2.30525862 0.86447198 4.5435792 1.74280213 6.69140625 2.953125 C12.54990298 6.2309478 18.38566564 7.16218431 25 8 C20.45982952 10.60601714 16.97769937 10.34282122 12 9 C7.15721323 6.69259518 3.0062213 4.50933195 0 0 Z " fill="#77515E" transform="translate(321,430)"/>
<path d="M0 0 C0.8971875 0.309375 0.8971875 0.309375 1.8125 0.625 C1.33039063 0.92792969 0.84828125 1.23085937 0.3515625 1.54296875 C-3.56545889 4.14099314 -6.07794936 5.85393224 -7.1875 10.625 C-7.60553512 13.29246218 -7.91404667 15.93604223 -8.1875 18.625 C-10.1875 16.625 -10.1875 16.625 -10.625 13.5 C-10.07358805 8.61606559 -8.27328129 5.40616863 -5.1875 1.625 C-2.1875 -0.375 -2.1875 -0.375 0 0 Z " fill="#FAFAFA" transform="translate(251.1875,76.375)"/>
<path d="M0 0 C0 0.66 0 1.32 0 2 C-1.03447266 2.22042969 -1.03447266 2.22042969 -2.08984375 2.4453125 C-9.09617645 4.1176059 -14.28155901 6.63704132 -20 11 C-17.6068178 5.4862959 -13.2895462 2.96160941 -7.875 0.6875 C-5.12332626 0.02949106 -2.81535409 -0.16560906 0 0 Z " fill="#552738" transform="translate(253,209)"/>
<path d="M0 0 C6.01331397 -0.53690303 9.27124164 0.24677748 14.3359375 3.515625 C16.20251731 5.18064924 17.03216551 6.71239121 18 9 C17.01 8.67 16.02 8.34 15 8 C15 7.34 15 6.68 15 6 C11.79989612 4.1866078 8.86716157 3.47786026 5.25 2.875 C4.26515625 2.70742187 3.2803125 2.53984375 2.265625 2.3671875 C1.14414063 2.18542969 1.14414063 2.18542969 0 2 C0 1.34 0 0.68 0 0 Z " fill="#502133" transform="translate(237,228)"/>
<path d="M0 0 C2.42130331 2.42130331 2.52840504 3.80111377 3.125 7.125 C3.29257813 8.03507812 3.46015625 8.94515625 3.6328125 9.8828125 C3.81457031 10.93082031 3.81457031 10.93082031 4 12 C2.35 11.67 0.7 11.34 -1 11 C-0.67 7.37 -0.34 3.74 0 0 Z " fill="#86FBF7" transform="translate(195,270)"/>
<path d="M0 0 C0.99 0 1.98 0 3 0 C4.5 2.25 4.5 2.25 6 5 C6.8353125 5.9590625 6.8353125 5.9590625 7.6875 6.9375 C9.44618619 9.70114973 9.21874879 11.79168439 9 15 C8.34 15 7.68 15 7 15 C6.773125 13.96875 6.54625 12.9375 6.3125 11.875 C5.1393919 7.65352339 2.87196224 5.24985201 0 2 C0 1.34 0 0.68 0 0 Z " fill="#CCA89E" transform="translate(426,180)"/>
<path d="M0 0 C-0.33 1.65 -0.66 3.3 -1 5 C-4.3 4.34 -7.6 3.68 -11 3 C-7.72430636 -0.27569364 -4.48909309 -0.12469703 0 0 Z " fill="#DCF9DC" transform="translate(87,260)"/>
<path d="M0 0 C2 1 2 1 3 3 C2.45730469 3.18175781 1.91460937 3.36351562 1.35546875 3.55078125 C0.28232422 3.92783203 0.28232422 3.92783203 -0.8125 4.3125 C-1.52019531 4.55613281 -2.22789062 4.79976562 -2.95703125 5.05078125 C-5.14890927 6.06918729 -6.32798132 7.28965424 -8 9 C-8.66 9 -9.32 9 -10 9 C-8.60064115 5.59635112 -7.12995268 4.09193812 -4 2.1875 C-3.29875 1.74792969 -2.5975 1.30835938 -1.875 0.85546875 C-1.25625 0.57316406 -0.6375 0.29085937 0 0 Z " fill="#533849" transform="translate(177,224)"/>
<path d="M0 0 C4.92127034 -0.16682272 8.50343896 -0.24828052 13 2 C13 2.33 13 2.66 13 3 C11.39667209 3.08121924 9.79215974 3.13929134 8.1875 3.1875 C7.29417969 3.22230469 6.40085938 3.25710938 5.48046875 3.29296875 C2.58352485 2.95081002 1.77444972 2.24606427 0 0 Z " fill="#B4C38B" transform="translate(142,263)"/>
<path d="M0 0 C-0.875 3.875 -0.875 3.875 -2 5 C-3.66617115 5.04063832 -5.33388095 5.042721 -7 5 C-6.625 3.0625 -6.625 3.0625 -6 1 C-4 0 -4 0 0 0 Z " fill="#B3C28A" transform="translate(153,286)"/>
<path d="M0 0 C0.66 0 1.32 0 2 0 C1.690625 0.680625 1.38125 1.36125 1.0625 2.0625 C-0.13370649 5.36965912 -0.59005397 8.51545878 -1 12 C-1.66 12 -2.32 12 -3 12 C-3.29162929 7.04230204 -3.12940055 3.97193147 0 0 Z " fill="#C6A199" transform="translate(250,457)"/>
<path d="M0 0 C0.33 0 0.66 0 1 0 C1.22197585 2.10277123 1.42713637 4.20732302 1.625 6.3125 C1.74101562 7.48425781 1.85703125 8.65601563 1.9765625 9.86328125 C2 13 2 13 0 16 C-0.19672365 14.27185839 -0.38196799 12.54240803 -0.5625 10.8125 C-0.71912109 9.36810547 -0.71912109 9.36810547 -0.87890625 7.89453125 C-0.99758751 5.05766623 -0.67765639 2.74576329 0 0 Z " fill="#85636F" transform="translate(303,383)"/>
<path d="M0 0 C0.33 0.66 0.66 1.32 1 2 C-1.64 2.66 -4.28 3.32 -7 4 C-7 3.34 -7 2.68 -7 2 C-7.66 1.67 -8.32 1.34 -9 1 C-2.25 -1.125 -2.25 -1.125 0 0 Z " fill="#592031" transform="translate(290,245)"/>
<path d="M0 0 C4.38889325 0.66498383 7.9811485 2.18757677 12 4 C11.67 4.99 11.34 5.98 11 7 C7.37 5.02 3.74 3.04 0 1 C0 0.67 0 0.34 0 0 Z " fill="#C0FEFF" transform="translate(147,218)"/>
<path d="M0 0 C0.66 0 1.32 0 2 0 C1.34 3.63 0.68 7.26 0 11 C-2 9 -2 9 -2.25 6.0625 C-2 3 -2 3 0 0 Z " fill="#C5A098" transform="translate(333,460)"/>
<path d="M0 0 C0.99 0.33 1.98 0.66 3 1 C-0.63 3.31 -4.26 5.62 -8 8 C-5.79795605 3.59591211 -4.23481604 2.33347006 0 0 Z " fill="#4D1D2F" transform="translate(241,212)"/>
<path d="M0 0 C0.515625 0.391875 1.03125 0.78375 1.5625 1.1875 C-5.86607143 3.61607143 -5.86607143 3.61607143 -9.4375 2.1875 C-3.0375 -1.0125 -3.0375 -1.0125 0 0 Z " fill="#4D1B2F" transform="translate(226.4375,242.8125)"/>
</svg>
