<?xml version="1.0" encoding="UTF-8"?>
<svg version="1.1" xmlns="http://www.w3.org/2000/svg" width="512" height="512">
<path d="M0 0 C2.22556211 -0.00968583 4.4501924 -0.04071094 6.67553711 -0.07226562 C8.10066186 -0.07879834 9.52579319 -0.08404776 10.95092773 -0.08789062 C12.2410376 -0.09723633 13.53114746 -0.10658203 14.86035156 -0.11621094 C20.29191632 0.42594292 23.40791642 2.07121357 26.98608398 6.15820312 C27.77211664 7.23899803 28.54550241 8.3290965 29.30639648 9.42773438 C29.70858398 9.98654297 30.11077148 10.54535156 30.52514648 11.12109375 C31.50516545 12.48612016 32.46990421 13.86209545 33.43139648 15.24023438 C33.76139648 12.27023438 34.09139648 9.30023437 34.43139648 6.24023438 C37.66107028 6.15911699 40.88869662 6.09967846 44.11889648 6.05273438 C45.48691406 6.0150293 45.48691406 6.0150293 46.88256836 5.9765625 C47.76879883 5.96689453 48.6550293 5.95722656 49.56811523 5.94726562 C50.37982178 5.93155518 51.19152832 5.91584473 52.02783203 5.8996582 C55.22103995 6.35212393 56.8334306 7.30222905 59.43139648 9.24023438 C60.3567673 10.94549658 61.27703624 12.65561079 62.1071825 14.40920353 C64.06120744 18.34767016 66.11997582 22.26027101 70.3208046 24.04127884 C75.92154645 25.27194566 81.63326703 24.9226396 87.32592773 24.71289062 C89.16431396 24.69436417 91.00276688 24.68163544 92.8412323 24.67442322 C96.68020845 24.64552443 100.51457292 24.57188725 104.35205078 24.46118164 C109.26955238 24.31937186 114.18432301 24.25146808 119.10361195 24.21199894 C123.80309232 24.17245862 128.50192681 24.10219208 133.20092773 24.02539062 C134.543058 24.00556468 134.543058 24.00556468 135.91230202 23.98533821 C138.44259388 23.94117562 140.97136811 23.87586548 143.50097656 23.80297852 C144.24856735 23.79176971 144.99615814 23.78056091 145.7664032 23.76901245 C149.98383396 23.62032867 152.29576507 23.07094793 155.43139648 20.24023438 C159.77737471 18.79157496 164.03514896 18.35130384 168.36889648 19.95898438 C172.33044486 22.07636368 175.2267795 24.33975817 177.43139648 28.24023438 C178.6478416 33.17312907 178.73599117 37.14727698 177.36889648 42.05273438 C174.6000739 46.60789411 171.60398756 49.51603735 166.43139648 51.24023438 C159.38078566 51.71492896 159.38078566 51.71492896 156.43139648 50.24023438 C156.02497925 51.31132446 156.02497925 51.31132446 155.61035156 52.40405273 C153.5263635 57.41744875 150.76861545 62.0708833 148.11889648 66.80273438 C147.54977539 67.84365234 146.9806543 68.88457031 146.39428711 69.95703125 C145.83290039 70.95927734 145.27151367 71.96152344 144.69311523 72.99414062 C144.1873999 73.90494385 143.68168457 74.81574707 143.16064453 75.75415039 C139.72568238 80.69248437 135.89248291 82.71889152 130.14404297 84.16308594 C128.89602402 84.48311584 127.64800507 84.80314575 126.36216736 85.13287354 C125.0090436 85.46594992 123.65581527 85.79860173 122.30249023 86.13085938 C120.90649457 86.48288121 119.51075099 86.83590407 118.11524963 87.18988037 C115.19787946 87.92709887 112.27857486 88.65584847 109.35742188 89.37792969 C105.61630274 90.3028656 101.879265 91.24314627 98.14340115 92.18906021 C95.26452822 92.91721136 92.3843526 93.64008379 89.50367928 94.36107635 C88.12515298 94.70619645 86.74686838 95.05228344 85.36883354 95.39936066 C83.44357047 95.88281743 81.51649791 96.35905093 79.58935547 96.83496094 C78.49413071 97.1071344 77.39890594 97.37930786 76.27049255 97.659729 C73.43139648 98.24023438 73.43139648 98.24023438 69.43139648 98.24023438 C69.09495117 99.18962891 69.09495117 99.18962891 68.75170898 100.15820312 C66.90723371 104.46379777 64.60424346 108.47518238 62.30639648 112.55273438 C61.8384668 113.38869141 61.37053711 114.22464844 60.88842773 115.0859375 C59.73877058 117.1388967 58.58635847 119.1902564 57.43139648 121.24023438 C77.53393136 123.20274599 90.88588165 122.63449199 107.69677734 110.97558594 C118.13821647 104.02877801 127.78020081 102.94561152 140.11401367 104.66137695 C143.31234593 105.46028612 145.23459036 106.80904099 147.43139648 109.24023438 C148.88570637 112.60332598 148.48811282 114.06703611 147.34155273 117.56835938 C145.44571429 121.80823418 142.5690559 124.01085497 138.86889648 126.67773438 C137.59797193 127.63724897 136.32713899 128.59688494 135.05639648 129.55664062 C133.84842228 130.45165678 132.64011796 131.34622766 131.43139648 132.24023438 C124.81789454 137.22919878 118.9249925 142.61469692 113.12670898 148.51074219 C109.07008137 152.63272121 104.92500574 156.59113173 100.43139648 160.24023438 C99.86549805 160.77390625 99.29959961 161.30757812 98.71655273 161.85742188 C93.27399477 165.15086721 85.54716293 164.37846354 79.33764648 164.33789062 C78.50551636 164.33647568 77.67338623 164.33506073 76.81604004 164.33360291 C74.18778718 164.32805605 71.5596231 164.31551383 68.93139648 164.30273438 C67.13712689 164.29771249 65.34285595 164.2931508 63.54858398 164.2890625 C59.17615453 164.27810409 54.8037905 164.26087685 50.43139648 164.24023438 C50.44009766 165.49360596 50.44879883 166.74697754 50.45776367 168.03833008 C50.54304746 185.34823336 50.54304746 185.34823336 49.68139648 193.42773438 C49.55595459 194.68589966 49.55595459 194.68589966 49.42797852 195.96948242 C48.26913659 206.79821644 46.35362078 217.52530286 44.43139648 228.24023438 C45.3131958 228.51246826 46.19499512 228.78470215 47.10351562 229.06518555 C50.2013474 230.15900583 52.82671277 231.42373494 55.67749023 233.04101562 C56.66837646 233.59934082 57.6592627 234.15766602 58.68017578 234.73291016 C59.73245361 235.33345215 60.78473145 235.93399414 61.86889648 236.55273438 C64.11350694 237.82779301 66.35830286 239.10252522 68.60327148 240.37695312 C69.73958008 241.02325684 70.87588867 241.66956055 72.04663086 242.33544922 C75.24618915 244.13600849 78.4651006 245.89311937 81.69702148 247.63476562 C92.45742659 253.47467596 101.97131744 259.47615199 110.92016602 267.84570312 C113.41595042 270.14875975 116.00846171 272.31770088 118.61889648 274.49023438 C119.47870117 275.21726562 120.33850586 275.94429688 121.22436523 276.69335938 C123.39165123 278.52720868 123.39165123 278.52720868 126.43139648 278.24023438 C127.98534314 276.30510228 127.98534314 276.30510228 129.36889648 273.86523438 C131.40687398 270.44143218 132.70662366 268.70864227 136.43139648 267.24023438 C142.86250951 267.05408711 149.48348914 269.01725884 155.68139648 270.55273438 C156.98850586 270.8534082 156.98850586 270.8534082 158.32202148 271.16015625 C163.13168919 272.34424365 167.08946269 273.3569073 170.43139648 277.24023438 C171.95949916 282.52135724 171.37363265 285.47077192 168.80639648 290.24023438 C168.49935791 290.81999023 168.19231934 291.39974609 167.87597656 291.99707031 C166.75257666 294.09265862 165.59515026 296.16678261 164.43139648 298.24023438 C163.9526709 299.09810547 163.47394531 299.95597656 162.98071289 300.83984375 C160.25252643 305.71763974 157.49852384 310.57985677 154.72436523 315.43164062 C152.61787092 319.12428777 150.55524413 322.83435579 148.54467773 326.58007812 C148.10099854 327.4015332 147.65731934 328.22298828 147.20019531 329.06933594 C146.37998881 330.59390682 145.56802721 332.12295503 144.76611328 333.65722656 C142.5519416 337.75133705 140.59252317 340.87206375 136.43139648 343.24023438 C131.80379315 344.09925056 129.09114072 343.2939856 125.22436523 340.85351562 C123.67722801 339.77016707 122.14261029 338.66878721 120.61889648 337.55273438 C119.79719971 336.97056152 118.97550293 336.38838867 118.12890625 335.78857422 C115.55078897 333.95560742 112.99031122 332.09988808 110.43139648 330.24023438 C108.80178508 329.06883059 107.17159123 327.89823658 105.54077148 326.72851562 C102.57858619 324.59964439 99.6247372 322.46003755 96.67749023 320.31054688 C96.02517426 319.84672104 95.37285828 319.3828952 94.70077515 318.90501404 C93.20254363 317.80593551 91.73691599 316.66079874 90.31016541 315.47039795 C83.3670565 309.97100289 77.4511969 308.99663597 68.75170898 308.49804688 C67.46255585 308.39934296 66.17340271 308.30063904 64.84518433 308.19894409 C61.44179358 307.93866017 58.03699502 307.71521381 54.63049316 307.50006104 C51.19402074 307.27667314 47.76015565 307.0189099 44.32592773 306.76367188 C38.12618864 306.30682054 31.92451355 305.88541902 25.72149658 305.47564697 C22.55883556 305.24935287 19.40473744 304.97053359 16.24731445 304.68115234 C15.26739532 304.60746429 14.2874762 304.53377625 13.27786255 304.45785522 C11.45860744 304.31876773 9.64149722 304.14412084 7.83029175 303.92373657 C-0.67374998 303.27859686 -7.50943556 306.82142796 -14.99933243 310.35113335 C-19.13967054 312.28967715 -23.32387027 314.1294468 -27.50463867 315.97875977 C-28.38182241 316.36776994 -29.25900616 316.75678011 -30.16277122 317.15757847 C-59.71605895 330.22480199 -86.49111674 340.66187553 -119.19360352 339.30273438 C-120.21942787 339.26036148 -120.21942787 339.26036148 -121.26597595 339.21713257 C-129.39666627 338.85478718 -137.48772253 338.21551311 -145.56860352 337.24023438 C-146.00885864 338.6088562 -146.00885864 338.6088562 -146.45800781 340.00512695 C-147.78186676 343.8614591 -149.48981603 347.32680848 -151.38110352 350.92773438 C-151.71174805 351.59095703 -152.04239258 352.25417969 -152.38305664 352.9375 C-154.50339137 356.97875219 -156.19366394 359.43277759 -160.56860352 361.24023438 C-164.38110352 361.92773438 -164.38110352 361.92773438 -167.56860352 362.24023438 C-129.60877241 387.35634514 -89.15042512 404.70591704 -43.56860352 409.24023438 C-42.49223633 409.35238281 -41.41586914 409.46453125 -40.30688477 409.58007812 C-15.35583619 411.77721509 9.88837403 410.10146722 34.43139648 405.24023438 C35.11975586 405.10391602 35.80811523 404.96759766 36.51733398 404.82714844 C92.90281215 393.31068049 147.27275004 359.96469167 182.43139648 314.24023438 C183.04700439 313.44721924 183.04700439 313.44721924 183.67504883 312.63818359 C199.41481547 292.24924123 211.47573009 269.96011069 221.43139648 246.24023438 C227.61300253 246.77776534 232.75825448 248.78605826 238.43139648 251.24023438 C237.84630321 256.7156595 235.90221432 261.11728692 233.61889648 266.05273438 C233.27536133 266.80876953 232.93182617 267.56480469 232.57788086 268.34375 C231.88623234 269.8658958 231.19207453 271.386904 230.49536133 272.90673828 C228.77863783 276.67186982 227.10676153 280.45654479 225.43139648 284.24023438 C228.73139648 286.22023438 232.03139648 288.20023437 235.43139648 290.24023438 C233.89532367 294.08041641 232.29826115 297.4587177 230.30639648 301.05273438 C229.4981543 302.51646484 229.4981543 302.51646484 228.67358398 304.00976562 C228.26366211 304.74582031 227.85374023 305.481875 227.43139648 306.24023438 C223.19177135 304.92796945 219.37906093 303.25829813 215.43139648 301.24023438 C214.69276367 302.305 213.95413086 303.36976563 213.19311523 304.46679688 C199.51299517 324.08846559 184.50057774 341.48456869 167.43139648 358.24023438 C168.95864933 363.29265573 172.03711622 366.52839954 175.49389648 370.36523438 C176.67479965 371.70009741 177.85448061 373.03604264 179.03295898 374.37304688 C179.90162598 375.3557959 179.90162598 375.3557959 180.7878418 376.35839844 C183.77871279 379.78288352 186.62413074 383.3209571 189.48608398 386.85351562 C192.07773496 390.03323198 194.7449202 393.14045405 197.43139648 396.24023438 C201.64345642 393.58281725 205.09094561 390.81945625 208.61108398 387.25585938 C209.53920898 386.32128906 210.46733398 385.38671875 211.42358398 384.42382812 C212.38463331 383.44607344 213.34556944 382.46820749 214.30639648 381.49023438 C215.29030328 380.4962811 216.27467432 379.50278715 217.25952148 378.50976562 C219.65474443 376.0910601 222.04515925 373.6678 224.43139648 371.24023438 C229.90174862 375.03060527 234.33102075 378.9905109 238.43139648 384.24023438 C235.02082516 387.67577046 231.60679458 391.10782002 228.18969727 394.53686523 C227.0308933 395.70065711 225.87299326 396.86534986 224.71606445 398.03100586 C218.47018526 404.32277095 212.24695197 410.55749694 205.43139648 416.24023438 C204.82569824 416.75255615 204.22 417.26487793 203.59594727 417.79272461 C188.167111 430.75743101 171.84978804 442.1150669 154.43139648 452.24023438 C153.20090576 452.95928955 153.20090576 452.95928955 151.94555664 453.69287109 C73.6160926 499.05725231 -21.5179098 509.29847833 -108.56860352 486.24023438 C-114.98075499 484.46412093 -121.27986073 482.4084987 -127.56860352 480.24023438 C-128.40214355 479.95986328 -129.23568359 479.67949219 -130.09448242 479.390625 C-166.58667349 467.0609867 -200.56045303 448.39617294 -230.56860352 424.24023438 C-231.4490332 423.551875 -232.32946289 422.86351562 -233.23657227 422.15429688 C-247.68347472 410.67359744 -260.62447693 397.35344621 -273.56860352 384.24023438 C-269.46822779 378.9905109 -265.03895565 375.03060527 -259.56860352 371.24023438 C-258.8928125 371.92649902 -258.21702148 372.61276367 -257.52075195 373.31982422 C-255.00618471 375.8706598 -252.48494842 378.41481491 -249.96166992 380.95703125 C-248.871629 382.05711415 -247.78339187 383.15898749 -246.69702148 384.26269531 C-245.13291512 385.85112904 -243.56238143 387.43295777 -241.99047852 389.01367188 C-241.26680084 389.7528334 -241.26680084 389.7528334 -240.52850342 390.50692749 C-238.05218728 392.98405653 -235.83326069 394.91690626 -232.56860352 396.24023438 C-222.280218 384.45709115 -212.31235811 372.47966453 -202.56860352 360.24023438 C-204.00867276 356.92378121 -205.79315549 354.80306014 -208.38500977 352.29882812 C-209.14467041 351.55624756 -209.90433105 350.81366699 -210.68701172 350.04858398 C-211.49356201 349.26620361 -212.3001123 348.48382324 -213.13110352 347.67773438 C-219.75817489 341.14152481 -225.93349845 334.6574663 -231.56860352 327.24023438 C-232.63803483 325.86324747 -233.70842921 324.48700824 -234.77954102 323.11132812 C-240.29705783 315.99335778 -245.79600551 308.88946679 -250.56860352 301.24023438 C-251.26727539 301.60117187 -251.96594727 301.96210938 -252.68579102 302.33398438 C-253.59586914 302.79804688 -254.50594727 303.26210938 -255.44360352 303.74023438 C-256.34852539 304.20429688 -257.25344727 304.66835938 -258.18579102 305.14648438 C-260.56860352 306.24023438 -260.56860352 306.24023438 -262.56860352 306.24023438 C-263.93540505 303.97618895 -265.28704797 301.70522416 -266.63110352 299.42773438 C-267.02104492 298.78513672 -267.41098633 298.14253906 -267.81274414 297.48046875 C-268.8099111 295.77734288 -269.69673038 294.0107758 -270.56860352 292.24023438 C-269.33597003 288.54233392 -268.36807901 288.30474977 -265.00610352 286.55273438 C-264.17981445 286.11574219 -263.35352539 285.67875 -262.50219727 285.22851562 C-261.86411133 284.90238281 -261.22602539 284.57625 -260.56860352 284.24023438 C-260.9461377 283.40214233 -260.9461377 283.40214233 -261.33129883 282.54711914 C-262.49396256 279.96576055 -263.65628463 277.38424826 -264.81860352 274.80273438 C-265.2143457 273.92423828 -265.61008789 273.04574219 -266.01782227 272.140625 C-266.81243481 270.37554303 -267.60475188 268.60942588 -268.39477539 266.84228516 C-269.16895922 265.12613473 -269.95647493 263.415928 -270.75805664 261.71240234 C-271.12350586 260.92623535 -271.48895508 260.14006836 -271.86547852 259.33007812 C-272.19386719 258.63648193 -272.52225586 257.94288574 -272.8605957 257.22827148 C-273.56860352 255.24023438 -273.56860352 255.24023438 -273.56860352 251.24023438 C-271.48860341 250.39861583 -269.40446205 249.56722675 -267.31860352 248.74023438 C-266.15844727 248.27617187 -264.99829102 247.81210938 -263.80297852 247.33398438 C-260.56860352 246.24023438 -260.56860352 246.24023438 -256.56860352 246.24023438 C-256.34833496 246.74659424 -256.12806641 247.2529541 -255.90112305 247.7746582 C-239.65375694 284.94311861 -218.450037 315.87047983 -189.56860352 344.24023438 C-187.48306856 335.02831757 -186.44472759 325.68666885 -185.39404297 316.31274414 C-185.16202033 314.25983267 -184.91524532 312.20911693 -184.66625977 310.15820312 C-184.52712158 308.9493042 -184.3879834 307.74040527 -184.24462891 306.49487305 C-183.53305461 303.06908867 -182.70671884 300.99871973 -180.56860352 298.24023438 C-178.45898437 296.90991211 -178.45898437 296.90991211 -176.03344727 295.92382812 C-174.69443359 295.36598633 -174.69443359 295.36598633 -173.32836914 294.796875 C-171.93134766 294.24290039 -171.93134766 294.24290039 -170.50610352 293.67773438 C-169.60182617 293.30455078 -168.69754883 292.93136719 -167.76586914 292.546875 C-165.93799404 291.79560396 -164.10545665 291.05558178 -162.26855469 290.32666016 C-160.52269407 289.6241482 -158.78723753 288.89494241 -157.06591797 288.13427734 C-150.73594021 285.39088756 -144.71746244 284.25332106 -137.88110352 283.49023438 C-136.88788086 283.36519531 -135.8946582 283.24015625 -134.87133789 283.11132812 C-129.72910511 282.48947672 -124.75559812 282.1874161 -119.56860352 282.24023438 C-119.65239258 280.9758252 -119.73618164 279.71141602 -119.82250977 278.40869141 C-121.66232073 247.80036484 -118.49927418 224.34795664 -105.87915039 196.47070312 C-102.20000089 188.2680855 -99.06677088 179.84511029 -95.8581543 171.45043945 C-94.22584262 167.19485187 -92.56240622 162.95160058 -90.89672852 158.70898438 C-90.60020386 157.95266724 -90.3036792 157.1963501 -89.99816895 156.41711426 C-87.87846824 151.01539369 -85.73960097 145.62157294 -83.56860352 140.24023438 C-96.41610103 138.99336422 -107.39132779 141.96485891 -119.14727783 146.85250854 C-120.66453822 147.48035503 -122.18984076 148.08914536 -123.72283936 148.67752075 C-133.45549706 152.38602916 -133.45549706 152.38602916 -139.76489258 160.23193359 C-140.86266318 163.0294392 -141.67829615 165.83777794 -142.43237305 168.74389648 C-143.64007879 172.46017366 -144.16232462 173.49617411 -147.56860352 175.24023438 C-151.40358167 176.61526128 -155.36531426 177.51376245 -159.31860352 178.49023438 C-160.37821289 178.77125 -161.43782227 179.05226562 -162.52954102 179.34179688 C-168.60653579 180.86481542 -173.43353647 181.73693658 -179.56860352 180.24023438 C-182.13110352 177.74023438 -182.13110352 177.74023438 -183.56860352 174.24023438 C-183.61677096 167.5508753 -181.66739703 160.89805321 -179.94360352 154.49023438 C-179.7205957 153.59046875 -179.49758789 152.69070312 -179.26782227 151.76367188 C-178.49212706 148.86610143 -177.57027558 146.06751558 -176.56860352 143.24023438 C-176.23675049 142.22493652 -175.90489746 141.20963867 -175.56298828 140.16357422 C-170.37505507 127.80577952 -158.67395143 122.15957686 -147.75610352 115.36523438 C-145.75105721 114.089399 -143.74778459 112.81077169 -141.74633789 111.52929688 C-138.91377264 109.7166411 -136.0795441 107.90804606 -133.23051453 106.12136841 C-132.37295059 105.58325531 -131.51538666 105.04514221 -130.63183594 104.49072266 C-129.78954437 103.96399963 -128.94725281 103.43727661 -128.07943726 102.89459229 C-126.37447612 101.77121406 -124.70996608 100.58445237 -123.08731079 99.34515381 C-116.98553273 94.69066314 -112.16755336 92.99345425 -104.56860352 92.24023438 C-103.55098938 92.11793457 -102.53337524 91.99563477 -101.48492432 91.86962891 C-98.13280152 91.47950652 -94.77831815 91.13679769 -91.42016602 90.80273438 C-88.92665997 90.5450811 -86.43317087 90.28726384 -83.93969727 90.02929688 C-80.04916882 89.63181102 -76.15842275 89.23669048 -72.26733398 88.84472656 C-68.48427113 88.46200425 -64.70220925 88.07038609 -60.92016602 87.67773438 C-59.7555484 87.56308838 -58.59093079 87.44844238 -57.39102173 87.33032227 C-56.30574188 87.2168042 -55.22046204 87.10328613 -54.10229492 86.98632812 C-53.15174225 86.8902124 -52.20118958 86.79409668 -51.22183228 86.69506836 C-45.0202865 85.63195845 -42.2597686 83.13211359 -38.63110352 78.17773438 C-37.66444607 76.9027077 -36.69559313 75.62934335 -35.72485352 74.35742188 C-35.21438477 73.68549805 -34.70391602 73.01357422 -34.17797852 72.32128906 C-31.41306482 68.74602749 -28.51913311 65.27870557 -25.63110352 61.80273438 C-19.18614004 54.02000263 -12.8556454 46.15085301 -6.56860352 38.24023438 C-7.39982871 36.69743004 -8.23378454 35.15609706 -9.06860352 33.61523438 C-9.60743164 32.6175 -10.14625977 31.61976562 -10.70141602 30.59179688 C-12.01255236 28.23833457 -13.34633326 25.9358111 -14.74829102 23.63867188 C-15.11245117 23.0323291 -15.47661133 22.42598633 -15.85180664 21.80126953 C-16.90083262 20.06118127 -17.96488282 18.33017738 -19.02954102 16.59960938 C-20.76778444 12.80547398 -20.99912585 10.36731055 -20.56860352 6.24023438 C-15.6571871 -1.55028821 -8.2628747 0.02178023 0 0 Z M-187.56860352 371.24023438 C-189.50032586 373.30455545 -191.32399805 375.38320108 -193.13110352 377.55273438 C-193.66977051 378.19065918 -194.2084375 378.82858398 -194.76342773 379.48583984 C-198.66171257 384.11541468 -202.50682512 388.78848519 -206.32250977 393.48632812 C-210.36220872 398.43935032 -214.46932362 403.33650289 -218.56860352 408.24023438 C-217.22588026 411.35300559 -215.91401194 413.0369032 -213.17407227 415.01757812 C-212.47693115 415.52434082 -211.77979004 416.03110352 -211.06152344 416.55322266 C-209.92034058 417.35735596 -209.92034058 417.35735596 -208.75610352 418.17773438 C-207.95857666 418.74476074 -207.1610498 419.31178711 -206.33935547 419.89599609 C-187.81240864 432.90523237 -168.18598987 444.20202472 -147.50610352 453.42773438 C-146.53290161 453.86545166 -146.53290161 453.86545166 -145.54003906 454.31201172 C-142.24263888 455.73258004 -140.2402267 456.24023438 -136.56860352 456.24023438 C-134.6278919 450.99391927 -132.68907875 445.74690782 -130.75195312 440.49926758 C-130.09393454 438.7175036 -129.43541504 436.93592453 -128.77636719 435.15454102 C-127.82425417 432.58073664 -126.87399843 430.0062528 -125.92407227 427.43164062 C-125.63332321 426.64688858 -125.34257416 425.86213654 -125.04301453 425.05360413 C-123.11306814 419.81562435 -121.30405667 414.54577102 -119.56860352 409.24023438 C-120.6243457 408.79035156 -121.68008789 408.34046875 -122.76782227 407.87695312 C-144.54743646 398.4730263 -165.72112757 387.61313099 -184.03735352 372.34960938 C-185.52339189 371.0446688 -185.52339189 371.0446688 -187.56860352 371.24023438 Z M144.93139648 375.55273438 C133.35057059 384.66663878 120.57409593 391.77240719 107.55639648 398.61523438 C106.63036621 399.1029834 105.70433594 399.59073242 104.75024414 400.09326172 C98.12177899 403.51877338 91.35499112 406.46322975 84.43139648 409.24023438 C89.80633802 425.02537167 95.37776802 440.70203816 101.43139648 456.24023438 C105.50642491 455.68343285 108.89585993 454.79285767 112.63452148 453.08789062 C113.60542725 452.64662842 114.57633301 452.20536621 115.57666016 451.75073242 C116.60122314 451.27289307 117.62578613 450.79505371 118.68139648 450.30273438 C119.75043213 449.80620361 120.81946777 449.30967285 121.92089844 448.7980957 C143.97122019 438.43340554 164.4461863 425.52702699 183.43139648 410.24023438 C181.77952769 406.32294552 179.12709669 403.34942968 176.36889648 400.17773438 C175.3694702 399.01299439 174.37078284 397.84761997 173.37280273 396.68164062 C172.87538574 396.10172363 172.37796875 395.52180664 171.86547852 394.92431641 C169.81322703 392.51430096 167.80735826 390.06791239 165.80639648 387.61523438 C165.0909668 386.73996094 164.37553711 385.8646875 163.63842773 384.96289062 C162.06363594 383.02018288 160.49969425 381.06865904 158.94311523 379.11132812 C158.13487305 378.10199219 157.32663086 377.09265625 156.49389648 376.05273438 C155.76299805 375.13105469 155.03209961 374.209375 154.27905273 373.25976562 C153.66932617 372.59332031 153.05959961 371.926875 152.43139648 371.24023438 C149.16460286 371.24023438 147.42013932 373.532202 144.93139648 375.55273438 Z M-102.56860352 416.24023438 C-106.2796841 424.22412239 -109.3944138 432.41236856 -112.47949219 440.65307617 C-113.08462394 442.26364753 -113.69472075 443.87236144 -114.30957031 445.47924805 C-115.20475763 447.81888286 -116.0855315 450.16348735 -116.96313477 452.50976562 C-117.24010696 453.22646927 -117.51707916 453.94317291 -117.80244446 454.68159485 C-119.59868719 459.4376926 -119.59868719 459.4376926 -118.56860352 464.24023438 C-96.43198253 470.77838432 -74.30908599 475.95649091 -51.31860352 478.55273438 C-50.32159424 478.6675415 -50.32159424 478.6675415 -49.30444336 478.78466797 C-41.69650445 479.52151885 -34.28654807 479.24023438 -26.56860352 479.24023438 C-26.56860352 462.74023438 -26.56860352 446.24023438 -26.56860352 429.24023438 C-34.73610352 428.40492188 -34.73610352 428.40492188 -43.06860352 427.55273438 C-57.79527771 425.96671329 -72.16054854 423.74226933 -86.56860352 420.24023438 C-87.4097168 420.03833496 -88.25083008 419.83643555 -89.11743164 419.62841797 C-93.61321215 418.54362849 -98.09599808 417.41758198 -102.56860352 416.24023438 Z M61.19702148 417.41210938 C38.04956238 424.05652507 15.39317418 427.04190615 -8.56860352 429.24023438 C-8.56860352 445.74023438 -8.56860352 462.24023438 -8.56860352 479.24023438 C5.4694238 479.25505987 5.4694238 479.25505987 19.30639648 478.05273438 C20.35956055 477.91963867 21.41272461 477.78654297 22.49780273 477.64941406 C43.28219015 474.90070957 63.35876911 470.24640186 83.43139648 464.24023438 C84.43412477 461.14624398 84.44095925 459.43035815 83.30737305 456.39306641 C83.03669006 455.65194611 82.76600708 454.91082581 82.48712158 454.14724731 C82.18513855 453.35551117 81.88315552 452.56377502 81.57202148 451.74804688 C81.26697693 450.924487 80.96193237 450.10092712 80.64764404 449.25241089 C80.00023539 447.51061651 79.34761298 445.77075247 78.69018555 444.03271484 C77.68918847 441.38583826 76.70342657 438.73369624 75.72045898 436.08007812 C75.08853463 434.3857362 74.45574969 432.69171494 73.82202148 430.99804688 C73.52813538 430.21035919 73.23424927 429.42267151 72.93145752 428.6111145 C71.31749692 424.35290926 69.55272066 420.27943504 67.43139648 416.24023438 C65.13326895 416.24023438 63.40515463 416.76526385 61.19702148 417.41210938 Z " fill="#D2D2D2" transform="translate(273.568603515625,6.759765625)"/>
<path d="M0 0 C0.22026855 0.50635986 0.44053711 1.01271973 0.66748047 1.53442383 C14.92106747 34.14179419 32.79495501 65.88125398 59.390625 90.12890625 C68.63121245 98.64228146 68.63121245 98.64228146 69 104.5 C68.9071875 105.66015625 68.9071875 105.66015625 68.8125 106.84375 C68.8293715 109.17396493 68.8293715 109.17396493 70.64453125 111.27734375 C73.62178349 113.45473718 75.04580543 113.25367731 78.6875 113.0625 C87.7364134 113.48714175 93.65226612 118.47277933 100.81933594 123.50244141 C133.63373324 146.03754139 173.5764865 159.07828923 213 163 C214.07636719 163.11214844 215.15273437 163.22429687 216.26171875 163.33984375 C241.21276732 165.53698072 266.45697754 163.86123285 291 159 C292.03253906 158.79552246 292.03253906 158.79552246 293.0859375 158.58691406 C349.47141567 147.07044612 403.84135355 113.7244573 439 68 C439.61560791 67.20698486 439.61560791 67.20698486 440.24365234 66.39794922 C455.98341899 46.00900686 468.0443336 23.71987632 478 0 C484.18160604 0.53753096 489.326858 2.54582388 495 5 C494.41490673 10.47542512 492.47081784 14.87705255 490.1875 19.8125 C489.84396484 20.56853516 489.50042969 21.32457031 489.14648438 22.10351562 C488.45483586 23.62566143 487.76067804 25.14666963 487.06396484 26.66650391 C485.34724134 30.43163544 483.67536504 34.21631041 482 38 C485.3 39.98 488.6 41.96 492 44 C490.46392719 47.84018203 488.86686467 51.21848332 486.875 54.8125 C486.33617187 55.78832031 485.79734375 56.76414062 485.2421875 57.76953125 C484.62730469 58.87361328 484.62730469 58.87361328 484 60 C479.76037486 58.68773508 475.94766444 57.01806376 472 55 C471.26136719 56.06476563 470.52273438 57.12953125 469.76171875 58.2265625 C456.08159869 77.84823122 441.06918126 95.24433432 424 112 C425.52725284 117.05242136 428.60571974 120.28816516 432.0625 124.125 C433.24340317 125.45986303 434.42308413 126.79580826 435.6015625 128.1328125 C436.18067383 128.78797852 436.75978516 129.44314453 437.35644531 130.11816406 C440.3473163 133.54264915 443.19273425 137.08072272 446.0546875 140.61328125 C448.64633848 143.79299761 451.31352372 146.90021967 454 150 C458.21205993 147.34258288 461.65954913 144.57922187 465.1796875 141.015625 C466.1078125 140.08105469 467.0359375 139.14648438 467.9921875 138.18359375 C468.95323683 137.20583907 469.91417296 136.22797312 470.875 135.25 C471.8589068 134.25604673 472.84327783 133.26255278 473.828125 132.26953125 C476.22334794 129.85082573 478.61376276 127.42756562 481 125 C486.47035213 128.79037089 490.89962427 132.75027653 495 138 C491.58942868 141.43553609 488.1753981 144.86758565 484.75830078 148.29663086 C483.59949681 149.46042274 482.44159678 150.62511549 481.28466797 151.79077148 C475.03878877 158.08253657 468.81555548 164.31726256 462 170 C461.39430176 170.51232178 460.78860352 171.02464355 460.16455078 171.55249023 C444.73571452 184.51719664 428.41839155 195.87483253 411 206 C409.76950928 206.71905518 409.76950928 206.71905518 408.51416016 207.45263672 C330.18469611 252.81701794 235.05069371 263.05824395 148 240 C141.58784852 238.22388656 135.28874278 236.16826433 129 234 C127.74968994 233.57944336 127.74968994 233.57944336 126.47412109 233.15039062 C89.98193003 220.82075232 56.00815048 202.15593856 26 178 C25.11957031 177.31164062 24.23914062 176.62328125 23.33203125 175.9140625 C8.8851288 164.43336306 -4.05587342 151.11321184 -17 138 C-12.89962427 132.75027653 -8.47035213 128.79037089 -3 125 C-1.98631348 126.02939697 -1.98631348 126.02939697 -0.95214844 127.07958984 C1.56241881 129.63042543 4.0836551 132.17458054 6.60693359 134.71679688 C7.69697451 135.81687978 8.78521164 136.91875311 9.87158203 138.02246094 C11.4356884 139.61089467 13.00622208 141.1927234 14.578125 142.7734375 C15.06057678 143.26621185 15.54302856 143.75898621 16.0401001 144.26669312 C18.51641624 146.74382216 20.73534283 148.67667189 24 150 C34.28838551 138.21685678 44.25624541 126.23943015 54 114 C52.55993075 110.68354684 50.77544802 108.56282576 48.18359375 106.05859375 C47.42393311 105.31601318 46.66427246 104.57343262 45.8815918 103.80834961 C45.0750415 103.02596924 44.26849121 102.24358887 43.4375 101.4375 C36.81042862 94.90129044 30.63510506 88.41723193 25 81 C23.93056868 79.6230131 22.8601743 78.24677387 21.7890625 76.87109375 C16.27154568 69.75312341 10.772598 62.64923242 6 55 C4.95199219 55.54140625 4.95199219 55.54140625 3.8828125 56.09375 C2.97273438 56.5578125 2.06265625 57.021875 1.125 57.5 C0.22007813 57.9640625 -0.68484375 58.428125 -1.6171875 58.90625 C-4 60 -4 60 -6 60 C-7.36680153 57.73595458 -8.71844445 55.46498979 -10.0625 53.1875 C-10.45244141 52.54490234 -10.84238281 51.90230469 -11.24414062 51.24023438 C-12.24130759 49.5371085 -13.12812687 47.77054142 -14 46 C-12.76736651 42.30209954 -11.79947549 42.0645154 -8.4375 40.3125 C-7.61121094 39.87550781 -6.78492188 39.43851562 -5.93359375 38.98828125 C-4.97646484 38.49908203 -4.97646484 38.49908203 -4 38 C-4.25168945 37.44127197 -4.50337891 36.88254395 -4.76269531 36.30688477 C-5.92535904 33.72552618 -7.08768112 31.14401388 -8.25 28.5625 C-8.64574219 27.68400391 -9.04148437 26.80550781 -9.44921875 25.90039062 C-10.2438313 24.13530865 -11.03614837 22.3691915 -11.82617188 20.60205078 C-12.6003557 18.88590036 -13.38787142 17.17569362 -14.18945312 15.47216797 C-14.55490234 14.68600098 -14.92035156 13.89983398 -15.296875 13.08984375 C-15.78945801 12.04944946 -15.78945801 12.04944946 -16.29199219 10.98803711 C-17 9 -17 9 -17 5 C-14.91999989 4.15838146 -12.83585854 3.32699237 -10.75 2.5 C-9.58984375 2.0359375 -8.4296875 1.571875 -7.234375 1.09375 C-4 0 -4 0 0 0 Z M69 125 C67.06827765 127.06432107 65.24460546 129.1429667 63.4375 131.3125 C62.89883301 131.9504248 62.36016602 132.58834961 61.80517578 133.24560547 C57.90689094 137.87518031 54.0617784 142.54825082 50.24609375 147.24609375 C46.2063948 152.19911594 42.0992799 157.09626851 38 162 C39.34272326 165.11277121 40.65459158 166.79666883 43.39453125 168.77734375 C44.09167236 169.28410645 44.78881348 169.79086914 45.50708008 170.31298828 C46.64826294 171.11712158 46.64826294 171.11712158 47.8125 171.9375 C48.61002686 172.50452637 49.40755371 173.07155273 50.22924805 173.65576172 C68.75619488 186.66499799 88.38261365 197.96179035 109.0625 207.1875 C110.0357019 207.62521729 110.0357019 207.62521729 111.02856445 208.07177734 C114.32596464 209.49234567 116.32837681 210 120 210 C121.94071161 204.7536849 123.87952477 199.50667344 125.81665039 194.2590332 C126.47466897 192.47726923 127.13318848 190.69569016 127.79223633 188.91430664 C128.74434935 186.34050226 129.69460509 183.76601842 130.64453125 181.19140625 C130.9352803 180.40665421 131.22602936 179.62190216 131.52558899 178.81336975 C133.45553538 173.57538998 135.26454685 168.30553665 137 163 C135.94425781 162.55011719 134.88851562 162.10023438 133.80078125 161.63671875 C112.02116706 152.23279193 90.84747594 141.37289662 72.53125 126.109375 C71.04521163 124.80443443 71.04521163 124.80443443 69 125 Z M401.5 129.3125 C389.9191741 138.4264044 377.14269945 145.53217281 364.125 152.375 C363.19896973 152.86274902 362.27293945 153.35049805 361.31884766 153.85302734 C354.69038251 157.278539 347.92359463 160.22299538 341 163 C346.37494153 178.7851373 351.94637154 194.46180379 358 210 C362.07502843 209.44319847 365.46446345 208.5526233 369.203125 206.84765625 C370.17403076 206.40639404 371.14493652 205.96513184 372.14526367 205.51049805 C373.16982666 205.03265869 374.19438965 204.55481934 375.25 204.0625 C376.31903564 203.56596924 377.38807129 203.06943848 378.48950195 202.55786133 C400.53982371 192.19317116 421.01478982 179.28679261 440 164 C438.3481312 160.08271114 435.69570021 157.1091953 432.9375 153.9375 C431.93807371 152.77276001 430.93938636 151.6073856 429.94140625 150.44140625 C429.44398926 149.86148926 428.94657227 149.28157227 428.43408203 148.68408203 C426.38183055 146.27406658 424.37596178 143.82767802 422.375 141.375 C421.65957031 140.49972656 420.94414062 139.62445313 420.20703125 138.72265625 C418.63223946 136.7799485 417.06829777 134.82842467 415.51171875 132.87109375 C414.70347656 131.86175781 413.89523437 130.85242188 413.0625 129.8125 C412.33160156 128.89082031 411.60070312 127.96914063 410.84765625 127.01953125 C410.23792969 126.35308594 409.62820313 125.68664062 409 125 C405.73320637 125 403.98874284 127.29196762 401.5 129.3125 Z M154 170 C150.28891941 177.98388801 147.17418972 186.17213418 144.08911133 194.4128418 C143.48397957 196.02341316 142.87388276 197.63212707 142.2590332 199.23901367 C141.36384589 201.57864848 140.48307202 203.92325298 139.60546875 206.26953125 C139.32849655 206.98623489 139.05152435 207.70293854 138.76615906 208.44136047 C136.96991632 213.19745822 136.96991632 213.19745822 138 218 C160.13662099 224.53814995 182.25951752 229.71625654 205.25 232.3125 C206.24700928 232.42730713 206.24700928 232.42730713 207.26416016 232.54443359 C214.87209907 233.28128447 222.28205545 233 230 233 C230 216.5 230 200 230 183 C221.8325 182.1646875 221.8325 182.1646875 213.5 181.3125 C198.77332581 179.72647892 184.40805498 177.50203495 170 174 C169.15888672 173.79810059 168.31777344 173.59620117 167.45117188 173.38818359 C162.95539136 172.30339412 158.47260543 171.17734761 154 170 Z M317.765625 171.171875 C294.6181659 177.81629069 271.96177769 180.80167177 248 183 C248 199.5 248 216 248 233 C262.03802731 233.0148255 262.03802731 233.0148255 275.875 231.8125 C276.92816406 231.6794043 277.98132813 231.54630859 279.06640625 231.40917969 C299.85079366 228.6604752 319.92737263 224.00616749 340 218 C341.00272828 214.9060096 341.00956277 213.19012377 339.87597656 210.15283203 C339.60529358 209.41171173 339.3346106 208.67059143 339.0557251 207.90701294 C338.75374207 207.11527679 338.45175903 206.32354065 338.140625 205.5078125 C337.83558044 204.68425262 337.53053589 203.86069275 337.21624756 203.01217651 C336.5688389 201.27038214 335.9162165 199.53051809 335.25878906 197.79248047 C334.25779199 195.14560388 333.27203009 192.49346186 332.2890625 189.83984375 C331.65713814 188.14550183 331.0243532 186.45148057 330.390625 184.7578125 C330.09673889 183.97012482 329.80285278 183.18243713 329.50006104 182.37088013 C327.88610044 178.11267488 326.12132418 174.03920066 324 170 C321.70187247 170 319.97375815 170.52502948 317.765625 171.171875 Z " fill="#454545" transform="translate(17,253)"/>
<path d="M0 0 C3.94426079 2.80649326 6.62139537 4.76339986 7.81640625 9.609375 C8.63416529 15.29064832 8.3077882 19.28194521 5.25 24.3125 C1.45056894 28.29827918 -1.91273599 30.12565959 -7.4375 30.6875 C-12.38285448 30.62363011 -16.10867005 28.58243044 -19.75 25.3125 C-23.14199096 20.68563676 -23.37264241 16.93877456 -23.234375 11.33203125 C-22.46601926 6.54220074 -20.28982357 3.53973771 -16.75 0.3125 C-11.6310145 -2.92054347 -5.27031931 -2.79349543 0 0 Z " fill="#454545" transform="translate(443.75,27.6875)"/>
<path d="M0 0 C2.5 1.5 2.5 1.5 4 4 C4.791013 8.02098277 4.62153384 10.96411027 2.5 14.5 C-1.03588973 16.62153384 -3.97901723 16.791013 -8 16 C-10.5 14.5 -10.5 14.5 -12 12 C-12.791013 7.97901723 -12.62153384 5.03588973 -10.5 1.5 C-6.96411027 -0.62153384 -4.02098277 -0.791013 0 0 Z " fill="#474747" transform="translate(335,47)"/>
</svg>
